<svg width="46" height="46" viewBox="0 0 46 46" fill="none" xmlns="http://www.w3.org/2000/svg">
<g clip-path="url(#clip0_4920_2998)">
<path d="M42.7306 30.6465C44.4068 29.2699 45.5 27.2082 45.5 24.875C45.5 20.7395 42.1355 17.375 38 17.375C35.7494 17.375 33.7509 18.3921 32.375 19.967V13.625C32.375 11.5568 30.6932 9.87494 28.625 9.87494C26.5568 9.87494 24.875 11.5567 24.875 13.625V19.25H15.5V13.625C15.5 11.5568 13.8182 9.87494 11.75 9.87494H4.25003C2.18179 9.87503 0.5 11.5568 0.5 13.625C0.5 15.6931 2.18179 17.375 4.25003 17.375H6.67985C6.03544 18.0606 5.49623 18.8744 5.07427 19.7972C5.074 19.7978 5.07339 19.7979 5.07339 19.7979C4.5275 20.996 4.25012 22.2346 4.25012 23.4871C4.25012 26.3499 5.63369 28.8735 7.74201 30.5001H4.25012C2.18179 30.5 0.5 32.1818 0.5 34.25V35.1875C0.499919 35.3107 0.524114 35.4326 0.571201 35.5464C0.618287 35.6602 0.687342 35.7636 0.774416 35.8506C0.86149 35.9377 0.964874 36.0068 1.07866 36.0539C1.19244 36.1009 1.31439 36.1251 1.43753 36.1251H44.5626C44.6857 36.1251 44.8076 36.1009 44.9214 36.0539C45.0352 36.0068 45.1386 35.9377 45.2257 35.8506C45.3127 35.7636 45.3818 35.6602 45.4289 35.5464C45.476 35.4326 45.5002 35.3107 45.5001 35.1875V34.25C45.5 32.5232 44.3214 31.0807 42.7306 30.6465ZM13.625 30.5H13.1379C9.27069 30.5 6.12491 27.3542 6.12491 23.4806C6.12491 22.6914 6.26861 21.9013 6.55338 21.1249H13.6249L13.625 30.5ZM30.3907 30.5C30.897 30.0053 31.3037 29.4199 31.63 28.7845C32.0284 29.4312 32.5225 30.0025 33.092 30.5H30.3907Z" fill="#148A8B"/>
</g>
<defs>
<clipPath id="clip0_4920_2998">
<rect width="45" height="45" fill="white" transform="translate(0.5 0.5)"/>
</clipPath>
</defs>
</svg>
