<svg width="46" height="46" viewBox="0 0 46 46" fill="none" xmlns="http://www.w3.org/2000/svg">
<g clip-path="url(#clip0_4920_3022)">
<path d="M37.1813 20.5372C36.8637 20.3633 36.4708 20.3898 36.1771 20.605C33.7796 22.3573 31.8631 23.671 30.6386 24.4035C28.5146 25.6742 25.324 27.2499 23.0202 28.3485C22.7301 28.4876 22.53 28.7651 22.4932 29.0846C22.4744 29.2415 22.4956 29.4007 22.555 29.5472C22.6144 29.6937 22.71 29.8228 22.8329 29.9223C26.989 33.2859 31.7291 36.4967 34.1834 38.1108C34.3373 38.2114 34.5172 38.2652 34.7011 38.2655C34.7819 38.2655 34.8645 38.2554 34.9434 38.2334C35.0718 38.1995 35.1916 38.1388 35.2948 38.0551C35.398 37.9714 35.4822 37.8668 35.5418 37.7481C36.2138 36.4124 36.6653 35.0117 36.8838 33.5862L37.0581 32.4271L37.6713 21.4132C37.6812 21.2358 37.6403 21.0591 37.5536 20.904C37.4668 20.7489 37.3377 20.6217 37.1813 20.5372ZM33.0673 39.625C30.4256 37.8901 23.7654 33.3939 18.9998 29.1322C15.0896 25.6367 11.8641 21.971 9.84658 19.5109C9.58959 19.196 9.15453 19.0843 8.78003 19.2298C8.59522 19.3013 8.43777 19.4294 8.33027 19.5959C8.22276 19.7623 8.17071 19.9585 8.18158 20.1564L8.87363 32.5179L9.03886 33.5863C10.1018 40.4894 15.9579 45.5 22.9614 45.5C26.833 45.5 30.578 43.8777 33.2362 41.0487C33.3296 40.9492 33.4 40.8303 33.4425 40.7006C33.4851 40.5709 33.4986 40.4334 33.4822 40.2979C33.4666 40.1622 33.4214 40.0316 33.3497 39.9153C33.278 39.799 33.1815 39.6999 33.0673 39.625ZM22.9614 0.5C15.2621 0.5 8.83698 6.25139 8.0145 13.8786C7.97776 14.2238 7.99244 14.4416 8.28072 14.6367C8.34681 14.709 8.50651 14.9132 8.75252 15.2235C10.1587 17.0033 14.4397 22.4196 19.6735 27.2069C19.8468 27.3658 20.0736 27.4537 20.3087 27.4532C20.4446 27.4532 20.5804 27.4239 20.7071 27.3653C22.5172 26.5202 27.0167 24.3834 29.6712 22.795C31.9182 21.4519 35.944 18.4581 37.5705 17.2331C37.6799 17.1517 37.7701 17.0471 37.8345 16.9268C37.8989 16.8065 37.936 16.6735 37.9432 16.5373L38.0001 15.5C38.0001 7.22917 31.2536 0.5 22.9614 0.5ZM31.9255 15.3846C31.1067 19.7627 27.3434 23 22.9614 23C18.5793 23 14.816 19.7627 13.9973 15.3846C13.1547 14.9095 12.6223 14.0223 12.6223 13.0226C12.6223 11.8837 13.3383 10.8848 14.3645 10.4884C15.4001 7.52035 17.8425 5.32458 20.75 4.56266C20.5889 4.86181 20.4488 5.17185 20.3308 5.49052C20.0298 6.30078 20.0885 7.18514 20.4923 7.98169C20.9311 8.84231 21.7168 9.4877 22.6512 9.75233C22.9115 9.82661 23.1809 9.8645 23.4516 9.86492C23.9399 9.86492 24.4246 9.74038 24.8615 9.49684C25.5407 9.11961 26.0327 8.50077 26.2457 7.7537C26.622 6.42251 25.8455 5.03182 24.5127 4.65468C24.0042 4.50913 23.492 4.80207 23.3507 5.30015C23.2094 5.79822 23.4994 6.3173 23.9987 6.45828C24.3365 6.55347 24.5311 6.906 24.4356 7.242C24.3604 7.50655 24.1878 7.7254 23.9473 7.85908C23.8296 7.92555 23.6997 7.96774 23.5654 7.98315C23.431 7.99857 23.295 7.98689 23.1653 7.94882C22.7412 7.82797 22.3685 7.52308 22.1703 7.13311C22.0527 6.90327 21.9445 6.54441 22.0932 6.14161C22.3429 5.47004 22.6412 4.89567 23.4935 4.29371C27.1197 4.51748 30.3283 6.96295 31.5585 10.4885C32.5847 10.8849 33.3006 11.8838 33.3006 13.0227C33.3005 14.0223 32.7681 14.9095 31.9255 15.3846Z" fill="#148A8B"/>
<path d="M19.2013 14.5643C19.7201 14.5643 20.1407 14.1438 20.1407 13.625C20.1407 13.1062 19.7201 12.6856 19.2013 12.6856C18.6825 12.6856 18.262 13.1062 18.262 13.625C18.262 14.1438 18.6825 14.5643 19.2013 14.5643Z" fill="#148A8B"/>
<path d="M26.722 14.5643C27.2408 14.5643 27.6613 14.1438 27.6613 13.625C27.6613 13.1062 27.2408 12.6856 26.722 12.6856C26.2032 12.6856 25.7826 13.1062 25.7826 13.625C25.7826 14.1438 26.2032 14.5643 26.722 14.5643Z" fill="#148A8B"/>
<path d="M21.0815 17.9242C21.0815 18.6564 21.9231 19.2501 22.9613 19.2501C23.9996 19.2501 24.8412 18.6564 24.8412 17.9242C24.8412 17.1919 21.0815 17.1919 21.0815 17.9242Z" fill="#148A8B"/>
</g>
<defs>
<clipPath id="clip0_4920_3022">
<rect width="45" height="45" fill="white" transform="translate(0.5 0.5)"/>
</clipPath>
</defs>
</svg>
