<svg width="46" height="45" viewBox="0 0 46 45" fill="none" xmlns="http://www.w3.org/2000/svg">
<g clip-path="url(#clip0_4920_2992)">
<path d="M25.8393 7.18848C27.4827 5.54507 27.4827 2.88059 25.8393 1.23718C24.1959 -0.406223 21.5314 -0.406224 19.888 1.23718C18.2446 2.88059 18.2446 5.54507 19.888 7.18848C21.5314 8.83188 24.1959 8.83188 25.8393 7.18848Z" fill="#148A8B"/>
<path d="M33.1672 18.4219C32.9794 18.5609 32.7637 18.6573 32.535 18.7046C32.3062 18.7519 32.0699 18.7488 31.8425 18.6956C31.6151 18.6425 31.4019 18.5404 31.2178 18.3966C31.0338 18.2528 30.8832 18.0707 30.7766 17.8629C30.6816 17.6801 30.5832 17.4762 30.4777 17.2547C29.8625 15.9574 29.0363 14.2137 27.4191 13.9957C27.4508 14.3473 27.5 14.857 27.5457 15.4793H18.4297C18.4789 14.8605 18.5281 14.3367 18.5633 13.9957C16.9461 14.2137 16.1023 15.9609 15.5012 17.2582C15.3957 17.4797 15.3008 17.6836 15.2058 17.8629C15.101 18.07 14.9524 18.2518 14.7703 18.3956C14.5881 18.5395 14.3769 18.642 14.1512 18.6961C14.0301 18.724 13.9063 18.7381 13.782 18.7383C13.4366 18.7373 13.1005 18.6265 12.8223 18.4219C12.542 18.2041 12.3391 17.9021 12.2435 17.5603C12.148 17.2185 12.1647 16.855 12.2914 16.5234C13.5219 13.1555 15.5328 11.359 17.2449 10.4062C18.2176 9.84468 19.2939 9.4859 20.409 9.35156H25.1937C25.5986 9.35178 26.0021 9.39897 26.3961 9.49219C27.95 9.84375 31.7891 11.2676 33.7016 16.5234C33.829 16.8552 33.8458 17.2193 33.7495 17.5614C33.6532 17.9035 33.4489 18.2053 33.1672 18.4219ZM29.532 23.9063C29.532 24.0117 29.532 24.1137 29.5109 24.2191C29.3691 25.657 28.9233 27.0483 28.2031 28.3008C28.0711 28.5211 27.8896 28.7076 27.673 28.8455C27.4563 28.9835 27.2105 29.069 26.9551 29.0953H26.7898C26.5521 29.0936 26.3173 29.0417 26.1011 28.9429C25.8848 28.8442 25.6918 28.7008 25.5348 28.5223C25.3104 28.2729 25.1712 27.9588 25.137 27.6251C25.1029 27.2915 25.1757 26.9556 25.3449 26.666C25.4293 26.5324 25.6226 26.0613 25.7527 24.5355L29.532 23.9063ZM20.7887 28.0758C20.6955 28.3038 20.5524 28.5081 20.3698 28.6736C20.1873 28.8391 19.97 28.9616 19.734 29.032C19.5835 29.078 19.4272 29.1016 19.2699 29.1023C18.9704 29.0988 18.6771 29.0167 18.4192 28.8644C18.1613 28.712 17.948 28.4946 17.8004 28.234C17.0969 27.0008 16.6631 25.6324 16.5277 24.2191C16.5277 24.1277 16.5277 24.0363 16.5066 23.9414L20.3246 24.5883C20.4336 26.0613 20.6164 26.543 20.6937 26.6977C20.8094 26.9064 20.8779 27.1381 20.8943 27.3762C20.9107 27.6143 20.8746 27.8531 20.7887 28.0758Z" fill="#148A8B"/>
<path d="M30.0312 22.7848C30.0377 22.8721 30.0114 22.9586 29.9574 23.0275C29.9035 23.0965 29.8257 23.1428 29.7394 23.1574L24.7859 23.9977C24.7193 24.0095 24.6507 24.0018 24.5884 23.9756C24.526 23.9494 24.4725 23.9058 24.4343 23.85L22.8418 21.5121L21.4355 23.8359C21.4043 23.8872 21.3604 23.9297 21.3081 23.9592C21.2558 23.9888 21.1968 24.0044 21.1367 24.0047H21.0769L16.0988 23.1574C16.0125 23.1428 15.9348 23.0965 15.8808 23.0275C15.8268 22.9586 15.8005 22.8721 15.807 22.7848C15.807 22.6617 16.0425 19.8492 17.7019 18.0035L17.8672 16.4953C17.8767 16.4089 17.9179 16.3291 17.9829 16.2714C18.0478 16.2136 18.1318 16.1819 18.2187 16.1824H27.5703C27.6551 16.1815 27.7373 16.2112 27.8019 16.2661C27.8666 16.321 27.9091 16.3974 27.9218 16.4812L28.1468 18C29.8133 19.9195 30.0312 22.6687 30.0312 22.7848ZM44.8847 14.1293L43.9883 28.4555C43.9383 29.1926 43.7347 29.9111 43.3906 30.5648L38.2015 40.4543L38.1734 44.6484C38.1734 44.7417 38.1364 44.8311 38.0704 44.897C38.0045 44.963 37.9151 45 37.8218 45H26.9691C26.9186 45.0004 26.8686 44.99 26.8225 44.9694C26.7764 44.9487 26.7353 44.9184 26.7019 44.8805C26.6689 44.8428 26.6443 44.7986 26.6297 44.7507C26.6152 44.7028 26.611 44.6524 26.6175 44.6027L27.6547 37.0301C27.6584 37.0035 27.6655 36.9775 27.6758 36.9527L33.023 23.1363C33.0403 23.0912 33.0667 23.0501 33.1006 23.0156C33.1344 22.9811 33.1751 22.954 33.2199 22.9359C33.6732 22.7525 34.1685 22.6986 34.6506 22.7805C35.1327 22.8623 35.5825 23.0766 35.9498 23.3995C36.3171 23.7223 36.5874 24.1408 36.7305 24.6084C36.8736 25.076 36.8839 25.5742 36.7601 26.0473L34.482 34.1016L38.2086 29.5031C38.7151 28.8804 39.0312 28.1248 39.1191 27.3269L40.6027 13.6793C40.6425 13.3152 40.7744 12.9672 40.986 12.6683C41.1976 12.3693 41.4819 12.1293 41.8121 11.9707C42.1433 11.8122 42.5106 11.744 42.8767 11.773C43.2428 11.802 43.5947 11.9272 43.8968 12.1359C44.2212 12.3531 44.483 12.6513 44.6563 13.001C44.8296 13.3507 44.9084 13.7397 44.8847 14.1293ZM18.3418 37.0301C18.3434 37.0043 18.3434 36.9785 18.3418 36.9527L12.9734 23.1363C12.9561 23.0912 12.9297 23.0501 12.8959 23.0156C12.862 22.9811 12.8214 22.954 12.7765 22.9359C12.3228 22.7527 11.827 22.6993 11.3446 22.7818C10.8622 22.8643 10.4123 23.0794 10.0453 23.403C9.67819 23.7267 9.40844 24.1461 9.26619 24.6143C9.12394 25.0826 9.11481 25.5812 9.23981 26.0543L11.5144 34.1016L7.78786 29.5031C7.28246 28.8801 6.96752 28.1245 6.88083 27.3269L5.39372 13.6793C5.35557 13.3147 5.22429 12.966 5.0125 12.6668C4.80071 12.3676 4.51552 12.1279 4.18434 11.9707C3.85308 11.8122 3.48583 11.744 3.11974 11.773C2.75366 11.802 2.40173 11.9272 2.09958 12.1359C1.77627 12.3541 1.51522 12.6525 1.34203 13.002C1.16884 13.3514 1.08946 13.7399 1.11169 14.1293L2.01169 28.4555C2.05693 29.2001 2.2607 29.9264 2.60934 30.5859L7.80192 40.4754L7.82653 44.6484C7.82653 44.7417 7.86357 44.8311 7.9295 44.897C7.99543 44.963 8.08485 45 8.17809 45H19.0308C19.0807 44.9999 19.1301 44.9892 19.1755 44.9686C19.221 44.948 19.2616 44.918 19.2945 44.8805C19.3275 44.8428 19.3521 44.7986 19.3667 44.7507C19.3812 44.7028 19.3854 44.6524 19.3789 44.6027L18.3418 37.0301Z" fill="#148A8B"/>
</g>
<defs>
<clipPath id="clip0_4920_2992">
<rect width="45" height="45" fill="white" transform="translate(0.5)"/>
</clipPath>
</defs>
</svg>
