<svg width="46" height="45" viewBox="0 0 46 45" fill="none" xmlns="http://www.w3.org/2000/svg">
<g clip-path="url(#clip0_4920_2984)">
<path d="M10.1479 31.1025C11.6832 31.1025 12.9279 29.8578 12.9279 28.3225C12.9279 26.7872 11.6832 25.5425 10.1479 25.5425C8.61256 25.5425 7.36792 26.7872 7.36792 28.3225C7.36792 29.8578 8.61256 31.1025 10.1479 31.1025Z" fill="#148A8B"/>
<path d="M24.9517 9.10002C27.4649 9.10002 29.5023 7.06264 29.5023 4.5494C29.5023 2.03616 27.4649 -0.00122833 24.9517 -0.00122833C22.4384 -0.00122833 20.4011 2.03616 20.4011 4.5494C20.4011 7.06264 22.4384 9.10002 24.9517 9.10002Z" fill="#148A8B"/>
<path d="M30.0807 33.7392H5.77344V39.3877H30.0807C30.8088 39.3877 31.3991 38.7974 31.3991 38.0693V35.0575C31.3991 34.3294 30.8089 33.7392 30.0807 33.7392ZM1.81836 0C1.09027 0 0.5 0.590273 0.5 1.31836V43.6816C0.5 44.4097 1.09027 45 1.81836 45C2.54645 45 3.13672 44.4097 3.13672 43.6816V1.31836C3.13672 0.590273 2.54645 0 1.81836 0Z" fill="#148A8B"/>
<path d="M45.2216 20.209L39.9585 9.71385C38.7049 7.20668 36.1424 5.62289 33.3399 5.62289H33.3392C32.3788 5.62278 31.4279 5.81213 30.5408 6.18009C29.6537 6.54806 28.8479 7.08741 28.1696 7.76725L19.1735 16.7783C18.1396 17.8122 17.9584 19.375 18.6281 20.5952C19.407 19.9891 20.3847 19.627 21.4456 19.627H25.4094L31.8241 13.1974L37.9231 25.3165L37.916 43.6812C37.9157 44.4096 38.506 45.0001 39.2343 45.0001H44.1816C44.9097 45.0001 45.5 44.4098 45.5 43.6817V21.3883C45.5 20.9789 45.4047 20.5752 45.2216 20.209Z" fill="#148A8B"/>
<path d="M15.7079 31.1025H20.626C22.1613 31.1025 23.406 29.8579 23.406 28.3225V26.1845H25.0452C26.1279 26.1845 27.0055 25.3068 27.0055 24.2242C27.0055 23.1415 26.1279 22.2638 25.0452 22.2638H21.4456C20.3628 22.2638 19.4852 23.1415 19.4852 24.2242V25.8263C19.4852 26.5362 18.9396 27.147 18.2305 27.1804C17.4734 27.2161 16.8484 26.6128 16.8484 25.8636V24.2277L16.8485 24.2242C16.8485 23.1415 15.9709 22.2638 14.8881 22.2638C13.8054 22.2638 12.9277 23.1415 12.9277 24.2242V28.3226C12.9279 29.8578 14.1725 31.1025 15.7079 31.1025Z" fill="#148A8B"/>
</g>
<defs>
<clipPath id="clip0_4920_2984">
<rect width="45" height="45" fill="white" transform="translate(0.5)"/>
</clipPath>
</defs>
</svg>
