<svg width="46" height="46" viewBox="0 0 46 46" fill="none" xmlns="http://www.w3.org/2000/svg">
<g clip-path="url(#clip0_4920_3036)">
<path fill-rule="evenodd" clip-rule="evenodd" d="M19.1643 43.8919C13.391 43.8919 4.98153 36.0097 4.63883 35.667H4.61247C1.15904 32.1872 0.473625 30.21 0.499987 29.1292C0.526349 28.4438 0.842694 28.1274 0.895418 28.0747C0.92178 28.0747 0.92178 28.0483 0.948142 28.0483C1.23812 27.8374 1.63355 27.732 2.10807 27.732C5.66695 27.732 13.7337 34.3752 14.4455 34.9815C15.6582 35.5615 16.9763 35.8779 18.3734 35.8779C20.2715 35.8779 21.985 35.2979 23.1977 34.7443C22.5123 34.797 21.8269 34.8234 21.1942 34.8234C14.8409 34.8234 12.3102 32.3453 12.2047 32.2399C12.152 32.2135 12.1256 32.1872 12.1256 32.1344C11.5457 31.0536 11.4402 30.1309 11.8093 29.3928C12.3629 28.312 13.7601 28.1011 13.8392 28.0747H13.8919C16.1063 28.1274 18.3471 28.1538 20.5615 28.1538L20.6669 28.1801C22.3805 28.1801 24.0413 27.7583 25.4648 26.9938C27.1256 26.0975 28.971 25.623 30.9481 25.5703C31.0536 25.5703 31.159 25.5439 31.2645 25.5439C32.9517 25.5439 34.6916 25.9921 36.2733 26.783C39.9112 28.6019 44.9991 28.7074 45.0518 28.7074C45.2891 28.7337 45.5 28.9183 45.5 29.1555V34.7707C45.5791 38.6195 43.3647 40.2276 43.2856 40.2803C43.1274 40.3858 42.9429 40.4121 42.7847 40.3067C40.4912 38.9359 37.9868 38.6459 36.2469 38.6459C35.2452 38.6459 34.5597 38.7777 34.5597 38.7777H34.3225C32.688 38.7777 27.152 40.8603 22.5387 42.8111C22.1959 42.9692 21.8532 43.1538 21.5105 43.3383H21.4842C20.8251 43.7074 20.0343 43.8919 19.1643 43.8919Z" fill="#148A8B"/>
<path fill-rule="evenodd" clip-rule="evenodd" d="M2.00256 26.8357C2.13437 26.203 2.47708 25.7548 2.97796 25.4912C4.11153 24.9112 5.98323 25.4912 8.72488 27.2311C9.62119 27.8111 10.4384 28.4174 11.0711 28.8919C11.0711 28.9446 11.0447 28.971 11.0184 28.9974C10.702 29.6564 10.6493 30.3682 10.7811 31.0536C7.80221 28.9446 4.29606 26.8357 2.10801 26.8357H2.00256Z" fill="#148A8B"/>
<path fill-rule="evenodd" clip-rule="evenodd" d="M10.7811 29.7355C9.64758 28.9446 8.40856 28.4174 7.275 28.7865C7.09046 28.6547 6.90593 28.5756 6.72139 28.4701C6.64231 27.8374 6.82684 26.6248 5.29784 26.4402C5.06059 26.4139 4.87605 26.1766 4.90241 25.9394C5.06059 24.7004 5.58783 23.9359 6.43141 23.6195C7.67043 23.1977 9.54213 23.8568 11.9938 25.5703C12.811 26.1503 13.5492 26.7302 14.1028 27.2047H13.7073C12.6265 27.3629 11.5193 28.022 11.0184 28.9974C10.913 29.2346 10.8339 29.4719 10.7811 29.7355ZM19.5333 24.094C17.9516 24.094 16.8708 23.9359 16.8181 23.9095H16.7917C11.9674 22.855 10.1485 20.4033 9.46305 18.5053C8.96217 17.1081 8.98853 15.5264 9.54213 14.0237C9.9112 13.022 10.0957 12.152 10.0694 11.4402C10.0694 10.9657 9.85848 10.4912 9.51577 10.1485L8.0395 8.67223C7.43317 8.0659 7.11682 7.19596 7.22227 6.35237C7.35408 5.56151 7.77588 4.98155 8.51401 4.6652C9.3576 4.26977 10.3857 4.40158 11.2029 4.98155L13.971 7.06415C14.8936 7.74956 15.4472 8.88313 15.4472 10.0431V13.4701H17.2662C17.0817 12.7583 16.9762 12.0202 17.029 11.2821C17.1344 9.43673 18.0043 7.98682 18.3734 7.45958C18.5843 7.1696 18.8216 6.9587 19.0852 6.80053C19.7442 6.37873 20.456 6.43146 21.0887 6.9587C21.6423 7.43322 21.9323 8.17135 21.8796 8.93585L21.7214 11.5193C21.6687 12.1784 22.0905 12.7847 22.7232 12.9692L23.9885 13.3383C22.1168 10.9921 23.0659 8.80404 23.6458 7.85501C23.9622 7.38049 24.5158 7.11687 25.0957 7.1696L26.6775 7.30141C27.0465 6.16784 27.6265 5.13972 28.391 4.29613C29.8936 2.60896 32.2398 1.8181 34.4806 2.21353C37.6441 2.74077 39.5685 5.00791 40.623 6.80053C41.7302 8.69859 42.0465 10.9394 41.4929 12.9429C40.7548 15.6318 38.6195 17.5562 35.3506 18.5053C33.347 19.0852 31.5281 19.1643 30.869 19.1643C29.1291 21.7478 26.1766 23.3822 22.3014 23.9095C21.2996 24.0677 20.3506 24.094 19.5333 24.094Z" fill="#148A8B"/>
</g>
<defs>
<clipPath id="clip0_4920_3036">
<rect width="45" height="45" fill="white" transform="translate(0.5 0.5)"/>
</clipPath>
</defs>
</svg>
