<svg width="46" height="45" viewBox="0 0 46 45" fill="none" xmlns="http://www.w3.org/2000/svg">
<g clip-path="url(#clip0_4920_2972)">
<path d="M11.5526 11.0526H11.4736L10.8151 15.1975C10.7569 15.3865 10.7402 15.5859 10.7661 15.7819C10.792 15.978 10.8599 16.1662 10.9651 16.3336C11.034 16.4167 11.1216 16.4824 11.2207 16.525C11.3199 16.5677 11.4277 16.5862 11.5355 16.5791C11.7862 16.5803 12.0299 16.4959 12.2261 16.3399C12.4223 16.1838 12.5593 15.9653 12.6145 15.7207L13.2991 12.5313C13.2991 12.51 13.307 12.4911 13.3114 12.4705L13.88 9.82107C13.933 9.58528 13.932 9.34059 13.8774 9.10521C13.8227 8.86982 13.7156 8.64979 13.5642 8.46149C13.4243 8.28551 13.2467 8.14321 13.0445 8.0451C12.8423 7.94699 12.6206 7.89559 12.3958 7.89468H7.65482C7.45286 7.89071 7.25643 7.9608 7.10261 8.09173C6.94879 8.22266 6.84821 8.40537 6.81986 8.60537C6.80701 8.72026 6.81998 8.83657 6.85783 8.94581C6.89568 9.05505 6.95745 9.15446 7.03862 9.23677C7.10552 9.31101 7.18721 9.37043 7.27843 9.41122C7.36966 9.45202 7.46841 9.47328 7.56834 9.47364H11.5526C11.762 9.47369 11.9628 9.55689 12.1109 9.70496C12.259 9.85303 12.3422 10.0538 12.3422 10.2632C12.3422 10.6993 11.9886 11.0526 11.5526 11.0526ZM40.7631 22.1052H1.2897C1.08028 22.1052 0.879443 22.1884 0.731354 22.3365C0.583264 22.4846 0.500047 22.6854 0.5 22.8948C0.5 23.3308 0.853584 23.6841 1.28961 23.6841H40.7631C41.1992 23.6841 41.5524 23.3308 41.5524 22.8948C41.5524 22.4589 41.1992 22.1052 40.7631 22.1052ZM36.0263 17.3683C36.0263 19.1124 34.6125 20.5262 32.8684 20.5262C31.1243 20.5262 29.7105 19.1124 29.7105 17.3683C29.7105 15.6242 31.1244 14.2104 32.8684 14.2104C34.6125 14.2104 36.0264 15.6243 36.0264 17.3683H36.0263Z" fill="#148A8B"/>
<path d="M2.86865 3.94752V20.5262H10.6171C9.69504 19.5738 9.18102 18.2992 9.18438 16.9735C9.18843 16.7356 9.21075 16.498 9.25065 16.2632C9.15811 15.8128 9.16432 15.3476 9.26885 14.8998L9.87819 11.0526H7.56834C7.25808 11.0541 6.95082 10.9918 6.66563 10.8696C6.38044 10.7474 6.1234 10.5679 5.91046 10.3423C5.67127 10.0986 5.48803 9.80575 5.37348 9.4841C5.25893 9.16244 5.21582 8.81969 5.24715 8.47969C5.37107 7.24518 6.41407 6.30756 7.65482 6.31582H12.3958C12.8568 6.31586 13.3118 6.4197 13.7271 6.61963C14.1424 6.81956 14.5074 7.11044 14.795 7.4707C15.095 7.84207 15.3075 8.2762 15.4169 8.74091C15.5262 9.20561 15.5295 9.68897 15.4266 10.1551L15.0641 11.8422H21.8158V8.6843C21.8158 7.37631 22.8761 6.31573 24.1842 6.31573C25.4921 6.31573 26.5527 7.37631 26.5527 8.68438V20.5262H29.3474C27.6407 18.6297 27.7427 15.7221 29.5784 13.9499C31.4138 12.178 34.3231 12.178 36.1585 13.9499C37.994 15.7221 38.0963 18.6297 36.3896 20.5262H39.1843V3.94752C39.1815 1.76845 37.4158 0.00272461 35.2367 0H6.81573C4.63666 0.00272461 2.87103 1.76845 2.86865 3.94752ZM30.4999 1.57887H35.2367C36.5447 1.57887 37.6053 2.63944 37.6053 3.94752V7.89469C37.6053 8.10412 37.5221 8.30497 37.374 8.45306C37.2259 8.60115 37.025 8.68436 36.8156 8.68438C36.3797 8.68438 36.0264 8.33071 36.0264 7.89469V3.94752C36.0263 3.73812 35.9431 3.5373 35.795 3.38923C35.647 3.24116 35.4461 3.15796 35.2367 3.15791H30.4999C30.0639 3.15791 29.7106 2.80459 29.7106 2.36865C29.7106 1.93254 30.0639 1.57887 30.4999 1.57887ZM26.5527 1.57887H27.342C27.5514 1.57889 27.7523 1.6621 27.9003 1.81019C28.0484 1.95828 28.1316 2.15913 28.1317 2.36856C28.1317 2.80459 27.778 3.15782 27.342 3.15782H26.5527C26.1167 3.15782 25.763 2.80459 25.763 2.36856C25.7631 2.15915 25.8463 1.95832 25.9944 1.81025C26.1425 1.66217 26.3433 1.57889 26.5527 1.57887Z" fill="#148A8B"/>
<path d="M14.3156 20.5262H17.0791V13.4212H14.7249L14.158 16.0548C13.8869 17.2777 12.8054 18.1508 11.5526 18.158C11.3513 18.1566 11.1512 18.1316 10.9558 18.0838C11.4194 19.5463 12.7813 20.5365 14.3156 20.5262ZM35.2367 39.4735C35.2367 38.6015 34.5298 37.8946 33.6578 37.8946H8.39468C7.52263 37.8946 6.81573 38.6015 6.81573 39.4735V40.2631H35.2367V39.4735ZM18.658 31.5788H23.3948V36.3156H18.658V31.5788ZM34.4474 43.421C34.4474 44.2931 33.7405 45 32.8684 45C31.9964 45 31.2895 44.2931 31.2895 43.421C31.2895 42.549 31.9964 41.8421 32.8684 41.8421C33.7405 41.8421 34.4474 42.549 34.4474 43.421ZM10.7632 43.421C10.7632 44.2931 10.0563 45 9.18438 45C8.31242 45 7.60543 44.2931 7.60543 43.421C7.60543 42.549 8.31233 41.8421 9.18438 41.8421C10.0564 41.8421 10.7632 42.549 10.7632 43.421ZM38.3387 25.2631H3.71381C4.11002 27.9804 6.43806 29.9965 9.18438 29.9999H32.8684C35.6142 29.9965 37.9428 27.9804 38.3387 25.2631ZM18.658 13.4212V20.5262H24.9738V8.68438C24.9737 8.47496 24.8905 8.27413 24.7425 8.12604C24.5944 7.97795 24.3936 7.89473 24.1841 7.89468C23.7481 7.89468 23.3949 8.24836 23.3949 8.68438V14.2105C23.3948 14.4199 23.3116 14.6207 23.1635 14.7688C23.0154 14.9169 22.8146 15.0001 22.6052 15.0001C22.1692 15.0001 21.8159 14.6465 21.8159 14.2105V13.4212L18.658 13.4212Z" fill="#148A8B"/>
</g>
<defs>
<clipPath id="clip0_4920_2972">
<rect width="45" height="45" fill="white" transform="translate(0.5)"/>
</clipPath>
</defs>
</svg>
