<svg width="46" height="45" viewBox="0 0 46 45" fill="none" xmlns="http://www.w3.org/2000/svg">
<path d="M43.4794 26.6434V27.416C43.4794 28.1462 42.8935 28.7491 42.1633 28.7491H41.2294C41.518 28.3755 41.6878 27.917 41.6878 27.416V26.6434C41.6878 25.5821 41.2124 24.6226 40.4567 23.9774H40.8133C42.2907 23.9774 43.4794 25.1745 43.4794 26.6434ZM41.0595 29.5981C40.9831 30.5491 40.185 31.2962 39.2086 31.2962H38.5378C38.9454 30.8632 39.2256 30.2943 39.268 29.666L39.2765 29.5981H41.0595Z" fill="#148A8B"/>
<path d="M40.8388 26.6434V27.416C40.8388 28.1462 40.2529 28.7491 39.5227 28.7491H4.04914C3.31046 28.7491 2.72461 28.1462 2.72461 27.416V26.6434C2.72461 25.1745 3.92178 23.9774 5.39065 23.9774H38.1727C39.6501 23.9774 40.8388 25.1745 40.8388 26.6434ZM38.4189 29.5981C38.3425 30.5491 37.5444 31.2962 36.5765 31.2962H6.29065C5.31423 31.2962 4.52461 30.5491 4.44819 29.5981H38.4189ZM33.8256 40.3726C33.713 40.3726 33.605 40.3279 33.5254 40.2483C33.4458 40.1687 33.401 40.0607 33.401 39.9481V39.2519C33.401 39.0335 33.3143 38.824 33.1598 38.6695C33.0054 38.5151 32.7959 38.4283 32.5774 38.4283H10.2897C10.0713 38.4283 9.86179 38.5151 9.70734 38.6695C9.55289 38.824 9.46612 39.0335 9.46612 39.2519V39.9481C9.46612 40.0607 9.42139 40.1687 9.34178 40.2483C9.26216 40.3279 9.15418 40.3726 9.04159 40.3726C8.929 40.3726 8.82102 40.3279 8.7414 40.2483C8.66179 40.1687 8.61706 40.0607 8.61706 39.9481V39.2519C8.61706 38.3298 9.36763 37.5792 10.2897 37.5792H32.5774C33.4995 37.5792 34.2501 38.3298 34.2501 39.2519V39.9481C34.2501 40.0607 34.2054 40.1687 34.1257 40.2483C34.0461 40.3279 33.9381 40.3726 33.8256 40.3726Z" fill="#148A8B"/>
<path d="M31.0583 38.4275C31.0083 38.4275 30.9586 38.4189 30.9115 38.402L12.6584 31.697C12.5528 31.6578 12.4669 31.5784 12.4197 31.4761C12.3724 31.3738 12.3676 31.2569 12.4063 31.151C12.4886 30.9303 12.7298 30.8199 12.9522 30.8997L31.2052 37.6039C31.2974 37.6396 31.3743 37.7062 31.4227 37.7924C31.4711 37.8785 31.4881 37.9788 31.4708 38.0761C31.4534 38.1734 31.4028 38.2617 31.3276 38.3258C31.2523 38.3898 31.1572 38.4258 31.0583 38.4275Z" fill="#148A8B"/>
<path d="M12.8054 38.4275C12.7054 38.4279 12.6084 38.3931 12.5315 38.3291C12.4547 38.265 12.4029 38.1759 12.3854 38.0775C12.3678 37.979 12.3856 37.8775 12.4356 37.7909C12.4855 37.7042 12.5645 37.638 12.6585 37.6039L30.9115 30.8997C31.0173 30.861 31.134 30.8657 31.2363 30.9128C31.3386 30.9599 31.4181 31.0455 31.4574 31.151C31.4961 31.2569 31.4913 31.3738 31.4441 31.4761C31.3968 31.5784 31.311 31.6578 31.2053 31.697L12.9523 38.4028C12.9051 38.4197 12.8554 38.4275 12.8054 38.4275ZM10.9349 41.4085C10.9349 42.4528 10.0858 43.3019 9.04151 43.3019C7.99717 43.3019 7.1566 42.4528 7.1566 41.4085C7.1566 40.3726 7.99717 39.5236 9.04151 39.5236C10.0858 39.5236 10.9349 40.3726 10.9349 41.4085ZM35.7189 41.4085C35.7189 42.4528 34.8698 43.3019 33.8255 43.3019C32.7811 43.3019 31.9321 42.4528 31.9321 41.4085C31.9321 40.9063 32.1316 40.4247 32.4866 40.0697C32.8417 39.7146 33.3233 39.5151 33.8255 39.5151C34.3276 39.5151 34.8092 39.7146 35.1643 40.0697C35.5194 40.4247 35.7189 40.9063 35.7189 41.4085ZM13.9015 22.4465C13.9015 23.2913 13.2146 23.9782 12.3707 23.9782H7.65415C7.24806 23.978 6.85869 23.8165 6.57162 23.5293C6.28456 23.2421 6.1233 22.8526 6.1233 22.4465C6.1233 21.6025 6.80934 20.9157 7.65415 20.9157H12.3707C13.2146 20.9157 13.9015 21.6025 13.9015 22.4465ZM9.14339 5.47641C9.08332 5.47632 9.02396 5.46349 8.96922 5.43875C8.91448 5.41402 8.86561 5.37795 8.82585 5.33292L6.36188 2.54717H2.94528C2.83269 2.54717 2.72471 2.50244 2.64509 2.42283C2.56548 2.34321 2.52075 2.23523 2.52075 2.12264C2.52075 2.01005 2.56548 1.90207 2.64509 1.82245C2.72471 1.74284 2.83269 1.69811 2.94528 1.69811H6.55377C6.67519 1.69811 6.79151 1.75075 6.87217 1.8416L9.46179 4.77085C9.51586 4.83206 9.55112 4.90757 9.56335 4.98832C9.57558 5.06908 9.56425 5.15164 9.53073 5.22612C9.49721 5.30059 9.44292 5.36382 9.37437 5.40822C9.30582 5.45261 9.22507 5.47629 9.14339 5.47641ZM13.066 14.7651L12.2679 15.5547C12.1935 15.631 12.1047 15.6918 12.0066 15.7335C11.9085 15.7753 11.8032 15.7972 11.6966 15.798C11.59 15.7988 11.4843 15.7784 11.3856 15.7381C11.287 15.6978 11.1973 15.6384 11.1217 15.5632L10.7821 15.2236L10.8245 15.1811L12.7264 13.2792L13.066 13.6189C13.3802 13.933 13.3802 14.4509 13.066 14.7651ZM19.6802 8.15094L18.8736 8.94906C18.5594 9.26321 18.05 9.26321 17.7358 8.94906L17.3962 8.60943L19.2981 6.70755L19.3406 6.66509L19.6802 7.00472C19.9943 7.31887 19.9943 7.83679 19.6802 8.15094ZM16.3689 11.4538L15.5708 12.2604C15.4182 12.4113 15.2122 12.4959 14.9976 12.4959C14.783 12.4959 14.5771 12.4113 14.4245 12.2604L14.0849 11.9208L16.0292 9.97641L16.3689 10.316C16.683 10.6302 16.683 11.1396 16.3689 11.4538Z" fill="#148A8B"/>
<path d="M15.4265 3.07359L7.18218 11.3179L7.08878 11.2245C6.54613 10.6767 6.2417 9.9367 6.2417 9.16557C6.2417 8.39444 6.54613 7.65448 7.08878 7.10661L11.2237 2.9717C11.4937 2.70178 11.8144 2.48783 12.1673 2.34212C12.5202 2.19641 12.8984 2.12181 13.2802 2.1226C13.662 2.12338 14.0399 2.19955 14.3921 2.34671C14.7444 2.49388 15.0642 2.70916 15.3331 2.98019L15.4265 3.07359ZM18.0391 3.27481L18.6954 3.93114C19.2974 4.53397 19.2974 5.51038 18.7005 6.10812L10.2269 14.5817C9.62491 15.1828 8.64765 15.1828 8.04567 14.5817L7.38935 13.9245C7.17646 13.7123 7.05638 13.4243 7.05542 13.1237C7.05447 12.823 7.17271 12.5343 7.38425 12.3207L16.4352 3.26972C16.5407 3.16447 16.6659 3.08108 16.8037 3.02435C16.9415 2.96762 17.0892 2.93866 17.2382 2.93913C17.3872 2.9396 17.5347 2.9695 17.6721 3.02711C17.8095 3.08471 17.9342 3.16889 18.0391 3.27481Z" fill="#148A8B"/>
</svg>
