<svg width="46" height="46" viewBox="0 0 46 46" fill="none" xmlns="http://www.w3.org/2000/svg">
<g clip-path="url(#clip0_4920_3048)">
<path d="M23 0.5C10.5743 0.5 0.5 10.5735 0.5 23C0.5 35.4257 10.5743 45.5 23 45.5C35.4265 45.5 45.5 35.4257 45.5 23C45.5 10.5735 35.4269 0.5 23 0.5ZM22.967 7.62266C25.8941 7.62266 28.2673 9.99509 28.2673 12.9222C28.2673 15.8494 25.8941 18.2225 22.967 18.2225C20.0394 18.2225 17.6662 15.8494 17.6662 12.9222C17.6662 9.995 20.0394 7.62266 22.967 7.62266ZM28.3568 36.3159C28.1439 36.5042 27.8695 36.608 27.5853 36.6077C27.4196 36.6078 27.2558 36.5727 27.1047 36.5045C26.9537 36.4364 26.819 36.3368 26.7095 36.2124C26.2832 35.7288 26.3294 34.9912 26.813 34.5652C27.2884 34.1462 27.3472 33.4988 27.3129 33.0296C27.2398 32.0232 26.7328 31.2673 26.5527 31.1497C26.4904 31.1087 26.4321 31.0619 26.3784 31.0101C25.4929 31.7088 24.3534 32.1305 23.1092 32.1305C21.7748 32.1305 20.5638 31.6423 19.6545 30.8498C19.5657 30.9701 19.4543 31.072 19.3265 31.1497C19.146 31.2684 18.6395 32.0243 18.5664 33.03C18.5325 33.4991 18.5912 34.1462 19.0666 34.5652C19.5502 34.9915 19.5965 35.7288 19.1705 36.2124C19.0611 36.3368 18.9263 36.4364 18.7753 36.5045C18.6243 36.5727 18.4605 36.6079 18.2948 36.6077C18.0106 36.608 17.7361 36.5042 17.5233 36.3159C16.5712 35.4771 16.1176 34.2185 16.2457 32.7736C16.3826 31.2283 17.151 29.7406 18.1142 29.1551C18.1912 29.1084 18.2722 29.0741 18.3543 29.0469C18.1333 28.5069 18.0068 27.9226 18.0068 27.309H28.2128C28.2133 27.9569 28.0762 28.5975 27.8105 29.1885C28.7524 29.7926 29.4998 31.2528 29.6343 32.7727C29.762 34.2181 29.3083 35.4762 28.3568 36.3159ZM32.5051 26.5952C32.311 26.7293 32.0805 26.8011 31.8445 26.801C31.4734 26.801 31.1081 26.6243 30.882 26.2956C28.7656 23.2214 25.9976 21.5283 23.0879 21.5283C20.1782 21.5283 17.4102 23.2214 15.2938 26.2956C14.928 26.8263 14.2009 26.9609 13.6707 26.5952C13.1396 26.2299 13.0058 25.5031 13.3711 24.9721C15.9361 21.2462 19.3869 19.194 23.0879 19.194C26.7889 19.194 30.2397 21.2458 32.8046 24.9721C33.17 25.5035 33.0358 26.2299 32.5051 26.5952Z" fill="#148A8B"/>
</g>
<defs>
<clipPath id="clip0_4920_3048">
<rect width="45" height="45" fill="white" transform="translate(0.5 0.5)"/>
</clipPath>
</defs>
</svg>
