<svg width="46" height="46" viewBox="0 0 46 46" fill="none" xmlns="http://www.w3.org/2000/svg">
<g clip-path="url(#clip0_4920_3002)">
<path fill-rule="evenodd" clip-rule="evenodd" d="M19.7939 19.4056C20.6586 18.3457 24.1279 14.8484 29.6993 18.7163C29.7531 18.7538 29.7991 18.8016 29.8345 18.8568C29.8699 18.912 29.894 18.9737 29.9056 19.0383C29.9172 19.1029 29.9159 19.1691 29.9019 19.2332C29.8879 19.2973 29.8613 19.358 29.8238 19.4119C29.7864 19.4657 29.7386 19.5116 29.6834 19.547C29.6281 19.5824 29.5665 19.6066 29.5019 19.6182C29.4373 19.6298 29.3711 19.6285 29.307 19.6145C29.2429 19.6004 29.1822 19.5739 29.1283 19.5364C23.7251 15.7837 20.6752 19.8645 20.4219 20.2236C20.3673 20.3152 20.2849 20.387 20.1867 20.4284C20.0885 20.4699 19.9796 20.4789 19.8759 20.4541C17.8319 19.9693 15.8958 19.8697 13.9754 20.8724C12.3321 21.7309 11.0376 23.2964 10.1822 25.4836C9.61335 28.301 11.5878 30.5547 11.8172 30.8049C14.046 32.8904 19.2416 33.2547 21.6354 31.6613C22.2292 31.2658 23.9971 30.1903 26.1179 29.8623C26.722 29.746 27.5266 29.7398 28.137 29.8104C29.0474 29.9152 29.5508 29.5924 30.1 29.2394C31.4619 28.3674 33.0513 27.348 39.5154 30.0948C41.2054 29.7315 42.5695 29.2934 43.5453 28.5377C44.5128 27.7871 45.119 26.6899 45.3152 24.9802C45.9381 19.5344 44.9747 14.9543 42.6307 11.403C40.2504 7.79982 36.4365 5.2399 31.408 3.89973C25.0196 2.19727 18.4817 2.26371 13.0235 3.92672C7.80189 5.51915 3.57687 8.57735 1.44672 12.9477C0.703413 14.477 0.38912 16.1795 0.537358 17.8734C0.680614 19.4586 1.24741 20.9929 2.27615 22.2489C4.53918 25.0134 8.29186 24.9552 9.35175 24.8784C10.2985 22.5863 11.7155 20.9295 13.5145 19.989C15.2854 19.0651 17.4073 18.843 19.7939 19.4056ZM27.9117 23.3524C29.1449 23.586 31.2927 23.9919 32.4388 22.1441C33.0461 21.1662 33.7343 20.5288 34.352 19.9569C35.2292 19.1451 35.9434 18.4828 35.8987 17.0378C35.8945 16.9709 35.9037 16.9039 35.9259 16.8407C35.9481 16.7775 35.9828 16.7195 36.028 16.67C36.0732 16.6205 36.1278 16.5807 36.1887 16.5528C36.2496 16.525 36.3155 16.5097 36.3825 16.5079C36.4494 16.5061 36.5161 16.5178 36.5784 16.5423C36.6407 16.5668 36.6975 16.6036 36.7452 16.6506C36.793 16.6975 36.8308 16.7536 36.8564 16.8155C36.882 16.8774 36.8949 16.9438 36.8943 17.0108C36.9534 18.9042 36.0887 19.7046 35.0278 20.6866C34.461 21.2119 33.8298 21.7974 33.2869 22.6714C31.7796 25.0995 29.2072 24.6127 27.728 24.3324C25.5781 23.9275 24.2587 22.9413 21.9458 23.8798C20.7001 24.3864 19.0464 24.7694 17.7146 24.3916C16.337 24.0012 14.9024 25.7556 15.3374 27.1383C15.3767 27.2647 15.3643 27.4015 15.3028 27.5187C15.2412 27.6359 15.1357 27.7239 15.0093 27.7633C14.8829 27.8026 14.7461 27.7902 14.6289 27.7287C14.5117 27.6672 14.4238 27.5616 14.3844 27.4352C13.7169 25.3103 15.8346 22.822 17.9834 23.4313C19.088 23.7448 20.5444 23.3711 21.5711 22.9538C24.3012 21.8451 25.4587 22.8894 27.9117 23.3524ZM38.9061 27.6574C38.496 27.1591 38.2209 26.3785 38.3465 25.7348C38.4119 25.4016 38.5832 25.1348 38.8677 24.9936C39.5637 24.6498 40.2005 24.197 40.7539 23.6524C40.8493 23.5676 40.9735 23.5225 41.1011 23.5263C41.2288 23.5301 41.3501 23.5826 41.4403 23.6729C41.5305 23.7632 41.5828 23.8846 41.5864 24.0123C41.59 24.1399 41.5447 24.2641 41.4598 24.3594C41.0798 24.7353 40.6632 25.0723 40.2161 25.3653C39.4739 25.8553 39.1448 25.6414 39.3732 26.4366C39.5009 26.8809 39.8393 27.3761 40.349 27.3761C40.4166 27.373 40.484 27.3836 40.5474 27.4074C40.6107 27.4311 40.6686 27.4674 40.7174 27.5141C40.7663 27.5608 40.8053 27.617 40.8319 27.6792C40.8584 27.7413 40.8721 27.8083 40.8721 27.8759C40.8721 27.9435 40.8584 28.0104 40.8319 28.0726C40.8053 28.1348 40.7663 28.1909 40.7174 28.2377C40.6686 28.2844 40.6107 28.3207 40.5474 28.3444C40.484 28.3682 40.4166 28.3788 40.349 28.3757C39.7376 28.3757 39.2518 28.0757 38.9061 27.6574ZM33.4831 16.2488C33.354 16.2794 33.218 16.2574 33.1051 16.1877C32.9922 16.118 32.9116 16.0063 32.881 15.8772C31.9343 11.9055 28.3031 14.8007 28.2927 14.8079C28.1886 14.8898 28.0563 14.9271 27.9247 14.9114C27.7932 14.8957 27.6734 14.8284 27.5914 14.7244C27.5095 14.6203 27.4723 14.488 27.488 14.3565C27.5037 14.225 27.5709 14.1051 27.675 14.0232C27.6895 14.0128 32.5405 10.1428 33.8537 15.6467C33.869 15.7106 33.8715 15.7768 33.8612 15.8417C33.8508 15.9065 33.8277 15.9687 33.7933 16.0246C33.7589 16.0806 33.7138 16.1292 33.6605 16.1676C33.6073 16.2061 33.547 16.2337 33.4831 16.2488ZM38.9362 15.8844C38.9864 15.8423 39.0444 15.8105 39.1069 15.7908C39.1694 15.7711 39.2352 15.764 39.3005 15.7698C39.3658 15.7756 39.4293 15.7942 39.4873 15.8245C39.5454 15.8549 39.5969 15.8964 39.639 15.9467C39.6431 15.9519 40.8919 17.4083 40.758 19.3776C41.2729 19.3849 41.8958 19.797 42.421 21.3199C42.4641 21.4451 42.4557 21.5824 42.3976 21.7014C42.3395 21.8205 42.2364 21.9116 42.1112 21.9546C41.9859 21.9977 41.8486 21.9893 41.7296 21.9312C41.6105 21.8731 41.5195 21.77 41.4764 21.6448C40.9781 20.2018 40.5712 20.4593 40.4871 20.534C40.4145 20.624 40.313 20.686 40.1998 20.7096C40.0867 20.7332 39.9688 20.7169 39.8663 20.6634C39.7639 20.61 39.683 20.5227 39.6376 20.4164C39.5922 20.3101 39.5849 20.1914 39.6172 20.0804C39.9618 18.8897 39.6691 17.5391 38.8739 16.5872C38.8318 16.537 38.7999 16.479 38.7803 16.4165C38.7606 16.354 38.7534 16.2882 38.7592 16.2229C38.765 16.1576 38.7836 16.0941 38.814 16.036C38.8443 15.978 38.8859 15.9264 38.9362 15.8844ZM21.0063 26.9255C21.0799 26.8152 21.1943 26.7385 21.3243 26.7125C21.4543 26.6864 21.5894 26.713 21.6998 26.7864C22.987 27.6449 24.9531 25.4027 26.6099 26.0079C28.1515 26.5715 29.8903 26.5767 31.4215 25.9809C31.5436 25.9379 31.6778 25.9441 31.7954 25.9983C31.913 26.0525 32.0049 26.1504 32.0516 26.2712C32.0983 26.392 32.0962 26.5263 32.0456 26.6455C31.995 26.7647 31.9 26.8596 31.7806 26.91C30.0273 27.592 28.0352 27.5909 26.2705 26.9452C25.1338 26.53 23.0337 28.8771 21.1454 27.619C21.0351 27.5454 20.9585 27.4311 20.9324 27.301C20.9063 27.171 20.9329 27.0359 21.0063 26.9255ZM39.1209 14.3668C39.0002 14.4198 38.8633 14.4229 38.7403 14.3752C38.6174 14.3275 38.5183 14.233 38.4649 14.1124C37.242 11.3615 35.0195 11.2131 35.0132 11.2131C34.8811 11.2033 34.7582 11.1414 34.6717 11.041C34.5852 10.9407 34.542 10.8101 34.5518 10.6779C34.5616 10.5458 34.6235 10.4229 34.7238 10.3364C34.8242 10.2498 34.9548 10.2067 35.0869 10.2165C35.0953 10.2165 37.9064 10.4054 39.3742 13.7096C39.4277 13.8304 39.4311 13.9674 39.3836 14.0906C39.3361 14.2138 39.2416 14.3131 39.1209 14.3668ZM25.4421 14.8079C25.3106 14.8204 25.1796 14.7801 25.0778 14.696C24.976 14.612 24.9118 14.4909 24.8992 14.3595C24.8981 14.3408 24.3708 9.39225 27.4456 8.13824C27.1445 6.24269 29.0266 5.67797 29.0339 5.6759C29.1602 5.63667 29.297 5.64924 29.4141 5.71086C29.5312 5.77247 29.619 5.87808 29.6583 6.00445C29.6975 6.13082 29.6849 6.2676 29.6233 6.3847C29.5617 6.5018 29.4561 6.58963 29.3297 6.62886C29.3266 6.6299 28.3695 6.91641 28.4297 7.88806C29.2955 7.78114 30.3709 7.90882 31.7007 8.37389C31.8256 8.41739 31.928 8.5087 31.9856 8.62775C32.0431 8.7468 32.051 8.88382 32.0075 9.00867C31.964 9.13353 31.8726 9.23599 31.7536 9.29352C31.6346 9.35105 31.4975 9.35893 31.3727 9.31543C25.1338 7.13545 25.8895 14.2453 25.8916 14.265C25.8977 14.3302 25.891 14.3959 25.8717 14.4585C25.8525 14.521 25.8211 14.5792 25.7793 14.6296C25.7376 14.68 25.6863 14.7217 25.6284 14.7523C25.5706 14.7829 25.5073 14.8018 25.4421 14.8079ZM12.1193 14.7156C12.0876 14.844 12.0062 14.9546 11.893 15.023C11.7798 15.0914 11.6441 15.1121 11.5156 15.0804C11.3872 15.0488 11.2766 14.9674 11.2082 14.8542C11.1397 14.741 11.1191 14.6052 11.1508 14.4768C11.1539 14.4664 12.0892 10.449 16.6474 11.8006C16.7103 11.819 16.7689 11.8496 16.8199 11.8907C16.8709 11.9317 16.9133 11.9824 16.9448 12.0399C16.9762 12.0973 16.996 12.1604 17.003 12.2255C17.0101 12.2906 17.0042 12.3565 16.9858 12.4193C16.9674 12.4822 16.9368 12.5408 16.8958 12.5918C16.8547 12.6428 16.804 12.6852 16.7466 12.7167C16.6891 12.7481 16.626 12.7679 16.5609 12.7749C16.4958 12.782 16.43 12.7761 16.3671 12.7577C12.819 11.7061 12.1214 14.7072 12.1193 14.7156ZM7.58077 13.5716C7.55902 13.7021 7.48632 13.8186 7.37866 13.8955C7.27101 13.9724 7.13721 14.0034 7.00671 13.9816C6.87621 13.9599 6.7597 13.8872 6.6828 13.7795C6.6059 13.6719 6.57492 13.5381 6.59667 13.4076C6.59874 13.392 7.44167 8.08218 11.9003 7.93893C12.0331 6.7908 13.0006 4.44577 19.0361 6.62679C19.0976 6.64914 19.1542 6.6834 19.2025 6.72761C19.2508 6.77182 19.2899 6.82511 19.3176 6.88445C19.3453 6.94378 19.3611 7.00799 19.364 7.07341C19.3669 7.13883 19.3569 7.20418 19.3345 7.26573C19.3121 7.32728 19.2779 7.38382 19.2337 7.43213C19.1895 7.48044 19.1362 7.51957 19.0768 7.54728C19.0175 7.575 18.9533 7.59075 18.8879 7.59365C18.8225 7.59655 18.7571 7.58653 18.6956 7.56418C12.7992 5.43299 12.8594 8.07595 12.8823 8.36247C12.8943 8.43541 12.89 8.51012 12.8697 8.58118C12.8493 8.65225 12.8133 8.71789 12.7644 8.77335C12.7155 8.8288 12.6549 8.87268 12.587 8.9018C12.519 8.93092 12.4454 8.94456 12.3715 8.94172C9.61438 8.84933 7.99808 11.0729 7.58077 13.5716ZM19.8468 13.992C19.1845 11.675 19.3246 11.5452 20.4198 10.5352L20.7032 10.2715C22.7088 8.37181 22.8573 5.3406 22.8573 5.33022C22.8647 5.19806 22.9243 5.07428 23.023 4.98609C23.1217 4.8979 23.2514 4.85253 23.3836 4.85996C23.5157 4.8674 23.6395 4.92702 23.7277 5.02573C23.8159 5.12443 23.8612 5.25412 23.8538 5.38627C23.8538 5.39562 23.6867 8.81922 21.3904 10.994C21.2679 11.1103 21.1776 11.1933 21.0956 11.2691C20.4032 11.9086 20.3139 11.9906 20.8081 13.719C20.8443 13.8465 20.8284 13.9831 20.7638 14.0988C20.6993 14.2146 20.5914 14.2999 20.4639 14.3361C20.3365 14.3723 20.1998 14.3564 20.0841 14.2919C19.9684 14.2273 19.883 14.1195 19.8468 13.992ZM6.83854 21.0707C6.77512 21.1871 6.66812 21.2735 6.54104 21.3111C6.41395 21.3486 6.27716 21.3342 6.16067 21.2711C6.15029 21.2659 2.50142 19.3444 4.96168 15.274C5.0301 15.1606 5.14077 15.079 5.26936 15.0472C5.39794 15.0153 5.53391 15.0359 5.64734 15.1043C5.76077 15.1727 5.84237 15.2834 5.87421 15.412C5.90603 15.5406 5.88548 15.6765 5.81706 15.79C3.90387 18.9551 6.62989 20.3887 6.63715 20.3928C6.88006 20.5236 6.96934 20.8288 6.83854 21.0707Z" fill="#148A8B"/>
<path fill-rule="evenodd" clip-rule="evenodd" d="M38.8998 33.8724C39.6504 32.6163 39.2237 31.6405 39.4666 31.1152C39.3862 31.1159 39.3067 31.097 39.2351 31.0602C33.1634 28.4619 31.8035 29.3339 30.6398 30.0803C29.9339 30.5329 29.2851 30.9481 28.0238 30.8028C27.5419 30.7491 27.0554 30.7498 26.5736 30.8049C25.5937 33.9056 30.5879 36.6867 31.4225 37.1268C35.9382 36.8019 38.0268 35.3351 38.8998 33.8724Z" fill="#148A8B"/>
<path fill-rule="evenodd" clip-rule="evenodd" d="M29.5923 37.1912C27.7829 35.9932 25.0351 33.6928 25.5023 31C23.9887 31.3789 22.7576 32.1139 22.2531 32.444C22.4607 33.9015 22.524 34.7517 22.5655 35.307C22.6039 35.8188 22.6216 36.0493 22.714 36.2569C22.8022 36.452 22.9735 36.697 23.2839 37.1424C23.9067 38.0351 25.0559 39.6815 27.2213 43.3501C28.4494 43.3055 29.0795 42.5851 29.3349 42.1906C28.9155 41.6362 28.2272 40.5338 27.838 39.5777C27.4757 38.685 27.1653 37.1403 28.5947 37.1797C28.9373 37.1891 29.2695 37.1922 29.5923 37.1912Z" fill="#148A8B"/>
</g>
<defs>
<clipPath id="clip0_4920_3002">
<rect width="45" height="45" fill="white" transform="translate(0.5 0.5)"/>
</clipPath>
</defs>
</svg>
