<svg width="46" height="46" viewBox="0 0 46 46" fill="none" xmlns="http://www.w3.org/2000/svg">
<g clip-path="url(#clip0_4920_3008)">
<path d="M13.8485 34.5059C13.7963 36.0268 13.1675 37.4709 12.0896 38.5453C12.0397 38.5953 11.9804 38.6349 11.9152 38.662C11.8499 38.6891 11.7799 38.703 11.7093 38.703C11.6386 38.703 11.5687 38.6891 11.5034 38.6621C11.4381 38.6351 11.3788 38.5955 11.3288 38.5456C11.2788 38.4956 11.2392 38.4363 11.2121 38.3711C11.1851 38.3058 11.1711 38.2359 11.1711 38.1652C11.1711 38.0946 11.185 38.0246 11.212 37.9593C11.239 37.8941 11.2786 37.8347 11.3286 37.7848C13.0062 36.1071 13.2289 33.4672 11.9358 31.5416L8.80323 34.6742C8.75329 34.7242 8.694 34.7638 8.62874 34.7909C8.56347 34.818 8.49352 34.8319 8.42287 34.8319C8.35222 34.832 8.28226 34.8181 8.21698 34.7911C8.1517 34.764 8.09238 34.7244 8.04241 34.6745C7.99243 34.6246 7.95278 34.5653 7.92572 34.5C7.89866 34.4347 7.88472 34.3648 7.8847 34.2941C7.88467 34.2235 7.89857 34.1535 7.92558 34.0882C7.95259 34.023 7.9922 33.9636 8.04214 33.9137L11.5996 30.3562L12.8276 29.1314C11.8791 28.4149 10.7028 28.0669 9.51711 28.1519C8.33141 28.2368 7.2168 28.749 6.3801 29.5935C6.33013 29.6434 6.27081 29.683 6.20553 29.71C6.14025 29.737 6.07028 29.7509 5.99964 29.7509C5.92899 29.7509 5.85903 29.7369 5.79377 29.7099C5.72851 29.6828 5.66922 29.6432 5.61928 29.5932C5.56934 29.5432 5.52973 29.4839 5.50272 29.4186C5.47571 29.3533 5.46182 29.2834 5.46184 29.2127C5.46187 29.1421 5.47581 29.0721 5.50287 29.0069C5.52993 28.9416 5.56957 28.8823 5.61955 28.8324C6.66028 27.7908 8.04717 27.1675 9.51705 27.0807C10.9869 26.9939 12.4375 27.4498 13.5935 28.3617L18.3107 23.6446C16.377 22.0756 13.501 22.1923 11.7088 23.9861C11.6059 24.0756 11.4728 24.1225 11.3365 24.1176C11.2002 24.1126 11.0709 24.056 10.9747 23.9593C10.8785 23.8626 10.8227 23.7329 10.8185 23.5966C10.8143 23.4603 10.862 23.3275 10.952 23.225C12.0661 22.1055 13.5778 21.4721 15.1571 21.4629H15.2013C16.6194 21.4603 17.9923 21.9625 19.0739 22.8797L19.3811 22.5726C19.2601 17.3842 17.3936 9.63884 16.7993 9.16336C15.8483 8.39958 13.7786 8.27156 9.44545 12.7671C9.44545 12.7671 -1.18887 22.863 1.40369 43.2646C1.40369 43.2646 14.5623 46.1218 18.6157 40.7398L19.0202 36.815C19.0202 36.815 19.3601 31.9859 19.4058 26.3866C19.4098 25.9459 19.4114 25.5017 19.4107 25.0538C19.4107 24.7278 19.4092 24.401 19.4064 24.0732L12.7098 30.7682C13.4966 31.8517 13.8975 33.1677 13.8485 34.5059Z" fill="#148A8B"/>
<path d="M19.3511 23.5375C19.3473 23.0362 19.3408 22.5769 19.3322 22.1326V22.0439L19.3274 21.8147L22.2212 18.921C22.3209 18.8207 22.4395 18.7412 22.5701 18.6871C22.7008 18.633 22.8408 18.6053 22.9823 18.6058H23.0274C23.2628 18.6057 23.4917 18.6828 23.6791 18.8253C23.8664 18.9678 24.0019 19.1678 24.0646 19.3947C24.1274 19.6216 24.114 19.8627 24.0265 20.0813C23.9391 20.2998 23.7823 20.4836 23.5804 20.6045L19.3634 24.8209L19.3511 23.5375ZM36.5507 12.765C32.2176 8.27158 30.15 8.39959 29.1969 9.16122C28.6052 9.6367 26.7382 17.3821 26.6151 22.5704L26.9222 22.8776C28.0747 21.9085 29.5486 21.4064 31.0531 21.4704C32.5575 21.5345 33.9834 22.1599 35.0495 23.2234C35.1008 23.273 35.1418 23.3324 35.17 23.398C35.1982 23.4636 35.213 23.5342 35.2137 23.6056C35.2143 23.6771 35.2007 23.7479 35.1736 23.814C35.1466 23.8801 35.1066 23.9401 35.0561 23.9906C35.0056 24.0411 34.9456 24.0811 34.8795 24.1081C34.8134 24.1352 34.7426 24.1488 34.6711 24.1482C34.5997 24.1475 34.5291 24.1327 34.4635 24.1045C34.3979 24.0763 34.3385 24.0354 34.2889 23.984C33.4243 23.1232 32.2719 22.6124 31.0534 22.5498C29.835 22.4873 28.6364 22.8774 27.6881 23.6451L32.4064 28.3634C33.4648 27.5247 34.7764 27.0696 36.1268 27.0725H36.215C37.7805 27.092 39.2759 27.7244 40.3804 28.834C40.472 28.9365 40.5208 29.0701 40.517 29.2075C40.5132 29.3449 40.4569 29.4756 40.3597 29.5728C40.2625 29.67 40.1318 29.7263 39.9944 29.7301C39.857 29.734 39.7233 29.6851 39.6209 29.5935C38.7842 28.749 37.6696 28.2367 36.4839 28.1517C35.2982 28.0667 34.1219 28.4149 33.1734 29.1314L34.3986 30.3567L37.9562 33.9142C38.057 34.0152 38.1136 34.152 38.1136 34.2947C38.1135 34.4374 38.0568 34.5742 37.9559 34.6751C37.855 34.7759 37.7181 34.8325 37.5754 34.8325C37.4327 34.8324 37.2959 34.7757 37.1951 34.6748L34.0646 31.5417C32.7737 33.4673 32.9943 36.1071 34.6719 37.7848C34.7252 37.8339 34.768 37.8933 34.7978 37.9594C34.8276 38.0256 34.8437 38.097 34.8451 38.1695C34.8466 38.242 34.8333 38.3141 34.8062 38.3813C34.7791 38.4486 34.7387 38.5096 34.6874 38.5609C34.6361 38.6121 34.575 38.6524 34.5077 38.6795C34.4404 38.7065 34.3683 38.7196 34.2958 38.718C34.2233 38.7165 34.1519 38.7003 34.0858 38.6704C34.0198 38.6406 33.9604 38.5976 33.9113 38.5443C32.8996 37.5337 32.2813 36.1955 32.1677 34.77C32.054 33.3445 32.4524 31.9253 33.2912 30.7671L26.5962 24.0754C26.5934 24.4028 26.5919 24.7297 26.5919 25.056C26.5919 25.5035 26.5935 25.9478 26.5968 26.3888C26.6425 31.9881 26.9824 36.8171 26.9824 36.8171L27.381 40.7377C31.4339 46.1197 44.593 43.2625 44.593 43.2625C47.185 22.8609 36.5507 12.765 36.5507 12.765Z" fill="#148A8B"/>
<path d="M22.4226 20.6067C22.2206 20.4858 22.0639 20.302 21.9764 20.0834C21.889 19.8649 21.8756 19.6237 21.9384 19.3968C22.0011 19.17 22.1366 18.97 22.3239 18.8275C22.5112 18.685 22.7402 18.6078 22.9755 18.6079H23.0207C23.1621 18.6075 23.3021 18.6351 23.4327 18.6891C23.5634 18.7431 23.682 18.8225 23.7818 18.9226L26.6756 21.8163L26.6686 22.1348C26.6654 22.3022 26.6625 22.47 26.66 22.6382L26.6498 23.5375L26.6406 24.8231L22.4226 20.6067Z" fill="#148A8B"/>
<path d="M23.0208 20.7594C22.7355 20.7594 22.4619 20.6461 22.2601 20.4443C22.0584 20.2426 21.9451 19.969 21.9451 19.6837V3.05687C21.9451 2.77157 22.0584 2.49795 22.2601 2.2962C22.4619 2.09446 22.7355 1.98112 23.0208 1.98112C23.3061 1.98112 23.5797 2.09446 23.7815 2.2962C23.9832 2.49795 24.0966 2.77157 24.0966 3.05687V19.6837C24.0966 19.969 23.9832 20.2426 23.7815 20.4443C23.5797 20.6461 23.3061 20.7594 23.0208 20.7594Z" fill="#148A8B"/>
</g>
<defs>
<clipPath id="clip0_4920_3008">
<rect width="45" height="45" fill="white" transform="translate(0.5 0.5)"/>
</clipPath>
</defs>
</svg>
