<svg width="46" height="45" viewBox="0 0 46 45" fill="none" xmlns="http://www.w3.org/2000/svg">
<g clip-path="url(#clip0_4920_2960)">
<path d="M39.7044 9.56605C39.7262 9.58152 39.7481 9.59609 39.7697 9.61169C40.1981 9.91991 40.6137 10.2456 41.0154 10.5878C43.8698 13.0193 45.3685 15.8004 44.7204 17.5204C44.822 17.4221 44.9151 17.3154 44.9986 17.2014C46.276 15.4414 45.0295 12.2905 42.2017 9.67732C42.2957 9.58891 42.3874 9.49812 42.4767 9.40502C43.573 8.26451 44.6728 6.33998 44.8677 3.48226L42.2955 3.29995C42.1248 5.59966 41.3228 6.86601 40.6091 7.62708C40.4607 7.7832 40.3018 7.92901 40.1336 8.06351C36.5003 5.6778 32.6062 5.23956 31.1891 7.13019C31.6178 6.93215 32.1436 6.82939 32.7533 6.82939C34.7067 6.82939 37.3001 7.85181 39.7044 9.56605Z" fill="#148A8B"/>
<path d="M35.1764 15.999C38.9182 18.6899 42.9281 19.5278 44.2101 17.9068C44.2264 17.8859 44.2445 17.8664 44.2601 17.8447C45.3553 16.3217 43.8154 13.2958 40.7763 10.725C40.4779 10.4727 40.1716 10.2299 39.8579 9.99693C39.7786 9.93801 39.6996 9.87896 39.6189 9.82081C36.1565 7.33067 32.4641 6.42713 30.916 7.59046C30.7703 7.69857 30.6418 7.82826 30.5352 7.97506C29.3083 9.68105 31.3862 13.2735 35.1764 15.999ZM38.0641 15.971C37.7262 16.441 36.6058 16.2133 35.5621 15.4626C34.5178 14.7119 33.9457 13.7223 34.2837 13.2524C34.6216 12.7825 35.7417 13.0101 36.7857 13.7608C37.8297 14.5115 38.4021 15.5011 38.0641 15.971ZM41.7899 14.7776C42.834 15.5283 43.4063 16.5179 43.0684 16.9879C42.7305 17.4577 41.6101 17.2301 40.5661 16.4795C39.5221 15.7289 38.95 14.7392 39.2879 14.2693C39.6256 13.7993 40.746 14.027 41.7899 14.7776ZM36.731 9.84879C37.0689 9.37897 38.1893 9.60653 39.2333 10.3572C40.2773 11.1079 40.8494 12.0974 40.5115 12.5674C40.1738 13.0373 39.0534 12.8098 38.0095 12.059C36.9655 11.3084 36.3931 10.3187 36.731 9.84879ZM31.727 8.83192C32.0646 8.3621 33.185 8.58966 34.229 9.34042C35.2731 10.091 35.8451 11.0807 35.5075 11.5507C35.1695 12.0206 34.0491 11.7929 33.0052 11.0423C31.9611 10.2914 31.3891 9.30187 31.727 8.83192ZM20.9347 34.5156H20.4399L20.2318 36.4279H20.9347V34.5156ZM23.0039 40.3173H19.899C20.047 40.9601 20.5862 41.4691 21.2788 41.5444C22.0911 41.6327 22.8259 41.0946 23.0039 40.3173ZM21.6429 31.5071C21.4759 31.3019 21.3442 31.0703 21.2533 30.8219C21.1198 30.8052 20.9829 30.792 20.8465 30.7782L20.7672 31.5073H21.6429V31.5071ZM21.9218 27.1384C22.0782 27.0723 22.2462 27.0379 22.4161 27.0372C22.5886 27.0372 22.7576 27.0714 22.9177 27.1394C23.143 27.2342 23.3706 27.3234 23.6003 27.4069C23.8558 27.4612 24.1239 27.505 24.4059 27.5382C24.6204 27.5634 24.8436 27.5825 25.0755 27.5958C25.3353 27.6106 25.6052 27.6189 25.8894 27.6189C26.6822 27.6186 27.4696 27.5613 28.217 27.4887L28.2705 27.4834L28.2247 27.0633V26.4148C28.2071 26.4304 28.1908 26.4456 28.1732 26.4612C28.169 26.4648 28.1647 26.4679 28.1604 26.4714C27.9277 26.6703 27.6316 26.7797 27.3255 26.7798C27.1414 26.7798 26.9595 26.7404 26.7919 26.6643C26.6243 26.5881 26.475 26.477 26.354 26.3384C26.2422 26.2111 26.1568 26.0629 26.1027 25.9024C26.0487 25.7419 26.027 25.5723 26.039 25.4034C26.0499 25.2344 26.0943 25.0692 26.1695 24.9174C26.2447 24.7657 26.3493 24.6304 26.4772 24.5194C26.7786 24.2577 27.067 23.9815 27.3416 23.6918C27.7141 23.2972 28.0123 22.9186 28.2192 22.5721L28.2249 22.5621V20.2918C28.3908 20.4352 28.5357 20.594 28.6389 20.7569C28.7771 20.978 28.8519 21.191 28.8539 21.4719V21.4724C28.8533 21.762 28.7668 22.1574 28.4407 22.7042C28.3731 22.8169 28.3011 22.9269 28.2249 23.0339C28.0451 23.2872 27.8184 23.5642 27.5372 23.8627C27.2855 24.1295 26.9908 24.4136 26.6469 24.7137C26.5448 24.8028 26.4613 24.9111 26.4012 25.0324C26.341 25.1538 26.3053 25.2858 26.2961 25.4209C26.287 25.5561 26.3046 25.6917 26.3478 25.82C26.3911 25.9484 26.4593 26.0669 26.5484 26.1689C26.6451 26.28 26.7646 26.369 26.8986 26.4299C27.0327 26.4908 27.1783 26.5223 27.3256 26.5221C27.5663 26.5221 27.808 26.4383 28.0036 26.2673C28.046 26.2302 28.0849 26.194 28.1262 26.1571C28.1595 26.1274 28.1923 26.0979 28.2249 26.0684C29.1242 25.2547 29.7706 24.4965 30.2101 23.7645C30.6838 22.9764 30.9176 22.2017 30.9168 21.4731V21.4724C30.9192 20.7445 30.6787 20.0977 30.3465 19.5992C29.8446 18.8476 29.1747 18.3861 28.6412 18.084C28.1047 17.7845 27.688 17.6502 27.6437 17.6351C27.617 17.6269 27.5901 17.6198 27.5629 17.6137C27.4556 17.575 27.3424 17.5551 27.2284 17.5549H26.9251C26.3379 18.1193 25.5546 18.4336 24.7402 18.4318C24.4997 18.4318 24.258 18.4038 24.0215 18.3489C23.4705 18.2211 22.9643 17.9468 22.5564 17.5549H22.2473C22.1296 17.5549 22.0173 17.5764 21.9125 17.6138C21.8855 17.6201 21.8585 17.6267 21.8316 17.6352C21.7719 17.6568 21.0519 17.8833 20.2661 18.444C19.8742 18.7264 19.4609 19.0974 19.1281 19.5992C18.7963 20.0975 18.5559 20.7448 18.558 21.4724C18.5575 22.2009 18.7908 22.9761 19.2647 23.7645C19.7042 24.4965 20.351 25.255 21.2507 26.0686C21.2832 26.098 21.3158 26.1276 21.3491 26.1571C21.3903 26.194 21.4291 26.2302 21.4715 26.2673C21.6591 26.4316 21.9001 26.5221 22.1495 26.522C22.2967 26.5222 22.4424 26.4907 22.5765 26.4298C22.7106 26.3689 22.83 26.2799 22.9268 26.1688C23.0483 26.0298 23.1299 25.8604 23.163 25.6788C23.196 25.5027 23.1824 25.321 23.1238 25.1518C23.0651 24.9825 22.9633 24.8315 22.8284 24.7136C22.4845 24.4137 22.1897 24.1297 21.9381 23.8628C21.6571 23.5646 21.4304 23.288 21.2508 23.0349C21.1743 22.9276 21.102 22.8173 21.0341 22.7043C20.7087 22.1588 20.6219 21.7638 20.6211 21.4744L20.621 21.4724C20.6234 21.1826 20.7024 20.9641 20.8496 20.7359C20.9499 20.5801 21.0918 20.43 21.2507 20.2931V22.5641L21.2553 22.5722C21.4628 22.919 21.7614 23.2976 22.1335 23.6919C22.4081 23.9815 22.6966 24.2576 22.9979 24.5193C23.3858 24.858 23.5201 25.3794 23.3878 25.8447L24.5007 26.6658L24.9403 26.9902C24.9768 27.017 25.0029 27.0521 25.0206 27.0905C25.0442 27.142 25.0511 27.1999 25.0385 27.2553C25.0308 27.2888 25.0166 27.3214 24.9949 27.3508L24.9183 27.4546C24.8777 27.5097 24.8169 27.5463 24.7493 27.5565C24.6817 27.5668 24.6128 27.5497 24.5577 27.5092L24.4202 27.4076L23.0584 26.4028C22.8172 26.6437 22.4904 26.7792 22.1496 26.7797C21.8435 26.7795 21.5475 26.6703 21.3148 26.4715C21.3106 26.4679 21.3061 26.465 21.3019 26.4612C21.2842 26.4458 21.2681 26.4307 21.2507 26.4152V27.0593L21.2508 27.0595C21.4887 27.0834 21.7125 27.1101 21.9218 27.1384ZM28.4126 36.4279H29.2433L29.0353 34.5156H28.4126V36.4279ZM28.1965 41.5444C28.889 41.469 29.428 40.96 29.5761 40.3173H26.4712C26.6492 41.0946 27.3842 41.6327 28.1965 41.5444Z" fill="#148A8B"/>
<path d="M36.8138 31.3723C38.4 31.1493 39.5051 29.6827 39.2822 28.0964C39.0593 26.5102 37.5927 25.405 36.0065 25.6279C34.4203 25.8508 33.3152 27.3175 33.5381 28.9037C33.7611 30.49 35.2276 31.5952 36.8138 31.3723Z" fill="#148A8B"/>
<path d="M12.2077 31.3056H12.2073C14.8495 30.6254 17.0922 30.4216 18.8393 30.4213C19.6202 30.4213 20.301 30.4623 20.8745 30.5201C21.0788 30.5406 21.2703 30.5631 21.4468 30.5868C21.5444 30.9168 21.7138 31.2308 21.9884 31.5071H31.9588C32.8449 30.8206 33.1786 29.825 33.0553 29.0343C32.8806 27.9135 31.3941 27.2941 30.0829 27.5478C29.547 27.6037 28.9408 27.6766 28.2982 27.7398C28.2478 27.7447 28.1982 27.7499 28.1473 27.7546C27.1758 27.8467 26.1259 27.9108 25.1037 27.8557C25.0763 27.8543 25.0492 27.8519 25.0219 27.8501C25.05 27.8573 25.0774 27.8636 25.1054 27.8706C25.9364 28.0795 26.7841 28.2152 27.6388 28.2762C27.9593 28.299 28.2805 28.3107 28.6019 28.3112C29.6726 28.3112 30.3134 28.1828 30.32 28.1815C30.406 28.1637 30.4937 28.1547 30.5816 28.1546C31.1884 28.1546 31.7187 28.5859 31.8431 29.1802C31.9882 29.8758 31.5407 30.5604 30.8452 30.7062C30.7545 30.7249 29.9355 30.8862 28.6408 30.8897L28.6017 30.89C27.755 30.8898 26.6545 30.8184 25.3994 30.5754C24.9653 30.4911 24.5346 30.3904 24.1081 30.2734C23.3605 30.0693 22.6272 29.8156 21.9133 29.514C21.2585 29.2369 20.9513 28.4788 21.2281 27.8245C21.2491 27.7745 21.2748 27.7277 21.3014 27.6815C21.3723 27.558 21.4633 27.4471 21.5707 27.3534C21.4673 27.3412 21.36 27.3294 21.2506 27.3182L21.2228 27.3154C20.5413 27.246 19.7444 27.1978 18.8392 27.1978C16.8407 27.1975 14.3221 27.4323 11.4037 28.1839C10.5417 28.4059 10.0229 29.2845 10.2449 30.1465C10.4322 30.8738 11.0868 31.3567 11.8045 31.3567C11.9405 31.3569 12.076 31.3397 12.2077 31.3056Z" fill="#148A8B"/>
<path d="M24.3628 27.9333C24.0805 27.8482 23.8006 27.755 23.5237 27.6537C23.286 27.5673 23.0504 27.475 22.8173 27.3769C22.6805 27.3189 22.5327 27.2913 22.3842 27.2959C22.2357 27.3006 22.0899 27.3373 21.957 27.4037C21.7359 27.5129 21.5614 27.6979 21.4655 27.9251C21.4597 27.9386 21.4557 27.9524 21.4505 27.9662C21.2576 28.4809 21.5025 29.0606 22.0137 29.2769C22.7044 29.5687 23.4135 29.8152 24.1363 30.0149C24.5603 30.1324 24.9726 30.2297 25.3704 30.3087C26.6172 30.5564 27.7227 30.6323 28.602 30.6325H28.6127C29.9243 30.6313 30.7371 30.4655 30.792 30.454C31.0598 30.398 31.2943 30.2379 31.4441 30.009C31.5939 29.7801 31.6466 29.501 31.5907 29.2332C31.5347 28.9658 31.3748 28.7315 31.1462 28.5817C30.9176 28.432 30.639 28.379 30.3714 28.4345C30.3382 28.4413 29.6734 28.5697 28.6019 28.5695C27.8007 28.5674 27.001 28.4993 26.211 28.3658C25.5864 28.2608 24.9691 28.1163 24.3628 27.9333ZM26.4311 40.0593H32.3822C32.3817 40.0412 32.3795 40.0238 32.3795 40.0057C32.3795 38.9292 33.2556 38.0533 34.332 38.0533C35.4083 38.0533 36.2841 38.9292 36.2841 40.0057C36.2841 40.0238 36.2818 40.0412 36.2813 40.0593H37.7922C37.9632 40.0593 38.1271 39.9914 38.248 39.8705C38.3689 39.7496 38.4369 39.5856 38.4369 39.4146V37.3304C38.4369 37.1594 38.3689 36.9954 38.248 36.8745C38.1271 36.7536 37.9632 36.6857 37.7922 36.6857H28.1547V34.2575H41.9368C42.1077 34.2575 42.2717 34.1895 42.3926 34.0686C42.5135 33.9478 42.5814 33.7838 42.5814 33.6128V32.4095C42.5814 32.2385 42.5135 32.0746 42.3926 31.9537C42.2717 31.8328 42.1077 31.7649 41.9368 31.7649H7.4101C7.23913 31.7649 7.07516 31.8328 6.95427 31.9537C6.83338 32.0746 6.76546 32.2385 6.76546 32.4095V33.6128C6.76546 33.7838 6.83338 33.9478 6.95427 34.0686C7.07516 34.1895 7.23913 34.2575 7.4101 34.2575H21.1925V36.6857H11.5549C11.384 36.6857 11.22 36.7536 11.0991 36.8745C10.9782 36.9954 10.9103 37.1594 10.9103 37.3304V39.4146C10.9103 39.5856 10.9782 39.7496 11.0991 39.8705C11.22 39.9914 11.384 40.0593 11.5549 40.0593H13.0657C13.0652 40.0412 13.063 40.0237 13.063 40.0055C13.063 38.929 13.9388 38.0533 15.0154 38.0533C16.092 38.0533 16.9678 38.929 16.9678 40.0055C16.9678 40.0237 16.9656 40.0412 16.9651 40.0593H23.0441H26.4311Z" fill="#148A8B"/>
<path d="M16.7099 40.0057C16.7099 39.0696 15.9512 38.311 15.0154 38.311C14.0796 38.311 13.3209 39.0696 13.3209 40.0057C13.3209 40.0238 13.3231 40.0412 13.3236 40.0593C13.3263 40.1471 13.3351 40.2333 13.3508 40.3173C13.4973 41.104 14.1861 41.7002 15.0154 41.7002C15.8445 41.7002 16.5335 41.104 16.68 40.3173C16.6957 40.2333 16.7044 40.1471 16.7072 40.0593C16.7077 40.0412 16.7099 40.0237 16.7099 40.0057ZM36.0261 40.0057C36.0261 39.0696 35.2674 38.311 34.3316 38.311C33.3958 38.311 32.6371 39.0696 32.6371 40.0057C32.6371 40.0238 32.6393 40.0412 32.6397 40.0593C32.6424 40.1471 32.6513 40.2333 32.6669 40.3173C32.8135 41.104 33.5023 41.7002 34.3315 41.7002C35.1606 41.7002 35.8496 41.104 35.9961 40.3173C36.0117 40.2321 36.0208 40.1458 36.0233 40.0593C36.0241 40.0412 36.0261 40.0237 36.0261 40.0057ZM26.0576 17.5548L26.137 17.8129C26.2736 17.7374 26.404 17.6511 26.5269 17.5548C26.8699 17.2864 27.1478 16.9439 27.3399 16.553C26.8226 16.8855 26.2837 17.1198 25.9625 17.2462L26.0576 17.5548ZM23.5886 16.9997L23.6287 16.8696C23.6639 16.7593 23.783 16.6987 23.8963 16.7261C24.4492 16.8605 25.0263 16.8605 25.5792 16.7261C25.6923 16.6987 25.8117 16.7594 25.8469 16.8696L25.8869 16.9995C26.1394 16.8989 26.387 16.7865 26.629 16.6627C26.9183 16.515 27.2295 16.3314 27.5109 16.1204C27.5298 16.0582 27.5476 15.9951 27.5626 15.9307C27.6732 15.4587 27.6632 14.9666 27.5335 14.4995C27.1074 14.6424 25.4941 15.1655 24.738 15.1655C23.9821 15.1655 22.3707 14.6432 21.943 14.4999C21.9325 14.5381 21.9221 14.5764 21.9131 14.6153C21.7967 15.1127 21.8143 15.6321 21.9643 16.1204C22.2456 16.3315 22.557 16.5151 22.8466 16.663C23.0885 16.7867 23.3361 16.8991 23.5886 16.9997ZM23.4176 17.5548L23.5125 17.2462C23.1913 17.1199 22.6524 16.8855 22.1351 16.553C22.3275 16.9435 22.6049 17.2858 22.9471 17.5548C23.0692 17.6507 23.1998 17.7371 23.3379 17.813C23.3646 17.727 23.391 17.6409 23.4176 17.5548Z" fill="#148A8B"/>
<path d="M22.0227 14.2544C22.4346 14.3921 24.0238 14.9072 24.7376 14.9072C25.4517 14.9072 27.0419 14.3918 27.4532 14.2543C27.5163 14.2333 27.5526 14.2208 27.5526 14.2208C27.5526 14.2208 27.549 14.0623 27.5348 13.8121C27.4865 12.9541 27.3135 11.0072 26.7286 10.582C25.9735 10.0328 24.7376 10.0328 24.7376 10.0328C24.7376 10.0328 23.5019 10.0328 22.7465 10.582C22.1639 11.0058 21.9902 12.9399 21.9411 13.8025C21.9265 14.0582 21.9228 14.2209 21.9228 14.2209C21.9228 14.2209 21.9592 14.2333 22.0227 14.2544ZM10.1782 24.5203H16.1195V23.7467H10.3016C10.3418 24.0112 10.2987 24.2815 10.1782 24.5203ZM4.03396 16.1136C4.39006 16.8 5.01743 17.3436 5.82015 17.5701C6.51412 17.7671 7.25666 17.6974 7.90184 17.3747L4.03396 16.1136ZM6.27269 14.3921C5.99962 14.515 5.7255 14.6356 5.45038 14.7538L9.17953 16.1204C9.27149 15.9439 9.34503 15.7583 9.39897 15.5667C9.60691 14.8329 9.51645 14.0466 9.1473 13.3791C9.13235 13.3816 9.11791 13.3849 9.10231 13.3862C8.39422 13.4457 7.26725 13.9486 6.27269 14.3921ZM7.12852 16.7307L7.56508 15.7872L5.08435 14.9054C4.56373 15.1135 4.12086 15.2524 3.79944 15.2524C3.78035 15.2524 3.76411 15.2489 3.7458 15.2478C3.77693 15.4376 3.82686 15.6237 3.89484 15.8035L7.08739 16.8226C7.09062 16.8118 7.12375 16.7411 7.12852 16.7307ZM2.30721 29.4461C2.58234 30.2115 2.96758 31.6821 2.96913 33.9362C2.96887 35.4854 2.78528 37.4062 2.24725 39.7236C2.04612 40.5905 2.58569 41.4566 3.45287 41.658C3.57536 41.6864 3.69797 41.7 3.81852 41.7C4.55135 41.7 5.21431 41.1971 5.3872 40.4524H5.38694C5.97757 37.91 6.19237 35.7408 6.19237 33.9362C6.19443 30.8675 5.56796 28.8615 5.15165 27.8703C5.15178 27.8287 5.15178 27.7869 5.15126 27.7432C5.07171 26.8318 5.15087 25.8657 5.30043 24.9196C5.12614 24.8189 4.95989 24.7048 4.80315 24.5785C4.21923 24.1106 3.75895 23.5035 3.39705 22.7234C2.93148 21.7059 2.79095 20.7575 2.74853 20.2828L2.74647 20.261L2.74595 20.2557L2.74544 20.2479C2.73362 20.0789 2.75541 19.9092 2.80957 19.7487C2.86372 19.5882 2.94915 19.44 3.06093 19.3127C3.18171 19.1736 3.33108 19.0622 3.49885 18.9861C3.66662 18.91 3.84884 18.871 4.03306 18.8718C4.708 18.8718 5.27258 19.4 5.31835 20.0742C5.32659 20.1604 5.33769 20.2463 5.35162 20.3318C5.39095 20.5796 5.44712 20.8245 5.51974 21.0648C5.62314 21.4136 5.76651 21.7334 5.93219 22.0007C6.00503 21.7112 6.07543 21.4331 6.13899 21.1728C6.56794 19.908 6.15562 18.3514 5.06913 18.0263C3.98213 17.7014 2.36084 18.2248 1.62517 20.0804C0.628157 22.6383 0.361531 24.3209 0.562016 27.1973C0.771397 28.6235 1.49418 29.2067 2.30721 29.4461Z" fill="#148A8B"/>
<path d="M5.09685 20.3724C5.08231 20.2811 5.07053 20.1894 5.06153 20.0974L5.06101 20.0913C5.05305 19.9553 5.01823 19.8223 4.95856 19.6998C4.89888 19.5773 4.81554 19.4679 4.71335 19.3778C4.61115 19.2878 4.49212 19.2188 4.36314 19.175C4.23415 19.1312 4.09776 19.1133 3.96184 19.1225C3.82592 19.1317 3.69317 19.1677 3.57125 19.2285C3.44932 19.2892 3.34064 19.3736 3.25149 19.4766C3.16233 19.5796 3.09446 19.6992 3.05179 19.8286C3.00913 19.958 2.99251 20.0945 3.00291 20.2303L3.00265 20.2301C3.01129 20.2992 3.07627 21.402 3.63092 22.6149C3.91147 23.2196 4.32418 23.8639 4.96522 24.3776C5.08592 24.4753 5.21274 24.5651 5.34491 24.6465C5.92767 25.0064 6.65574 25.2346 7.47341 25.2347L7.49726 25.2346C8.07035 25.2346 8.68406 25.1324 9.34186 24.9225C9.5613 24.8526 9.75082 24.7108 9.87988 24.5201C9.95635 24.4081 10.0099 24.2821 10.0375 24.1493C10.0652 24.0166 10.0663 23.8797 10.0408 23.7465C10.0332 23.7058 10.0233 23.6656 10.011 23.6261C9.96981 23.497 9.90359 23.3774 9.81615 23.2739C9.7287 23.1704 9.62173 23.0852 9.50135 23.0231C9.38097 22.961 9.24953 22.9232 9.11454 22.9119C8.97955 22.9006 8.84365 22.916 8.71461 22.9572C8.22597 23.1131 7.8241 23.1717 7.49739 23.1715C6.91772 23.1659 6.56536 23.0082 6.25258 22.7655C6.10405 22.6499 5.96996 22.5012 5.84838 22.3354C5.59078 21.984 5.39468 21.5489 5.27323 21.1392C5.19724 20.8878 5.13831 20.6317 5.09685 20.3724ZM3.34019 14.3345C3.37242 14.6022 3.42257 14.7987 3.47827 14.8736C3.52804 14.9406 3.60926 14.9763 3.7146 14.9887C3.941 15.0153 4.28369 14.9282 4.69537 14.778C4.82273 14.7313 4.94923 14.6823 5.07481 14.6309C6.3142 14.1262 7.96566 13.2626 8.99942 13.1389C9.02649 13.1357 9.05447 13.1315 9.08064 13.1293C9.76462 13.0718 8.92619 11.4707 7.66474 10.8265C6.68011 10.3239 4.77195 10.1688 3.87112 11.3374C3.36752 11.9907 3.26231 13.2234 3.31505 14.0551C3.32149 14.1543 3.32987 14.2484 3.34019 14.3345ZM12.3806 23.4244H15.2815C15.3499 23.4244 15.4155 23.3973 15.4638 23.3489C15.5122 23.3005 15.5394 23.235 15.5394 23.1666V21.9417C15.5394 21.8733 15.5122 21.8078 15.4638 21.7594C15.4155 21.711 15.3499 21.6839 15.2815 21.6839H12.3806C12.3122 21.6839 12.2466 21.711 12.1983 21.7594C12.1499 21.8078 12.1227 21.8733 12.1227 21.9417V23.1666C12.1227 23.235 12.1499 23.3005 12.1983 23.3489C12.2466 23.3973 12.3122 23.4244 12.3806 23.4244Z" fill="#148A8B"/>
</g>
<defs>
<clipPath id="clip0_4920_2960">
<rect width="45" height="45" fill="white" transform="translate(0.5)"/>
</clipPath>
</defs>
</svg>
