<svg width="46" height="45" viewBox="0 0 46 45" fill="none" xmlns="http://www.w3.org/2000/svg">
<g clip-path="url(#clip0_4920_2977)">
<path d="M16.8983 6.1017C18.5832 6.1017 19.9491 4.73578 19.9491 3.05085C19.9491 1.36591 18.5832 0 16.8983 0C15.2134 0 13.8474 1.36591 13.8474 3.05085C13.8474 4.73578 15.2134 6.1017 16.8983 6.1017Z" fill="#148A8B"/>
<path d="M3.98405 42.3305C3.98405 43.0385 4.2653 43.7175 4.76593 44.2181C5.26656 44.7188 5.94555 45 6.65355 45C7.36154 45 8.04053 44.7188 8.54116 44.2181C9.04179 43.7175 9.32304 43.0385 9.32304 42.3305C9.32304 31.8325 9.40922 36.8001 8.88829 21.6976C8.87685 21.3605 8.60609 21.8967 13.8314 13.6358C13.8926 13.539 13.9748 13.4573 14.0718 13.3966C14.1689 13.3359 14.2784 13.2979 14.3921 13.2853C14.5059 13.2727 14.621 13.2859 14.729 13.3238C14.837 13.3618 14.9351 13.4236 15.0159 13.5046L18.6205 17.1153C19.0503 17.5451 19.6334 17.7866 20.2413 17.7866C20.8492 17.7866 21.4322 17.5451 21.862 17.1153C22.2919 16.6854 22.5334 16.1024 22.5334 15.4945C22.5334 14.8866 22.2919 14.3036 21.862 13.8737C17.0135 9.03203 16.8884 8.74754 14.3745 7.07186C13.9513 6.80387 13.4795 6.62186 12.986 6.53624C12.4925 6.45061 11.9869 6.46305 11.4982 6.57283C11.0095 6.68261 10.5472 6.88759 10.1378 7.17606C9.72829 7.46453 9.37965 7.83084 9.11177 8.25407L3.87956 16.5211C3.27922 17.5217 3.03891 18.6975 3.19846 19.8534C4.14041 37.2104 3.98405 32.2421 3.98405 42.3305Z" fill="#148A8B"/>
<path d="M20.6722 21.076L18.7501 18.7246C18.4867 18.4375 18.1233 18.2621 17.7346 18.2345C17.346 18.2068 16.9614 18.3289 16.6599 18.5758C16.3584 18.8226 16.1629 19.1755 16.1133 19.562C16.0637 19.9485 16.1639 20.3393 16.3934 20.6542C19.673 24.6615 19.0911 23.9522 19.6265 24.6089C19.7696 24.7842 19.95 24.9254 20.1544 25.0224C20.3589 25.1193 20.5824 25.1696 20.8087 25.1695H13.8993C13.4947 25.1695 13.1067 25.3302 12.8207 25.6163C12.5346 25.9023 12.3739 26.2903 12.3739 26.6949V27.4576C12.3739 27.8622 12.5346 28.2502 12.8207 28.5363C13.1067 28.8223 13.4947 28.983 13.8993 28.983H40.5942C40.9988 28.983 41.3868 28.8223 41.6728 28.5363C41.9589 28.2502 42.1196 27.8622 42.1196 27.4576V26.6949C42.1196 26.2903 41.9589 25.9023 41.6728 25.6163C41.3868 25.3302 40.9988 25.1695 40.5942 25.1695H27.2468C27.7413 25.1717 28.2171 24.9801 28.5722 24.6358C28.9273 24.2916 29.1335 23.822 29.1467 23.3275C29.2598 23.904 29.5899 24.4151 30.0689 24.7552C30.5479 25.0954 31.1392 25.2387 31.7208 25.1556C32.3024 25.0725 32.8299 24.7693 33.1944 24.3086C33.5589 23.8479 33.7327 23.2648 33.6799 22.6797C33.627 22.0946 33.3516 21.5521 32.9104 21.1642C32.4692 20.7763 31.8959 20.5725 31.3089 20.5949C30.7218 20.6174 30.1658 20.8643 29.7555 21.2848C29.3452 21.7053 29.112 22.2672 29.104 22.8547C29.0299 22.5099 28.861 22.1927 28.6165 21.9387C28.3719 21.6847 28.0613 21.504 27.7196 21.4169C28.4686 19.7428 28.6654 19.4507 28.6654 18.9763C28.6677 18.6254 28.549 18.2846 28.3293 18.011C28.1097 17.7375 27.8024 17.548 27.4594 17.4746C27.1163 17.4011 26.7584 17.4482 26.446 17.6078C26.1336 17.7674 25.8857 18.0298 25.7442 18.3508L24.4095 21.3559H21.2625C21.1495 21.3559 21.038 21.3308 20.9359 21.2824C20.8338 21.234 20.7437 21.1635 20.6722 21.076ZM17.661 45H36.7288C37.3356 45 37.9176 44.7589 38.3467 44.3298C38.7758 43.9007 39.0169 43.3187 39.0169 42.7119V30.5085H15.3729V42.7119C15.3729 43.3187 15.6139 43.9007 16.043 44.3298C16.4721 44.7589 17.0541 45 17.661 45Z" fill="#148A8B"/>
</g>
<defs>
<clipPath id="clip0_4920_2977">
<rect width="45" height="45" fill="white" transform="translate(0.5)"/>
</clipPath>
</defs>
</svg>
