<svg width="46" height="45" viewBox="0 0 46 45" fill="none" xmlns="http://www.w3.org/2000/svg">
<g clip-path="url(#clip0_4920_3252)">
<path fill-rule="evenodd" clip-rule="evenodd" d="M28.6283 45C28.4701 45 28.3119 44.9736 28.1538 44.9736C26.0712 44.8682 24.3313 44.2091 23.0132 42.9701C21.6687 44.2091 19.9288 44.8946 17.8462 44.9736C17.688 44.9736 17.5299 45 17.398 45C15.1309 45 13.2592 44.2355 11.7829 42.7329C9.88486 40.7821 8.83038 37.6977 8.8831 34.2443C8.90947 32.6889 8.72493 29.8682 8.11861 28.8928C6.40507 26.2039 5.40332 22.4868 5.56149 19.4025C5.64057 16.5554 6.61597 14.1037 8.38223 12.3111C10.0694 10.5712 12.3629 9.62215 14.8673 9.62215C15.4473 9.62215 16.0536 9.67488 16.6335 9.78032L20.1661 15.8963C19.3488 15.6854 18.5316 15.3954 17.7144 15C16.739 14.5519 15.7636 14.3146 14.8409 14.3146C12.0465 14.3146 10.2539 16.3972 10.2276 19.6134C10.2276 19.9033 10.0958 23.2777 12.0729 26.362C13.5228 28.6555 13.6019 32.6889 13.5755 34.3234C13.5492 35.6151 13.7074 37.9877 15.0255 39.3322C15.6581 39.9649 16.4754 40.3076 17.4244 40.3076C17.5035 40.3076 17.5826 40.3076 17.6353 40.2812C21.3787 40.123 21.4051 35.6942 21.4314 34.2443C21.4314 31.1336 22.3541 29.7627 23.0132 29.7627C23.6458 29.7627 24.5685 31.1336 24.5685 34.2443C24.5949 35.6942 24.6212 40.123 28.3647 40.2812C28.4437 40.3076 28.4965 40.3076 28.5755 40.3076C31.0536 40.3076 32.4244 38.1722 32.4244 34.3234C32.398 32.6889 32.4771 28.6555 33.927 26.362C35.1924 24.3849 35.6142 22.2496 35.7197 20.826C35.9042 18.6116 35.4033 16.7663 34.2961 15.58C33.5052 14.71 32.4508 14.2619 31.2381 14.2619C30.3154 14.2619 29.34 14.5255 28.2856 15C26.6511 15.7645 25.0167 16.1863 23.4349 16.2654L20.4297 11.0721C21.326 11.4148 22.1696 11.5729 23.0132 11.5729C24.0676 11.5729 25.1221 11.3093 26.2821 10.7557C27.9692 9.96486 29.6564 9.56943 31.2645 9.56943C33.7689 9.56943 36.0624 10.5712 37.7232 12.3638C39.7531 14.5782 40.7021 17.7153 40.4121 21.2214C40.1748 24.0158 39.3049 26.6784 37.8813 28.8928C37.3277 29.7627 37.0905 32.2935 37.1168 34.297C37.1432 37.7768 36.0887 40.8612 34.1907 42.7592C32.7407 44.2355 30.869 45 28.6283 45ZM23.0132 28.8664C24.2258 28.8664 25.4385 30.5272 25.4648 34.2443C25.4912 37.7241 26.3875 39.3322 28.4174 39.4113H28.5755C31.0272 39.4113 31.5545 36.6432 31.5545 34.3234C31.5017 32.2144 31.6599 28.2865 33.1889 25.8875C34.3488 24.0685 34.7443 22.0914 34.8497 20.7469C35.0079 18.8225 34.5597 17.1617 33.6634 16.1599C33.0307 15.4745 32.2135 15.1318 31.2381 15.1318C30.4473 15.1318 29.5773 15.3691 28.6546 15.7909C27.0729 16.5554 25.4912 16.9772 23.9095 17.109L24.4367 18.0053L25.1221 17.6362C25.7548 17.2671 26.5457 17.478 26.9147 18.1107C27.2838 18.7434 27.0729 19.5343 26.4402 19.9033L25.7548 20.2988L25.913 20.5624L26.5984 20.167C27.2311 19.7979 28.0219 20.0352 28.391 20.6415C28.7601 21.2742 28.5492 22.0914 27.9165 22.4605L27.2311 22.8559L27.3893 23.1195L28.0747 22.7241C28.681 22.355 29.4982 22.5659 29.8673 23.1986C30.2364 23.8313 29.9991 24.6485 29.3928 24.9912L28.7074 25.3867L30.1045 27.812C30.4473 28.4446 30.2364 29.2619 29.6037 29.6046C29.4191 29.7364 29.1819 29.7891 28.9446 29.7891C28.4965 29.7891 28.0483 29.5519 27.811 29.1301L26.4139 26.7048L25.7284 27.1002C25.5439 27.232 25.3067 27.2847 25.0694 27.2847C24.5949 27.2847 24.1731 27.0211 23.9358 26.6257C23.5668 25.993 23.7777 25.1758 24.4103 24.833L25.0958 24.4376L24.9376 24.174L24.2522 24.5694C24.0676 24.6749 23.8304 24.7276 23.5931 24.7276C23.145 24.7276 22.6968 24.4903 22.4596 24.0685C22.0905 23.4359 22.3277 22.645 22.9341 22.2759L23.6195 21.8805L23.4877 21.6169L22.8023 22.0123C22.5914 22.1178 22.3541 22.1968 22.1432 22.1968C21.6687 22.1968 21.2205 21.9332 20.9833 21.5378C20.6406 20.9051 20.8515 20.0879 21.4842 19.7188L22.1696 19.3234L20.7724 16.9244C19.6388 16.7135 18.4789 16.3445 17.3453 15.7909C16.4754 15.3954 15.6318 15.1845 14.8409 15.1845C12.5474 15.1845 11.1239 16.8981 11.1239 19.6397V19.6661C11.1239 19.6925 10.9657 22.9877 12.811 25.8875C14.34 28.2865 14.4982 32.2144 14.4455 34.3497C14.4455 35.2724 14.5246 37.5659 15.6581 38.7258C16.159 39.2267 16.7917 39.464 17.6089 39.4113C19.6125 39.3322 20.5351 37.7241 20.5351 34.2443C20.5615 30.5272 21.7741 28.8664 23.0132 28.8664Z" fill="#148A8B"/>
<path fill-rule="evenodd" clip-rule="evenodd" d="M28.9445 28.9192C28.8127 28.9192 28.6545 28.8401 28.5754 28.6819L26.7301 25.5185L25.3065 26.3357C25.2275 26.3884 25.1484 26.4148 25.0693 26.4148C24.9375 26.4148 24.7793 26.3357 24.7002 26.1775C24.5684 25.9666 24.6475 25.703 24.8584 25.5975L26.3083 24.754L25.2802 22.9613L23.8303 23.8049C23.7512 23.8313 23.6721 23.8576 23.593 23.8576C23.4612 23.8576 23.303 23.7786 23.2239 23.6467C23.0921 23.4359 23.1712 23.1459 23.3821 23.0404L24.832 22.1968L23.8039 20.4042L22.354 21.2478C22.2749 21.3005 22.2222 21.3005 22.1431 21.3005C21.9849 21.3005 21.8268 21.2214 21.7477 21.0896C21.6422 20.8787 21.6949 20.6151 21.9058 20.4833L23.3558 19.6661L12.3891 0.659051C12.2573 0.448155 12.3364 0.184534 12.5473 0.0527241C12.7582 -0.0527241 13.0218 0 13.1536 0.210896L24.1203 19.2179L25.5702 18.3743C25.7811 18.2689 26.0447 18.3216 26.1501 18.5325C26.2819 18.7434 26.2029 19.0334 25.992 19.1388L24.5684 19.9824L25.5965 21.775L27.0201 20.9315C27.231 20.7996 27.521 20.8787 27.6264 21.0896C27.7582 21.3005 27.6791 21.5641 27.4682 21.696L26.0183 22.5132L27.0728 24.3058L28.4964 23.4886C28.7072 23.3568 28.9709 23.4359 29.1027 23.6467C29.2345 23.8576 29.1554 24.1213 28.9445 24.2531L27.4946 25.0703L29.3399 28.2601C29.4454 28.471 29.3927 28.7346 29.1818 28.8664C29.1027 28.8928 29.0236 28.9192 28.9445 28.9192Z" fill="#148A8B"/>
</g>
<defs>
<clipPath id="clip0_4920_3252">
<rect width="45" height="45" fill="white" transform="translate(0.5)"/>
</clipPath>
</defs>
</svg>
