<svg width="46" height="46" viewBox="0 0 46 46" fill="none" xmlns="http://www.w3.org/2000/svg">
<path d="M35.5291 31.3635H31.5642L31.7526 32.4935L35.4968 31.5574L35.5291 31.3635ZM35.2447 33.07L31.9845 33.8851L32.0901 34.5185L35.1299 33.7585L35.2447 33.07ZM34.3573 38.3947L34.511 37.4722L32.6595 37.9351L32.7361 38.3947H34.3573ZM8.66423 37.4565L9.01983 39.0561C9.06562 39.2623 9.18593 39.4444 9.35767 39.5674C9.52941 39.6904 9.74051 39.7456 9.95049 39.7226C10.1605 39.6995 10.3545 39.5998 10.4955 39.4424C10.6365 39.2851 10.7144 39.0813 10.7144 38.8701V33.3998C10.7144 32.8404 10.9366 32.3039 11.3322 31.9083C11.7278 31.5127 12.2643 31.2905 12.8237 31.2905C13.3832 31.2905 13.9197 31.5127 14.3153 31.9083C14.7109 32.3039 14.9331 32.8404 14.9331 33.3998V38.8704C14.9331 39.0816 15.011 39.2855 15.152 39.4428C15.2929 39.6001 15.487 39.6999 15.697 39.7229C15.907 39.746 16.1181 39.6907 16.2898 39.5677C16.4615 39.4447 16.5818 39.2627 16.6276 39.0565L16.9832 37.4569C17.5148 35.0624 18.4149 32.7649 19.6513 30.6465C21.6128 27.2929 22.5193 23.4266 22.2529 19.5506C22.2017 18.7905 21.9257 18.0628 21.4599 17.46C20.9941 16.8572 20.3596 16.4064 19.637 16.1651C18.9144 15.9238 18.1364 15.9028 17.4019 16.1047C16.6673 16.3067 16.0094 16.7224 15.5117 17.2992C15.1783 17.6854 14.7656 17.9953 14.3017 18.2076C13.8378 18.42 13.3335 18.5299 12.8233 18.5299C12.3131 18.5299 11.8089 18.42 11.345 18.2076C10.8811 17.9953 10.4684 17.6854 10.135 17.2992C9.6373 16.7227 8.97945 16.3071 8.24504 16.1053C7.51062 15.9035 6.73278 15.9245 6.01036 16.1658C5.28794 16.4071 4.65355 16.8576 4.18779 17.4603C3.72203 18.0629 3.44593 18.7904 3.39457 19.5503C3.12812 23.4263 4.03467 27.2928 5.99622 30.6465C7.23255 32.7648 8.1326 35.0621 8.66423 37.4565ZM13.1562 28.551H11.75V27.1447H13.1562V28.551ZM17.375 29.9572H15.9687V28.551H17.375V29.9572ZM9.261 19.0927C9.36855 18.9404 9.5322 18.837 9.71596 18.8053C9.89973 18.7737 10.0886 18.8163 10.2409 18.9238C11.0111 19.4697 11.9263 19.7742 12.8701 19.7984C13.8139 19.8226 14.7435 19.5656 15.5407 19.0599L15.788 18.9037C15.9457 18.806 16.1355 18.7745 16.3163 18.8161C16.497 18.8578 16.654 18.9691 16.753 19.126C16.852 19.2828 16.885 19.4724 16.8449 19.6535C16.8048 19.8346 16.6947 19.9924 16.5387 20.0928L16.2915 20.2489C15.2593 20.9036 14.0557 21.2365 12.8338 21.2051C11.6119 21.1737 10.427 20.7795 9.42984 20.0726C9.27751 19.9651 9.17415 19.8014 9.14249 19.6176C9.11083 19.4339 9.15346 19.2451 9.261 19.0927ZM8.23435 29.9572H9.6406V31.3635H8.23435V29.9572ZM30.7342 28.5512H36.3592V29.9572H30.7342V28.5512ZM34.8779 35.2711L32.322 35.9101L32.4276 36.5435L34.7631 35.9596L34.8779 35.2711Z" fill="#148A8B"/>
<path d="M42.1255 28.5512H37.7656V30.6605C37.7656 30.847 37.6915 31.0259 37.5597 31.1577C37.4278 31.2896 37.249 31.3637 37.0625 31.3637H36.955L36.9105 31.6309C36.9715 31.7077 37.0157 31.7965 37.0403 31.8915C37.0648 31.9865 37.0692 32.0856 37.0531 32.1824C37.0369 32.2792 37.0007 32.3715 36.9466 32.4534C36.8926 32.5353 36.822 32.605 36.7393 32.6579L36.5966 33.5144C36.7386 33.5653 36.8604 33.6605 36.9441 33.7859C37.0278 33.9114 37.0689 34.0604 37.0615 34.2111C37.054 34.3617 36.9983 34.5059 36.9026 34.6225C36.8068 34.739 36.6762 34.8217 36.5299 34.8583L36.3658 34.8993L36.2505 35.5913C36.4288 35.5644 36.6106 35.6071 36.7583 35.7105C36.9061 35.8138 37.0084 35.97 37.0443 36.1467C37.0802 36.3234 37.0468 36.5071 36.9511 36.6599C36.8553 36.8127 36.7045 36.9229 36.5299 36.9677L35.9989 37.1004L35.6468 39.2137C35.6193 39.3779 35.5346 39.527 35.4076 39.6345C35.2806 39.742 35.1195 39.801 34.9531 39.801H32.1406C31.9742 39.801 31.8131 39.742 31.6861 39.6344C31.5591 39.5269 31.4744 39.3777 31.447 39.2135L31.291 38.2772L30.9049 38.3739C30.8151 38.3971 30.7215 38.4022 30.6297 38.389C30.5379 38.3759 30.4496 38.3447 30.3699 38.2972C30.2902 38.2498 30.2206 38.187 30.1653 38.1126C30.1099 38.0382 30.0699 37.9535 30.0474 37.8635C30.0249 37.7735 30.0204 37.68 30.0342 37.5883C30.048 37.4965 30.0799 37.4085 30.1279 37.3291C30.1759 37.2497 30.2391 37.1806 30.314 37.1258C30.3888 37.071 30.4737 37.0315 30.5639 37.0097L31.059 36.8858L30.9536 36.2524L30.905 36.2645C30.7241 36.3098 30.5326 36.2813 30.3727 36.1853C30.2128 36.0894 30.0975 35.9338 30.0523 35.7529C30.0071 35.572 30.0356 35.3805 30.1315 35.2206C30.2275 35.0607 30.383 34.9454 30.564 34.9002L30.7216 34.8608L30.6055 34.164C30.4638 34.1376 30.3336 34.0683 30.2326 33.9654C30.1316 33.8625 30.0647 33.731 30.041 33.5888C30.0173 33.4466 30.0379 33.3005 30.1001 33.1704C30.1622 33.0403 30.2629 32.9325 30.3884 32.8616L30.1388 31.3637H30.0312C29.8448 31.3637 29.6659 31.2896 29.5341 31.1577C29.4022 31.0259 29.3281 30.847 29.3281 30.6605V28.5512H24.3034C24.1598 28.5511 24.0197 28.5072 23.9019 28.4251C23.784 28.3431 23.6941 28.2269 23.6442 28.0923C23.4051 27.4467 23.199 26.7954 23.0262 26.1385C22.5463 27.9672 21.8196 29.7221 20.8662 31.3548C19.7032 33.3477 18.8564 35.509 18.3563 37.7616L18.0008 39.3612C17.8799 39.9056 17.5623 40.3863 17.1089 40.711C16.6555 41.0358 16.0982 41.1817 15.5438 41.1208C14.9895 41.06 14.4771 40.7966 14.1049 40.3813C13.7327 39.9659 13.527 39.4278 13.5271 38.8701V33.3998C13.5271 33.2134 13.4531 33.0345 13.3212 32.9026C13.1893 32.7708 13.0105 32.6967 12.824 32.6967C12.6375 32.6967 12.4587 32.7708 12.3268 32.9026C12.195 33.0345 12.1209 33.2134 12.1209 33.3998V38.8704C12.1208 39.428 11.915 39.9659 11.5428 40.3811C11.1707 40.7963 10.6583 41.0596 10.1041 41.1204C9.54985 41.1812 8.99265 41.0354 8.53928 40.7108C8.08592 40.3862 7.76828 39.9057 7.64727 39.3615L7.29166 37.7618C6.79165 35.5091 5.945 33.3476 4.78194 31.3546C4.20975 30.3742 3.71831 29.3488 3.3125 28.2886V42.6166H42.6875V28.2693C42.6222 28.3567 42.5373 28.4277 42.4398 28.4766C42.3423 28.5255 42.2347 28.5511 42.1255 28.5512ZM6.82812 40.5041H5.42188V39.0979H6.82812V40.5041ZM23.7031 38.3947H22.2969V36.9885H23.7031V38.3947ZM23.7031 33.4729H22.2969V32.0666H23.7031V33.4729ZM27.9219 39.801H26.5156V38.3947H27.9219V39.801ZM27.9219 35.5822H26.5156V34.176H27.9219V35.5822ZM27.9219 31.3635H26.5156V29.9572H27.9219V31.3635ZM40.5781 39.801H39.1719V38.3947H40.5781V39.801ZM40.5781 35.5822H39.1719V34.176H40.5781V35.5822ZM40.5781 31.3635H39.1719V29.9572H40.5781V31.3635Z" fill="#148A8B"/>
<path d="M41.63 27.1449C42.4731 24.7069 42.8178 22.1242 42.6436 19.5504C42.5923 18.7903 42.3162 18.0627 41.8504 17.4599C41.3846 16.8572 40.7501 16.4065 40.0275 16.1652C39.305 15.9239 38.527 15.9029 37.7925 16.1048C37.0579 16.3067 36.4 16.7225 35.9023 17.2992C35.569 17.6855 35.1563 17.9953 34.6924 18.2077C34.2285 18.4201 33.7242 18.53 33.214 18.53C32.7038 18.53 32.1996 18.4201 31.7357 18.2077C31.2718 17.9953 30.8591 17.6855 30.5257 17.2992C30.028 16.7227 29.3701 16.3072 28.6357 16.1054C27.9013 15.9036 27.1235 15.9247 26.4011 16.166C25.6787 16.4073 25.0443 16.8578 24.5785 17.4604C24.1128 18.063 23.8366 18.7905 23.7852 19.5504C23.6109 22.1242 23.9555 24.7068 24.7985 27.1449H41.63ZM29.6517 19.0927C29.7592 18.9404 29.9229 18.837 30.1066 18.8053C30.2904 18.7737 30.4792 18.8163 30.6315 18.9238C31.4018 19.4697 32.317 19.7742 33.2607 19.7984C34.2045 19.8226 35.1341 19.5656 35.9314 19.0599L36.1784 18.9038C36.3361 18.805 36.5264 18.7727 36.7078 18.814C36.8892 18.8552 37.0469 18.9667 37.1463 19.124C37.2456 19.2813 37.2786 19.4716 37.238 19.6531C37.1973 19.8347 37.0864 19.9927 36.9294 20.0927L36.6823 20.2488C35.6502 20.9037 34.4465 21.2366 33.2246 21.2053C32.0027 21.174 30.8177 20.7799 29.8204 20.0731C29.7449 20.0198 29.6807 19.9522 29.6314 19.8741C29.582 19.796 29.5486 19.7089 29.5329 19.6179C29.5172 19.5268 29.5196 19.4336 29.54 19.3435C29.5604 19.2534 29.5983 19.1682 29.6517 19.0927ZM37.7655 11.7493H39.1717V13.1555H37.7655V11.7493ZM37.7655 8.9368H39.1717V10.343H37.7655V8.9368ZM36.3592 10.343H37.7655V11.7493H36.3592V10.343ZM39.1717 10.343H40.578V11.7493H39.1717V10.343ZM28.6248 8.23367H30.0311V9.63992H28.6248V8.23367ZM28.6248 4.01492H30.0311V5.42117H28.6248V4.01492ZM26.5155 6.1243H27.9217V7.53055H26.5155V6.1243ZM30.7342 6.1243H32.1405V7.53055H30.7342V6.1243Z" fill="#148A8B"/>
</svg>
