<svg width="46" height="46" viewBox="0 0 46 46" fill="none" xmlns="http://www.w3.org/2000/svg">
<g clip-path="url(#clip0_4920_3223)">
<path d="M36.5211 13.7645C35.3177 11.6976 33.2231 10.7024 31.0044 10.4911C30.8915 10.4815 30.7778 10.4994 30.6734 10.5435C30.5689 10.5875 30.4767 10.6563 30.4047 10.7438C29.5187 11.8086 28.6665 12.901 27.8481 14.0211C26.934 15.2692 26.0692 16.5524 25.2536 17.8707L25.2578 17.8756C27.6428 16.9531 30.8209 17.2122 31.8805 19.2348C32.3594 20.1597 32.6021 21.1887 32.5872 22.2301C32.5872 24.4942 31.6063 26.8496 30.7063 29.0047C30.5727 29.3211 30.4426 29.634 30.3161 29.9434C29.6376 31.6063 29.3387 34.1059 29.0751 36.3137C28.9098 37.6894 28.695 39.4908 28.4134 40.2389C28.4036 40.265 28.3859 40.2874 28.3629 40.3032C28.3398 40.3189 28.3125 40.3271 28.2846 40.3267C28.2567 40.3263 28.2296 40.3174 28.2069 40.301C28.1843 40.2847 28.1673 40.2617 28.1582 40.2354C27.9472 39.5962 27.8586 38.126 27.7883 36.9922C27.5985 33.786 27.3348 29.3914 24.8493 27.3594C24.3295 26.9286 23.6758 26.6925 23.0007 26.6919C22.3256 26.6912 21.6714 26.9261 21.1508 27.3559C20.9144 27.5495 20.6967 27.7649 20.5004 27.9992C18.6372 30.193 18.3876 34.0039 18.2153 36.8938C18.2118 36.9289 18.2118 36.9641 18.2083 36.9957C18.1415 38.1285 18.0536 39.6064 17.8493 40.2385C17.841 40.2658 17.8244 40.2897 17.8019 40.3071C17.7794 40.3245 17.7521 40.3345 17.7236 40.3357C17.6952 40.3369 17.6671 40.3293 17.6432 40.3138C17.6193 40.2984 17.6008 40.2759 17.5902 40.2494C17.3051 39.5087 17.0903 37.6964 16.9251 36.3119C16.6614 34.1076 16.3626 31.608 15.684 29.9451C15.5575 29.6358 15.4274 29.3229 15.2938 29.0065C13.986 25.874 12.5024 22.3197 14.1196 19.2365C14.7981 17.9393 16.3485 17.3662 18.0044 17.3662C18.8853 17.3683 19.7593 17.5217 20.5883 17.8197C21.6348 18.1999 22.7562 18.3276 23.8614 18.1924C25.4397 15.4815 27.2363 12.9036 29.2333 10.4844C27.9466 10.5902 26.6905 10.9323 25.5278 11.4934C25.0804 11.712 24.6065 11.8715 24.118 11.968C23.9745 11.9916 23.842 12.0594 23.7391 12.1621C23.6361 12.2647 23.5678 12.397 23.5438 12.5404C23.5197 12.6838 23.5412 12.8311 23.6051 12.9618C23.6689 13.0924 23.7721 13.1997 23.9001 13.2688C23.963 13.2997 24.03 13.3217 24.099 13.3342C24.2332 13.3508 24.3576 13.4126 24.4519 13.5095C24.5461 13.6064 24.6044 13.7326 24.6172 13.8671C24.6161 14.0066 24.5602 14.1401 24.4616 14.2388C24.3629 14.3375 24.2294 14.3934 24.0899 14.3945H24.0372C22.9438 14.2855 22.427 13.5613 21.9278 12.8581C21.5786 12.2785 21.0762 11.8064 20.4758 11.4941C17.0411 9.65893 11.7079 9.94018 9.47896 13.7652C6.55748 18.7855 9.47896 26.0804 12.3794 31.2308C15.2797 36.3812 14.2672 45.1984 18.3876 44.5058C21.3969 43.996 19.7833 29.9406 23.0001 29.9406C26.2168 29.9406 24.6067 43.996 27.6161 44.5058C31.7364 45.1984 30.7274 36.3847 33.6243 31.2308C36.5211 26.0769 39.4461 18.7848 36.5211 13.7645Z" fill="#148A8B"/>
<path d="M17.3233 38.1576C17.1871 36.6544 17.1824 35.1421 17.3092 33.638C17.4581 32.1312 17.7206 30.6378 18.0946 29.1707C18.8565 26.2512 19.9309 23.4223 21.2991 20.7331C24.0371 15.3673 27.5811 10.4526 31.8077 6.16018C31.8562 6.11062 31.9139 6.07109 31.9777 6.04385C32.0414 6.01662 32.1099 6.0022 32.1792 6.00144C32.2486 6.00067 32.3174 6.01356 32.3817 6.03938C32.446 6.0652 32.5047 6.10344 32.5542 6.15192C32.6038 6.2004 32.6433 6.25816 32.6705 6.32191C32.6978 6.38566 32.7122 6.45416 32.713 6.52348C32.7137 6.5928 32.7008 6.6616 32.675 6.72594C32.6492 6.79028 32.611 6.8489 32.5625 6.89846C30.5048 9.01872 28.599 11.2814 26.8594 13.6696C25.1087 16.0485 23.5478 18.5615 22.1914 21.1853C20.8353 23.8018 19.7651 26.5568 18.9992 29.4027C18.6324 30.8226 18.3633 32.266 18.1938 33.7227C18.0458 35.1796 17.9674 36.6621 17.9273 38.1323V38.1372C17.9247 38.2139 17.8931 38.2868 17.8389 38.341C17.7846 38.3953 17.7118 38.4269 17.6352 38.4296C17.5585 38.4322 17.4837 38.4056 17.4259 38.3552C17.368 38.3048 17.3315 38.2343 17.3237 38.158L17.3233 38.1576Z" fill="#148A8B"/>
<path d="M34.9546 1.475L32.0478 4.77788C31.5704 5.32038 31.6231 6.1472 32.1656 6.62464C32.7081 7.10208 33.535 7.04934 34.0124 6.50684L36.9192 3.20396C37.3966 2.66145 37.3439 1.83463 36.8014 1.35719C36.2589 0.879749 35.432 0.932493 34.9546 1.475Z" fill="#148A8B"/>
</g>
<defs>
<clipPath id="clip0_4920_3223">
<rect width="45" height="45" fill="white" transform="translate(0.5 0.5)"/>
</clipPath>
</defs>
</svg>
