<svg width="28" height="28" viewBox="0 0 28 28" fill="none" xmlns="http://www.w3.org/2000/svg">
<g clip-path="url(#clip0_2797_16652)">
<path d="M14 28C21.732 28 28 21.732 28 14C28 6.26801 21.732 0 14 0C6.26801 0 0 6.26801 0 14C0 21.732 6.26801 28 14 28Z" fill="#119498"/>
<path d="M22.3636 15.1269V20.8988H19.0172V15.5137C19.0172 14.1616 18.534 13.2382 17.3224 13.2382C16.3978 13.2382 15.8485 13.8599 15.6059 14.4618C15.5178 14.677 15.4951 14.9757 15.4951 15.2774V20.8986H12.1485C12.1485 20.8986 12.1934 11.778 12.1485 10.8339H15.4954V12.2602C15.4886 12.2714 15.4791 12.2824 15.4731 12.2931H15.4954V12.2602C15.9401 11.5759 16.7332 10.5976 18.5113 10.5976C20.713 10.5976 22.3636 12.0361 22.3636 15.1269ZM8.64759 5.98242C7.50284 5.98242 6.75391 6.73386 6.75391 7.72113C6.75391 8.68744 7.48113 9.46058 8.60367 9.46058H8.62538C9.79259 9.46058 10.5183 8.68744 10.5183 7.72113C10.4961 6.73386 9.79259 5.98242 8.64759 5.98242ZM6.95281 20.8988H10.2982V10.8339H6.95281V20.8988Z" fill="#F1F2F2"/>
</g>
<defs>
<clipPath id="clip0_2797_16652">
<rect width="28" height="28" fill="white"/>
</clipPath>
</defs>
</svg>
