<svg width="46" height="45" viewBox="0 0 46 45" fill="none" xmlns="http://www.w3.org/2000/svg">
<g clip-path="url(#clip0_4920_3236)">
<path d="M30.6161 31.8196L28.5747 30.029H14.8384L4.78658 15.7931C4.28581 15.0798 3.30164 14.9073 2.58829 15.4082C1.87493 15.9089 1.70259 16.8932 2.20337 17.6065L12.7265 32.5977C12.8721 32.8051 13.0654 32.9744 13.2903 33.0913C13.5151 33.2081 13.7648 33.2691 14.0182 33.2691H20.1418V39.9703C17.3721 40.2719 15.2765 41.617 15.2765 42.3015C15.2765 43.0753 17.9539 43.7026 21.2566 43.7026C24.5594 43.7026 27.2367 43.0753 27.2367 42.3015C27.2367 41.6191 25.1537 40.2796 22.3961 39.9728V33.2691H27.7642L31.041 35.6616L30.6168 32.8077C30.5684 32.4801 30.5682 32.1472 30.6161 31.8196Z" fill="#148A8B"/>
<path d="M15.1216 28.5975C15.4677 28.9327 15.9385 29.1399 16.4584 29.1399H28.9688L30.9429 30.5205L32.0179 26.5799L30.6765 25.6418C30.3535 25.4158 29.9688 25.2946 29.5745 25.2946H23.4117L23.1185 24.8915H16.9118C16.7296 24.859 15.767 25.0992 15.1149 24.2327L12.3019 20.4446L15.7686 23.4883C16.0815 23.7631 16.4836 23.904 16.8999 23.904H24.051C24.998 23.8999 25.7624 23.1078 25.7581 22.1607C25.754 21.2284 25.0024 20.4679 24.0359 20.4679H17.5427L14.5647 17.8674L17.4753 19.4877H19.3253L16.0746 14.861C15.3824 13.8912 14.0351 13.6662 13.0653 14.3584L9.18398 16.7037C8.21419 17.3959 7.98918 18.7432 8.68135 19.7129L15.1216 28.5975Z" fill="#148A8B"/>
<path d="M11.9253 12.6534C12.8783 10.7935 12.1431 8.5132 10.2831 7.5602C8.42322 6.60721 6.14291 7.34241 5.18991 9.20233C4.23691 11.0622 4.97212 13.3426 6.83203 14.2956C8.69195 15.2486 10.9723 14.5134 11.9253 12.6534Z" fill="#148A8B"/>
<path d="M35.0763 6.05765C36.214 4.15888 35.5971 1.6973 33.6983 0.559559C31.7995 -0.578182 29.3379 0.038755 28.2002 1.93752C27.0625 3.83629 27.6794 6.29787 29.5782 7.43561C31.4769 8.57335 33.9385 7.95642 35.0763 6.05765Z" fill="#148A8B"/>
<path d="M44.0596 42.5001L42.5398 32.2777L43.5154 25.375L41.3413 13.3541C41.211 12.5688 40.9195 11.819 40.4851 11.152C40.0507 10.4849 39.4828 9.91508 38.8173 9.47834C38.1518 9.0416 37.403 8.74743 36.6182 8.61437C35.8334 8.48131 35.0295 8.51224 34.2572 8.70521L32.5458 9.13275C31.7094 9.34171 31.0509 9.90293 30.6924 10.621L32.892 10.3185L28.7709 11.846L22.1974 9.39033C21.4003 9.0926 20.5279 9.39244 20.067 10.0637L16.0733 10.3659L15.3571 9.79545C15.2157 9.68648 15.0371 9.63747 14.8598 9.65899C14.6826 9.6805 14.5209 9.77081 14.4097 9.91045C14.2985 10.0501 14.2466 10.2279 14.2652 10.4054C14.2838 10.583 14.3715 10.7461 14.5093 10.8596L15.4344 11.5965C15.5687 11.7034 15.7385 11.7557 15.9097 11.7427L19.7836 11.4496C19.9039 12.0437 20.3168 12.5647 20.9266 12.7924L28.1331 15.4845C28.5414 15.6371 28.991 15.6377 29.3996 15.4861L33.7785 13.863L31.1236 15.657L33.3603 26.304L31.8791 31.7339C31.7998 32.025 31.7817 32.3293 31.826 32.6278L33.389 43.1409C33.5668 44.3366 34.6795 45.1523 35.8648 44.9758C37.0552 44.7988 37.8768 43.6904 37.6997 42.5001L36.2039 32.4395L37.9466 26.0511L38.92 25.9227L38.178 32.0453C38.1545 32.2389 38.1572 32.4349 38.1859 32.6279L39.7489 43.141C39.9257 44.3297 41.0329 45.1533 42.2247 44.9759C43.4151 44.799 44.2367 43.6905 44.0596 42.5001Z" fill="#148A8B"/>
</g>
<defs>
<clipPath id="clip0_4920_3236">
<rect width="45" height="45" fill="white" transform="translate(0.5)"/>
</clipPath>
</defs>
</svg>
