<svg width="46" height="45" viewBox="0 0 46 45" fill="none" xmlns="http://www.w3.org/2000/svg">
<path d="M6.08279 38.1094H11.0338L10.5153 33.268C10.4842 32.9791 10.3475 32.7118 10.1313 32.5176C9.91517 32.3233 9.63484 32.2158 9.34424 32.2158H7.77205C7.48146 32.2158 7.20114 32.3232 6.98501 32.5175C6.76889 32.7117 6.63224 32.9791 6.60135 33.268L6.08279 38.1094ZM39.9172 38.1094H34.9661L35.4847 33.2687C35.5157 32.9798 35.6525 32.7125 35.8686 32.5183C36.0848 32.324 36.3651 32.2165 36.6557 32.2165H38.2279C38.5185 32.2165 38.7988 32.3239 39.0149 32.5182C39.2311 32.7124 39.3677 32.9798 39.3986 33.2687L39.9172 38.1094ZM14.8086 8.96132C14.7503 9.10073 14.6522 9.21982 14.5264 9.30363C14.4007 9.38745 14.253 9.43225 14.1019 9.43241L2.92928 9.43593C2.77725 9.43584 2.62866 9.39072 2.50227 9.30625C2.37588 9.22178 2.27734 9.10175 2.21912 8.96132C1.31209 6.79921 0.812871 4.37343 1.87107 2.55585C2.96443 0.678504 5.55896 0.597644 7.27459 1.44139C7.30203 1.45573 7.33019 1.46864 7.35896 1.48007L7.36248 1.48358C7.77763 1.66814 8.23073 1.75128 8.68436 1.72616C9.0568 1.7013 9.42092 1.6046 9.75662 1.44139C11.4722 0.597644 14.0633 0.678504 15.1601 2.55585C16.2183 4.37343 15.7156 6.79921 14.8086 8.96132Z" fill="#148A8B"/>
<path d="M29.3045 8.96132C29.2463 9.10073 29.1481 9.21982 29.0224 9.30363C28.8967 9.38745 28.749 9.43225 28.5979 9.43241L17.4252 9.43593C17.2732 9.4358 17.1247 9.39065 16.9983 9.30619C16.8719 9.22172 16.7733 9.10172 16.7151 8.96132C15.808 6.79921 15.3088 4.37343 16.3674 2.55585C17.4604 0.678504 20.0549 0.597644 21.7695 1.44139C21.7969 1.45573 21.8251 1.46864 21.8539 1.48007L21.8574 1.48358C22.2726 1.66817 22.7259 1.75131 23.1796 1.72616C23.5519 1.70125 23.9159 1.60455 24.2515 1.44139C25.9671 0.597644 28.5582 0.678504 29.655 2.55585C30.7143 4.37343 30.2119 6.79921 29.3045 8.96132Z" fill="#148A8B"/>
<path d="M43.7692 8.96062C43.711 9.10003 43.6128 9.21912 43.4871 9.30293C43.3614 9.38675 43.2137 9.43155 43.0626 9.43171L31.8899 9.43522C31.7379 9.43514 31.5893 9.39002 31.4629 9.30555C31.3365 9.22108 31.238 9.10105 31.1798 8.96062C30.2728 6.79851 29.7735 4.37272 30.8317 2.55515C31.9251 0.677802 34.5196 0.596943 36.2353 1.44069C36.2627 1.45503 36.2909 1.46794 36.3196 1.47936L36.3232 1.48288C36.7383 1.66743 37.1914 1.75058 37.645 1.72546C38.0175 1.7006 38.3816 1.6039 38.7173 1.44069C40.4329 0.596943 43.0239 0.677802 44.1208 2.55515C45.179 4.37272 44.6763 6.79851 43.7692 8.96062ZM22.9926 25.5779C22.5851 25.5783 22.1918 25.428 21.8883 25.156L21.1852 24.5275C21.0847 24.4332 21.025 24.3035 21.019 24.1658C21.0129 24.0282 21.061 23.8937 21.1529 23.791C21.2447 23.6884 21.3731 23.6257 21.5106 23.6165C21.648 23.6073 21.7836 23.6522 21.8883 23.7417L22.5915 24.3703C22.7007 24.4679 22.8419 24.5223 22.9884 24.5231C23.1349 24.524 23.2767 24.4713 23.3871 24.3749L24.113 23.7378C24.1651 23.6922 24.2257 23.6572 24.2913 23.635C24.3568 23.6127 24.4262 23.6036 24.4953 23.6081C24.5644 23.6127 24.6319 23.6308 24.694 23.6614C24.7562 23.6921 24.8116 23.7346 24.8573 23.7867C24.9029 23.8388 24.9379 23.8993 24.9602 23.9649C24.9824 24.0305 24.9915 24.0998 24.987 24.169C24.9825 24.2381 24.9644 24.3056 24.9337 24.3677C24.9031 24.4298 24.8605 24.4853 24.8084 24.531L24.0831 25.1683C23.7814 25.4327 23.3938 25.5783 22.9926 25.5779ZM23 23.2882C22.8601 23.2882 22.726 23.2326 22.6271 23.1337C22.5282 23.0348 22.4726 22.9007 22.4726 22.7608V18.586C22.4726 18.4462 22.5282 18.3121 22.6271 18.2132C22.726 18.1143 22.8601 18.0587 23 18.0587C23.1398 18.0587 23.274 18.1143 23.3729 18.2132C23.4718 18.3121 23.5273 18.4462 23.5273 18.586V22.7608C23.5273 22.9007 23.4718 23.0348 23.3729 23.1337C23.274 23.2326 23.1398 23.2882 23 23.2882ZM23.0221 36.5572C14.1979 36.5572 5.37545 36.8736 3.35678 37.4998C2.7778 37.6865 2.27353 38.0532 1.91735 38.5464C1.56117 39.0396 1.37167 39.6336 1.37643 40.2419V42.3562C1.37643 42.8224 1.56163 43.2695 1.89128 43.5992C2.22094 43.9289 2.66804 44.1141 3.13424 44.1141H42.8879C43.3541 44.1141 43.8012 43.9289 44.1308 43.5992C44.4605 43.2695 44.6457 42.8224 44.6457 42.3562V40.2419C44.6505 39.6336 44.461 39.0396 44.1048 38.5464C43.7487 38.0531 43.2444 37.6865 42.6653 37.4998C40.6484 36.874 31.8478 36.5572 23.0221 36.5572Z" fill="#148A8B"/>
</svg>
