<svg width="25" height="26" viewBox="0 0 25 26" fill="none" xmlns="http://www.w3.org/2000/svg">
<g clip-path="url(#clip0_4039_13578)">
<path d="M24.2464 23.3723C23.5197 24.3263 22.2921 24.7989 20.522 24.799C19.8523 24.7991 19.1054 24.7314 18.278 24.5966C17.9047 24.5347 17.5985 24.4161 17.284 24.2119C14.7121 22.5364 12.4554 23.281 9.59853 24.2236C8.84473 24.4723 8.06523 24.7295 7.23628 24.9547C7.21451 24.9606 7.19222 24.9644 7.16972 24.966C6.54848 25.0098 5.77505 25.0643 4.9625 25.0643C3.53642 25.0644 1.98926 24.8964 0.928612 24.2076C0.228026 23.7535 -0.108058 22.9318 0.0726548 22.1143C0.253221 21.2995 0.904735 20.6966 1.73247 20.5784C6.51279 19.9031 11.4003 16.0917 14.1646 12.5789L13.7958 0.572356C13.7944 0.526766 13.802 0.481345 13.8182 0.438689C13.8343 0.396032 13.8587 0.356975 13.89 0.323747C13.9531 0.256639 14.0403 0.217349 14.1323 0.21452C14.2244 0.21169 14.3138 0.245553 14.381 0.308659C14.4481 0.371764 14.4874 0.458944 14.4902 0.551019L14.8628 12.6832C14.8653 12.764 14.8396 12.8432 14.79 12.907C13.2505 14.8884 11.2127 16.7859 9.05171 18.25C6.6168 19.8997 4.11958 20.9427 1.83013 21.2662C1.28379 21.3442 0.870067 21.7267 0.750926 22.2644C0.631639 22.8039 0.844579 23.3252 1.30669 23.6247C2.76655 24.5728 5.4583 24.3902 7.08677 24.2753C7.88584 24.0571 8.6457 23.8064 9.38081 23.5638C12.2949 22.6023 14.8115 21.7719 17.6628 23.6294C17.8958 23.7808 18.1137 23.8651 18.3907 23.9111C21.089 24.3506 22.8737 24.0277 23.6937 22.9512C24.8265 21.4642 24.3215 18.4411 22.1499 13.7093C22.124 13.653 22.1137 13.5907 22.12 13.529L23.4448 0.609271C23.4643 0.418401 23.6359 0.278948 23.8257 0.299163C23.9174 0.308563 24.0015 0.353979 24.0597 0.425421C24.1178 0.496864 24.1452 0.58848 24.1358 0.68012L22.8207 13.5059C25.1072 18.5119 25.5599 21.648 24.2464 23.3723ZM14.6009 16.8664C14.1798 16.9897 13.7613 17.1216 13.3455 17.2619L13.3363 17.2651C12.4143 17.5773 11.406 17.9686 10.4436 18.4426L10.4417 18.4435L10.4272 18.4506L10.424 18.4523C10.4193 18.4546 10.4146 18.4569 10.4099 18.4592L10.4084 18.46L10.3728 18.4777C10.3702 18.4789 10.3675 18.4803 10.3649 18.4815L10.3414 18.4933L10.3207 18.5037L10.3189 18.5046L10.3071 18.5105C10.3043 18.5119 10.3017 18.5132 10.299 18.5145C9.67529 18.8287 9.07392 19.178 8.53164 19.5633C8.53144 19.5634 8.53126 19.5636 8.5311 19.5637C6.94927 20.6874 5.18135 21.1225 3.89043 21.4401C3.33574 21.5766 2.85674 21.6944 2.50879 21.8396C2.32993 21.9143 1.78569 22.1414 1.78569 22.6731C1.78569 22.9098 1.89189 23.25 2.39765 23.5269C2.85244 23.7759 3.59839 23.9327 4.44243 23.9327C5.5103 23.9327 6.73501 23.6816 7.72475 23.0488C8.76758 22.3816 11.594 21.63 15.4793 20.9866C15.8186 20.9305 16.0716 20.8791 16.2563 20.8416C16.4483 20.8026 16.63 20.7659 16.6761 20.7763C16.7021 20.7821 16.816 20.8888 16.8991 20.9666C17.034 21.0931 17.2188 21.2662 17.5042 21.4983C19.7592 23.3327 21.6037 23.6665 22.6983 22.4385C23.6819 21.3329 23.4281 19.8104 21.9835 18.1516C21.9536 18.1172 21.9172 18.089 21.8763 18.0687C21.8355 18.0483 21.791 18.0363 21.7455 18.0331C21.7 18.03 21.6544 18.0358 21.6111 18.0503C21.5679 18.0648 21.5279 18.0877 21.4935 18.1177C21.4591 18.1476 21.4309 18.1841 21.4106 18.2249C21.3903 18.2657 21.3782 18.3102 21.3751 18.3557C21.3719 18.4012 21.3778 18.4469 21.3923 18.4901C21.4068 18.5333 21.4297 18.5733 21.4596 18.6077C22.2983 19.5709 23.104 20.9373 22.1795 21.9765C21.8656 22.3287 21.4743 22.4692 21.0493 22.4692C19.9957 22.4691 18.7361 21.6048 17.9426 20.9593C17.6761 20.7426 17.5016 20.5791 17.3742 20.4597C16.9184 20.0326 16.7917 20.0241 16.1182 20.1607C15.9286 20.1992 15.6927 20.247 15.366 20.3011C13.0301 20.6879 8.88262 21.4832 7.35039 22.4634C5.8397 23.4295 3.56973 23.3766 2.7313 22.9175C2.54619 22.8161 2.48047 22.7224 2.48047 22.673C2.48047 22.6585 2.53066 22.5832 2.77641 22.4807C3.07485 22.3561 3.52974 22.2442 4.05649 22.1146C5.40176 21.7836 7.24429 21.3303 8.93413 20.1295C10.6752 18.8923 13.0829 18.0347 14.7961 17.5331C14.8682 17.5119 14.9315 17.4681 14.9765 17.408C15.0216 17.3479 15.046 17.2748 15.046 17.1997C15.0459 17.1666 15.0412 17.1338 15.0319 17.102C15.0191 17.0583 14.9978 17.0174 14.9692 16.9819C14.9406 16.9464 14.9053 16.9168 14.8652 16.8949C14.8252 16.873 14.7813 16.8592 14.7359 16.8544C14.6906 16.8495 14.6447 16.8536 14.6009 16.8664ZM15.964 17.4883C16.522 17.9213 17.3597 17.8121 17.8194 17.7048C18.0937 18.0155 18.7288 18.6224 19.5166 18.6401C19.5288 18.6404 19.5409 18.6405 19.5529 18.6405C20.0359 18.6405 20.483 18.4228 20.8823 17.9928C22.2516 16.5159 20.5943 14.1505 20.1984 13.6302L20.1775 0.610345C20.1774 0.518324 20.1407 0.430129 20.0756 0.365115C20.0105 0.300101 19.9222 0.26358 19.8302 0.263567H19.8296C19.7375 0.263723 19.6492 0.300467 19.5842 0.365719C19.5191 0.430971 19.4827 0.519386 19.4828 0.611517L19.5039 13.7507C19.5041 13.8303 19.5316 13.9075 19.5818 13.9694C19.6009 13.9928 21.4763 16.3303 20.373 17.5203C20.1011 17.8131 19.824 17.9521 19.5323 17.9456C18.9663 17.9329 18.4507 17.376 18.3054 17.2047C18.2848 17.1807 18.2706 17.162 18.2597 17.1479C18.1279 16.9767 17.9727 16.9287 17.7715 16.9971C17.7479 17.0052 17.721 17.0143 17.6754 17.025C17.1121 17.1589 16.6315 17.127 16.3898 16.9394C16.2343 16.8188 16.1562 16.62 16.1511 16.331C16.1236 14.9157 17.4504 14.2565 17.5059 14.2296C17.566 14.201 17.6166 14.1557 17.6517 14.0991C17.6868 14.0425 17.7048 13.977 17.7038 13.9104L17.4858 0.582757C17.4843 0.491641 17.4471 0.404758 17.3821 0.340839C17.3172 0.27692 17.2297 0.241084 17.1386 0.241058L17.1328 0.241106C17.0407 0.242609 16.953 0.280642 16.8889 0.346838C16.8248 0.413035 16.7897 0.501972 16.7912 0.594085L17.0058 13.7141C16.5377 13.9993 15.4273 14.8362 15.4566 16.3438C15.4655 16.8489 15.6362 17.234 15.964 17.4883ZM8.64306 16.6401C8.68462 16.6401 8.727 16.6326 8.76811 16.6167C8.81067 16.6003 8.84957 16.5756 8.8826 16.5441C8.91562 16.5127 8.94212 16.475 8.96059 16.4333C8.97906 16.3916 8.98913 16.3467 8.99023 16.301C8.99133 16.2554 8.98343 16.2101 8.96699 16.1675C8.63628 15.311 8.4686 14.4083 8.4686 13.4843C8.4686 10.5079 10.235 7.82172 12.9687 6.64086C13.0105 6.62277 13.0484 6.59661 13.0802 6.56388C13.112 6.53114 13.137 6.49246 13.1538 6.45006C13.1706 6.40766 13.1789 6.36236 13.1782 6.31674C13.1776 6.27113 13.1679 6.2261 13.1498 6.18422C13.1317 6.14234 13.1056 6.10444 13.0728 6.07267C13.0401 6.0409 13.0014 6.01589 12.959 5.99907C12.9166 5.98225 12.8713 5.97395 12.8257 5.97463C12.7801 5.97532 12.735 5.98498 12.6932 6.00307C9.70478 7.29399 7.77383 10.2305 7.77383 13.4843C7.77383 14.4942 7.95727 15.4811 8.31894 16.4178C8.34421 16.4832 8.38869 16.5395 8.44655 16.5792C8.5044 16.6189 8.57291 16.6401 8.64306 16.6401ZM11.7032 9.50117C11.6714 9.53384 11.6463 9.57246 11.6294 9.61483C11.6125 9.6572 11.6041 9.70248 11.6047 9.74809C11.6053 9.7937 11.6149 9.83875 11.6329 9.88066C11.6509 9.92256 11.677 9.96051 11.7097 9.99233L12.8404 11.0935C12.9051 11.1567 12.9921 11.1921 13.0827 11.192C13.1291 11.192 13.175 11.1828 13.2178 11.1647C13.2605 11.1467 13.2992 11.1202 13.3315 11.087C13.3634 11.0543 13.3885 11.0157 13.4054 10.9733C13.4223 10.9309 13.4306 10.8856 13.43 10.84C13.4294 10.7944 13.4199 10.7494 13.4018 10.7075C13.3838 10.6656 13.3577 10.6276 13.325 10.5958L12.1944 9.49467C12.1284 9.43041 12.0396 9.39499 11.9475 9.39621C11.8553 9.39743 11.7675 9.43518 11.7032 9.50117ZM12.4465 12.319L10.8756 12.4878C10.784 12.4976 10.7001 12.5435 10.6423 12.6152C10.5845 12.6869 10.5575 12.7787 10.5673 12.8703C10.5772 12.9619 10.623 13.0458 10.6948 13.1036C10.7665 13.1614 10.8583 13.1884 10.9499 13.1786L12.5207 13.0098C12.6123 12.9999 12.6962 12.9541 12.7541 12.8823C12.8119 12.8106 12.8388 12.7188 12.829 12.6272C12.8191 12.5357 12.7732 12.4518 12.7015 12.394C12.6298 12.3362 12.5381 12.3092 12.4465 12.319ZM12.6402 11.2864L10.5194 10.6269C10.336 10.5696 10.1416 10.6723 10.0846 10.8554C10.0711 10.899 10.0662 10.9448 10.0704 10.9902C10.0745 11.0356 10.0876 11.0798 10.1088 11.1202C10.13 11.1605 10.159 11.1963 10.1941 11.2255C10.2291 11.2547 10.2696 11.2767 10.3131 11.2902L12.4339 11.9497C12.4673 11.9602 12.5021 11.9655 12.5371 11.9655C12.6112 11.9655 12.6833 11.9417 12.743 11.8978C12.8027 11.8538 12.8467 11.7919 12.8687 11.7212C12.8822 11.6776 12.8871 11.6318 12.8829 11.5864C12.8788 11.541 12.8657 11.4968 12.8445 11.4565C12.8233 11.4161 12.7943 11.3803 12.7593 11.3511C12.7242 11.3219 12.6837 11.3 12.6402 11.2864Z" fill="#119498"/>
</g>
<defs>
<clipPath id="clip0_4039_13578">
<rect width="25" height="25" fill="white" transform="translate(0 0.13916)"/>
</clipPath>
</defs>
</svg>
