<svg width="46" height="46" viewBox="0 0 46 46" fill="none" xmlns="http://www.w3.org/2000/svg">
<path fill-rule="evenodd" clip-rule="evenodd" d="M20.8467 31.607C19.9891 32.4132 19.1777 33.9888 19.284 37.0717C19.502 43.3807 16.7899 44.0938 16.7899 44.0938C13.5744 43.163 13.783 32.9472 14.0159 28.6576C14.0951 27.4263 13.9019 26.1927 13.4501 25.0445C12.6917 23.0597 12.1627 21.3428 11.8241 19.8581C12.0631 19.8331 12.2989 19.7838 12.5278 19.7108C12.8546 20.2957 13.3917 20.7343 14.03 20.9377C14.6684 21.1411 15.3603 21.094 15.9651 20.8059C16.1984 21.0392 16.4783 21.2204 16.7866 21.3376C17.0949 21.4549 17.4246 21.5055 17.7539 21.4862C18.0832 21.4669 18.4046 21.378 18.6971 21.2255C18.9895 21.073 19.2464 20.8603 19.4507 20.6013C19.6551 20.3424 19.8022 20.0431 19.8826 19.7232C19.9629 19.4033 19.9745 19.07 19.9168 18.7452C19.859 18.4205 19.7331 18.1116 19.5474 17.839C19.3616 17.5665 19.1203 17.3363 18.8392 17.1637C19.1919 16.5107 19.3258 15.7618 19.2211 15.027C19.1164 14.2923 18.7787 13.6105 18.2577 13.082C18.3868 12.47 18.349 11.8346 18.1483 11.2423C19.0658 11.4267 19.9679 11.6811 20.8466 12.003V31.607H20.8467ZM4.87273 17.2052C5.4744 17.2052 6.06255 17.3836 6.56282 17.7179C7.06308 18.0521 7.45299 18.5273 7.68324 19.0831C7.91349 19.639 7.97373 20.2506 7.85635 20.8407C7.73897 21.4308 7.44924 21.9729 7.0238 22.3983C6.59836 22.8238 6.05632 23.1135 5.46621 23.2309C4.87611 23.3483 4.26445 23.288 3.70858 23.0578C3.15272 22.8275 2.67761 22.4376 2.34335 21.9373C2.00908 21.4371 1.83066 20.8489 1.83066 20.2473C1.83065 19.8478 1.90933 19.4522 2.0622 19.0831C2.21508 18.714 2.43916 18.3787 2.72164 18.0962C3.00412 17.8137 3.33948 17.5896 3.70857 17.4367C4.07766 17.2839 4.47324 17.2052 4.87273 17.2052ZM15.9414 1.90625C16.5051 1.90623 17.0561 2.07337 17.5248 2.38653C17.9935 2.69969 18.3588 3.1448 18.5746 3.66558C18.7903 4.18636 18.8467 4.75941 18.7368 5.31227C18.6268 5.86513 18.3554 6.37297 17.9568 6.77155C17.5582 7.17014 17.0504 7.44158 16.4975 7.55155C15.9446 7.66152 15.3716 7.60507 14.8508 7.38935C14.33 7.17362 13.8849 6.80831 13.5718 6.33962C13.2586 5.87092 13.0915 5.31988 13.0915 4.75619C13.0915 4.00035 13.3918 3.27547 13.9262 2.741C14.4607 2.20654 15.1856 1.90627 15.9414 1.90625ZM17.7901 18.0567C17.6805 18.0394 17.5776 17.9927 17.4924 17.9216C17.4072 17.8504 17.3429 17.7575 17.3064 17.6527C17.2699 17.5478 17.2625 17.4351 17.2851 17.3264C17.3076 17.2177 17.3592 17.1172 17.4344 17.0356C17.7636 16.6778 17.9677 16.2228 18.0162 15.7391C18.0647 15.2553 17.9549 14.7689 17.7034 14.3529C17.3839 14.8082 16.9594 15.1799 16.4658 15.4363C15.9722 15.6928 15.4241 15.8265 14.8678 15.8261C14.7047 15.8261 14.5482 15.7613 14.4328 15.6459C14.3174 15.5305 14.2526 15.374 14.2526 15.2109C14.2526 15.0477 14.3174 14.8912 14.4328 14.7758C14.5482 14.6605 14.7047 14.5956 14.8678 14.5956C15.2121 14.5949 15.5515 14.5147 15.8596 14.3612C16.1677 14.2077 16.4362 13.9851 16.6441 13.7107C16.8521 13.4364 16.9938 13.1177 17.0583 12.7796C17.1228 12.4414 17.1083 12.0929 17.016 11.7613C16.9236 11.4297 16.7559 11.1239 16.5259 10.8678C16.2959 10.6116 16.0099 10.4121 15.6901 10.2847C15.3703 10.1573 15.0254 10.1055 14.6823 10.1334C14.3392 10.1612 14.0071 10.268 13.7121 10.4453C13.6374 10.4955 13.5526 10.5286 13.4637 10.5425C13.3747 10.5563 13.2839 10.5504 13.1975 10.5253C13.1111 10.5001 13.0312 10.4563 12.9636 10.3969C12.896 10.3375 12.8423 10.264 12.8062 10.1816C12.6095 9.72894 12.294 9.3379 11.8933 9.04985C11.4925 8.76181 11.0213 8.58748 10.5296 8.54532C10.0378 8.50316 9.54382 8.59474 9.09986 8.81036C8.65591 9.02598 8.27851 9.35763 8.00762 9.77018C7.73673 10.1827 7.58243 10.6609 7.56104 11.154C7.53965 11.647 7.65197 12.1367 7.88612 12.5712C8.12027 13.0057 8.46753 13.3687 8.89114 13.622C9.31476 13.8753 9.79896 14.0093 10.2925 14.0098C10.7553 14.0131 11.2111 13.8966 11.6154 13.6715C11.6858 13.6323 11.7633 13.6074 11.8433 13.5982C11.9233 13.589 12.0044 13.5957 12.0818 13.6178C12.1593 13.6399 12.2316 13.677 12.2947 13.7271C12.3578 13.7772 12.4104 13.8392 12.4496 13.9096C12.4887 13.98 12.5136 14.0574 12.5228 14.1375C12.532 14.2175 12.5254 14.2985 12.5032 14.376C12.4811 14.4534 12.444 14.5258 12.3939 14.5889C12.3438 14.652 12.2818 14.7046 12.2114 14.7437C11.4181 15.1823 10.4988 15.3367 9.60573 15.1813C9.36415 15.5458 9.2365 15.9739 9.23905 16.4111C9.23904 16.7046 9.29684 16.9952 9.40914 17.2663C9.52145 17.5375 9.68606 17.7838 9.89358 17.9914C10.1011 18.1989 10.3475 18.3635 10.6186 18.4758C10.8898 18.5881 11.1804 18.6459 11.4738 18.6459C11.8514 18.6483 12.2232 18.5534 12.5535 18.3704C12.6361 18.3229 12.7287 18.2953 12.8238 18.2897C12.919 18.2841 13.0141 18.3008 13.1017 18.3383C13.1893 18.3758 13.267 18.4331 13.3287 18.5058C13.3903 18.5786 13.4342 18.6646 13.4568 18.7572C13.5139 18.9857 13.627 19.1964 13.7859 19.3703C13.9449 19.5442 14.1446 19.6758 14.3671 19.7532C14.5896 19.8306 14.8278 19.8513 15.0604 19.8136C15.2929 19.7758 15.5123 19.6807 15.6989 19.5369C15.7675 19.4752 15.849 19.4297 15.9375 19.4037C16.026 19.3777 16.1192 19.372 16.2103 19.3869C16.3013 19.4018 16.3878 19.437 16.4634 19.4899C16.539 19.5427 16.6017 19.6119 16.6469 19.6923C16.7421 19.8653 16.8823 20.0094 17.0526 20.1092C17.223 20.2091 17.4171 20.2611 17.6146 20.2597C17.8932 20.2595 18.1615 20.1544 18.3661 19.9653C18.5707 19.7762 18.6966 19.5171 18.7188 19.2394C18.7409 18.9616 18.6577 18.6858 18.4857 18.4667C18.3136 18.2475 18.0654 18.1012 17.7904 18.0569L17.7901 18.0567ZM5.66568 28.9389C6.02842 28.9389 6.383 29.0464 6.68461 29.2479C6.98621 29.4495 7.22128 29.7359 7.36009 30.071C7.4989 30.4061 7.53522 30.7749 7.46446 31.1307C7.39369 31.4864 7.21902 31.8132 6.96253 32.0697C6.70604 32.3262 6.37925 32.5009 6.02348 32.5716C5.66772 32.6424 5.29896 32.6061 4.96384 32.4673C4.62871 32.3285 4.34228 32.0934 4.14076 31.7918C3.93923 31.4902 3.83167 31.1356 3.83167 30.7729C3.83166 30.532 3.87909 30.2935 3.97125 30.071C4.06342 29.8485 4.19851 29.6463 4.36881 29.476C4.53912 29.3057 4.74131 29.1706 4.96382 29.0784C5.18634 28.9863 5.42483 28.9388 5.66568 28.9389ZM3.43265 1.90625C3.79538 1.90625 4.14997 2.01381 4.45157 2.21534C4.75317 2.41686 4.98824 2.70329 5.12705 3.03842C5.26587 3.37354 5.30219 3.7423 5.23142 4.09806C5.16065 4.45383 4.98598 4.78062 4.72949 5.03711C4.473 5.2936 4.14621 5.46827 3.79044 5.53904C3.43468 5.6098 3.06592 5.57348 2.7308 5.43467C2.39568 5.29586 2.10924 5.06079 1.90772 4.75919C1.7062 4.45759 1.59863 4.103 1.59863 3.74026C1.59863 3.25385 1.79186 2.78736 2.1358 2.44342C2.47975 2.09948 2.94624 1.90625 3.43265 1.90625ZM37.465 25.2683C37.465 25.1051 37.5299 24.9486 37.6452 24.8332C37.7606 24.7179 37.9171 24.653 38.0803 24.653C38.2434 24.653 38.3999 24.7179 38.5153 24.8332C38.6307 24.9486 38.6955 25.1051 38.6955 25.2683V27.186C38.6955 27.3491 38.6307 27.5056 38.5153 27.621C38.3999 27.7364 38.2434 27.8012 38.0803 27.8012C37.9171 27.8012 37.7606 27.7364 37.6452 27.621C37.5299 27.5056 37.465 27.3491 37.465 27.186V25.2683ZM41.7323 28.3051C41.8955 28.3051 42.052 28.3699 42.1673 28.4853C42.2827 28.6007 42.3475 28.7571 42.3475 28.9203C42.3475 29.0835 42.2827 29.24 42.1673 29.3553C42.052 29.4707 41.8955 29.5355 41.7323 29.5355H39.8147C39.6515 29.5355 39.495 29.4707 39.3797 29.3553C39.2643 29.24 39.1995 29.0835 39.1995 28.9203C39.1995 28.7571 39.2643 28.6007 39.3797 28.4853C39.495 28.3699 39.6515 28.3051 39.8147 28.3051H41.7323ZM36.3458 28.3051C36.509 28.3051 36.6655 28.3699 36.7809 28.4853C36.8963 28.6007 36.9611 28.7571 36.9611 28.9203C36.9611 29.0835 36.8963 29.24 36.7809 29.3553C36.6655 29.4707 36.509 29.5355 36.3458 29.5355H34.4282C34.2651 29.5355 34.1086 29.4707 33.9932 29.3553C33.8778 29.24 33.813 29.0835 33.813 28.9203C33.813 28.7571 33.8778 28.6007 33.9932 28.4853C34.1086 28.3699 34.2651 28.3051 34.4282 28.3051H36.3458ZM37.465 30.6553C37.465 30.4921 37.5299 30.3356 37.6452 30.2202C37.7606 30.1049 37.9171 30.04 38.0803 30.04C38.2434 30.04 38.3999 30.1049 38.5153 30.2202C38.6307 30.3356 38.6955 30.4921 38.6955 30.6553V32.5729C38.6955 32.736 38.6307 32.8925 38.5153 33.0079C38.3999 33.1233 38.2434 33.1881 38.0803 33.1881C37.9171 33.1881 37.7606 33.1233 37.6452 33.0079C37.5299 32.8925 37.465 32.736 37.465 32.5729V30.6553ZM39.5189 13.0216C39.5189 12.8584 39.5837 12.7019 39.6991 12.5866C39.8144 12.4712 39.9709 12.4064 40.1341 12.4064C40.2973 12.4064 40.4538 12.4712 40.5691 12.5866C40.6845 12.7019 40.7493 12.8584 40.7493 13.0216V14.9393C40.7493 15.1025 40.6845 15.2589 40.5691 15.3743C40.4538 15.4897 40.2973 15.5545 40.1341 15.5545C39.9709 15.5545 39.8144 15.4897 39.6991 15.3743C39.5837 15.2589 39.5189 15.1025 39.5189 14.9393V13.0212V13.0216ZM43.7861 16.058C43.9493 16.058 44.1058 16.1229 44.2212 16.2382C44.3365 16.3536 44.4014 16.5101 44.4014 16.6733C44.4014 16.8365 44.3365 16.9929 44.2212 17.1083C44.1058 17.2237 43.9493 17.2885 43.7861 17.2885H41.8685C41.7054 17.2885 41.5489 17.2237 41.4335 17.1083C41.3181 16.9929 41.2533 16.8365 41.2533 16.6733C41.2533 16.5101 41.3181 16.3536 41.4335 16.2382C41.5489 16.1229 41.7054 16.058 41.8685 16.058H43.7861ZM38.3997 16.058C38.5628 16.058 38.7193 16.1229 38.8347 16.2382C38.9501 16.3536 39.0149 16.5101 39.0149 16.6733C39.0149 16.8365 38.9501 16.9929 38.8347 17.1083C38.7193 17.2237 38.5628 17.2885 38.3997 17.2885H36.4824C36.3193 17.2885 36.1628 17.2237 36.0474 17.1083C35.932 16.9929 35.8672 16.8365 35.8672 16.6733C35.8672 16.5101 35.932 16.3536 36.0474 16.2382C36.1628 16.1229 36.3193 16.058 36.4824 16.058H38.3997ZM39.5189 18.4077C39.5189 18.2445 39.5837 18.0881 39.6991 17.9727C39.8144 17.8573 39.9709 17.7925 40.1341 17.7925C40.2973 17.7925 40.4538 17.8573 40.5691 17.9727C40.6845 18.0881 40.7493 18.2445 40.7493 18.4077V20.3253C40.7493 20.4885 40.6845 20.645 40.5691 20.7603C40.4538 20.8757 40.2973 20.9405 40.1341 20.9405C39.9709 20.9405 39.8144 20.8757 39.6991 20.7603C39.5837 20.645 39.5189 20.4885 39.5189 20.3253V18.4077ZM33.1348 1.90625C33.1348 1.74308 33.1997 1.58659 33.315 1.47121C33.4304 1.35583 33.5869 1.29102 33.7501 1.29102C33.9132 1.29102 34.0697 1.35583 34.1851 1.47121C34.3005 1.58659 34.3653 1.74308 34.3653 1.90625V3.82394C34.3653 3.98711 34.3005 4.14359 34.1851 4.25897C34.0697 4.37435 33.9132 4.43917 33.7501 4.43917C33.5869 4.43917 33.4304 4.37435 33.315 4.25897C33.1997 4.14359 33.1348 3.98711 33.1348 3.82394V1.90625ZM37.4021 4.94305C37.5653 4.94305 37.7218 5.00787 37.8371 5.12325C37.9525 5.23862 38.0173 5.39511 38.0173 5.55828C38.0173 5.72145 37.9525 5.87794 37.8371 5.99332C37.7218 6.1087 37.5653 6.17352 37.4021 6.17352H35.4845C35.3213 6.17352 35.1649 6.1087 35.0495 5.99332C34.9341 5.87794 34.8693 5.72145 34.8693 5.55828C34.8693 5.39511 34.9341 5.23862 35.0495 5.12325C35.1649 5.00787 35.3213 4.94305 35.4845 4.94305H37.4021ZM32.0156 4.94305C32.1788 4.94305 32.3353 5.00787 32.4507 5.12325C32.5661 5.23862 32.6309 5.39511 32.6309 5.55828C32.6309 5.72145 32.5661 5.87794 32.4507 5.99332C32.3353 6.1087 32.1788 6.17352 32.0156 6.17352H30.098C29.9349 6.17352 29.7784 6.1087 29.663 5.99332C29.5476 5.87794 29.4828 5.72145 29.4828 5.55828C29.4828 5.39511 29.5476 5.23862 29.663 5.12325C29.7784 5.00787 29.9349 4.94305 30.098 4.94305H32.0156ZM33.1348 7.2928C33.1348 7.12963 33.1997 6.97315 33.315 6.85777C33.4304 6.74239 33.5869 6.67757 33.7501 6.67757C33.9132 6.67757 34.0697 6.74239 34.1851 6.85777C34.3005 6.97315 34.3653 7.12963 34.3653 7.2928V9.2104C34.3653 9.37357 34.3005 9.53006 34.1851 9.64544C34.0697 9.76082 33.9132 9.82563 33.7501 9.82563C33.5869 9.82563 33.4304 9.76082 33.315 9.64544C33.1997 9.53006 33.1348 9.37357 33.1348 9.2104V7.2928ZM22.0771 1.90625C22.0771 1.74308 22.142 1.58659 22.2573 1.47121C22.3727 1.35583 22.5292 1.29102 22.6924 1.29102C22.8556 1.29102 23.012 1.35583 23.1274 1.47121C23.2428 1.58659 23.3076 1.74308 23.3076 1.90625V44.0938C23.3076 44.2569 23.2428 44.4134 23.1274 44.5288C23.012 44.6442 22.8556 44.709 22.6924 44.709C22.5292 44.709 22.3727 44.6442 22.2573 44.5288C22.142 44.4134 22.0771 44.2569 22.0771 44.0938V1.90625ZM24.5381 12.003V31.607C25.3956 32.4132 26.207 33.9889 26.1007 37.0717C25.8828 43.3807 28.5949 44.0938 28.5949 44.0938C31.8104 43.1629 31.6018 32.9468 31.3689 28.6573C31.2897 27.4255 31.4832 26.1913 31.9356 25.0428C38.2505 8.52037 28.7527 10.4785 24.5381 12.003Z" fill="#148A8B"/>
</svg>
