<svg width="46" height="45" viewBox="0 0 46 45" fill="none" xmlns="http://www.w3.org/2000/svg">
<path d="M23.4983 34.7981C22.8069 33.1153 21.1934 32.0222 19.3911 32.0222H10.0859C10.4389 36.0605 13.4009 38.1145 19.4028 38.408C19.7638 38.4347 20.6755 38.4984 22.812 42.8297C22.8598 42.9258 22.8237 43.0252 22.8317 43.1255L26.6933 42.7837L23.4983 34.7981Z" fill="#148A8B"/>
<path d="M27.5206 33.1922C26.1762 29.8561 22.9849 27.6985 19.391 27.6985H10.0142V30.3924H19.391C21.8581 30.3924 24.0635 31.8811 25.0095 34.185L28.3896 42.6333L31.1974 42.3849L27.5206 33.1922Z" fill="#148A8B"/>
<path d="M36.5693 41.9095L36.3214 41.3958C34.7234 38.2589 34.3348 34.62 35.2343 31.1644L36.3462 26.7403C36.3835 26.5942 36.4602 26.4611 36.5679 26.3555C39.3771 22.9345 40.5078 18.563 39.7184 14.0859C38.6951 8.28423 34.1609 3.53345 28.4332 2.26454C23.9159 1.25579 19.4585 2.22189 15.881 4.96642C12.3565 7.67111 10.2242 11.7581 10.0287 16.185C10.002 16.8089 9.81636 17.4005 9.49245 17.8917L6.03589 23.1413L9.52573 24.6699C9.82292 24.7997 10.0142 25.0917 10.0142 25.4156V26.0686H11.0585C11.0614 26.0649 11.06 26.0592 11.0623 26.0555L15.5862 20.0864C16.0495 19.4797 16.6462 18.9876 17.3301 18.6484C18.014 18.3092 18.7668 18.132 19.5303 18.1303H23.5418C23.7382 18.1303 23.9281 18.202 24.0767 18.3295L26.5371 20.4689C27.2496 21.2517 27.6467 22.17 27.7264 23.131L28.2612 31.0594C28.5602 31.5459 28.8189 32.056 29.0346 32.5847L32.7846 41.9639C32.8217 42.0577 32.7795 42.1491 32.7818 42.2447L36.5693 41.9095Z" fill="#148A8B"/>
<path d="M26.4784 28.8609L26.1001 23.2528C26.0477 22.6502 25.8004 22.081 25.3956 21.6314L23.238 19.7602H19.5301C19.018 19.7614 18.5131 19.8805 18.0544 20.1084C17.5958 20.3363 17.1958 20.6667 16.8855 21.0741L13.0994 26.0691H19.3909C22.0225 26.0647 24.5568 27.063 26.4784 28.8609Z" fill="#148A8B"/>
</svg>
