<svg width="46" height="46" viewBox="0 0 46 46" fill="none" xmlns="http://www.w3.org/2000/svg">
<g clip-path="url(#clip0_4920_3088)">
<path fill-rule="evenodd" clip-rule="evenodd" d="M28.6547 45.5C28.5756 45.5 28.5228 45.5 28.4438 45.4736C24.6476 45.3155 24.6213 40.8076 24.6213 39.3313C24.5949 36.1942 23.6722 34.797 22.9868 34.797C22.3278 34.797 21.4051 36.1942 21.3787 39.3313C21.3787 40.8076 21.3524 45.3155 17.5562 45.4736C17.4772 45.4736 17.4244 45.5 17.3453 45.5C16.3699 45.5 15.5527 45.1573 14.92 44.4982C13.5756 43.1538 13.4174 40.7548 13.4438 39.4367C13.4701 37.7759 13.391 33.6634 11.9148 31.3436C9.91125 28.2065 10.0431 24.7794 10.0431 24.5158C10.0694 21.2469 11.8884 19.1116 14.7091 19.1116C15.6582 19.1116 16.6336 19.3489 17.6353 19.8234C19.4279 20.6933 21.2469 21.1151 22.9868 21.1151C24.7531 21.1151 26.5721 20.6933 28.3647 19.8234C29.4192 19.3225 30.4209 19.0852 31.3436 19.0852C32.5826 19.0852 33.6634 19.5334 34.4543 20.4033C35.5615 21.616 36.0888 23.4877 35.9042 25.7285C35.7724 27.1784 35.3506 29.3401 34.0852 31.3436C32.609 33.6634 32.5299 37.7759 32.5562 39.4367C32.5562 43.3383 31.1591 45.5 28.6547 45.5ZM32.7671 15.2364C32.6881 15.2364 32.609 15.21 32.5562 15.1837L25.0431 11.0712H20.5088L13.4174 15.0518C13.312 15.1046 13.1538 15.1309 13.0483 15.0782C12.9165 15.0255 12.8111 14.92 12.7847 14.7882C12.5475 13.9974 12.2575 13.312 11.9148 12.7847C9.91125 9.64763 10.0431 6.22056 10.0431 5.93058C10.0694 2.66169 11.8884 0.552724 14.7091 0.552724C15.6582 0.552724 16.6336 0.789982 17.6353 1.2645C19.4279 2.10808 21.2469 2.52988 22.9868 2.52988C24.7531 2.52988 26.5721 2.10808 28.3647 1.2645C29.4192 0.76362 30.4209 0.5 31.3699 0.5C32.5826 0.5 33.6634 0.948155 34.4543 1.8181C35.5615 3.03076 36.0888 4.92882 35.9042 7.14323C35.7724 8.61951 35.3506 10.7812 34.0852 12.7847C33.7162 13.3383 33.4262 14.0501 33.1889 14.92C33.1362 15.0518 33.0571 15.1573 32.9253 15.21C32.8726 15.21 32.8199 15.2364 32.7671 15.2364Z" fill="#148A8B"/>
<path fill-rule="evenodd" clip-rule="evenodd" d="M22.9868 19.7707C22.8814 19.7707 22.7759 19.7179 22.6968 19.6389L20.3506 17.2926C20.1661 17.1345 20.1661 16.8445 20.3506 16.6863C20.5088 16.5018 20.7988 16.5018 20.9569 16.6863L22.565 18.268V12.732C22.565 12.4947 22.7496 12.2838 22.9868 12.2838C23.2504 12.2838 23.435 12.4947 23.435 12.732V18.268L25.0167 16.6863C25.2012 16.5018 25.4649 16.5018 25.6494 16.6863C25.8076 16.8445 25.8076 17.1345 25.6494 17.2926L23.3032 19.6389C23.2241 19.7179 23.1186 19.7707 22.9868 19.7707Z" fill="#148A8B"/>
</g>
<defs>
<clipPath id="clip0_4920_3088">
<rect width="45" height="45" fill="white" transform="translate(0.5 0.5)"/>
</clipPath>
</defs>
</svg>
