<svg width="25" height="26" viewBox="0 0 25 26" fill="none" xmlns="http://www.w3.org/2000/svg">
<g clip-path="url(#clip0_4039_13613)">
<path d="M10.1171 10.4315C10.1575 10.4052 10.1923 10.3711 10.2195 10.3313C10.2466 10.2914 10.2657 10.2466 10.2755 10.1994C10.2853 10.1522 10.2857 10.1035 10.2766 10.0561C10.2676 10.0087 10.2492 9.96362 10.2227 9.92335C10.1962 9.88308 10.1619 9.84845 10.122 9.82145C10.082 9.79445 10.0371 9.77561 9.98984 9.76601C9.94258 9.75641 9.89389 9.75624 9.84656 9.76551C9.79923 9.77477 9.7542 9.7933 9.71405 9.82002L9.60623 9.89106C9.39201 10.0325 9.14099 10.1078 8.88431 10.1078C8.62763 10.1078 8.37661 10.0325 8.16239 9.89106L8.05457 9.82002C7.97348 9.76824 7.87527 9.75045 7.78117 9.7705C7.68707 9.79054 7.60463 9.84681 7.55168 9.92714C7.49872 10.0075 7.4795 10.1054 7.49817 10.1998C7.51684 10.2942 7.5719 10.3774 7.65145 10.4315L7.75926 10.5026C8.09309 10.723 8.48428 10.8404 8.88427 10.8404C9.28426 10.8404 9.67545 10.723 10.0093 10.5026L10.1171 10.4315ZM15.659 10.4315C15.6994 10.4052 15.7341 10.3711 15.7613 10.3313C15.7885 10.2914 15.8075 10.2466 15.8173 10.1994C15.8271 10.1522 15.8275 10.1035 15.8185 10.0561C15.8094 10.0087 15.7911 9.96362 15.7645 9.92335C15.738 9.88308 15.7038 9.84845 15.6638 9.82145C15.6238 9.79445 15.5789 9.77561 15.5317 9.76601C15.4844 9.75641 15.4357 9.75624 15.3884 9.76551C15.3411 9.77477 15.296 9.7933 15.2559 9.82002L15.1481 9.89106C14.9339 10.0325 14.6828 10.1078 14.4262 10.1078C14.1695 10.1078 13.9185 10.0325 13.7043 9.89106L13.5965 9.82002C13.5154 9.76656 13.4164 9.7475 13.3213 9.76703C13.2261 9.78657 13.1426 9.8431 13.0892 9.92419C13.0357 10.0053 13.0166 10.1043 13.0362 10.1994C13.0557 10.2946 13.1123 10.3781 13.1933 10.4315L13.3012 10.5026C13.635 10.723 14.0262 10.8404 14.4262 10.8404C14.8262 10.8404 15.2173 10.7229 15.5512 10.5026L15.659 10.4315ZM10.4225 14.5832L10.5302 14.6541C10.864 14.8744 11.2552 14.9919 11.6552 14.9919C12.0552 14.992 12.4463 14.8745 12.7802 14.6542L12.888 14.5832C12.9679 14.5292 13.0233 14.4459 13.0421 14.3514C13.061 14.2569 13.0419 14.1587 12.9889 14.0782C12.9358 13.9977 12.8532 13.9413 12.7589 13.9213C12.6646 13.9013 12.5662 13.9193 12.4851 13.9714L12.3772 14.0425C12.163 14.184 11.9119 14.2593 11.6552 14.2593C11.3985 14.2593 11.1475 14.1839 10.9333 14.0424L10.8255 13.9714C10.7444 13.9189 10.6458 13.9006 10.5512 13.9204C10.4566 13.9403 10.3737 13.9967 10.3205 14.0774C10.2674 14.1581 10.2483 14.2566 10.2674 14.3513C10.2865 14.446 10.3423 14.5294 10.4225 14.5832ZM11.6553 5.84556C11.7033 5.84556 11.751 5.83608 11.7954 5.81768C11.8398 5.79928 11.8802 5.7723 11.9142 5.7383C11.9482 5.70429 11.9752 5.66392 11.9936 5.61949C12.012 5.57506 12.0215 5.52744 12.0215 5.47935V5.08447C12.0215 4.88218 11.8575 4.71826 11.6553 4.71826C11.453 4.71826 11.289 4.88218 11.289 5.08447V5.47935C11.289 5.57647 11.3276 5.66962 11.3963 5.7383C11.465 5.80697 11.5581 5.84556 11.6553 5.84556ZM11.289 7.31362C11.289 7.51592 11.453 7.67983 11.6553 7.67983C11.8575 7.67983 12.0215 7.51592 12.0215 7.31362V6.9188C12.0215 6.7165 11.8575 6.55259 11.6553 6.55259C11.453 6.55259 11.289 6.7165 11.289 6.9188V7.31362ZM11.289 9.19673C11.289 9.39902 11.453 9.56294 11.6553 9.56294C11.8575 9.56294 12.0215 9.39902 12.0215 9.19673V8.8019C12.0215 8.59961 11.8575 8.43569 11.6553 8.43569C11.453 8.43569 11.289 8.59961 11.289 8.8019V9.19673ZM11.289 11.0799C11.289 11.2822 11.453 11.4461 11.6553 11.4461C11.8575 11.4461 12.0215 11.2822 12.0215 11.0799V10.6851C12.0215 10.4828 11.8575 10.3188 11.6553 10.3188C11.453 10.3188 11.289 10.4828 11.289 10.6851V11.0799ZM10.4623 12.9241C10.5104 12.9242 10.5581 12.9147 10.6025 12.8963C10.647 12.8779 10.6873 12.8509 10.7213 12.8168L11.0005 12.5376C11.0692 12.4689 11.1078 12.3758 11.1077 12.2787C11.1077 12.1815 11.0691 12.0884 11.0005 12.0197C10.9665 11.9857 10.9261 11.9587 10.8817 11.9403C10.8372 11.9219 10.7896 11.9124 10.7415 11.9124C10.6934 11.9124 10.6458 11.9219 10.6014 11.9403C10.557 11.9588 10.5166 11.9858 10.4826 12.0198L10.2034 12.299C10.1347 12.3677 10.0962 12.4609 10.0962 12.558C10.0962 12.6551 10.1348 12.7482 10.2035 12.8169C10.2374 12.851 10.2778 12.878 10.3222 12.8964C10.3666 12.9148 10.4142 12.9242 10.4623 12.9241ZM9.21903 13.2833L8.93983 13.5625C8.87164 13.6313 8.83348 13.7243 8.83369 13.8211C8.83389 13.918 8.87246 14.0108 8.94094 14.0793C9.00941 14.1477 9.10223 14.1863 9.19908 14.1865C9.29593 14.1868 9.38891 14.1486 9.4577 14.0804L9.7369 13.8012C9.80508 13.7324 9.84325 13.6395 9.84304 13.5426C9.84283 13.4458 9.80427 13.3529 9.73579 13.2845C9.66731 13.216 9.57449 13.1774 9.47765 13.1772C9.3808 13.177 9.28781 13.2151 9.21903 13.2833ZM13.1071 12.299L12.8279 12.0197C12.7592 11.9511 12.6661 11.9125 12.569 11.9125C12.4719 11.9124 12.3787 11.951 12.31 12.0197C12.2414 12.0883 12.2028 12.1815 12.2028 12.2786C12.2028 12.3757 12.2413 12.4689 12.31 12.5375L12.5892 12.8168C12.6607 12.8883 12.7544 12.9241 12.8482 12.9241C12.9419 12.9241 13.0356 12.8883 13.1071 12.8168C13.1758 12.7482 13.2144 12.655 13.2144 12.5579C13.2144 12.4608 13.1758 12.3677 13.1071 12.299ZM14.0915 13.2833C14.0224 13.2165 13.9299 13.1796 13.8338 13.1804C13.7378 13.1812 13.6459 13.2197 13.5779 13.2877C13.51 13.3556 13.4715 13.4475 13.4707 13.5436C13.4699 13.6396 13.5068 13.7322 13.5736 13.8012L13.8528 14.0804C13.9243 14.1519 14.0181 14.1876 14.1118 14.1876C14.2055 14.1876 14.2992 14.1519 14.3707 14.0804C14.4047 14.0464 14.4317 14.006 14.4501 13.9616C14.4685 13.9172 14.478 13.8696 14.478 13.8215C14.478 13.7734 14.4685 13.7257 14.4501 13.6813C14.4317 13.6369 14.4047 13.5965 14.3707 13.5625L14.0915 13.2833Z" fill="#119498"/>
<path d="M22.5604 18.0289L17.3791 12.8475C17.5036 12.4899 17.5984 12.1226 17.6625 11.7494H18.2224C19.0189 11.7494 19.6668 11.1014 19.6668 10.305V9.60791C19.6668 9.04253 19.3401 8.5523 18.8658 8.31524V7.35034C18.8658 6.14732 18.5635 4.95645 17.9916 3.90635C17.9687 3.86386 17.9377 3.82631 17.9003 3.79585C17.8629 3.76539 17.8198 3.74263 17.7736 3.72886C17.7273 3.7151 17.6788 3.71061 17.6308 3.71566C17.5828 3.7207 17.5363 3.73518 17.494 3.75825C17.4516 3.78133 17.4142 3.81255 17.3839 3.85012C17.3537 3.88769 17.3311 3.93088 17.3176 3.97719C17.3041 4.0235 17.2998 4.07203 17.3051 4.11999C17.3104 4.16795 17.3251 4.21439 17.3484 4.25664C17.8619 5.19961 18.1334 6.26939 18.1334 7.35034V8.16353H17.653C17.1099 5.34766 14.6272 3.21401 11.6552 3.21401C11.6039 3.21401 11.5527 3.2147 11.5017 3.21597C12.6786 2.65713 13.9637 2.3293 15.2657 2.26016L15.6366 2.24043C15.9809 2.50864 16.2973 2.81083 16.581 3.14243C16.6122 3.17899 16.6503 3.20904 16.6932 3.23085C16.7361 3.25266 16.7828 3.26582 16.8308 3.26956C16.8787 3.27331 16.9269 3.26757 16.9726 3.25268C17.0184 3.23778 17.0607 3.21403 17.0973 3.18276C17.1711 3.11964 17.2168 3.02979 17.2244 2.93296C17.2319 2.83614 17.2007 2.74027 17.1376 2.66646C16.7946 2.26524 16.4087 1.90278 15.9868 1.58555C15.9749 1.57561 15.9624 1.56642 15.9493 1.55806C14.7074 0.636422 13.2017 0.139088 11.6552 0.139649C7.6792 0.139649 4.44453 3.37432 4.44453 7.35029V8.31524C3.97017 8.5523 3.64351 9.04253 3.64351 9.60791V10.305C3.64351 11.1015 4.29145 11.7494 5.08789 11.7494H5.66211C6.02847 13.7398 7.25195 15.4977 9.03955 16.5242V17.5482C9.03955 18.0406 8.71006 18.4829 8.23833 18.6237L7.02417 18.9864C6.9311 19.0142 6.85289 19.0779 6.80674 19.1633C6.76059 19.2488 6.75028 19.3491 6.77808 19.4421C6.80587 19.5352 6.8695 19.6134 6.95496 19.6596C7.04043 19.7057 7.14072 19.716 7.23379 19.6882L8.44795 19.3255C9.22749 19.0926 9.77197 18.3618 9.77197 17.5482V16.9184C10.3876 17.2023 11.0537 17.3445 11.7199 17.3445C12.3446 17.3447 12.963 17.2193 13.5384 16.9758V17.5482C13.5384 18.3618 14.0828 19.0927 14.8624 19.3255L18.4855 20.4078C19.6298 20.7496 20.4291 21.8225 20.4291 23.0168V23.7283C20.4291 24.1027 20.1245 24.4072 19.7501 24.4072H17.3596V22.0205C17.3596 21.8182 17.1956 21.6543 16.9934 21.6543C16.7911 21.6543 16.6271 21.8182 16.6271 22.0205V22.334H7.11709V22.0205C7.11709 21.8182 6.95312 21.6543 6.75088 21.6543C6.54863 21.6543 6.38467 21.8182 6.38467 22.0205V24.4072H3.56025C3.18589 24.4072 2.88135 24.1027 2.88135 23.7283V23.0168C2.88135 21.8225 3.68057 20.7496 4.8249 20.4078L5.51938 20.2003C5.56547 20.1866 5.60839 20.1639 5.64569 20.1335C5.683 20.1032 5.71396 20.0658 5.73681 20.0235C5.75966 19.9811 5.77396 19.9347 5.77888 19.8869C5.78379 19.8391 5.77924 19.7907 5.76548 19.7446C5.75171 19.6985 5.72901 19.6556 5.69866 19.6183C5.66831 19.581 5.63091 19.5501 5.58859 19.5272C5.54627 19.5043 5.49987 19.4901 5.45203 19.4851C5.40419 19.4802 5.35585 19.4848 5.30977 19.4985L4.61528 19.706C3.89722 19.9205 3.28101 20.3516 2.8333 20.9525C2.3856 21.5535 2.14893 22.2673 2.14893 23.0167V23.7283C2.14893 24.5065 2.78203 25.1396 3.56025 25.1396H7.85298C8.05522 25.1396 8.21919 24.9757 8.21919 24.7734C8.21919 24.5711 8.05522 24.4072 7.85298 24.4072H7.11709V23.0664H16.6271V24.4072H9.43154C9.2293 24.4072 9.06533 24.5711 9.06533 24.7734C9.06533 24.9757 9.2293 25.1396 9.43154 25.1396H19.7501C20.5283 25.1396 21.1614 24.5065 21.1614 23.7283V23.0168C21.1614 22.2673 20.9248 21.5536 20.4771 20.9526C20.0293 20.3516 19.4131 19.9205 18.695 19.7061L15.072 18.6238C14.6002 18.4829 14.2708 18.0406 14.2708 17.5483V16.5932L14.29 16.582C14.6157 16.3936 14.9256 16.1792 15.2167 15.9409C15.2919 15.8793 15.3395 15.7904 15.3491 15.6938C15.3587 15.5971 15.3295 15.5006 15.268 15.4255C15.2064 15.3504 15.1175 15.3027 15.0209 15.2931C14.9242 15.2835 14.8277 15.3127 14.7526 15.3743C14.4921 15.5876 14.2148 15.7794 13.9234 15.948L13.678 16.0899C12.4918 16.776 11.0115 16.7874 9.81484 16.1196L9.47026 15.9273C7.50176 14.829 6.27891 12.7464 6.27891 10.4922V9.32261C6.27891 6.35816 8.69067 3.94644 11.6551 3.94644C14.6196 3.94644 17.0313 6.3582 17.0313 9.32261V10.5602C17.0313 11.1437 16.9508 11.715 16.7949 12.2634L16.713 12.1815C16.5956 12.0639 16.4484 11.9805 16.2872 11.9402C16.126 11.8999 15.9569 11.9044 15.798 11.953C15.639 12.0012 15.4962 12.0919 15.3848 12.2152C15.2735 12.3386 15.1979 12.4899 15.1661 12.653L15.1394 12.7889C15.0575 13.2048 15.0793 13.6344 15.2029 14.0399C15.3265 14.4454 15.5481 14.8141 15.848 15.1136L16.2031 15.4687C16.5225 15.7882 16.9248 16.012 17.3646 16.115L17.8001 16.2169C17.9181 16.2446 18.026 16.3046 18.1116 16.3903L21.1552 19.4339C21.2473 19.5265 21.3567 19.5999 21.4773 19.6498C21.5979 19.6998 21.7272 19.7253 21.8578 19.725C21.9883 19.7253 22.1176 19.6998 22.2382 19.6498C22.3588 19.5999 22.4683 19.5265 22.5603 19.434C22.9478 19.0466 22.9478 18.4163 22.5604 18.0289ZM5.08789 11.0169C4.69531 11.0169 4.37593 10.6976 4.37593 10.305V9.60791C4.37593 9.21533 4.69531 8.89595 5.08789 8.89595H5.56167C5.5519 9.03696 5.54653 9.1792 5.54653 9.32266V9.59024H5.21279C5.01055 9.59024 4.84658 9.75415 4.84658 9.95645C4.84658 10.1587 5.01055 10.3227 5.21279 10.3227H5.54653V10.4922C5.54653 10.6682 5.55391 10.8432 5.56704 11.0169H5.08789ZM5.65732 8.16348H5.1769V7.35029C5.17695 3.77822 8.08306 0.872071 11.6552 0.872071C12.6928 0.872071 13.6998 1.12026 14.6014 1.58086C13.0986 1.7502 11.634 2.23872 10.3317 3.00942C10.3317 3.00942 8.66724 3.99536 8.65996 4.00044C7.12568 4.86733 6.00171 6.37817 5.65732 8.16348ZM18.2225 8.8959C18.6151 8.8959 18.9345 9.21528 18.9345 9.60786V10.3049C18.9345 10.6975 18.6151 11.0169 18.2225 11.0169H17.7488C17.7586 10.8655 17.7638 10.7132 17.7638 10.5602V10.3226H18.0976C18.2998 10.3226 18.4638 10.1587 18.4638 9.9564C18.4638 9.7541 18.2998 9.59019 18.0976 9.59019H17.7638V9.32261C17.7638 9.17915 17.7584 9.03691 17.7487 8.8959H18.2225ZM17.9673 15.5039L17.5318 15.4019C17.2248 15.33 16.944 15.1738 16.7211 14.9508L16.366 14.5957C16.1511 14.3811 15.9923 14.1169 15.9037 13.8263C15.8151 13.5358 15.7995 13.2279 15.8582 12.9299L15.8849 12.794C15.9041 12.6963 15.9799 12.6632 16.0116 12.6536C16.024 12.6498 16.0439 12.6453 16.0677 12.6453C16.1051 12.6453 16.1521 12.6564 16.1951 12.6994L19.3158 15.82L18.9465 16.1893L18.6296 15.8724C18.4475 15.6902 18.2181 15.5626 17.9673 15.5039ZM22.0425 18.9161C21.9932 18.9654 21.9276 18.9925 21.8579 18.9925C21.7882 18.9925 21.7226 18.9654 21.6733 18.9161L19.4644 16.7072L19.8336 16.3379L22.0425 18.5468C22.0914 18.5958 22.1189 18.6622 22.1189 18.7314C22.1189 18.8007 22.0914 18.8671 22.0425 18.9161Z" fill="#119498"/>
</g>
<defs>
<clipPath id="clip0_4039_13613">
<rect width="25" height="25" fill="white" transform="translate(0 0.139648)"/>
</clipPath>
</defs>
</svg>
