<svg width="25" height="26" viewBox="0 0 25 26" fill="none" xmlns="http://www.w3.org/2000/svg">
<g clip-path="url(#clip0_4036_13444)">
<path d="M14.0626 13.3284C13.9138 13.6261 13.6146 13.8112 13.2813 13.8112C12.9481 13.8112 12.6489 13.6261 12.5001 13.3284L12.4591 13.246L11.7603 13.5956L11.8013 13.678C12.0833 14.2421 12.6505 14.5925 13.2813 14.5925C13.9122 14.5925 14.4794 14.2421 14.7614 13.6776L14.8024 13.5952L14.1036 13.2456L14.0626 13.3284ZM8.59385 13.3284C8.44502 13.6261 8.1458 13.8112 7.8126 13.8112C7.47939 13.8112 7.18018 13.6261 7.03135 13.3284L6.99033 13.246L6.2915 13.5956L6.33252 13.678C6.61455 14.2421 7.18174 14.5925 7.8126 14.5925C8.44346 14.5925 9.01064 14.2421 9.29268 13.6776L9.33369 13.5952L8.63486 13.2456L8.59385 13.3284Z" fill="#119498"/>
<path d="M16.2934 18.5957C16.3187 18.5339 16.3406 18.4707 16.3648 18.4082C17.0306 17.8282 17.5789 17.1259 17.9801 16.3394C19.2286 15.0547 19.9254 13.3328 19.9219 11.5414V10.3878C19.9219 9.78276 19.7848 9.1769 19.5254 8.63081L19.375 6.3769C19.3049 5.31214 18.8678 4.30461 18.1383 3.5259C17.4087 2.7472 16.4318 2.24548 15.3738 2.1062L15.0582 1.89565C13.718 1.00229 12.1582 0.530029 10.5469 0.530029C8.93555 0.530029 7.37578 1.00229 6.03555 1.89604L5.71992 2.10659C4.66198 2.24587 3.68503 2.74759 2.95547 3.52629C2.22592 4.305 1.78886 5.31253 1.71875 6.3773L1.56836 8.6312C1.30813 9.1803 1.17273 9.7802 1.17188 10.3878V11.5414C1.17188 13.3425 1.86172 15.0433 3.11211 16.3375C3.51327 17.1231 4.06131 17.8245 4.72656 18.4039C5.188 19.6014 5.8842 20.6945 6.77422 21.6191C6.95122 21.9541 7.16873 22.2661 7.42188 22.548V24.7488H8.20312V23.2441C8.88867 23.7136 9.69805 23.9675 10.5469 23.9675C11.3957 23.9675 12.2051 23.7136 12.8906 23.2441V24.7488H13.6719V22.5398C13.9173 22.2655 14.1291 21.9628 14.3027 21.6382C14.5454 21.3856 14.7741 21.12 14.9879 20.8425H15.2344C16.1375 20.8425 16.9867 21.1941 17.6258 21.8328L20.8176 25.025L21.3699 24.4726L18.1781 21.2804C17.7924 20.8927 17.3336 20.5853 16.8283 20.3761C16.323 20.1668 15.7813 20.0598 15.2344 20.0613H10.9375C10.8369 20.0568 10.742 20.0137 10.6724 19.9409C10.6028 19.8681 10.564 19.7713 10.564 19.6707C10.564 19.57 10.6028 19.4732 10.6724 19.4004C10.742 19.3276 10.8369 19.2845 10.9375 19.28H15.2344C15.9264 19.2781 16.612 19.4135 17.2514 19.6783C17.8907 19.9431 18.4713 20.332 18.9594 20.8226L23.1613 25.025L23.7137 24.4726L19.5117 20.2703C18.6372 19.3936 17.5131 18.8087 16.2934 18.5957ZM16.8609 16.6898L17.5688 13.5054C17.5836 13.4393 17.5809 13.3705 17.5609 13.3058L17.4918 13.0812C16.5477 10.0128 13.7566 7.9519 10.5469 7.9519C7.33711 7.9519 4.54609 10.0128 3.60195 13.0812L3.53281 13.3058C3.51288 13.3705 3.51019 13.4393 3.525 13.5054L4.23281 16.6898C3.51316 15.6627 3.12644 14.4393 3.125 13.1851C3.125 9.8687 5.82305 7.17065 9.13945 7.17065H11.9539C15.2707 7.17065 17.9688 9.8687 17.9688 13.1851C17.9672 14.4392 17.5805 15.6626 16.8609 16.6898ZM19.1406 11.5414C19.1406 12.3175 18.9934 13.0718 18.718 13.775C18.7344 13.5796 18.75 13.3835 18.75 13.1851C18.75 12.0953 18.4855 11.0679 18.0277 10.1539C18.403 10.0241 18.7432 9.80942 19.0219 9.52651C19.0973 9.80776 19.1406 10.0972 19.1406 10.3878V11.5414ZM1.95312 11.5414V10.3878C1.95312 9.87651 2.07383 9.36479 2.30273 8.90776C2.3258 8.86128 2.33948 8.81071 2.34297 8.75894L2.49805 6.42886C2.55731 5.53049 2.93093 4.68166 3.5534 4.03119C4.17587 3.38072 5.00745 2.97014 5.90234 2.87144C5.9644 2.86458 6.02389 2.84287 6.07578 2.80815L6.46875 2.54604C7.68047 1.73823 9.09023 1.31128 10.5469 1.31128C12.0035 1.31128 13.4133 1.73823 14.6246 2.54604L15.0176 2.80815C15.0694 2.84298 15.1289 2.8647 15.191 2.87144C16.0859 2.97014 16.9175 3.38072 17.54 4.03119C18.1624 4.68166 18.5361 5.53049 18.5953 6.42886L18.7418 8.62651L18.684 8.71323C18.4348 9.08667 18.0547 9.34097 17.6246 9.44995C16.4332 7.64722 14.407 6.44683 12.1008 6.39683C12.0834 5.46377 11.9985 4.53321 11.8465 3.61245L11.7129 2.80972L10.9422 2.93784L11.0758 3.74058C11.2204 4.61653 11.3017 5.50176 11.3191 6.3894H10.3645L10.3492 6.36636C9.96829 5.79478 9.76522 5.12316 9.76562 4.43628H8.98438C8.98438 5.12105 9.15 5.78706 9.46133 6.3894H9.13945C7.15781 6.3894 5.37734 7.24722 4.13398 8.60503C3.98667 8.3004 3.90888 7.96684 3.90625 7.62847V7.56128H3.125V7.62847C3.125 8.20503 3.29961 8.76909 3.60586 9.25503C2.78514 10.4011 2.3438 11.7754 2.34375 13.1851C2.34375 13.3835 2.35938 13.5796 2.37617 13.7753C2.09657 13.0637 1.95306 12.3059 1.95312 11.5414ZM8.15547 22.196C7.79793 21.8403 7.51448 21.4172 7.32151 20.9512C7.12854 20.4852 7.02989 19.9856 7.03125 19.4812V18.041C7.03146 17.8516 7.10681 17.67 7.24076 17.5361C7.37471 17.4023 7.55632 17.327 7.7457 17.3269C7.94215 17.3274 8.13674 17.2889 8.31824 17.2138C8.49974 17.1386 8.66454 17.0282 8.80312 16.889L9.48945 16.2023C10.0543 15.6378 11.0395 15.6378 11.6043 16.2023L12.291 16.889C12.4295 17.0283 12.5942 17.1387 12.7757 17.2138C12.9571 17.289 13.1517 17.3274 13.348 17.3269C13.5374 17.327 13.719 17.4023 13.853 17.5361C13.9869 17.67 14.0623 17.8516 14.0625 18.041V18.4988H12.1074C11.9253 18.2569 11.6897 18.0604 11.4189 17.9249C11.1482 17.7893 10.8497 17.7183 10.5469 17.7175C9.46992 17.7175 8.59375 18.5937 8.59375 19.6707C8.59375 20.7476 9.46992 21.6238 10.5469 21.6238C10.8497 21.623 11.1482 21.552 11.4189 21.4164C11.6897 21.2809 11.9253 21.0845 12.1074 20.8425H13.8109C13.6189 21.3504 13.3214 21.8117 12.9379 22.196C12.6246 22.511 12.252 22.7607 11.8416 22.9306C11.4311 23.1006 10.9911 23.1875 10.5469 23.1863C9.64375 23.1863 8.79453 22.8347 8.15547 22.196ZM9.76562 19.6707C9.7661 19.9426 9.86107 20.2059 10.0343 20.4156C10.2075 20.6252 10.4482 20.7681 10.7152 20.8199C10.659 20.8285 10.6043 20.8425 10.5469 20.8425C9.90078 20.8425 9.375 20.3167 9.375 19.6707C9.375 19.0246 9.90078 18.4988 10.5469 18.4988C10.6043 18.4988 10.659 18.5128 10.7152 18.5214C10.4482 18.5732 10.2075 18.7161 10.0343 18.9257C9.86107 19.1354 9.7661 19.3987 9.76562 19.6707ZM14.8438 18.4988V18.041C14.8432 17.6445 14.6855 17.2644 14.4051 16.9841C14.1247 16.7037 13.7445 16.5461 13.348 16.5457C13.1574 16.5457 12.9777 16.4714 12.843 16.3367L12.1566 15.65C11.727 15.2199 11.1551 14.9832 10.5469 14.9832C9.93867 14.9832 9.3668 15.2199 8.93711 15.65L8.25078 16.3367C8.18455 16.4031 8.10581 16.4558 8.01913 16.4916C7.93244 16.5275 7.83952 16.5459 7.7457 16.5457C7.34921 16.5461 6.96907 16.7037 6.68868 16.9841C6.40828 17.2644 6.25052 17.6445 6.25 18.041V19.4812C6.25 19.5605 6.25742 19.6382 6.26133 19.7171C5.69909 18.8412 5.29578 17.873 5.06992 16.857L4.31016 13.4371L4.34883 13.3113C5.19141 10.573 7.68203 8.73315 10.5469 8.73315C13.4117 8.73315 15.9023 10.573 16.7449 13.3109L16.7836 13.4367L16.0238 16.8566C15.8965 17.4245 15.7134 17.9785 15.4773 18.5105C15.3961 18.5074 15.316 18.4988 15.2344 18.4988H14.8438Z" fill="#119498"/>
</g>
<defs>
<clipPath id="clip0_4036_13444">
<rect width="25" height="25" fill="white" transform="translate(0 0.139404)"/>
</clipPath>
</defs>
</svg>
