<svg width="30" height="30" viewBox="0 0 30 30" fill="none" xmlns="http://www.w3.org/2000/svg">
<rect width="30" height="30" rx="15" fill="#148A8B"/>
<path fill-rule="evenodd" clip-rule="evenodd" d="M12 9H18C19.6568 9 21 10.3431 21 12V18C21 19.6568 19.6568 21 18 21H12C10.3431 21 9 19.6568 9 18V12C9 10.3431 10.3431 9 12 9ZM17.3516 11.6944C17.3516 11.1728 17.7744 10.75 18.296 10.75H18.3024C18.824 10.75 19.2468 11.1728 19.2468 11.6944C19.2468 12.216 18.824 12.6389 18.3024 12.6389H18.296C17.7744 12.6389 17.3516 12.216 17.3516 11.6944ZM15.2376 13.5296C14.9348 13.4847 14.6255 13.5365 14.3537 13.6775C14.082 13.8185 13.8616 14.0416 13.724 14.315C13.5863 14.5885 13.5384 14.8984 13.5871 15.2007C13.6357 15.5029 13.7784 15.7822 13.9949 15.9987C14.2114 16.2152 14.4906 16.3579 14.7929 16.4065C15.0952 16.4551 15.4051 16.4072 15.6785 16.2696C15.952 16.1319 16.1751 15.9116 16.3161 15.6398C16.4571 15.3681 16.5088 15.0588 16.4639 14.7559C16.4181 14.447 16.2742 14.161 16.0534 13.9402C15.8325 13.7194 15.5465 13.5754 15.2376 13.5296ZM13.4838 12.0008C14.1082 11.6768 14.8189 11.558 15.5147 11.6612C16.2245 11.7664 16.8816 12.0972 17.389 12.6046C17.8964 13.112 18.2271 13.7691 18.3324 14.4789C18.4356 15.1747 18.3167 15.8854 17.9927 16.5098C17.6687 17.1342 17.1561 17.6405 16.5278 17.9568C15.8994 18.2731 15.1873 18.3832 14.4928 18.2714C13.7983 18.1596 13.1567 17.8317 12.6593 17.3343C12.1618 16.8369 11.8339 16.1953 11.7222 15.5008C11.6104 14.8062 11.7205 14.0942 12.0368 13.4658C12.353 12.8375 12.8594 12.3248 13.4838 12.0008Z" fill="white"/>
</svg>
