<svg width="46" height="46" viewBox="0 0 46 46" fill="none" xmlns="http://www.w3.org/2000/svg">
<path fill-rule="evenodd" clip-rule="evenodd" d="M44.0938 44.0938V39.7825C40.7085 36.951 36.2057 34.8104 31.0677 33.7012C31.099 36.5934 31.0815 42.5103 28.5962 44.0938H44.0938ZM3.10886 9.08877L9.2634 7.43968C9.37917 7.40866 9.49992 7.40075 9.61875 7.41639C9.73758 7.43204 9.85216 7.47094 9.95596 7.53086C10.0598 7.59079 10.1507 7.67058 10.2237 7.76567C10.2967 7.86076 10.3502 7.96929 10.3812 8.08506C10.4122 8.20083 10.4201 8.32158 10.4045 8.44041C10.3888 8.55924 10.3499 8.67382 10.29 8.77762C10.2301 8.88141 10.1503 8.97239 10.0552 9.04535C9.96011 9.11831 9.85158 9.17183 9.73581 9.20285L3.58127 10.852C3.34804 10.9129 3.1002 10.879 2.89185 10.7578C2.6835 10.6366 2.53156 10.4379 2.46918 10.2051C2.4068 9.97224 2.43905 9.72418 2.55889 9.51505C2.67874 9.30591 2.87644 9.15267 3.10886 9.08877ZM2.58301 3.03891L6.69409 1.93728C6.92753 1.87578 7.17583 1.90927 7.38465 2.03041C7.59346 2.15155 7.74578 2.35048 7.80826 2.58366C7.87075 2.81684 7.83831 3.06528 7.71805 3.2746C7.59779 3.48392 7.39951 3.63708 7.16659 3.70055L3.05516 4.80217C2.82231 4.86182 2.57534 4.82722 2.36786 4.70588C2.16037 4.58453 2.00913 4.38625 1.94696 4.15407C1.88478 3.92188 1.91671 3.67455 2.03579 3.46576C2.15488 3.25698 2.35151 3.10359 2.58301 3.03891ZM4.98603 7.31153L6.74902 6.83947L6.31098 5.20365L4.54772 5.67606L4.98603 7.31153ZM11.0975 23.4872C11.3545 23.2877 11.562 23.0314 11.7035 22.7384C11.845 22.4454 11.9169 22.1236 11.9134 21.7983L10.6953 22.1249C10.5379 22.1669 10.3702 22.1447 10.2291 22.0632C10.0881 21.9816 9.98521 21.8473 9.94315 21.6899C9.90108 21.5325 9.92328 21.3648 10.0049 21.2237C10.0864 21.0827 10.2207 20.9798 10.3781 20.9377L11.6564 20.595L11.4916 19.9797L9.54562 20.5012C9.46751 20.5225 9.38596 20.5282 9.30566 20.5178C9.22536 20.5075 9.14788 20.4815 9.07769 20.4411C9.0075 20.4008 8.94598 20.3469 8.89665 20.2827C8.84733 20.2185 8.81118 20.1452 8.79028 20.067C8.76938 19.9888 8.76415 19.9072 8.77488 19.827C8.78561 19.7467 8.8121 19.6694 8.85281 19.5994C8.89353 19.5294 8.94767 19.4682 9.01213 19.4192C9.07659 19.3702 9.15009 19.3345 9.22842 19.314L11.1736 18.7928L11.0088 18.1775L9.72966 18.5203C9.57254 18.5614 9.40555 18.5386 9.26517 18.457C9.1248 18.3753 9.02247 18.2414 8.98055 18.0845C8.93863 17.9276 8.96053 17.7605 9.04147 17.6197C9.1224 17.4789 9.25578 17.3758 9.41246 17.3331L10.6907 16.9903L10.5259 16.3751L8.57996 16.8965C8.42253 16.9386 8.25482 16.9164 8.11375 16.8348C7.97267 16.7533 7.86978 16.619 7.82771 16.4616C7.78563 16.3041 7.80782 16.1364 7.88939 15.9953C7.97097 15.8543 8.10524 15.7514 8.26268 15.7093L10.208 15.1881L10.0432 14.5729L8.764 14.9157C8.60689 14.9567 8.43989 14.934 8.29952 14.8523C8.15915 14.7706 8.05682 14.6367 8.0149 14.4798C7.97298 14.3229 7.99488 14.1558 8.07581 14.015C8.15675 13.8742 8.29013 13.7712 8.44681 13.7284L9.72509 13.3857L9.56029 12.7704L7.61422 13.2919C7.4571 13.333 7.29011 13.3102 7.14973 13.2285C7.00936 13.1469 6.90703 13.0129 6.86511 12.856C6.82319 12.6991 6.84509 12.532 6.92603 12.3912C7.00696 12.2504 7.14035 12.1474 7.29702 12.1046L9.24231 11.5835L8.99815 10.6722L4.95518 11.7555L7.79976 22.3719C7.90783 22.7705 8.13095 23.1283 8.44125 23.4007C8.75154 23.6731 9.13524 23.848 9.54439 23.9036L9.99904 25.5999C10.005 25.6222 10.0152 25.6432 10.0293 25.6615C10.0433 25.6799 10.0608 25.6953 10.0808 25.7069C10.1008 25.7185 10.1229 25.726 10.1458 25.729C10.1687 25.7321 10.192 25.7306 10.2143 25.7246L10.2276 25.7211L11.6023 30.8517C11.645 31.0084 11.748 31.1418 11.8888 31.2227C12.0296 31.3036 12.1967 31.3255 12.3536 31.2836C12.5105 31.2417 12.6445 31.1394 12.7261 30.999C12.8078 30.8586 12.8306 30.6916 12.7895 30.5345L11.4145 25.4029L11.4278 25.3994C11.4501 25.3934 11.471 25.3831 11.4893 25.3691C11.5076 25.355 11.523 25.3375 11.5345 25.3175C11.5461 25.2975 11.5536 25.2754 11.5566 25.2525C11.5596 25.2296 11.5581 25.2064 11.5521 25.1841L11.0975 23.4878V23.4872ZM29.4958 18.6521L30.4254 17.7226L33.074 20.3721L32.1445 21.3011C31.9795 21.4655 31.756 21.5578 31.523 21.5578C31.2901 21.5578 31.0666 21.4655 30.9015 21.3011L29.4958 19.8954C29.3314 19.7304 29.2391 19.5069 29.2391 19.274C29.2391 19.041 29.3314 18.8176 29.4958 18.6525V18.6521ZM31.2953 16.8527L33.944 19.502L43.5475 9.89815C43.7214 9.72424 43.8594 9.51777 43.9535 9.29054C44.0476 9.06331 44.0961 8.81977 44.0961 8.57382C44.0961 8.32787 44.0476 8.08432 43.9535 7.85709C43.8594 7.62986 43.7214 7.4234 43.5475 7.24948C43.3736 7.07557 43.1671 6.93761 42.9399 6.84349C42.7127 6.74937 42.4691 6.70092 42.2232 6.70092C41.9772 6.70092 41.7337 6.74937 41.5065 6.84349C41.2792 6.93761 41.0728 7.07557 40.8988 7.24948L31.2953 16.853V16.8527ZM29.7617 31.5825C29.932 35.0956 29.999 42.5167 27.5871 43.2149C27.5871 43.2149 25.4797 42.6607 25.6488 37.7577C25.8179 32.8547 23 32.8547 23 32.8547C23 32.8547 20.1821 32.8547 20.3512 37.7577C20.5203 42.6608 18.4129 43.2149 18.4129 43.2149C16.0007 42.5166 16.068 35.0949 16.2384 31.5821C16.3075 30.3906 16.1217 29.1981 15.6935 28.084C9.80375 12.2956 23 18.873 23 18.873C23 18.873 26.2888 17.2349 28.8499 17.5583L28.6258 17.7825C28.405 18.0032 28.236 18.2703 28.1311 18.5644C28.0262 18.8585 27.9881 19.1722 28.0193 19.4829L19.9493 27.5527C19.7771 27.7249 19.647 27.9346 19.569 28.1653C19.4911 28.3961 19.4675 28.6417 19.5001 28.8831C19.5327 29.1244 19.6205 29.355 19.7569 29.5569C19.8932 29.7587 20.0742 29.9263 20.2859 30.0467C22.1105 31.0838 25.0787 30.6979 26.5661 29.2105L29.2133 26.5634C29.5779 26.203 29.7964 25.7205 29.8267 25.2087L29.8924 24.1995L31.3145 22.7776C31.4539 22.7914 31.5943 22.7914 31.7337 22.7776C31.5611 24.1762 31.1136 25.9199 30.3058 28.0862C29.878 29.1999 29.6926 30.392 29.762 31.583L29.7617 31.5825ZM30.1079 22.2441C30.0819 22.2207 30.0565 22.1965 30.0315 22.1716L28.6258 20.7658C28.6008 20.7409 28.5766 20.7154 28.5531 20.6895L20.8193 28.4229C20.7809 28.461 20.7518 28.5076 20.7344 28.5589C20.717 28.6102 20.7117 28.6649 20.7189 28.7186C20.7262 28.7723 20.7458 28.8236 20.7762 28.8684C20.8066 28.9133 20.847 28.9505 20.8941 28.9771C22.056 29.6377 24.4625 29.574 25.696 28.3405L28.3432 25.6932C28.4967 25.5442 28.588 25.3425 28.5988 25.1289L28.6731 23.9875C28.6839 23.7738 28.7752 23.5721 28.9287 23.423L30.1079 22.2441ZM14.9323 33.7012C9.79426 34.8104 5.29162 36.9509 1.90625 39.7825V44.0938H17.4038C14.9184 42.5103 14.901 36.5934 14.9323 33.7012ZM19.4032 44.0938H26.5969C24.6401 42.8149 24.346 39.8318 24.419 37.7153C24.4527 36.739 24.3158 34.2589 23 34.0878C21.6842 34.2589 21.5473 36.739 21.581 37.7153C21.654 39.8318 21.3599 42.8149 19.4032 44.0938Z" fill="#148A8B"/>
</svg>
