<svg width="25" height="25" viewBox="0 0 25 25" fill="none" xmlns="http://www.w3.org/2000/svg">
<path d="M20.239 15.8789C19.9744 15.8781 19.713 15.8212 19.4719 15.7121C19.2308 15.603 19.0155 15.4442 18.8402 15.246C18.6648 15.0478 18.5334 14.8148 18.4545 14.5622C18.3756 14.3097 18.351 14.0433 18.3824 13.7805C18.4339 13.2219 18.8757 12.3711 19.8589 10.9356C19.9036 10.8773 19.961 10.83 20.0269 10.7975C20.0927 10.765 20.1652 10.748 20.2386 10.748C20.312 10.748 20.3845 10.765 20.4503 10.7975C20.5162 10.83 20.5737 10.8773 20.6183 10.9356C21.6015 12.3711 22.0433 13.2223 22.0949 13.7801C22.1263 14.0428 22.1017 14.3092 22.0229 14.5618C21.9441 14.8143 21.8127 15.0474 21.6375 15.2456C21.4622 15.4438 21.247 15.6027 21.006 15.7118C20.765 15.821 20.5036 15.8779 20.239 15.8789ZM20.2386 11.7684C19.8257 12.3887 19.2038 13.3797 19.1605 13.8528C19.138 14.0075 19.1491 14.1652 19.193 14.3152C19.2369 14.4652 19.3126 14.604 19.4149 14.7222C19.5172 14.8404 19.6437 14.9352 19.7859 15.0002C19.928 15.0651 20.0825 15.0988 20.2388 15.0987C20.3951 15.0987 20.5496 15.065 20.6918 15C20.8339 14.935 20.9604 14.8402 21.0627 14.7219C21.1649 14.6037 21.2405 14.4649 21.2844 14.3148C21.3282 14.1648 21.3392 14.0071 21.3167 13.8524C21.2734 13.3797 20.6519 12.3887 20.2386 11.7684Z" fill="#119498"/>
<path d="M18.2861 4.0542H16.8076C16.1862 4.05492 15.5905 4.30209 15.1511 4.74147C14.7118 5.18085 14.4646 5.77657 14.4639 6.39795V20.921C14.4635 21.3353 14.2987 21.7325 14.0058 22.0254C13.7128 22.3183 13.3156 22.4831 12.9014 22.4835H9.99785C9.58358 22.4831 9.18639 22.3183 8.89345 22.0254C8.60052 21.7325 8.43576 21.3353 8.43535 20.921V18.9835H8.59551C8.80261 18.9832 9.00115 18.9008 9.14759 18.7543C9.29404 18.6079 9.37645 18.4093 9.37676 18.2022V17.3194H10.4592C11.1841 17.3186 11.8791 17.0303 12.3918 16.5176C12.9044 16.005 13.1927 15.31 13.1936 14.5851V5.84365C13.1927 5.1187 12.9044 4.42369 12.3918 3.91107C11.8791 3.39846 11.1841 3.1101 10.4592 3.10928H9.80254V2.91396C9.80223 2.6016 9.67801 2.30212 9.45713 2.08125C9.23626 1.86037 8.93678 1.73615 8.62441 1.73584H7.46504C7.15271 1.73625 6.85329 1.86051 6.63244 2.08136C6.41158 2.30221 6.28733 2.60163 6.28691 2.91396V3.10928H5.62988C4.90494 3.1101 4.20992 3.39846 3.6973 3.91107C3.18469 4.42369 2.89633 5.1187 2.89551 5.84365V14.5851C2.89633 15.31 3.18469 16.005 3.6973 16.5176C4.20992 17.0303 4.90494 17.3186 5.62988 17.3194H6.71309V18.2022C6.7134 18.4093 6.79581 18.6079 6.94225 18.7543C7.0887 18.9008 7.28723 18.9832 7.49434 18.9835H7.6541V20.921C7.65482 21.5424 7.90199 22.1381 8.34137 22.5775C8.78075 23.0169 9.37647 23.264 9.99785 23.2647H12.9014C13.5227 23.264 14.1185 23.0169 14.5578 22.5775C14.9972 22.1381 15.2444 21.5424 15.2451 20.921V6.39756C15.2455 5.98328 15.4103 5.5861 15.7032 5.29316C15.9962 5.00023 16.3933 4.83547 16.8076 4.83506H18.2861C18.7004 4.83547 19.0976 5.00023 19.3905 5.29316C19.6835 5.5861 19.8482 5.98328 19.8486 6.39756V9.40146C19.8486 9.50506 19.8898 9.60442 19.963 9.67768C20.0363 9.75093 20.1357 9.79209 20.2393 9.79209C20.3429 9.79209 20.4422 9.75093 20.5155 9.67768C20.5887 9.60442 20.6299 9.50506 20.6299 9.40146V6.39756C20.6292 5.77618 20.382 5.18046 19.9426 4.74108C19.5032 4.30169 18.9075 4.05453 18.2861 4.05381V4.0542ZM7.06816 2.91396C7.06837 2.80877 7.11025 2.70794 7.18463 2.63356C7.25902 2.55918 7.35984 2.5173 7.46504 2.51709H8.62441C8.72964 2.51719 8.83053 2.55904 8.90493 2.63345C8.97934 2.70785 9.02119 2.80874 9.02129 2.91396V3.10928H7.06816V2.91396ZM5.62988 3.89053H10.4592C10.842 3.89098 11.2163 4.00377 11.5357 4.21493C11.855 4.42609 12.1053 4.72632 12.2557 5.07842H3.83379C3.98408 4.72639 4.23437 4.42619 4.55364 4.21504C4.8729 4.00388 5.24711 3.89105 5.62988 3.89053ZM3.67676 14.5851V5.85967H12.4123V14.5851C12.4117 15.1029 12.2057 15.5993 11.8396 15.9654C11.4734 16.3316 10.977 16.5376 10.4592 16.5382H5.62988C5.11207 16.5376 4.61565 16.3316 4.2495 15.9654C3.88335 15.5993 3.67738 15.1029 3.67676 14.5851ZM7.49434 17.3194H8.59551V18.2022H7.49395L7.49434 17.3194Z" fill="#119498"/>
<path d="M8.04578 14.7791C7.73407 14.778 7.42611 14.7111 7.14216 14.5825C6.8582 14.4539 6.60468 14.2667 6.39827 14.0331C6.19185 13.7996 6.03723 13.5249 5.94456 13.2273C5.8519 12.9297 5.82329 12.6159 5.86062 12.3064C5.92234 11.6384 6.45828 10.6099 7.65281 8.86577C7.69662 8.8022 7.75523 8.75023 7.82358 8.71433C7.89193 8.67843 7.96798 8.65967 8.04519 8.65967C8.1224 8.65967 8.19845 8.67843 8.2668 8.71433C8.33515 8.75023 8.39376 8.8022 8.43757 8.86577C9.63289 10.6095 10.1684 11.6384 10.2305 12.3064C10.2678 12.6158 10.2392 12.9297 10.1465 13.2273C10.0538 13.5249 9.89915 13.7995 9.69275 14.033C9.48635 14.2666 9.23286 14.4538 8.94893 14.5824C8.665 14.711 8.35746 14.778 8.04578 14.7791ZM8.04578 9.67827C7.54109 10.4298 6.69695 11.7517 6.63953 12.3783C6.61076 12.5798 6.62563 12.7851 6.68312 12.9803C6.74061 13.1756 6.83938 13.3562 6.97275 13.5099C7.10611 13.6637 7.27095 13.787 7.45612 13.8715C7.64128 13.956 7.84244 13.9997 8.04597 13.9997C8.24951 13.9997 8.45067 13.956 8.63583 13.8715C8.82099 13.787 8.98584 13.6637 9.1192 13.5099C9.25256 13.3562 9.35133 13.1756 9.40882 12.9803C9.46631 12.7851 9.48118 12.5798 9.45242 12.3783C9.395 11.7517 8.55164 10.4314 8.04578 9.67827Z" fill="#119498"/>
<path d="M8.04432 13.6069C7.78821 13.6071 7.54142 13.5109 7.35302 13.3374C7.16462 13.1639 7.04842 12.9259 7.02752 12.6706C7.01972 12.5693 7.05172 12.4689 7.11675 12.3907C7.18177 12.3126 7.27469 12.2629 7.37577 12.2522C7.47684 12.2415 7.57812 12.2705 7.6581 12.3333C7.73807 12.396 7.79044 12.4875 7.80408 12.5882C7.80419 12.6196 7.81049 12.6507 7.82263 12.6796C7.83478 12.7085 7.85252 12.7348 7.87484 12.7569C7.89716 12.7789 7.92363 12.7964 7.95271 12.8082C7.9818 12.82 8.01293 12.826 8.04432 12.8257C8.14792 12.8257 8.24728 12.8669 8.32053 12.9401C8.39379 13.0134 8.43494 13.1127 8.43494 13.2163C8.43494 13.3199 8.39379 13.4193 8.32053 13.4925C8.24728 13.5658 8.14792 13.6069 8.04432 13.6069Z" fill="#119498"/>
</svg>
