<svg width="46" height="46" viewBox="0 0 46 46" fill="none" xmlns="http://www.w3.org/2000/svg">
<path d="M23.7031 8.23438C23.7031 8.21873 23.7042 8.20326 23.7043 8.18771L13.8594 7.50866V10.3663L23.7031 9.68738V8.23438ZM32.1406 8.23438C32.1406 7.30197 31.7702 6.40776 31.1109 5.74845C30.4516 5.08915 29.5574 4.71875 28.625 4.71875C27.6926 4.71875 26.7984 5.08915 26.1391 5.74845C25.4798 6.40776 25.1094 7.30197 25.1094 8.23438V11.75H32.1406V8.23438ZM12.4531 7.41172L4.71875 6.87822V10.9968L12.4531 10.4633V7.41172ZM30.7344 14.5625H30.0312V13.1562H27.2188V14.5625H26.5156C26.3292 14.5627 26.1505 14.6369 26.0187 14.7687C25.8869 14.9005 25.8127 15.0792 25.8125 15.2656V17.375H31.4375V15.2656C31.4373 15.0792 31.3631 14.9005 31.2313 14.7687C31.0995 14.6369 30.9208 14.5627 30.7344 14.5625ZM36.3594 15.2656C37.2247 15.7604 37.9419 16.4777 38.4365 17.3432C38.931 18.2087 39.1849 19.1908 39.1719 20.1875C39.1588 19.1908 39.4127 18.2087 39.9073 17.3432C40.4018 16.4777 41.119 15.7604 41.9844 15.2656C41.119 14.7709 40.4018 14.0535 39.9073 13.188C39.4127 12.3225 39.1588 11.3405 39.1719 10.3438C39.1849 11.3405 38.931 12.3225 38.4365 13.188C37.9419 14.0535 37.2247 14.7709 36.3594 15.2656ZM19.1337 34.25C22.0086 30.3204 22.3522 28.5046 22.3013 27.2469C22.2619 26.5454 22.0661 25.8616 21.7282 25.2456C21.5132 24.8339 21.2174 24.4697 20.8585 24.1749C20.4995 23.8801 20.0848 23.6608 19.6391 23.53C19.1889 23.3939 18.7159 23.35 18.2483 23.4009C17.7808 23.4518 17.3283 23.5964 16.918 23.8262L15.5504 24.5855C14.8201 24.9944 13.9972 25.2091 13.1602 25.2091C12.3233 25.2091 11.5003 24.9944 10.77 24.5855L9.40332 23.8262C8.99295 23.5965 8.54047 23.4518 8.07294 23.4009C7.60541 23.3501 7.13241 23.3939 6.68223 23.53C6.23653 23.6608 5.8218 23.8801 5.46284 24.1749C5.10387 24.4697 4.80805 24.8339 4.59307 25.2456C4.25496 25.8616 4.05886 26.5453 4.01914 27.2469C3.93125 29.4485 5.53613 32.0018 7.18672 34.25H19.1337ZM38.8168 34.25C41.6926 30.3204 42.0354 28.5046 41.9853 27.2469C41.9451 26.5454 41.749 25.8617 41.4113 25.2456C41.1963 24.8339 40.9005 24.4697 40.5416 24.1749C40.1826 23.8801 39.7679 23.6608 39.3222 23.53C38.872 23.3939 38.399 23.35 37.9314 23.4009C37.4639 23.4518 37.0114 23.5964 36.6011 23.8262L35.2344 24.5855C34.5039 24.9944 33.6808 25.2091 32.8438 25.2091C32.0067 25.2091 31.1836 24.9944 30.4531 24.5855L29.0864 23.8262C28.6761 23.5964 28.2236 23.4518 27.7561 23.4009C27.2885 23.35 26.8155 23.3939 26.3653 23.53C25.9196 23.6608 25.5049 23.8801 25.1459 24.1749C24.787 24.4697 24.4912 24.8339 24.2762 25.2456C23.9385 25.8617 23.7424 26.5454 23.7022 27.2469C23.6144 29.4485 25.2192 32.0018 26.8707 34.25H38.8168ZM26.6562 30.4531C25.7933 29.3026 25.4454 28.1964 25.6221 27.165C25.7552 26.3887 26.186 25.695 26.8228 25.2315L26.8276 25.2281L26.8287 25.2274C26.9834 25.1253 27.1722 25.0885 27.354 25.125C27.5358 25.1614 27.6958 25.2681 27.7993 25.422C27.9027 25.5758 27.9412 25.7643 27.9065 25.9463C27.8717 26.1284 27.7664 26.2894 27.6135 26.3942L27.6158 26.3927C27.2895 26.6467 27.0712 27.0147 27.0046 27.4228C26.905 28.0537 27.1662 28.7894 27.7812 29.6093C27.8366 29.6832 27.8769 29.7672 27.8998 29.8567C27.9227 29.9461 27.9278 30.0392 27.9147 30.1306C27.9017 30.222 27.8707 30.3099 27.8237 30.3894C27.7766 30.4689 27.7144 30.5383 27.6405 30.5937C27.5667 30.6491 27.4826 30.6894 27.3932 30.7123C27.3037 30.7352 27.2106 30.7403 27.1192 30.7272C27.0278 30.7142 26.9399 30.6832 26.8604 30.6362C26.781 30.5891 26.7116 30.5269 26.6562 30.453L26.6562 30.4531ZM40.5781 35.6562H5.42188C4.86263 35.6569 4.32648 35.8793 3.93104 36.2748C3.5356 36.6702 3.31315 37.2064 3.3125 37.7656V42.6875H42.6875V37.7656C42.6868 37.2064 42.4644 36.6702 42.069 36.2748C41.6735 35.8793 41.1374 35.6569 40.5781 35.6562Z" fill="#148A8B"/>
<path d="M3.3125 19.4844C4.17786 19.9791 4.89503 20.6965 5.38959 21.562C5.88415 22.4275 6.13807 23.4095 6.125 24.4062C6.11193 23.4095 6.36585 22.4275 6.86041 21.562C7.35497 20.6965 8.07214 19.9791 8.9375 19.4844C8.07214 18.9896 7.35497 18.2723 6.86041 17.4068C6.36585 16.5413 6.11193 15.5592 6.125 14.5625C6.13807 15.5592 5.88415 16.5413 5.38959 17.4068C4.89503 18.2723 4.17786 18.9896 3.3125 19.4844Z" fill="#148A8B"/>
</svg>
