<svg width="25" height="26" viewBox="0 0 25 26" fill="none" xmlns="http://www.w3.org/2000/svg">
<path d="M19.5912 14.5284L18.3928 15.7268L17.7347 12.4361L17.2614 9.75303C17.0544 8.57771 16.4657 7.50343 15.5864 6.69658L17.0545 4.93489C17.238 4.71442 17.3386 4.43667 17.3388 4.14981C17.3395 3.92192 17.2764 3.69839 17.1566 3.50454C17.0368 3.31069 16.8651 3.15428 16.661 3.05303L16.5251 2.98529C16.3273 2.88658 16.1094 2.8351 15.8884 2.83489C15.3944 2.83489 14.9432 3.08489 14.6811 3.50384L13.6093 5.21876L14.4368 2.7369C14.4896 2.57722 14.5162 2.4115 14.5162 2.24416C14.5165 1.98738 14.4532 1.73452 14.3321 1.50812C14.2109 1.28172 14.0356 1.08881 13.8218 0.94658L13.3037 0.601016C13.1223 0.479819 12.909 0.415258 12.6908 0.415532C12.4291 0.414779 12.1757 0.507265 11.9761 0.676406C11.7764 0.845547 11.6435 1.08028 11.6013 1.33852L11.1408 4.10222L10.9384 1.47198C10.9151 1.18504 10.7849 0.917289 10.5737 0.721671C10.3625 0.526053 10.0855 0.416807 9.79765 0.415532C9.67469 0.4154 9.55253 0.435284 9.43596 0.474403L9.02668 0.610693C8.70846 0.716248 8.43847 0.932135 8.26551 1.21935C8.09254 1.50657 8.028 1.84618 8.08354 2.17682L8.76298 6.25384C8.46339 6.46542 8.18615 6.70699 7.93556 6.9748L7.15854 6.19779C6.95444 5.99357 6.83002 5.72315 6.80773 5.43529L6.50491 1.49779C6.48117 1.20386 6.34797 0.929541 6.13165 0.729126C5.91533 0.52871 5.63165 0.416797 5.33677 0.415532C5.2404 0.415532 5.14443 0.427225 5.05249 0.450613L4.20733 0.661903C4.04209 0.702823 3.88656 0.775977 3.74967 0.877164C3.61277 0.978351 3.49721 1.10558 3.40962 1.25155C3.32202 1.39751 3.26412 1.55934 3.23923 1.72774C3.21434 1.89615 3.22296 2.06781 3.26459 2.23287L3.92104 4.85787C3.93413 4.90902 3.92922 4.96312 3.90711 5.01108C3.88501 5.05903 3.84707 5.09791 3.79967 5.12118C3.76127 5.14054 3.71822 5.14876 3.67539 5.14492C3.63256 5.14107 3.59166 5.1253 3.55733 5.0994L2.50572 4.31069C2.27484 4.1384 1.9946 4.04508 1.70653 4.04456C1.26056 4.04456 0.846043 4.26634 0.598462 4.63771L0.214591 5.21351C0.0744674 5.4235 -0.000189529 5.67034 7.53344e-05 5.92279C7.53344e-05 6.41029 0.271043 6.8486 0.70693 7.06674L2.36661 7.89658C2.72785 8.0776 3.00408 8.39261 3.13636 8.7744C1.31056 9.4498 7.53344e-05 11.2288 7.53344e-05 13.3171C-0.00960208 15.7498 0.913381 18.0897 2.59927 19.9054C4.44794 21.8905 6.7105 23.4448 9.22668 24.4583L11.2472 25.2683C11.4913 25.3659 11.7518 25.4158 12.0146 25.4155C12.4202 25.4155 12.817 25.2736 13.1307 25.0171L13.3307 24.8542C15.8569 22.7869 17.6904 19.9139 18.5061 16.7542L19.9251 15.3349H25.0001V14.5284H19.5912ZM15.365 3.93166C15.4483 3.80363 15.5752 3.71023 15.7223 3.66884C15.8693 3.62744 16.0263 3.64089 16.1642 3.70666L16.3005 3.77481C16.357 3.80308 16.4065 3.84378 16.4451 3.89386C16.4837 3.94395 16.5105 4.00211 16.5234 4.06401C16.5364 4.12591 16.5352 4.18993 16.5199 4.2513C16.5046 4.31266 16.4756 4.36977 16.4352 4.41835L14.9557 6.19376C14.7207 6.03327 14.4734 5.89144 14.2162 5.76956L15.365 3.93166ZM12.3968 1.47118C12.4303 1.26876 12.6856 1.15868 12.8561 1.27198L13.3743 1.61755C13.5119 1.70895 13.6156 1.84319 13.6693 1.99948C13.7229 2.15576 13.7235 2.32538 13.671 2.48206L12.7247 5.32118C12.4516 5.27804 12.1757 5.25567 11.8993 5.25424C11.8541 5.25424 11.8102 5.2615 11.765 5.26231L12.3968 1.47118ZM8.8791 2.04456C8.85537 1.90334 8.88293 1.75827 8.9568 1.63559C9.03068 1.51291 9.146 1.42069 9.28193 1.37561L9.6916 1.23892C9.8912 1.1736 10.1186 1.32279 10.1347 1.53368L10.4368 5.46231C10.117 5.55136 9.80601 5.66946 9.50773 5.81513L8.8791 2.04456ZM11.8993 6.06069C13.1727 6.06069 14.3392 6.57521 15.1843 7.42239L14.7614 7.49295C13.9606 7.62679 13.2073 7.96311 12.5731 8.46997C11.9117 8.99761 11.0909 9.28545 10.2448 9.2865H10.1783C9.32359 9.28754 8.4948 8.99309 7.83233 8.45303C7.9162 8.31271 8.00451 8.1744 8.09886 8.03972C8.52671 7.42877 9.09549 6.92992 9.75703 6.58543C10.4186 6.24094 11.1534 6.06094 11.8993 6.06069ZM2.72749 7.17521L1.06741 6.34537C0.988849 6.30627 0.922785 6.24597 0.876684 6.1713C0.830583 6.09662 0.806282 6.01055 0.806527 5.92279C0.806527 5.82924 0.833946 5.73851 0.885962 5.66069L1.26983 5.08529C1.42991 4.84456 1.7908 4.78368 2.02225 4.95626L3.07346 5.74497C3.3904 5.98287 3.80653 6.02037 4.16056 5.84335C4.37254 5.73855 4.54213 5.56417 4.64099 5.34935C4.73985 5.13453 4.76199 4.89229 4.7037 4.66311L4.04725 2.03771C4.0315 1.97543 4.02819 1.91066 4.03753 1.8471C4.04687 1.78355 4.06867 1.72246 4.10168 1.66735C4.13468 1.61224 4.17825 1.56419 4.22987 1.52596C4.28149 1.48773 4.34015 1.46007 4.40249 1.44456L5.24886 1.23327C5.45733 1.17924 5.68435 1.34093 5.70088 1.55989L6.0037 5.49739C6.04054 5.97727 6.24795 6.42812 6.58838 6.76835L7.42225 7.60222C7.16614 7.97301 6.94298 8.3655 6.75531 8.77521L5.74765 8.5736C5.43767 8.51141 5.12228 8.48007 4.80612 8.48005H4.7533C4.4662 8.48005 4.18677 8.51029 3.91338 8.56029C3.81788 8.26209 3.66379 7.98598 3.46015 7.74813C3.25651 7.51029 3.00742 7.3155 2.72749 7.17521ZM4.7533 9.2865H4.80612C5.06862 9.2865 5.33233 9.31271 5.58959 9.36392L6.45169 9.5365C6.18798 10.32 6.04846 11.1442 6.04846 11.9869V12.2054C6.04846 13.5083 5.04564 14.5284 3.76499 14.5284C3.26332 14.5298 2.76636 14.4316 2.30285 14.2397C1.83934 14.0478 1.41847 13.7659 1.06459 13.4103L0.814591 13.1595C0.897252 11.0103 2.62991 9.2865 4.7533 9.2865ZM12.8202 24.2296L12.6202 24.3929C12.3243 24.6345 11.8981 24.6595 11.5468 24.5192L9.52709 23.7099C7.12132 22.7408 4.95803 21.2546 3.1904 19.3567C1.87548 17.9409 1.07306 16.178 0.865801 14.3119C1.68592 14.9759 2.70975 15.3372 3.76499 15.3349C5.46902 15.3349 6.85491 13.9313 6.85491 12.2054V11.9869C6.85491 11.0091 7.06378 10.0587 7.45693 9.18085C8.24057 9.77333 9.1963 10.0936 10.1787 10.0929H10.2452C11.2706 10.0929 12.2763 9.74013 13.0771 9.0994C13.6037 8.67862 14.2292 8.39936 14.894 8.28811L15.767 8.14255C16.1179 8.67183 16.3562 9.26765 16.467 9.89295L16.9255 12.4909L15.7638 16.5575L14.1017 9.49416L12.9831 14.5284H12.0561C11.9625 14.0734 11.715 13.6646 11.3552 13.3708C10.9953 13.077 10.5452 12.9162 10.0807 12.9155C8.96902 12.9155 8.06459 13.82 8.06459 14.9317C8.06459 16.0434 8.96902 16.9478 10.0807 16.9478C10.5452 16.947 10.9953 16.7862 11.3551 16.4924C11.7149 16.1987 11.9625 15.7899 12.0561 15.3349H13.6299L14.1243 13.1107L15.688 19.7571L17.2694 14.222L17.7311 16.5304C16.961 19.5341 15.2202 22.2655 12.8202 24.2296ZM11.2904 14.9317C11.2904 15.5986 10.7477 16.1413 10.0807 16.1413C9.41378 16.1413 8.87104 15.5986 8.87104 14.9317C8.87104 14.2647 9.41378 13.722 10.0807 13.722C10.7477 13.722 11.2904 14.2647 11.2904 14.9317Z" fill="#119498"/>
</svg>
