<svg width="25" height="26" viewBox="0 0 25 26" fill="none" xmlns="http://www.w3.org/2000/svg">
<g clip-path="url(#clip0_4036_13421)">
<path d="M23.9584 9.75061C23.9829 8.55651 23.836 7.36506 23.5221 6.2127C23.1011 4.78039 22.2271 3.52313 21.0313 2.62936C18.6792 0.786445 16.4809 0.0226946 13.9109 0.153111C12.5552 0.246997 11.2082 0.439591 9.88048 0.729361C8.0009 1.10728 6.63548 1.76811 5.7059 2.74978C4.96923 3.53423 4.4004 4.46078 4.03423 5.4727C3.87902 5.91856 3.75265 6.37394 3.6559 6.83603L3.62256 6.98019C3.53506 7.30478 3.41631 7.62019 3.26881 7.92228C3.18298 8.11478 3.09673 8.30728 3.02215 8.50561C2.92555 8.72567 2.88696 8.96681 2.91006 9.20603C2.99484 9.57824 3.2106 9.90757 3.51798 10.1339C3.72256 10.3214 3.85673 10.4527 3.85798 10.5727C3.84131 10.6352 3.81715 10.6944 3.78506 10.7502C3.28608 11.8023 2.67445 12.7971 1.9609 13.7173C1.66173 14.0827 1.3484 14.5089 1.41215 14.9419C1.5034 15.2702 1.72048 15.5498 2.0159 15.7194C2.1534 15.8144 2.29923 15.8981 2.45048 15.9694C2.63006 16.061 2.93131 16.2144 2.95048 16.3248C2.97756 16.4652 2.96173 16.6102 2.90506 16.7414C2.84298 16.8714 2.78006 16.9839 2.72381 17.0819C2.5709 17.3523 2.31465 17.8056 2.70006 18.1298C2.79006 18.2089 2.94423 18.3302 3.08506 18.4381C2.9809 18.6214 2.93423 18.831 2.9509 19.041C2.9734 19.2039 3.06215 19.3506 3.19631 19.4464C3.28965 19.5127 3.38923 19.5714 3.48798 19.6264C3.73298 19.766 3.8284 19.8314 3.86298 19.9598C3.88548 20.1294 3.87006 20.3023 3.81798 20.4652C3.79271 20.5736 3.77199 20.683 3.7559 20.7931C3.71381 21.1723 3.76131 21.5556 3.89548 21.9127C3.99922 22.294 4.24543 22.6209 4.58327 22.8259C4.9211 23.0309 5.32476 23.0984 5.7109 23.0144C6.90063 22.7275 8.07401 22.3766 9.2259 21.9631C10.1626 22.5164 10.7546 24.1902 10.9088 24.8181C10.931 24.9087 10.9829 24.9892 11.0563 25.0467C11.1296 25.1043 11.2202 25.1356 11.3134 25.1356L21.7717 25.1069C21.8368 25.1067 21.9009 25.0912 21.9589 25.0618C22.0169 25.0324 22.0672 24.9898 22.1058 24.9374C22.1444 24.885 22.1702 24.8244 22.1812 24.7602C22.1921 24.6961 22.1879 24.6303 22.1688 24.5681C22.0655 24.2838 21.9226 24.0154 21.7442 23.771C21.6458 23.6297 21.5567 23.482 21.4776 23.3289C21.2897 22.9446 21.1323 22.5462 21.0067 22.1373C20.7689 21.3324 20.6046 20.5077 20.5159 19.6731C20.3684 18.4273 20.5563 17.1648 21.0609 16.0156C21.3693 15.3795 21.7488 14.7804 22.1921 14.2298C22.4421 13.891 22.7034 13.541 22.9376 13.1714C23.5951 12.1509 23.9491 10.9646 23.9584 9.75061ZM21.5234 13.7369C21.042 14.3379 20.6307 14.9918 20.2976 15.686C19.7337 16.971 19.5237 18.3834 19.6892 19.7769C19.7825 20.6608 19.9563 21.5345 20.2084 22.3869C20.3465 22.836 20.5192 23.2737 20.7251 23.696C20.8196 23.8823 20.9271 24.0623 21.0463 24.2339L21.0763 24.2794L11.6284 24.306C11.3509 23.3173 10.8481 22.4063 10.1596 21.6444C10.2659 21.6073 10.368 21.5727 10.4601 21.5394C10.7759 21.4289 11.0146 21.3452 11.1338 21.3077C12.9201 20.7469 13.8134 19.9352 13.7892 18.8948C13.7827 18.7856 13.7351 18.6829 13.6559 18.6074C13.5768 18.5318 13.472 18.4891 13.3626 18.4877C13.3078 18.489 13.2539 18.5011 13.2039 18.5232C13.1538 18.5454 13.1086 18.5771 13.0708 18.6168C13.0331 18.6564 13.0035 18.7031 12.9838 18.7541C12.964 18.8052 12.9546 18.8596 12.9559 18.9144C12.9659 19.3435 12.6146 19.9694 10.8834 20.5127C10.7584 20.5519 10.5121 20.6377 10.1842 20.7531C9.88715 20.8573 9.52256 20.9848 9.12381 21.121C7.95011 21.5455 6.75434 21.9063 5.54173 22.2019C5.35389 22.2381 5.15932 22.2 4.99894 22.0957C4.83856 21.9915 4.72486 21.8291 4.68173 21.6427C4.59175 21.4088 4.55738 21.1572 4.58131 20.9077C4.59256 20.8214 4.61215 20.7352 4.63131 20.6485C4.7168 20.3594 4.73025 20.0537 4.67048 19.7581C4.61137 19.5691 4.51212 19.395 4.37951 19.2479C4.2469 19.1007 4.08406 18.984 3.90215 18.9056L3.81298 18.8544C3.85756 18.7635 3.9109 18.6769 3.97256 18.5964C4.00687 18.5526 4.03206 18.5024 4.04663 18.4487C4.0612 18.395 4.06487 18.3389 4.05741 18.2837C4.04996 18.2286 4.03153 18.1755 4.00321 18.1276C3.9749 18.0797 3.93728 18.0379 3.89256 18.0048C3.79256 17.9306 3.55423 17.7523 3.3834 17.6152C3.40465 17.5764 3.4284 17.5319 3.45048 17.4948C3.51465 17.3819 3.58756 17.2514 3.65881 17.1027C3.79208 16.8113 3.83125 16.4857 3.7709 16.171C3.67381 15.6598 3.18756 15.4106 2.82881 15.2289C2.70798 15.1714 2.59173 15.1039 2.48215 15.0277C2.39578 14.9676 2.3139 14.9013 2.23715 14.8294C2.23715 14.7669 2.30381 14.6144 2.62423 14.2231C3.36871 13.2632 4.00701 12.2255 4.52798 11.1281C4.62798 10.9564 4.68423 10.7623 4.69131 10.5635C4.67032 10.3563 4.60494 10.1559 4.4996 9.97618C4.39427 9.79644 4.25147 9.64148 4.0809 9.52186C3.91423 9.36769 3.7534 9.22186 3.73548 9.09353C3.73715 8.99269 3.75965 8.89353 3.80215 8.80186C3.87048 8.62103 3.95006 8.44353 4.02965 8.26603C4.19965 7.91561 4.33506 7.54936 4.43423 7.17269L4.46798 7.02728C4.55715 6.59936 4.6734 6.17811 4.81631 5.76519C5.14291 4.85771 5.65151 4.02654 6.3109 3.32269C7.11798 2.47269 8.33965 1.88936 10.0446 1.54644C11.3322 1.26467 12.6386 1.07723 13.9534 0.985611C16.3109 0.860611 18.3346 1.57478 20.5163 3.28644C21.5764 4.06803 22.3504 5.17623 22.7192 6.44061C23.0116 7.51485 23.1482 8.62547 23.1251 9.73853C23.1178 10.8 22.8086 11.8374 22.2338 12.7298C22.0155 13.0723 21.7646 13.4102 21.5221 13.7369H21.5234Z" fill="#119498"/>
<path d="M9.79175 7.22266H10.2084C10.3189 7.22266 10.4249 7.17876 10.503 7.10062C10.5812 7.02248 10.6251 6.9165 10.6251 6.80599C10.6251 6.69548 10.5812 6.5895 10.503 6.51136C10.4249 6.43322 10.3189 6.38932 10.2084 6.38932H9.79175C9.46023 6.38932 9.14228 6.52102 8.90786 6.75544C8.67344 6.98986 8.54175 7.3078 8.54175 7.63932V8.05599C8.54175 8.38751 8.67344 8.70545 8.90786 8.93987C9.14228 9.17429 9.46023 9.30599 9.79175 9.30599H10.2084C10.3189 9.30599 10.4249 9.26209 10.503 9.18395C10.5812 9.10581 10.6251 8.99983 10.6251 8.88932C10.6251 8.77882 10.5812 8.67284 10.503 8.59469C10.4249 8.51655 10.3189 8.47266 10.2084 8.47266H9.79175C9.68124 8.47266 9.57526 8.42876 9.49712 8.35062C9.41898 8.27248 9.37508 8.1665 9.37508 8.05599V7.63932C9.37508 7.52882 9.41898 7.42283 9.49712 7.34469C9.57526 7.26655 9.68124 7.22266 9.79175 7.22266ZM12.7084 5.97266C12.5979 5.97266 12.4919 6.01656 12.4138 6.0947C12.3356 6.17284 12.2917 6.27882 12.2917 6.38932V7.22266C12.2917 7.33316 12.2478 7.43914 12.1697 7.51728C12.0916 7.59542 11.9856 7.63932 11.8751 7.63932H11.4584C11.3479 7.63932 11.2419 7.68322 11.1638 7.76136C11.0856 7.8395 11.0417 7.94548 11.0417 8.05599C11.0417 8.1665 11.0856 8.27248 11.1638 8.35062C11.2419 8.42876 11.3479 8.47266 11.4584 8.47266H11.8751C12.2066 8.47266 12.5245 8.34096 12.759 8.10654C12.9934 7.87212 13.1251 7.55418 13.1251 7.22266V6.38932C13.1251 6.27882 13.0812 6.17284 13.003 6.0947C12.9249 6.01656 12.8189 5.97266 12.7084 5.97266Z" fill="#119498"/>
<path d="M14.3751 5.97258V5.55591C14.3751 5.22439 14.2434 4.90645 14.009 4.67202C13.7745 4.4376 13.4566 4.30591 13.1251 4.30591H12.2917C11.9602 4.30591 11.6423 4.4376 11.4079 4.67202C11.1734 4.90645 11.0417 5.22439 11.0417 5.55591V5.97258C11.0417 6.08308 11.0856 6.18906 11.1638 6.2672C11.2419 6.34534 11.3479 6.38924 11.4584 6.38924C11.5689 6.38924 11.6749 6.34534 11.753 6.2672C11.8312 6.18906 11.8751 6.08308 11.8751 5.97258V5.55591C11.8751 5.4454 11.919 5.33942 11.9971 5.26128C12.0753 5.18314 12.1812 5.13924 12.2917 5.13924H13.1251C13.2356 5.13924 13.3416 5.18314 13.4197 5.26128C13.4978 5.33942 13.5417 5.4454 13.5417 5.55591V5.97258C13.5417 6.08308 13.5856 6.18906 13.6638 6.2672C13.7419 6.34534 13.8479 6.38924 13.9584 6.38924C14.0689 6.38924 14.1749 6.34534 14.253 6.2672C14.3312 6.18906 14.3751 6.08308 14.3751 5.97258ZM15.6251 8.88924H15.2084C15.0979 8.88924 14.9919 8.84534 14.9138 8.7672C14.8356 8.68906 14.7917 8.58308 14.7917 8.47258V8.05591C14.7917 7.9454 14.7478 7.83942 14.6697 7.76128C14.5916 7.68314 14.4856 7.63924 14.3751 7.63924C14.2646 7.63924 14.1586 7.68314 14.0805 7.76128C14.0023 7.83942 13.9584 7.9454 13.9584 8.05591V8.47258C13.9584 8.8041 14.0901 9.12204 14.3245 9.35646C14.559 9.59088 14.8769 9.72258 15.2084 9.72258H15.6251C15.7356 9.72258 15.8416 9.67868 15.9197 9.60054C15.9978 9.5224 16.0417 9.41642 16.0417 9.30591C16.0417 9.1954 15.9978 9.08942 15.9197 9.01128C15.8416 8.93314 15.7356 8.88924 15.6251 8.88924ZM17.7084 7.63924C17.7084 7.52874 17.6645 7.42275 17.5864 7.34461C17.5082 7.26647 17.4023 7.22258 17.2917 7.22258H16.8751C16.7646 7.22258 16.6586 7.17868 16.5805 7.10054C16.5023 7.0224 16.4584 6.91642 16.4584 6.80591C16.4584 6.6954 16.5023 6.58942 16.5805 6.51128C16.6586 6.43314 16.7646 6.38924 16.8751 6.38924H17.2917C17.4023 6.38924 17.5082 6.34534 17.5864 6.2672C17.6645 6.18906 17.7084 6.08308 17.7084 5.97258C17.7084 5.86207 17.6645 5.75609 17.5864 5.67795C17.5082 5.59981 17.4023 5.55591 17.2917 5.55591H16.8751C16.5436 5.55591 16.2256 5.6876 15.9912 5.92202C15.7568 6.15645 15.6251 6.47439 15.6251 6.80591C15.6251 7.13743 15.7568 7.45537 15.9912 7.68979C16.2256 7.92421 16.5436 8.05591 16.8751 8.05591H17.2917C17.4023 8.05591 17.5082 8.01201 17.5864 7.93387C17.6645 7.85573 17.7084 7.74975 17.7084 7.63924ZM18.9584 7.63924C18.8479 7.63924 18.7419 7.68314 18.6638 7.76128C18.5856 7.83942 18.5417 7.9454 18.5417 8.05591V8.88924C18.5417 8.99975 18.4978 9.10573 18.4197 9.18387C18.3416 9.26201 18.2356 9.30591 18.1251 9.30591H17.7084C17.5979 9.30591 17.4919 9.34981 17.4138 9.42795C17.3356 9.50609 17.2917 9.61207 17.2917 9.72258C17.2917 9.83308 17.3356 9.93906 17.4138 10.0172C17.4919 10.0953 17.5979 10.1392 17.7084 10.1392H18.1251C18.4566 10.1392 18.7745 10.0075 19.009 9.77313C19.2434 9.53871 19.3751 9.22076 19.3751 8.88924V8.05591C19.3751 7.9454 19.3312 7.83942 19.253 7.76128C19.1749 7.68314 19.0689 7.63924 18.9584 7.63924Z" fill="#119498"/>
<path d="M22.2752 8.88924C22.2752 8.88258 22.2718 8.87716 22.2714 8.87049C22.234 8.12594 22.1156 7.38768 21.9181 6.66883C21.596 5.57532 20.9236 4.6179 20.0043 3.94383C18.1197 2.46549 16.411 1.80591 14.4622 1.80591C14.3089 1.80591 14.1539 1.81007 13.9951 1.81757C13.8531 1.82507 13.711 1.84132 13.5689 1.85299C13.5593 1.85299 13.5514 1.84757 13.5418 1.84757C13.52 1.84999 13.4983 1.85431 13.4772 1.86049C12.379 1.96642 11.2877 2.13433 10.2085 2.36341C9.73517 2.45663 9.26944 2.5849 8.81515 2.74716C8.80557 2.75091 8.79598 2.75299 8.78682 2.75716C8.08436 2.98823 7.44452 3.37787 6.91682 3.89591C6.40599 4.44452 5.9991 5.0814 5.71598 5.77549C5.7032 5.799 5.69273 5.8237 5.68473 5.84924C5.65682 5.91758 5.62473 5.98216 5.5989 6.05174C5.47098 6.39883 5.26973 7.26299 5.24432 7.37174C5.15057 7.83799 4.91807 9.43591 5.86348 10.4384C6.46348 11.0742 7.38098 11.3092 8.58598 11.1384L9.14682 11.0584C11.8201 10.6738 13.1618 10.4809 14.3164 11.6101C14.5412 11.8322 14.77 12.0503 15.0026 12.2642C14.7406 13.0884 14.4006 14.8476 15.7943 15.8892C17.2918 17.0142 17.2918 17.3188 17.2918 18.0559C17.2914 18.1271 17.3093 18.1972 17.3437 18.2596C17.3781 18.3219 17.4279 18.3744 17.4884 18.412C17.5489 18.4496 17.618 18.4711 17.6891 18.4744C17.7602 18.4777 17.831 18.4627 17.8947 18.4309C18.0039 18.3742 18.9585 17.8426 18.9585 15.9726C18.9585 14.9497 19.721 14.0655 20.4739 13.3338L20.4864 13.3226C20.8947 13.0423 21.2478 12.6892 21.5281 12.2809C21.8303 11.8044 22.0466 11.2785 22.1668 10.7272C22.1914 10.6734 22.2042 10.615 22.2043 10.5559C22.2568 10.2826 22.286 10.0055 22.2918 9.72716C22.2961 9.44774 22.2905 9.16827 22.2752 8.88924ZM18.1251 15.9726C18.1322 16.3191 18.0827 16.6645 17.9785 16.9951C17.7839 16.508 17.3331 16.0034 16.2918 15.2222C15.4639 14.6022 15.5222 13.5713 15.701 12.8472C16.4816 13.4738 17.45 13.8202 18.451 13.8309C18.6135 13.8297 18.7756 13.8201 18.9368 13.8026C18.4362 14.4176 18.151 15.1799 18.1251 15.9726ZM20.8252 11.8367C20.5335 12.2738 20.1211 12.6166 19.6381 12.8234C18.8733 13.0696 18.0489 13.0573 17.2918 12.7884V12.2226C17.2918 12.1121 17.3357 12.0061 17.4139 11.9279C17.492 11.8498 17.598 11.8059 17.7085 11.8059H18.9585C19.069 11.8059 19.175 11.762 19.2531 11.6839C19.3313 11.6057 19.3752 11.4997 19.3752 11.3892C19.3752 11.2787 19.3313 11.1728 19.2531 11.0946C19.175 11.0165 19.069 10.9726 18.9585 10.9726H17.7085C17.377 10.9726 17.059 11.1043 16.8246 11.3387C16.5902 11.5731 16.4585 11.8911 16.4585 12.2226V12.3522C15.8988 11.9546 15.3766 11.5069 14.8981 11.0147C14.4143 10.5243 13.7983 10.1854 13.1251 10.0392V9.72258C13.1251 9.61207 13.0813 9.50609 13.0031 9.42795C12.925 9.34981 12.819 9.30591 12.7085 9.30591C12.598 9.30591 12.492 9.34981 12.4139 9.42795C12.3357 9.50609 12.2918 9.61207 12.2918 9.72258V9.93758C11.1968 9.93966 10.1043 10.0388 9.02723 10.2338L8.46807 10.3134C8.21668 10.3505 7.96235 10.3636 7.70848 10.3526V10.1392C7.70848 10.0287 7.66458 9.92275 7.58644 9.84461C7.5083 9.76647 7.40232 9.72258 7.29182 9.72258C7.18131 9.72258 7.07533 9.76647 6.99719 9.84461C6.91905 9.92275 6.87515 10.0287 6.87515 10.1392V10.1592C6.723 10.0873 6.58509 9.98852 6.46807 9.86758C6.22926 9.59132 6.07646 9.25125 6.02848 8.88924H6.45848C6.79 8.88924 7.10795 8.75755 7.34237 8.52313C7.57679 8.28871 7.70848 7.97076 7.70848 7.63924C7.70848 7.52874 7.66458 7.42275 7.58644 7.34461C7.5083 7.26647 7.40232 7.22258 7.29182 7.22258C7.18131 7.22258 7.07533 7.26647 6.99719 7.34461C6.91905 7.42275 6.87515 7.52874 6.87515 7.63924C6.87515 7.74975 6.83125 7.85573 6.75311 7.93387C6.67497 8.01201 6.56899 8.05591 6.45848 8.05591H5.9914C6.00265 7.88508 6.02473 7.71591 6.05765 7.54799C6.11223 7.31133 6.26598 6.67299 6.36307 6.38924H7.70848C7.81899 6.38924 7.92497 6.34534 8.00311 6.2672C8.08125 6.18906 8.12515 6.08308 8.12515 5.97258C8.12515 5.86207 8.08125 5.75609 8.00311 5.67795C7.92497 5.59981 7.81899 5.55591 7.70848 5.55591H6.74265C6.95392 5.16147 7.2154 4.79607 7.52057 4.46883C7.81561 4.17343 8.16158 3.93375 8.54182 3.76133V4.30591C8.54182 4.63743 8.67351 4.95537 8.90793 5.18979C9.14235 5.42421 9.4603 5.55591 9.79182 5.55591C9.90232 5.55591 10.0083 5.51201 10.0864 5.43387C10.1646 5.35573 10.2085 5.24975 10.2085 5.13924C10.2085 5.02874 10.1646 4.92275 10.0864 4.84461C10.0083 4.76647 9.90232 4.72258 9.79182 4.72258C9.68131 4.72258 9.57533 4.67868 9.49719 4.60054C9.41905 4.5224 9.37515 4.41642 9.37515 4.30591V3.43508C9.7039 3.33257 10.0376 3.24758 10.3751 3.18091C10.7301 3.10924 11.0935 3.04049 11.4585 2.97508V3.05591C11.4585 3.16642 11.5024 3.2724 11.5805 3.35054C11.6587 3.42868 11.7646 3.47258 11.8751 3.47258C11.9857 3.47258 12.0916 3.42868 12.1698 3.35054C12.2479 3.2724 12.2918 3.16642 12.2918 3.05591V2.83633C12.5693 2.79466 12.8472 2.75633 13.1251 2.72591V3.05591C13.1251 3.16642 13.169 3.2724 13.2472 3.35054C13.3253 3.42868 13.4313 3.47258 13.5418 3.47258C13.6523 3.47258 13.7583 3.42868 13.8364 3.35054C13.9146 3.2724 13.9585 3.16642 13.9585 3.05591V2.65674C13.9847 2.65674 14.0114 2.65174 14.0372 2.65007C14.2886 2.63931 14.5404 2.63917 14.7918 2.64966V4.30591C14.7918 4.41642 14.8357 4.5224 14.9139 4.60054C14.992 4.67868 15.098 4.72258 15.2085 4.72258H16.0418C16.1523 4.72258 16.2583 4.67868 16.3364 4.60054C16.4146 4.5224 16.4585 4.41642 16.4585 4.30591C16.4585 4.1954 16.4146 4.08942 16.3364 4.01128C16.2583 3.93314 16.1523 3.88924 16.0418 3.88924H15.6251V2.74049C16.3543 2.86424 17.0593 3.10216 17.7139 3.44549C17.7139 3.45508 17.7085 3.46299 17.7085 3.47258V4.72258C17.7085 4.83308 17.7524 4.93906 17.8305 5.0172C17.9087 5.09534 18.0146 5.13924 18.1251 5.13924C18.2357 5.13924 18.3416 5.09534 18.4198 5.0172C18.4979 4.93906 18.5418 4.83308 18.5418 4.72258V3.92674C18.8152 4.10383 19.0918 4.29716 19.3752 4.51508V5.55591C19.3752 5.66642 19.3313 5.7724 19.2531 5.85054C19.175 5.92868 19.069 5.97258 18.9585 5.97258C18.848 5.97258 18.742 6.01647 18.6639 6.09461C18.5857 6.17275 18.5418 6.27874 18.5418 6.38924C18.5418 6.49975 18.5857 6.60573 18.6639 6.68387C18.742 6.76201 18.848 6.80591 18.9585 6.80591C19.29 6.80591 19.6079 6.67421 19.8424 6.43979C20.0768 6.20537 20.2085 5.88743 20.2085 5.55591V5.27049C20.6319 5.73522 20.9426 6.29127 21.1164 6.89549C21.2577 7.41176 21.3531 7.93951 21.4014 8.47258H20.6252C20.5146 8.47258 20.4087 8.51647 20.3305 8.59461C20.2524 8.67275 20.2085 8.77874 20.2085 8.88924C20.2085 8.99975 20.2524 9.10573 20.3305 9.18387C20.4087 9.26201 20.5146 9.30591 20.6252 9.30591H21.4497C21.4527 9.44216 21.4593 9.57758 21.4572 9.71508C21.4552 9.86008 21.4393 9.99966 21.4235 10.1392H20.6252C20.5146 10.1392 20.4087 10.1831 20.3305 10.2613C20.2524 10.3394 20.2085 10.4454 20.2085 10.5559C20.2085 10.6664 20.2524 10.7724 20.3305 10.8505C20.4087 10.9287 20.5146 10.9726 20.6252 10.9726H21.2352C21.1329 11.2757 20.9953 11.5658 20.8252 11.8367Z" fill="#119498"/>
</g>
<defs>
<clipPath id="clip0_4036_13421">
<rect width="25" height="25" fill="white" transform="translate(0 0.139404)"/>
</clipPath>
</defs>
</svg>
