<svg width="25" height="26" viewBox="0 0 25 26" fill="none" xmlns="http://www.w3.org/2000/svg">
<g clip-path="url(#clip0_4036_13487)">
<path d="M21.48 25.1395C21.3859 25.1394 21.295 25.1053 21.224 25.0435C21.1531 24.9817 21.1068 24.8964 21.0937 24.8032C20.9908 24.2164 20.6699 23.6902 20.1953 23.3301C19.9825 23.1363 19.7865 22.9249 19.6093 22.6981C19.5747 22.6574 19.5488 22.6101 19.5331 22.559C19.5175 22.5079 19.5126 22.4541 19.5186 22.401C19.5245 22.3479 19.5414 22.2966 19.568 22.2503C19.5946 22.204 19.6304 22.1636 19.6732 22.1317C19.716 22.0997 19.765 22.0769 19.817 22.0646C19.869 22.0524 19.9229 22.0509 19.9755 22.0603C20.0281 22.0697 20.0782 22.0898 20.1227 22.1194C20.1672 22.1489 20.2052 22.1873 20.2343 22.2321C20.3863 22.4236 20.5538 22.6023 20.7351 22.7664C21.3391 23.2461 21.743 23.9334 21.8679 24.6946C21.875 24.7454 21.8721 24.7971 21.8592 24.8468C21.8463 24.8964 21.8238 24.9431 21.7929 24.984C21.762 25.025 21.7233 25.0594 21.6791 25.0854C21.6348 25.1115 21.5859 25.1285 21.5351 25.1356C21.5169 25.1383 21.4985 25.1396 21.48 25.1395ZM20.2976 18.4989H20.2734C20.2222 18.4957 20.1721 18.4825 20.1259 18.46C20.0798 18.4375 20.0386 18.4061 20.0046 18.3677C19.9706 18.3292 19.9445 18.2845 19.9278 18.2359C19.9111 18.1874 19.9042 18.136 19.9074 18.0848C19.9144 17.9711 19.9183 17.8504 19.9183 17.7184C19.9253 17.3756 19.8399 17.0372 19.671 16.7387C19.6201 16.6485 19.607 16.5417 19.6348 16.4418C19.6626 16.342 19.7289 16.2573 19.8191 16.2063C19.9093 16.1553 20.0161 16.1423 20.116 16.17C20.2158 16.1978 20.3005 16.2641 20.3515 16.3543C20.5859 16.7701 20.706 17.2404 20.6996 17.7176C20.6996 17.8661 20.6953 18.0036 20.6871 18.1325C20.6809 18.2316 20.6372 18.3247 20.5649 18.3927C20.4925 18.4608 20.3969 18.4988 20.2976 18.4989ZM19.1363 25.1395C19.0422 25.1394 18.9513 25.1053 18.8803 25.0435C18.8093 24.9817 18.763 24.8964 18.75 24.8032C18.647 24.2164 18.3261 23.6902 17.8515 23.3301C17.3558 22.8539 16.7937 22.3145 16.7937 21.2332C16.7937 21.077 16.8007 20.9352 16.8136 20.8036C16.8174 20.7516 16.8316 20.701 16.8553 20.6546C16.879 20.6082 16.9117 20.567 16.9515 20.5335C16.9913 20.4999 17.0375 20.4747 17.0872 20.4592C17.1369 20.4437 17.1893 20.4384 17.2411 20.4434C17.2929 20.4485 17.3432 20.4638 17.389 20.4886C17.4348 20.5134 17.4752 20.5471 17.5078 20.5877C17.5404 20.6283 17.5646 20.675 17.5789 20.7251C17.5931 20.7752 17.5973 20.8276 17.591 20.8793C17.5799 20.9962 17.5746 21.1135 17.575 21.2309C17.575 21.9793 17.9359 22.3246 18.3925 22.7641C18.9966 23.2437 19.4005 23.9311 19.5253 24.6922C19.5325 24.743 19.5295 24.7948 19.5166 24.8444C19.5037 24.8941 19.4812 24.9407 19.4503 24.9817C19.4194 25.0226 19.3807 25.0571 19.3365 25.0831C19.2923 25.1091 19.2433 25.1261 19.1925 25.1332C19.174 25.1368 19.1552 25.1389 19.1363 25.1395ZM23.8281 25.1395C23.734 25.1394 23.6431 25.1053 23.5721 25.0435C23.5011 24.9817 23.4548 24.8964 23.4417 24.8032C23.371 24.3206 23.1331 23.8782 22.7695 23.5532C22.7324 23.5169 22.703 23.4736 22.6828 23.4259C22.6627 23.3781 22.6522 23.3268 22.6521 23.275C22.6519 23.2232 22.6621 23.1718 22.682 23.1239C22.702 23.0761 22.7312 23.0327 22.7681 22.9962C22.8049 22.9598 22.8487 22.931 22.8967 22.9117C22.9448 22.8923 22.9963 22.8827 23.0481 22.8834C23.1 22.8841 23.1511 22.8952 23.1987 22.9158C23.2462 22.9365 23.2891 22.9665 23.325 23.0039C23.8068 23.4494 24.121 24.0467 24.2152 24.6961C24.2296 24.7987 24.2026 24.9028 24.1403 24.9855C24.0779 25.0682 23.9853 25.1227 23.8828 25.1371C23.8646 25.1393 23.8463 25.1401 23.8281 25.1395Z" fill="#119498"/>
<path d="M1.1719 25.1396C1.15359 25.1397 1.13532 25.1384 1.11721 25.1357C1.01466 25.1213 0.922033 25.0668 0.859697 24.9841C0.797361 24.9014 0.770417 24.7973 0.784786 24.6947C0.909562 23.9335 1.31343 23.2461 1.9176 22.7666C2.37346 22.3271 2.7344 21.9818 2.7344 21.2334C2.74161 20.7541 2.63023 20.2804 2.41018 19.8545C2.08609 19.1901 1.9292 18.4566 1.95315 17.7178C1.96219 16.9169 2.28886 16.1525 2.86135 15.5924C3.22697 15.1592 3.51565 14.8174 3.51565 14.2021C3.53645 13.6852 3.41971 13.1721 3.17736 12.715C2.85772 12.0882 2.70515 11.3895 2.7344 10.6865C2.7344 4.37949 6.65705 0.141602 12.4957 0.139648H12.5C18.341 0.139648 22.2656 4.37832 22.2656 10.6865C22.2949 11.3895 22.1423 12.0882 21.8227 12.715C21.5803 13.1721 21.4636 13.6852 21.4844 14.2021C21.4844 14.8174 21.7731 15.1592 22.1387 15.5924C22.7112 16.1525 23.0378 16.9169 23.0469 17.7178C23.0706 18.4476 22.9174 19.1724 22.6004 19.8303C22.5795 19.8771 22.5495 19.9194 22.5123 19.9546C22.475 19.9899 22.4312 20.0175 22.3833 20.0358C22.3353 20.0541 22.2843 20.0628 22.233 20.0614C22.1817 20.06 22.1312 20.0485 22.0844 20.0275C22.0376 20.0066 21.9953 19.9767 21.96 19.9394C21.9248 19.9021 21.8972 19.8583 21.8789 19.8104C21.8606 19.7625 21.8519 19.7114 21.8533 19.6601C21.8547 19.6089 21.8662 19.5584 21.8871 19.5115C22.1596 18.9541 22.2896 18.3378 22.2656 17.7178C22.2595 17.4128 22.1922 17.1122 22.0678 16.8337C21.9434 16.5551 21.7644 16.3044 21.5414 16.0963C21.026 15.5981 20.7253 14.9186 20.7031 14.2021C20.6811 13.5699 20.8233 12.9427 21.116 12.3818C21.3861 11.8591 21.5132 11.2742 21.4844 10.6865C21.4844 4.84551 17.8738 0.920898 12.5 0.920898C7.12619 0.920898 3.51565 4.84551 3.51565 10.6865C3.48682 11.2742 3.61391 11.8591 3.884 12.3818C4.17672 12.9427 4.31898 13.5699 4.2969 14.2021C4.27473 14.9186 3.97399 15.5981 3.45861 16.0963C3.23561 16.3044 3.05661 16.5551 2.93221 16.8337C2.80782 17.1122 2.74055 17.4128 2.7344 17.7178C2.71067 18.3469 2.84497 18.9719 3.12502 19.5357C3.39031 20.0618 3.52433 20.6443 3.51565 21.2334C3.51565 22.3146 2.95354 22.8541 2.45783 23.3303C1.98326 23.6904 1.66234 24.2166 1.5594 24.8033C1.54629 24.8967 1.49983 24.9822 1.42861 25.044C1.35739 25.1058 1.2662 25.1398 1.1719 25.1396Z" fill="#119498"/>
<path d="M3.51993 25.1399C3.50163 25.1399 3.48335 25.1386 3.46525 25.1359C3.41443 25.1289 3.36552 25.1118 3.32129 25.0858C3.27706 25.0598 3.23839 25.0253 3.20748 24.9844C3.17658 24.9434 3.15404 24.8968 3.14117 24.8471C3.12829 24.7975 3.12532 24.7457 3.13243 24.6949C3.25732 23.9338 3.66116 23.2464 4.26525 22.7668C4.72071 22.3274 5.08165 21.982 5.08165 21.2336C5.08879 20.7543 4.97756 20.2807 4.75782 19.8547C4.43333 19.1904 4.27629 18.4569 4.3004 17.718C4.29385 17.2405 4.41394 16.7699 4.64845 16.3539C4.69942 16.2637 4.78415 16.1974 4.884 16.1696C4.98385 16.1419 5.09063 16.1549 5.18087 16.2059C5.27111 16.2568 5.3374 16.3416 5.36516 16.4414C5.39293 16.5413 5.37989 16.6481 5.32892 16.7383C5.16005 17.0367 5.07464 17.3751 5.08165 17.718C5.05793 18.3471 5.19222 18.9721 5.47228 19.5359C5.73757 20.062 5.87159 20.6445 5.8629 21.2336C5.8629 22.3149 5.30079 22.8543 4.80509 23.3305C4.33034 23.6905 4.00927 24.2167 3.90626 24.8035C3.89318 24.8967 3.8469 24.9821 3.77592 25.0438C3.70494 25.1056 3.61404 25.1397 3.51993 25.1399ZM5.86368 25.1399C5.84538 25.1399 5.8271 25.1386 5.809 25.1359C5.75818 25.1289 5.70927 25.1118 5.66504 25.0858C5.62081 25.0598 5.58214 25.0253 5.55123 24.9844C5.52033 24.9434 5.49779 24.8968 5.48492 24.8471C5.47204 24.7975 5.46907 24.7457 5.47618 24.6949C5.60107 23.9338 6.00491 23.2464 6.609 22.7668C7.06446 22.3274 7.4254 21.982 7.4254 21.2336C7.4254 21.1051 7.41993 20.9887 7.40939 20.882C7.40191 20.7803 7.43451 20.6797 7.50022 20.6017C7.56594 20.5237 7.65955 20.4745 7.76106 20.4646C7.86257 20.4547 7.96392 20.4849 8.04346 20.5488C8.123 20.6126 8.17442 20.705 8.18673 20.8063C8.19962 20.9367 8.20665 21.0797 8.20665 21.2359C8.20665 22.3172 7.64454 22.8567 7.14884 23.3328C6.67459 23.6923 6.35357 24.2175 6.25001 24.8035C6.23693 24.8967 6.19065 24.9821 6.11967 25.0438C6.04869 25.1056 5.95779 25.1397 5.86368 25.1399ZM12.5 21.6242C5.16251 21.6242 5.07814 10.0094 5.07814 9.51486C5.07796 9.41513 5.11594 9.31911 5.18428 9.24648C5.25263 9.17385 5.34616 9.13011 5.44571 9.12423C5.50978 9.12032 11.8957 8.70392 13.7211 5.41798C13.7585 5.35084 13.8148 5.2962 13.8831 5.26092C13.9513 5.22563 14.0285 5.21125 14.1048 5.21959C14.1812 5.22793 14.2535 5.25861 14.3125 5.3078C14.3715 5.35698 14.4147 5.42248 14.4367 5.49611C14.7908 6.56333 15.4754 7.49016 16.3913 8.14244C17.3072 8.79471 18.4069 9.13857 19.5313 9.12423C19.6349 9.12423 19.7342 9.16539 19.8075 9.23864C19.8807 9.3119 19.9219 9.41126 19.9219 9.51486C19.9219 9.53361 19.9219 9.98673 19.868 10.7152C19.8592 10.8181 19.8106 10.9134 19.7325 10.9809C19.6544 11.0484 19.553 11.0828 19.45 11.0766C19.3988 11.0729 19.3488 11.0591 19.3029 11.0361C19.2571 11.013 19.2162 10.9812 19.1826 10.9423C19.1491 10.9034 19.1235 10.8584 19.1074 10.8096C19.0913 10.7609 19.0849 10.7094 19.0887 10.6582C19.1117 10.3477 19.1242 10.0875 19.1317 9.89454C18.0406 9.83714 16.9856 9.48439 16.0794 8.87399C15.1732 8.26359 14.4499 7.41847 13.9867 6.42892C11.9109 9.10196 7.24142 9.74181 5.86876 9.87423C5.94376 11.8051 6.61173 20.843 12.5 20.843C13.5377 20.8588 14.5531 20.5408 15.3965 19.9359C15.4381 19.9055 15.4853 19.8836 15.5354 19.8714C15.5854 19.8593 15.6374 19.8572 15.6883 19.8652C15.7393 19.8733 15.7881 19.8913 15.832 19.9183C15.8759 19.9453 15.914 19.9807 15.9441 20.0225C15.9743 20.0643 15.9959 20.1117 16.0076 20.1619C16.0194 20.2121 16.0211 20.2641 16.0127 20.3149C16.0043 20.3658 15.9859 20.4144 15.9586 20.4581C15.9312 20.5018 15.8955 20.5397 15.8535 20.5695C14.8775 21.2712 13.702 21.6409 12.5 21.6242Z" fill="#119498"/>
<path d="M8.20306 25.1397C8.11059 25.1396 8.02113 25.1068 7.95059 25.047C7.88004 24.9873 7.83299 24.9044 7.8178 24.8132C7.80262 24.722 7.82028 24.6283 7.86765 24.5489C7.91502 24.4695 7.98903 24.4095 8.0765 24.3795C9.73822 23.8115 9.76556 21.4244 9.76556 21.4002V20.8428C9.76556 20.7392 9.80672 20.6398 9.87997 20.5666C9.95323 20.4933 10.0526 20.4522 10.1562 20.4522C10.2598 20.4522 10.3591 20.4933 10.4324 20.5666C10.5057 20.6398 10.5468 20.7392 10.5468 20.8428V21.401C10.5468 21.5217 10.5218 24.367 8.32962 25.1186C8.2889 25.1326 8.24613 25.1397 8.20306 25.1397ZM16.7968 25.1397C16.7537 25.1397 16.711 25.1326 16.6702 25.1186C14.4781 24.367 14.4531 21.5217 14.4531 21.401V20.8428C14.4531 20.7392 14.4942 20.6398 14.5675 20.5666C14.6407 20.4933 14.7401 20.4522 14.8437 20.4522C14.9473 20.4522 15.0466 20.4933 15.1199 20.5666C15.1932 20.6398 15.2343 20.7392 15.2343 20.8428V21.401C15.2343 21.4244 15.2617 23.8096 16.9234 24.3795C17.0108 24.4095 17.0849 24.4695 17.1322 24.5489C17.1796 24.6283 17.1973 24.722 17.1821 24.8132C17.1669 24.9044 17.1198 24.9873 17.0493 25.047C16.9787 25.1068 16.8893 25.1396 16.7968 25.1397ZM14.8437 19.6709C13.8393 19.6709 12.8575 19.3731 12.0224 18.8151C11.1873 18.2571 10.5365 17.464 10.1521 16.5361C9.76776 15.6082 9.6672 14.5871 9.86314 13.6021C10.0591 12.617 10.5427 11.7122 11.2529 11.002C11.9631 10.2918 12.8679 9.80817 13.853 9.61223C14.8381 9.41628 15.8591 9.51685 16.787 9.9012C17.7149 10.2856 18.508 10.9364 19.066 11.7715C19.624 12.6066 19.9218 13.5884 19.9218 14.5928C19.9203 15.9391 19.3847 17.2298 18.4327 18.1818C17.4808 19.1338 16.19 19.6693 14.8437 19.6709ZM14.8437 10.2959C13.9938 10.2959 13.1631 10.5479 12.4565 11.0201C11.7499 11.4922 11.1991 12.1633 10.8739 12.9484C10.5487 13.7336 10.4636 14.5975 10.6294 15.4311C10.7952 16.2646 11.2044 17.0302 11.8053 17.6311C12.4063 18.2321 13.1719 18.6413 14.0054 18.8071C14.8389 18.9729 15.7029 18.8878 16.488 18.5626C17.2732 18.2373 17.9443 17.6866 18.4164 16.98C18.8886 16.2734 19.1406 15.4426 19.1406 14.5928C19.1392 13.4536 18.6861 12.3614 17.8806 11.5559C17.075 10.7504 15.9829 10.2972 14.8437 10.2959Z" fill="#119498"/>
<path d="M19.5313 20.0616C19.4277 20.0616 19.3284 20.0204 19.2552 19.9472L17.6927 18.3847C17.6215 18.311 17.5821 18.2123 17.583 18.1099C17.5839 18.0075 17.625 17.9095 17.6974 17.8371C17.7698 17.7646 17.8678 17.7236 17.9702 17.7227C18.0727 17.7218 18.1713 17.7612 18.245 17.8323L19.8075 19.3948C19.8621 19.4494 19.8993 19.519 19.9144 19.5948C19.9294 19.6706 19.9217 19.7491 19.8921 19.8205C19.8626 19.8918 19.8125 19.9528 19.7483 19.9957C19.6841 20.0387 19.6086 20.0616 19.5313 20.0616Z" fill="#119498"/>
<path d="M21.8749 23.1864C21.7713 23.1864 21.672 23.1452 21.5987 23.072L18.8644 20.3376C18.7911 20.2644 18.75 20.165 18.75 20.0614C18.75 19.9579 18.7911 19.8585 18.8644 19.7853L19.6456 19.004C19.7189 18.9308 19.8182 18.8896 19.9218 18.8896C20.0254 18.8896 20.1247 18.9308 20.198 19.004L22.9323 21.7384C23.0056 21.8116 23.0467 21.911 23.0467 22.0146C23.0467 22.1181 23.0056 22.2175 22.9323 22.2907L22.1511 23.072C22.0778 23.1452 21.9785 23.1864 21.8749 23.1864ZM19.6929 20.0614L21.8749 22.2435L22.1038 22.0146L19.9218 19.8325L19.6929 20.0614Z" fill="#119498"/>
<path d="M12.8906 13.8115C13.1064 13.8115 13.2812 13.6366 13.2812 13.4209C13.2812 13.2052 13.1064 13.0303 12.8906 13.0303C12.6749 13.0303 12.5 13.2052 12.5 13.4209C12.5 13.6366 12.6749 13.8115 12.8906 13.8115Z" fill="#119498"/>
<path d="M12.5 16.1553C12.7157 16.1553 12.8906 15.9804 12.8906 15.7646C12.8906 15.5489 12.7157 15.374 12.5 15.374C12.2843 15.374 12.1094 15.5489 12.1094 15.7646C12.1094 15.9804 12.2843 16.1553 12.5 16.1553Z" fill="#119498"/>
<path d="M14.8438 17.7178C15.0595 17.7178 15.2344 17.5429 15.2344 17.3271C15.2344 17.1114 15.0595 16.9365 14.8438 16.9365C14.628 16.9365 14.4531 17.1114 14.4531 17.3271C14.4531 17.5429 14.628 17.7178 14.8438 17.7178Z" fill="#119498"/>
<path d="M17.1875 15.7646C17.4032 15.7646 17.5781 15.5898 17.5781 15.374C17.5781 15.1583 17.4032 14.9834 17.1875 14.9834C16.9718 14.9834 16.7969 15.1583 16.7969 15.374C16.7969 15.5898 16.9718 15.7646 17.1875 15.7646Z" fill="#119498"/>
<path d="M16.4062 13.0303C16.622 13.0303 16.7969 12.8554 16.7969 12.6396C16.7969 12.4239 16.622 12.249 16.4062 12.249C16.1905 12.249 16.0156 12.4239 16.0156 12.6396C16.0156 12.8554 16.1905 13.0303 16.4062 13.0303Z" fill="#119498"/>
<path d="M14.8438 14.9834C15.0595 14.9834 15.2344 14.8085 15.2344 14.5928C15.2344 14.377 15.0595 14.2021 14.8438 14.2021C14.628 14.2021 14.4531 14.377 14.4531 14.5928C14.4531 14.8085 14.628 14.9834 14.8438 14.9834Z" fill="#119498"/>
</g>
<defs>
<clipPath id="clip0_4036_13487">
<rect width="25" height="25" fill="white" transform="translate(0 0.139648)"/>
</clipPath>
</defs>
</svg>
