<svg width="25" height="26" viewBox="0 0 25 26" fill="none" xmlns="http://www.w3.org/2000/svg">
<g clip-path="url(#clip0_4036_13458)">
<path d="M20.811 12.0822L20.7958 9.05895L23.9461 9.05054C24.1828 9.04972 24.3757 8.85622 24.374 8.62001L24.3655 5.16637C24.3655 5.05185 24.3185 4.9427 24.2397 4.86208C24.159 4.78181 24.0498 4.73673 23.9359 4.73667L22.1266 4.74177L22.1234 2.93557C22.1234 2.82146 22.0781 2.71231 21.9983 2.63141C21.9172 2.55113 21.8078 2.50602 21.6937 2.50586L16.4741 2.51978C16.3601 2.52022 16.251 2.56574 16.1704 2.64641C16.0899 2.72708 16.0446 2.83634 16.0444 2.95031L16.0493 4.7583L14.2434 4.7634C14.1294 4.76377 14.0202 4.80927 13.9397 4.88996C13.8592 4.97065 13.814 5.07995 13.8139 5.19393L13.8223 8.64674C13.8223 8.76085 13.8701 8.87042 13.9499 8.95104C14.0287 9.03152 14.1395 9.07645 14.2518 9.07645H14.2536L17.409 9.06763L17.4234 11.6659C17.1207 11.676 16.8186 11.6989 16.5179 11.7346C16.0513 10.4436 15.0359 9.43904 13.556 8.82563C11.73 8.06958 10.0902 8.27051 8.83489 9.37027V4.15908C8.83496 4.10264 8.82389 4.04674 8.80232 3.99458C8.78075 3.94242 8.7491 3.89503 8.70918 3.85512C8.66926 3.81522 8.62186 3.78358 8.5697 3.76203C8.51753 3.74047 8.46163 3.72943 8.40518 3.72952C8.29134 3.72984 8.18225 3.7752 8.10174 3.85569C8.02123 3.93617 7.97584 4.04524 7.97547 4.15908V5.79715C7.73843 5.43966 7.42491 5.09057 7.00209 4.85009C6.58548 4.6147 6.08535 4.49508 5.51796 4.49508C4.75764 4.49508 4.1321 4.7142 4.1044 4.72385C4.00714 4.75884 3.92571 4.82764 3.87496 4.91768C3.82421 5.00772 3.80752 5.11301 3.82794 5.21433C3.8431 5.28393 4.19039 6.92709 5.43541 7.63077C5.85327 7.86616 6.35174 7.98579 6.91954 7.98579C7.34084 7.98579 7.71721 7.91867 7.97561 7.85776V9.37C6.72191 8.27106 5.08509 8.06765 3.2556 8.82535C0.321522 10.0405 -0.693345 12.6742 0.472705 16.0519C1.43272 18.8363 3.59738 21.5174 5.61388 22.4279C6.49672 22.8242 7.34222 22.8761 8.0572 22.5824C8.17296 22.5353 8.28845 22.4751 8.40504 22.3994C8.52549 22.4751 8.63795 22.5338 8.75247 22.5806C9.05746 22.7065 9.38642 22.7712 9.73096 22.7712C10.0612 22.7712 10.4057 22.6932 10.7564 22.579C10.8336 22.6931 10.9574 22.7728 11.1051 22.7728H24.5706C24.627 22.7728 24.6829 22.7618 24.7351 22.7402C24.7872 22.7187 24.8346 22.687 24.8745 22.6471C24.9144 22.6072 24.9461 22.5598 24.9676 22.5077C24.9892 22.4555 25.0002 22.3996 25.0001 22.3432V17.6201C25 14.9089 23.4257 12.9134 20.811 12.0822ZM6.91926 7.12803C6.50182 7.12803 6.14598 7.04575 5.85726 6.88382C5.26604 6.54989 4.94217 5.86592 4.78644 5.43373C4.98407 5.39308 5.24123 5.35614 5.51948 5.35614C5.93444 5.35614 6.29193 5.43883 6.579 5.60021C7.17022 5.93469 7.49492 6.61866 7.64982 7.05071C7.45123 7.09109 7.19448 7.12803 6.91926 7.12803ZM24.1407 17.6203V18.712H11.5347V17.6203C11.5347 13.8532 14.7907 12.5119 17.8369 12.5119C20.8847 12.5118 24.1407 13.8532 24.1407 17.6203ZM16.9053 3.38084L21.2658 3.36954L21.2676 4.74618L16.9088 4.7583L16.9053 3.38084ZM14.6748 5.6235L23.508 5.59952L23.5148 8.19292L14.6815 8.2169L14.6748 5.6235ZM19.9364 9.06157L19.9516 11.8631C19.4287 11.7549 18.869 11.6902 18.2825 11.6671L18.2682 9.0657L19.9364 9.06157ZM9.08047 21.7868C8.95492 21.7356 8.82538 21.6567 8.66882 21.5334C8.59345 21.4734 8.49998 21.4408 8.40367 21.4408C8.30735 21.4408 8.21388 21.4734 8.13851 21.5334C7.98333 21.6567 7.85144 21.7364 7.72686 21.7868C7.22962 21.9931 6.63468 21.9471 5.96462 21.6442C4.17041 20.8376 2.15763 18.3125 1.28195 15.7716C0.26998 12.838 1.08529 10.6539 3.58263 9.61999C4.87492 9.08376 6.70096 8.84175 8.05541 10.7286C8.06051 10.7366 8.07181 10.739 8.07594 10.7458C8.15312 10.8423 8.27012 10.9073 8.40325 10.9073C8.53748 10.9073 8.65325 10.8423 8.73346 10.7458C8.73855 10.739 8.74862 10.7366 8.75234 10.7286C10.1064 8.84244 11.9324 9.085 13.2252 9.61999C14.0707 9.97004 15.1373 10.6463 15.6467 11.8757C12.5668 12.5382 10.6736 14.6471 10.6736 17.6203V21.7055C10.0748 21.9412 9.53568 21.9773 9.08047 21.7868ZM11.5347 21.9135V19.5679H24.1407V21.9135H11.5347ZM14.6815 15.1851C14.6815 14.961 14.8644 14.7798 15.0903 14.7798C15.1435 14.7798 15.1961 14.7904 15.2452 14.8108C15.2943 14.8312 15.3389 14.861 15.3765 14.8987C15.414 14.9363 15.4438 14.981 15.4641 15.0301C15.4844 15.0793 15.4948 15.1319 15.4948 15.1851C15.495 15.2384 15.4847 15.2912 15.4645 15.3405C15.4443 15.3899 15.4146 15.4347 15.377 15.4725C15.3394 15.5103 15.2947 15.5403 15.2456 15.5608C15.1964 15.5814 15.1436 15.592 15.0903 15.5921C15.0367 15.5923 14.9836 15.5819 14.934 15.5616C14.8845 15.5412 14.8394 15.5113 14.8014 15.4735C14.7634 15.4356 14.7333 15.3907 14.7127 15.3412C14.6922 15.2917 14.6816 15.2387 14.6815 15.1851ZM17.3553 14.0353C17.4843 14.0353 17.6121 14.0607 17.7312 14.1101C17.8504 14.1595 17.9587 14.2319 18.0499 14.3232C18.1411 14.4144 18.2134 14.5228 18.2627 14.642C18.3119 14.7613 18.3372 14.889 18.3371 15.0181C18.3371 15.5584 17.8974 15.999 17.3553 15.999C16.8131 15.999 16.3734 15.5584 16.3734 15.0181C16.375 14.4742 16.8139 14.0353 17.3553 14.0353ZM19.3406 15.9755C19.3406 15.4333 19.7796 14.9945 20.3216 14.9945C20.8636 14.9945 21.3044 15.4334 21.3044 15.9755C21.3044 16.5168 20.8638 16.9582 20.3216 16.9582C19.7794 16.9582 19.3406 16.5168 19.3406 15.9755ZM15.833 17.1815C15.8329 17.4057 15.7439 17.6207 15.5855 17.7792C15.427 17.9378 15.2121 18.027 14.9879 18.0272C14.8769 18.0273 14.7669 18.0054 14.6643 17.9629C14.5617 17.9204 14.4685 17.8581 14.39 17.7796C14.3115 17.701 14.2493 17.6077 14.2069 17.5051C14.1645 17.4025 14.1427 17.2925 14.1428 17.1815C14.1427 17.0704 14.1644 16.9604 14.2068 16.8577C14.2492 16.7551 14.3114 16.6618 14.3899 16.5832C14.4684 16.5046 14.5616 16.4423 14.6642 16.3998C14.7668 16.3573 14.8768 16.3354 14.9879 16.3354C15.2121 16.3356 15.4271 16.4249 15.5856 16.5835C15.744 16.7422 15.833 16.9572 15.833 17.1815Z" fill="#119498"/>
</g>
<defs>
<clipPath id="clip0_4036_13458">
<rect width="25" height="25" fill="white" transform="translate(0 0.139404)"/>
</clipPath>
</defs>
</svg>
