<svg width="25" height="26" viewBox="0 0 25 26" fill="none" xmlns="http://www.w3.org/2000/svg">
<g clip-path="url(#clip0_4036_13539)">
<path d="M15.918 12.6392C15.6484 12.6392 15.4297 12.8579 15.4297 13.1274C15.4297 13.397 15.6484 13.6157 15.918 13.6157C16.1875 13.6157 16.4062 13.397 16.4062 13.1274C16.4062 12.8579 16.1875 12.6392 15.918 12.6392Z" fill="#119498"/>
<path d="M20.3125 20.4517H19.7292L18.1396 11.5395C17.8437 9.91328 16.4293 8.73291 14.7764 8.73291H10.2236C8.57041 8.73291 7.15615 9.91333 6.8606 11.5412L5.2708 20.4517H4.6875C3.87979 20.4517 3.22266 21.1088 3.22266 21.9165V23.8696C3.22266 24.1393 3.44126 24.3579 3.71094 24.3579H21.2891C21.5587 24.3579 21.7773 24.1393 21.7773 23.8696V21.9165C21.7773 21.1088 21.1202 20.4517 20.3125 20.4517ZM7.82173 11.7142C8.03262 10.5526 9.04277 9.70947 10.2236 9.70947H14.7764C15.9571 9.70947 16.9674 10.5526 17.1785 11.7126L18.7372 20.4517H6.26279L7.82173 11.7142ZM20.8008 23.3813H4.19922V21.9165C4.19922 21.6473 4.41826 21.4282 4.6875 21.4282H20.3125C20.5817 21.4282 20.8008 21.6473 20.8008 21.9165V23.3813Z" fill="#119498"/>
<path d="M17.4921 18.8996L16.7758 14.9567C16.7276 14.6913 16.473 14.5151 16.2082 14.5635C15.9428 14.6117 15.7668 14.8659 15.815 15.1312L16.5313 19.0741C16.5798 19.3415 16.8361 19.5153 17.099 19.4672C17.3644 19.419 17.5404 19.1648 17.4921 18.8996ZM24.5117 12.6392H20.3125C20.0429 12.6392 19.8242 12.8578 19.8242 13.1274C19.8242 13.3971 20.0429 13.6157 20.3125 13.6157H24.5117C24.7813 13.6157 25 13.3971 25 13.1274C25 12.8578 24.7813 12.6392 24.5117 12.6392ZM4.6875 12.6392H0.488281C0.218604 12.6392 0 12.8578 0 13.1274C0 13.3971 0.218604 13.6157 0.488281 13.6157H4.6875C4.95718 13.6157 5.17578 13.3971 5.17578 13.1274C5.17578 12.8578 4.95718 12.6392 4.6875 12.6392ZM21.1319 4.49556C20.9412 4.30493 20.6321 4.30493 20.4413 4.49556L17.6791 7.25776C17.4884 7.44844 17.4884 7.75762 17.6791 7.94834C17.8699 8.13901 18.1789 8.13896 18.3697 7.94834L21.1319 5.18613C21.3226 4.99541 21.3226 4.68623 21.1319 4.49556ZM7.3209 7.25776L4.55869 4.49556C4.36797 4.30493 4.05884 4.30488 3.86812 4.49556C3.67744 4.68623 3.67744 4.99541 3.86812 5.18613L6.63032 7.94834C6.82109 8.13901 7.13018 8.13901 7.3209 7.94834C7.51157 7.75767 7.51157 7.44849 7.3209 7.25776ZM12.5 0.92041C12.2304 0.92041 12.0117 1.13906 12.0117 1.40869V5.31494C12.0117 5.58457 12.2304 5.80322 12.5 5.80322C12.7696 5.80322 12.9883 5.58457 12.9883 5.31494V1.40869C12.9883 1.13906 12.7696 0.92041 12.5 0.92041Z" fill="#119498"/>
</g>
<defs>
<clipPath id="clip0_4036_13539">
<rect width="25" height="25" fill="white" transform="translate(0 0.13916)"/>
</clipPath>
</defs>
</svg>
