<svg width="25" height="26" viewBox="0 0 25 26" fill="none" xmlns="http://www.w3.org/2000/svg">
<path d="M21.7781 11.6921L20.4449 9.17532C20.3715 9.03833 20.3441 8.88139 20.3668 8.72766C20.5113 7.73117 20.0828 6.39055 19.8839 5.84172C20.2744 5.29742 20.4931 4.6488 20.5121 3.97922C20.5152 3.88657 20.4853 3.79581 20.4277 3.72318C20.3701 3.65054 20.2885 3.60076 20.1976 3.58274L12.5742 2.06711C12.5492 2.06205 12.5238 2.05944 12.4984 2.0593C8.75894 1.97805 5.498 5.35149 5.70737 9.08664C5.65148 10.527 5.94561 11.9593 6.56457 13.2611C7.18353 14.5628 8.10886 15.6951 9.26128 16.5609C10.3785 17.3066 9.28081 18.9863 8.14292 18.9085H7.20464C6.43756 18.9094 5.70216 19.2146 5.15975 19.757C4.61734 20.2994 4.31221 21.0348 4.31128 21.8019V23.5437C4.31128 23.6473 4.35243 23.7466 4.42569 23.8199C4.49895 23.8931 4.5983 23.9343 4.7019 23.9343H20.2949C20.3989 23.9336 20.4985 23.8917 20.5717 23.8177C20.6449 23.7438 20.6858 23.6438 20.6855 23.5398L20.6675 21.7722C20.6572 21.0107 20.348 20.2838 19.8067 19.7481C19.2654 19.2124 18.5353 18.9109 17.7738 18.9085H15.7687C15.1867 18.9269 14.9855 18.003 15.6386 17.957H17.7394C18.5205 17.9561 19.2694 17.6455 19.8217 17.0932C20.374 16.5408 20.6847 15.792 20.6855 15.0109V13.3874C20.8897 13.3975 21.093 13.3537 21.2748 13.2603C21.4567 13.1669 21.6108 13.0272 21.7215 12.8554C21.8323 12.6835 21.8958 12.4855 21.9057 12.2813C21.9157 12.0771 21.8716 11.8739 21.7781 11.6921ZM6.51362 9.79993C6.0605 6.16594 8.74214 2.85266 12.4609 2.84055L19.6968 4.28C19.6567 4.73129 19.462 5.1549 19.1457 5.47922C19.1308 5.49289 18.1328 6.59367 16.8613 6.7136C15.5816 6.82688 14.146 7.57844 13.5738 8.70852C13.3167 8.57684 13.0302 8.51319 12.7416 8.52361C12.453 8.53404 12.1718 8.6182 11.9249 8.76808C11.678 8.91796 11.4736 9.12856 11.3312 9.37982C11.1888 9.63108 11.1131 9.91463 11.1113 10.2034C11.1222 11.0511 10.9671 12.282 11.6296 12.9312C10.905 14.4175 10.2125 15.3511 9.52222 15.7718C8.61666 15.055 7.87834 14.1494 7.35872 13.118C6.83911 12.0866 6.5507 10.9542 6.51362 9.79993ZM19.9043 15.0109C19.9043 15.032 19.9015 15.0527 19.9007 15.0734H16.2484C15.4722 15.0742 14.728 15.3829 14.1791 15.9318C13.6302 16.4807 13.3215 17.2249 13.3207 18.0011V23.153H12.6578V17.4472C12.6587 16.6407 12.9795 15.8676 13.5497 15.2973C14.12 14.7271 14.8931 14.4063 15.6996 14.4054H19.9043V15.0109ZM17.7394 17.1757H15.6386C15.3225 17.176 15.0195 17.3017 14.796 17.5252C14.5725 17.7487 14.4467 18.0518 14.4464 18.3679C14.4469 18.7184 14.5863 19.0545 14.8342 19.3023C15.0821 19.5501 15.4182 19.6895 15.7687 19.6898H17.7734C18.3294 19.6913 18.8626 19.9112 19.2579 20.3022C19.6533 20.6933 19.8791 21.224 19.8867 21.78L19.9003 23.153H14.1019V18.0007C14.1025 17.4317 14.3288 16.8862 14.7312 16.4839C15.1335 16.0815 15.679 15.8552 16.248 15.8546H19.7324C19.5663 16.246 19.2888 16.5799 18.9345 16.8148C18.5801 17.0496 18.1645 17.1752 17.7394 17.1757ZM21.0777 12.4257C21.0448 12.4812 20.9979 12.5271 20.9417 12.5588C20.8854 12.5904 20.8219 12.6068 20.7574 12.6062H20.2949C20.1913 12.6062 20.0919 12.6473 20.0187 12.7206C19.9454 12.7938 19.9043 12.8932 19.9043 12.9968V13.6241H15.6992C14.6856 13.6253 13.7138 14.0284 12.9971 14.7451C12.2804 15.4619 11.8773 16.4336 11.8761 17.4472V23.153H5.09253V21.8019C5.09325 21.2419 5.31601 20.7051 5.71195 20.3092C6.10789 19.9132 6.6447 19.6905 7.20464 19.6898H8.14292C9.79644 19.7562 11.1976 17.703 10.1351 16.3027C10.8617 15.7792 11.5492 14.8441 12.255 13.4277C13.1535 13.9542 14.4792 13.5984 14.4917 12.412C14.4917 12.3084 14.4506 12.2091 14.3773 12.1358C14.3041 12.0626 14.2047 12.0214 14.1011 12.0214C13.9975 12.0214 13.8982 12.0626 13.8249 12.1358C13.7517 12.2091 13.7105 12.3084 13.7105 12.412C13.7104 12.5382 13.6602 12.6591 13.571 12.7483C13.4818 12.8376 13.3609 12.8877 13.2347 12.8878C12.8789 12.8874 12.5377 12.7459 12.2861 12.4942C12.0345 12.2426 11.8929 11.9015 11.8925 11.5456V10.2034C11.8925 9.96236 11.9883 9.73116 12.1588 9.56069C12.3292 9.39022 12.5604 9.29446 12.8015 9.29446C13.0426 9.29446 13.2738 9.39022 13.4443 9.56069C13.6147 9.73116 13.7105 9.96236 13.7105 10.2034C13.7105 10.307 13.7517 10.4064 13.8249 10.4797C13.8982 10.5529 13.9975 10.5941 14.1011 10.5941C14.764 10.5284 14.4402 9.61399 14.2097 9.27219C14.4906 8.27297 15.8906 7.5761 16.9335 7.49172C17.7959 7.37512 18.6051 7.00815 19.2609 6.43625C19.5166 7.13321 19.6298 7.87442 19.5937 8.61594C19.5472 8.93355 19.6036 9.25772 19.7546 9.54094L21.0878 12.0577C21.1185 12.1145 21.1338 12.1784 21.132 12.2429C21.1302 12.3074 21.1115 12.3707 21.0777 12.4257Z" fill="#119498"/>
<path d="M10.6547 4.88932C10.6968 4.86003 10.7327 4.82273 10.7604 4.77955C10.7881 4.73638 10.8071 4.68816 10.8161 4.63767C10.8252 4.58718 10.8242 4.5354 10.8133 4.48528C10.8023 4.43516 10.7816 4.38769 10.7523 4.34557C10.7231 4.30346 10.6858 4.26752 10.6426 4.23982C10.5994 4.21212 10.5512 4.1932 10.5007 4.18413C10.4502 4.17506 10.3984 4.17603 10.3483 4.18697C10.2982 4.19792 10.2507 4.21863 10.2086 4.24792C10.0945 4.32682 7.42188 6.2194 7.42188 9.21432C7.42188 9.31792 7.46303 9.41728 7.53629 9.49054C7.60954 9.56379 7.7089 9.60495 7.8125 9.60495C7.9161 9.60495 8.01546 9.56379 8.08871 9.49054C8.16197 9.41728 8.20313 9.31792 8.20313 9.21432C8.20313 6.63346 10.6305 4.90651 10.6547 4.88932Z" fill="#119498"/>
</svg>
