<svg width="25" height="26" viewBox="0 0 25 26" fill="none" xmlns="http://www.w3.org/2000/svg">
<g clip-path="url(#clip0_4039_13556)">
<path d="M7.15664 19.6798C6.75962 19.3216 6.53687 18.8091 6.53687 18.2744" stroke="#119498" stroke-width="0.8" stroke-miterlimit="10" stroke-linecap="round" stroke-linejoin="round"/>
<path d="M9.83345 4.5998C10.3137 5.48858 10.9429 6.28838 11.6936 6.9644C11.9669 7.2105 12.0816 7.58789 11.9889 7.9438C11.7163 8.99004 11.7635 10.1207 12.1679 11.1817C12.7047 12.5905 12.6768 14.0458 12.054 15.3971C11.8827 15.7688 11.678 16.1072 11.4434 16.4141C10.9266 17.0899 10.2066 17.5411 9.4249 17.7348C8.64785 17.9273 7.83311 17.7505 7.16402 17.3109C5.8982 16.4792 3.76778 16.6893 2.77036 18.4168C2.05596 19.6541 2.2626 21.2239 3.2729 22.2342L5.7772 24.7385C5.7881 24.7494 5.80104 24.7581 5.81528 24.764C5.82953 24.7699 5.84479 24.7729 5.86021 24.7729H8.03809C8.14268 24.7729 8.19502 24.6464 8.1211 24.5725L4.54986 21.0013C4.09717 20.5486 3.98902 19.8429 4.31465 19.2917C4.78921 18.4884 5.90293 18.3778 6.53697 19.0661C10.523 23.3935 17.4923 22.9393 20.802 18.1296C23.067 14.8374 23.1292 10.8994 21.6575 7.21436C20.3874 4.03403 16.3725 3.02939 13.7317 5.20986L13.7248 5.21563C13.3152 5.55493 12.7125 5.52041 12.3562 5.12554C11.619 4.30855 11.0807 3.32285 10.7876 2.22925L10.3491 0.592383C10.3424 0.567422 10.3277 0.545365 10.3072 0.529633C10.2867 0.513901 10.2615 0.505373 10.2357 0.505371H8.64136C8.62336 0.505372 8.60559 0.509514 8.58945 0.517478C8.5733 0.525441 8.5592 0.537011 8.54824 0.551294C8.53728 0.565578 8.52975 0.58219 8.52624 0.599848C8.52273 0.617505 8.52332 0.635734 8.52798 0.653125L9.07339 2.68853C9.10264 2.79771 9.13394 2.90615 9.16724 3.01377" stroke="#119498" stroke-width="0.8" stroke-miterlimit="10" stroke-linecap="round" stroke-linejoin="round"/>
<path d="M14.5898 6.24902L14.5911 6.24805L14.6004 6.24023L14.5898 6.24902Z" stroke="#119498" stroke-width="0.8" stroke-miterlimit="10" stroke-linecap="round" stroke-linejoin="round"/>
<path d="M18.3504 5.65908C17.917 5.48652 17.4454 5.39355 16.9555 5.39355C16.086 5.39355 15.2684 5.68892 14.591 6.2478L14.5846 6.25313L14.5727 6.26294C13.9433 6.7766 13.4961 7.47931 13.2973 8.26699L13.2931 8.2834C13.0839 9.08618 13.1303 9.92241 13.4272 10.7016C13.5777 11.0965 13.692 11.4939 13.7701 11.8917M21.3022 11.8822C21.2709 10.526 20.9706 9.12783 20.406 7.71392C20.2502 7.32268 20.0285 6.96105 19.7504 6.64478" stroke="#119498" stroke-width="0.8" stroke-miterlimit="10" stroke-linecap="round" stroke-linejoin="round"/>
<path d="M15.0337 20.5072C15.6674 20.366 16.2814 20.1472 16.8559 19.8556C18.0006 19.2745 18.9546 18.4368 19.6916 17.3658C20.6452 15.9796 21.1816 14.422 21.2858 12.7362C21.3033 12.4519 21.3087 12.1671 21.302 11.8824C21.1626 11.8454 20.9944 11.8188 20.7537 11.8188C19.9535 11.8188 19.9535 12.1117 19.1534 12.1117C18.3532 12.1117 18.3532 11.8188 17.553 11.8188C16.7528 11.8188 16.7529 12.1117 15.9527 12.1117C15.1525 12.1117 15.1525 11.8188 14.3524 11.8188C14.0918 11.8188 13.9161 11.8499 13.7699 11.8918C14.0416 13.2746 13.8767 14.6618 13.2777 15.9612C13.0679 16.4163 12.8109 16.8441 12.5137 17.2327C12.3775 17.4106 12.2291 17.5788 12.0697 17.7361C10.9757 18.8174 11.7274 20.6866 13.2655 20.6963L13.2799 20.6964" stroke="#119498" stroke-width="0.8" stroke-miterlimit="10" stroke-linecap="round" stroke-linejoin="round"/>
<path d="M15.8691 15.3345C16.2413 15.3345 16.543 15.0328 16.543 14.6606C16.543 14.2885 16.2413 13.9868 15.8691 13.9868C15.497 13.9868 15.1953 14.2885 15.1953 14.6606C15.1953 15.0328 15.497 15.3345 15.8691 15.3345Z" stroke="#119498" stroke-width="0.8" stroke-miterlimit="10" stroke-linecap="round" stroke-linejoin="round"/>
<path d="M16.543 18.0298C16.9151 18.0298 17.2168 17.7281 17.2168 17.356C17.2168 16.9838 16.9151 16.6821 16.543 16.6821C16.1708 16.6821 15.8691 16.9838 15.8691 17.356C15.8691 17.7281 16.1708 18.0298 16.543 18.0298Z" stroke="#119498" stroke-width="0.8" stroke-miterlimit="10" stroke-linecap="round" stroke-linejoin="round"/>
</g>
<defs>
<clipPath id="clip0_4039_13556">
<rect width="25" height="25" fill="white" transform="translate(0 0.13916)"/>
</clipPath>
</defs>
</svg>
