<svg width="25" height="26" viewBox="0 0 25 26" fill="none" xmlns="http://www.w3.org/2000/svg">
<g clip-path="url(#clip0_4036_13521)">
<path d="M11.9839 13.2172H10.5215V11.7548C10.5215 11.6512 10.4803 11.5519 10.4071 11.4786C10.3338 11.4054 10.2345 11.3642 10.1309 11.3642H8.23838C8.13478 11.3642 8.03542 11.4054 7.96217 11.4786C7.88891 11.5519 7.84775 11.6512 7.84775 11.7548V13.2172H6.38535C6.28175 13.2172 6.18239 13.2584 6.10914 13.3316C6.03588 13.4049 5.99473 13.5043 5.99473 13.6079V15.5004C5.99473 15.604 6.03588 15.7033 6.10914 15.7766C6.18239 15.8499 6.28175 15.891 6.38535 15.891H7.84775V17.3534C7.84775 17.457 7.88891 17.5564 7.96217 17.6296C8.03542 17.7029 8.13478 17.744 8.23838 17.744H10.1309C10.2345 17.744 10.3338 17.7029 10.4071 17.6296C10.4803 17.5564 10.5215 17.457 10.5215 17.3534V15.891H11.9839C12.0875 15.891 12.1869 15.8499 12.2601 15.7766C12.3334 15.7033 12.3746 15.604 12.3746 15.5004V13.6079C12.3746 13.5043 12.3334 13.4049 12.2601 13.3316C12.1869 13.2584 12.0875 13.2172 11.9839 13.2172ZM11.5933 15.1098H10.1309C10.0273 15.1098 9.9279 15.1509 9.85465 15.2242C9.78139 15.2974 9.74023 15.3968 9.74023 15.5004V16.9628H8.629V15.5004C8.629 15.3968 8.58785 15.2974 8.51459 15.2242C8.44134 15.1509 8.34198 15.1098 8.23838 15.1098H6.77598V13.9985H8.23838C8.34198 13.9985 8.44134 13.9573 8.51459 13.8841C8.58785 13.8108 8.629 13.7115 8.629 13.6079V12.1455H9.74023V13.6079C9.74023 13.7115 9.78139 13.8108 9.85465 13.8841C9.9279 13.9573 10.0273 13.9985 10.1309 13.9985H11.5933V15.1098ZM21.7987 19.1897C21.89 19.0061 21.9627 18.8138 22.0157 18.6157C22.2257 17.832 22.1193 17.0159 21.7161 16.3176C21.3134 15.6201 20.6597 15.1203 19.8753 14.9101C19.091 14.6999 18.275 14.806 17.5774 15.2086L16.5355 15.8102V9.15332C16.5355 7.95938 16.2064 7.01728 15.4999 6.18853C14.8829 5.46489 14.0447 4.91265 13.1572 4.32798C12.983 4.21318 12.8065 4.09692 12.6287 3.97749C12.918 3.84814 13.1204 3.5582 13.1204 3.22139V1.35859C13.1204 0.901855 12.7488 0.530273 12.292 0.530273H6.07725C5.62051 0.530273 5.24893 0.901855 5.24893 1.35859V3.22134C5.24893 3.55811 5.45127 3.84805 5.74053 3.97739C5.5627 4.09687 5.38623 4.21313 5.21201 4.32793C4.32461 4.9126 3.48638 5.46484 2.86938 6.18848C2.16284 7.01719 1.83374 7.95928 1.83374 9.15327V20.569C1.83374 22.3173 3.25605 23.7396 5.00435 23.7396H10.0974C10.4857 24.1743 10.9938 24.4883 11.5735 24.6437C11.8328 24.7135 12.1002 24.749 12.3688 24.7492L20.1364 24.749C21.807 24.749 23.1661 23.3899 23.1661 21.7193C23.1661 20.6993 22.6408 19.7466 21.7987 19.1897ZM17.187 21.5289L16.4603 20.2701L17.9372 21.0957L17.187 21.5289ZM18.7249 20.641L15.6973 18.9486L15.071 17.8638L19.3714 20.2677L18.7249 20.641ZM20.2166 19.7797L20.1591 19.8129L15.5895 17.2585L16.236 16.8853L20.7146 19.3888C20.568 19.542 20.4003 19.6737 20.2166 19.7797ZM21.3222 18.0985C21.3092 18.2048 21.2887 18.3101 21.2611 18.4136C21.2316 18.5237 21.1939 18.6316 21.1484 18.7361L17.0237 16.4305L17.6703 16.0572L21.3222 18.0985ZM19.6732 15.6647C20.256 15.8208 20.7412 16.1915 21.0396 16.7082C21.1211 16.8496 21.1869 16.9995 21.2359 17.1552L18.5467 15.652C18.9118 15.5614 19.2972 15.564 19.6732 15.6647ZM10.8417 19.0975C10.723 19.1663 10.609 19.2432 10.5006 19.3274H2.61504V9.80464H15.7543V16.2613L10.8417 19.0975ZM6.03018 1.35859C6.03018 1.3335 6.05215 1.31152 6.07725 1.31152H12.292C12.3171 1.31152 12.3391 1.3335 12.3391 1.35859V3.22134C12.3391 3.24644 12.3171 3.26841 12.292 3.26841H6.07725C6.06486 3.2681 6.05307 3.26304 6.0443 3.25428C6.03554 3.24552 6.03049 3.23372 6.03018 3.22134V1.35859ZM5.64185 4.98037C6.08218 4.69023 6.53652 4.39038 6.99844 4.04966H11.3708C11.8327 4.39038 12.2871 4.69023 12.7274 4.98037C14.4491 6.1146 15.7018 6.94141 15.7519 9.02339H2.61743C2.66753 6.94136 3.92021 6.1146 5.64185 4.98037ZM2.61504 20.569V20.1087H9.79297C9.26826 20.9459 9.16836 22.0158 9.59087 22.9584H5.00439C3.68687 22.9584 2.61504 21.8865 2.61504 20.569ZM11.7758 23.8891C11.193 23.733 10.7077 23.3624 10.4094 22.8456C9.78945 21.7719 10.1586 20.394 11.2324 19.7741L14.2619 18.025L16.5104 21.9195L13.4808 23.6686C12.9642 23.9669 12.3586 24.0453 11.7758 23.8891ZM15.8569 23.1988V23.9678H14.5251L15.8569 23.1988ZM20.1364 23.9678H16.6381V22.7478L20.6072 20.4563C20.8909 20.2926 21.146 20.0837 21.3625 19.8379C21.9918 20.251 22.3848 20.9602 22.3848 21.7193C22.3849 22.9591 21.3762 23.9678 20.1364 23.9678Z" fill="#119498"/>
</g>
<defs>
<clipPath id="clip0_4036_13521">
<rect width="25" height="25" fill="white" transform="translate(0 0.139648)"/>
</clipPath>
</defs>
</svg>
