<svg width="25" height="26" viewBox="0 0 25 26" fill="none" xmlns="http://www.w3.org/2000/svg">
<g clip-path="url(#clip0_4039_13585)">
<path d="M11.9793 25.1389H11.9762C11.9078 25.1385 11.8401 25.1246 11.7771 25.098C11.714 25.0715 11.6569 25.0328 11.6088 24.9841C11.5607 24.9355 11.5227 24.8778 11.4969 24.8145C11.4711 24.7511 11.458 24.6833 11.4584 24.6149C11.4595 24.4607 11.4866 20.8326 11.5866 19.868C11.722 18.5722 12.397 17.5857 13.4876 17.091C15.2105 16.3087 17.2855 17.1993 18.3105 19.1597C18.7522 20.0045 18.8616 20.9295 18.6335 21.9107C18.5085 22.4472 18.3751 22.8555 18.2126 23.1972C17.8626 23.9347 17.7001 24.7149 17.698 24.7222C17.6705 24.8576 17.5904 24.9765 17.4752 25.0528C17.3601 25.129 17.2193 25.1565 17.084 25.129C16.9486 25.1015 16.8297 25.0213 16.7534 24.9062C16.6771 24.791 16.6497 24.6503 16.6772 24.5149C16.6845 24.4774 16.8647 23.6055 17.271 22.7503C17.4001 22.4785 17.5105 22.1368 17.6178 21.6743C17.7897 20.9337 17.7147 20.2691 17.3866 19.643C16.621 18.1785 15.1293 17.491 13.9157 18.0389C13.1657 18.3795 12.7178 19.0493 12.6209 19.9753C12.5272 20.8899 12.5001 24.5847 12.5001 24.6212C12.4993 24.7588 12.4441 24.8904 12.3465 24.9874C12.2489 25.0844 12.1169 25.1389 11.9793 25.1389ZM19.8012 17.8472C19.2241 17.8472 18.6814 17.5378 18.3345 17.0055C17.4928 15.7149 17.4991 13.6982 18.348 12.4139C18.6949 11.8889 19.2147 11.5701 19.8272 11.5972C20.4085 11.6107 20.9262 11.9295 21.247 12.4712C22.0824 13.8753 22.0887 15.2837 21.2678 16.9024C20.9855 17.4607 20.4689 17.8128 19.8887 17.8441C19.8595 17.8472 19.8303 17.8472 19.8012 17.8472ZM19.7897 12.6389C19.573 12.6389 19.3647 12.766 19.2178 12.9889C18.6022 13.9212 18.598 15.5003 19.2085 16.4368C19.3668 16.6795 19.6147 16.817 19.8335 16.8045C20.0439 16.793 20.2241 16.6607 20.3397 16.4316C20.9928 15.143 20.997 14.0868 20.3532 13.0024C20.2168 12.7722 20.021 12.643 19.8032 12.6378L19.7897 12.6389ZM8.85428 25.1389C8.71615 25.1389 8.58367 25.084 8.486 24.9863C8.38832 24.8886 8.33345 24.7562 8.33345 24.618V22.4087C8.33345 19.5889 7.33345 16.8493 5.51678 14.693L0.12199 8.28678C0.032894 8.18111 -0.0105749 8.04438 0.00114614 7.90665C0.0128672 7.76893 0.078818 7.64151 0.18449 7.55241C0.290162 7.46331 0.4269 7.41985 0.564622 7.43157C0.702344 7.44329 0.829769 7.50924 0.918865 7.61491L6.31366 14.0212C8.28907 16.3698 9.37311 19.3397 9.37512 22.4087V24.618C9.37512 24.7562 9.32024 24.8886 9.22257 24.9863C9.12489 25.084 8.99242 25.1389 8.85428 25.1389Z" fill="#119498"/>
<path d="M22.9627 25.139C22.8877 25.1391 22.8135 25.123 22.7453 25.0918C22.6771 25.0605 22.6165 25.0149 22.5676 24.958C22.5187 24.901 22.4827 24.8342 22.4621 24.7621C22.4415 24.69 22.4367 24.6142 22.4481 24.5401L23.8648 15.1901C24.3252 12.1484 23.0419 9.04839 20.5158 7.09839L12.7033 1.07131C12.6011 0.984386 12.5363 0.861428 12.5224 0.72797C12.5084 0.594512 12.5464 0.460811 12.6285 0.354633C12.7105 0.248455 12.8303 0.17796 12.963 0.157788C13.0956 0.137616 13.2309 0.169317 13.3408 0.246309L21.1533 6.27339C23.9794 8.4536 25.4138 11.9307 24.8961 15.3453L23.4794 24.6953C23.4605 24.8188 23.398 24.9314 23.3032 25.0128C23.2084 25.0942 23.0876 25.139 22.9627 25.139Z" fill="#119498"/>
<path d="M11.4575 15.7641C10.8011 15.7653 10.1611 15.5585 9.62939 15.1734C9.09113 14.7824 8.691 14.2305 8.48674 13.5973C8.28248 12.9641 8.28465 12.2824 8.49293 11.6505C8.68668 11.0662 8.58252 10.4995 8.21689 10.1339L0.152308 2.07033C0.0574336 1.97209 0.00493653 1.84053 0.0061232 1.70397C0.00730988 1.56741 0.0620854 1.43678 0.158652 1.34021C0.255219 1.24364 0.38585 1.18887 0.522411 1.18768C0.658972 1.1865 0.790536 1.23899 0.888766 1.33387L8.95335 9.39845C9.60335 10.0484 9.80127 11.013 9.48148 11.9797C9.34223 12.401 9.34065 12.8558 9.47698 13.278C9.61331 13.7003 9.88048 14.0683 10.2398 14.3287C10.7919 14.7276 11.4981 14.8276 12.1742 14.6047C13.0096 14.3297 13.5836 13.4547 13.5388 12.5266C13.5342 12.4112 13.5171 12.2966 13.4877 12.1849C13.4632 12.0961 13.4627 12.0025 13.4862 11.9134C13.5097 11.8244 13.5564 11.7432 13.6215 11.6781C13.6866 11.6129 13.7678 11.5663 13.8569 11.5428C13.9459 11.5193 14.0396 11.5198 14.1284 11.5443C14.5156 11.6329 14.9202 11.6082 15.2939 11.4732C15.6675 11.3382 15.9944 11.0985 16.2356 10.7828C16.4331 10.5236 16.568 10.2221 16.6296 9.90209C16.6912 9.58205 16.678 9.25209 16.5909 8.93803C16.5064 8.62002 16.3453 8.32751 16.1218 8.08602C15.8983 7.84453 15.6191 7.66141 15.3086 7.55262C14.8406 7.38671 14.3297 7.38818 13.8627 7.55678C12.9721 7.88282 12.0367 7.70262 11.4231 7.08907L5.36064 1.02866C5.26577 0.930428 5.21327 0.798865 5.21446 0.662304C5.21564 0.525743 5.27042 0.395111 5.36699 0.298545C5.46355 0.201978 5.59418 0.147202 5.73075 0.146016C5.86731 0.144829 5.99887 0.197326 6.0971 0.2922L12.1586 6.35366C12.4867 6.68178 12.9909 6.7672 13.5044 6.5797C14.194 6.32818 14.9494 6.32376 15.6419 6.5672C16.1145 6.73238 16.5395 7.01052 16.8801 7.37742C17.2207 7.74432 17.4664 8.18887 17.5961 8.67241C17.7244 9.14048 17.7427 9.63187 17.6496 10.1082C17.5566 10.5845 17.3546 11.0329 17.0596 11.4182C16.7693 11.7992 16.3946 12.1077 15.965 12.3195C15.5354 12.5313 15.0625 12.6407 14.5836 12.6391C14.5773 13.9651 13.7221 15.1912 12.5013 15.5932C12.1554 15.7078 11.8034 15.7641 11.4575 15.7641Z" fill="#119498"/>
</g>
<defs>
<clipPath id="clip0_4039_13585">
<rect width="25" height="25" fill="white" transform="translate(0 0.13916)"/>
</clipPath>
</defs>
</svg>
