<svg width="25" height="25" viewBox="0 0 25 25" fill="none" xmlns="http://www.w3.org/2000/svg">
<path d="M14.3964 9.53714C13.4914 8.59714 12.0364 10.0371 12.9739 10.9571C13.9114 11.8771 15.3289 10.4496 14.3964 9.53714ZM13.6839 10.6271C13.5973 10.6097 13.5194 10.5629 13.4634 10.4945C13.4074 10.4261 13.3768 10.3405 13.3768 10.2521C13.3768 10.1638 13.4074 10.0781 13.4634 10.0098C13.5194 9.94142 13.5973 9.89455 13.6839 9.87714C13.7705 9.89455 13.8485 9.94142 13.9045 10.0098C13.9604 10.0781 13.991 10.1638 13.991 10.2521C13.991 10.3405 13.9604 10.4261 13.9045 10.4945C13.8485 10.5629 13.7705 10.6097 13.6839 10.6271Z" fill="#119498"/>
<path d="M3.42 21.6426H2.5C2.41712 21.6426 2.33763 21.6756 2.27903 21.7342C2.22042 21.7928 2.1875 21.8723 2.1875 21.9551V23.4376C2.1875 23.5205 2.22042 23.6 2.27903 23.6586C2.33763 23.7172 2.41712 23.7501 2.5 23.7501H21.25C21.3329 23.7501 21.4124 23.7172 21.471 23.6586C21.5296 23.6 21.5625 23.5205 21.5625 23.4376V21.9551C21.5625 21.8723 21.5296 21.7928 21.471 21.7342C21.4124 21.6756 21.3329 21.6426 21.25 21.6426H20.3375C20.215 15.1426 16.3375 10.7876 15.7025 10.1126C15.678 9.73055 15.5444 9.36351 15.3175 9.05513L17.555 6.80513C17.91 6.47263 17.1575 6.03263 17 5.80513L18.655 4.15013L19 4.50013C19.2825 4.79013 19.7325 4.34263 19.4425 4.06013C19.4225 4.03263 18.89 3.52263 18.88 3.49013C18.475 3.08263 17.1 1.71513 16.7175 1.33513C16.435 1.05263 15.9825 1.50013 16.275 1.78263L16.62 2.12763L14.965 3.78513C14.74 3.62513 14.3 2.87513 13.965 3.23013L6.6275 10.5701C6.3475 10.8376 6.755 11.1351 6.93 11.3201C6.785 11.5701 5.695 12.2226 6.1025 12.5901L8.1975 14.6876C8.25733 14.7451 8.33702 14.7774 8.42 14.7776C8.50233 14.7778 8.58138 14.7454 8.64 14.6876L9.4675 13.8601C9.6475 14.0351 9.945 14.4426 10.2175 14.1626L12.4925 11.8876C12.7734 12.0887 13.1015 12.2136 13.445 12.2501C13.67 13.0676 14.42 16.1651 13.27 17.7376C12.8125 18.3626 12.1125 18.6676 11.1325 18.6676H9.2925V17.9176H11.1325C11.2154 17.9176 11.2949 17.8847 11.3535 17.8261C11.4121 17.7675 11.445 17.688 11.445 17.6051V16.1326C11.445 16.0498 11.4121 15.9703 11.3535 15.9117C11.2949 15.8531 11.2154 15.8201 11.1325 15.8201H2.9775C2.93637 15.8198 2.89558 15.8277 2.85752 15.8432C2.81945 15.8588 2.78487 15.8818 2.75579 15.9109C2.7267 15.94 2.7037 15.9746 2.68811 16.0126C2.67252 16.0507 2.66467 16.0915 2.665 16.1326V17.6176C2.66467 17.6588 2.67252 17.6995 2.68811 17.7376C2.7037 17.7757 2.7267 17.8103 2.75579 17.8393C2.78487 17.8684 2.81945 17.8914 2.85752 17.907C2.89558 17.9226 2.93637 17.9305 2.9775 17.9301H4.8175V18.8176C3.7125 19.4176 3.4725 20.9726 3.42 21.6426ZM20.9375 23.1251H2.8125V22.2676H20.9375V23.1251ZM16.5325 21.6426C15.965 17.6151 16.0975 14.6651 16.9 13.7501C17.0132 13.6084 17.1708 13.5089 17.3475 13.4676C18.8136 15.9531 19.6288 18.7683 19.7175 21.6526L16.5325 21.6426ZM13.6825 11.6426C11.865 11.6701 11.86 8.80763 13.6825 8.83513C15.5 8.81763 15.5 11.6776 13.6825 11.6501V11.6426ZM17.0625 2.57013L18.2125 3.72263L16.5575 5.37763L15.405 4.22513L17.0625 2.57013ZM8.42 14.0201L6.765 12.3626L7.37 11.7501L9.025 13.4051L8.42 14.0201ZM10 13.5001L7.29 10.7901L14.1875 3.89263C14.8725 4.58513 16.1875 5.91013 16.8925 6.59513L14.8925 8.60763C13.1 7.23263 10.685 9.65263 12.0575 11.4426L10 13.5001ZM13.775 18.1151C15.04 16.3851 14.37 13.2976 14.0875 12.2351C14.4282 12.1638 14.7449 12.0065 15.0075 11.778C15.2701 11.5496 15.4698 11.2577 15.5875 10.9301C16.1082 11.5548 16.5852 12.2147 17.015 12.9051C16.786 12.9954 16.5832 13.1415 16.425 13.3301C15.175 14.7726 15.5375 19.0401 15.9 21.6426H4.0475C4.1025 21.0226 4.33 19.6651 5.2575 19.3026H11.1325C12.31 19.3026 13.1975 18.9026 13.775 18.1151ZM3.29 16.4451H10.82V17.3051H3.29V16.4451ZM8.6675 17.9301V18.6801H5.4425V17.9301H8.6675Z" fill="#119498"/>
</svg>
