<svg width="25" height="26" viewBox="0 0 25 26" fill="none" xmlns="http://www.w3.org/2000/svg">
<g clip-path="url(#clip0_4039_13597)">
<path d="M22.2496 19.9424C23.442 19.9424 24.4089 20.9097 24.4089 22.1021C24.4089 23.2951 23.442 24.2619 22.2496 24.2619C21.0572 24.2619 20.0903 23.2955 20.0898 22.1031M22.1203 22.7686L22.1222 22.7613" stroke="#119498" stroke-width="0.8" stroke-miterlimit="10" stroke-linecap="round" stroke-linejoin="round"/>
<path d="M2.95196 19.1159C4.91786 22.4984 8.58109 24.7729 12.7756 24.7729C18.7719 24.7729 23.6818 20.1242 24.1002 14.2344M1.95046 16.8531C1.6067 15.7696 1.42163 14.6157 1.42163 13.4189C1.42163 7.42697 6.06293 2.52004 11.9465 2.09521M16.0233 2.53664C15.2493 2.30616 14.4402 2.15576 13.6067 2.09521M19.5674 4.31991C22.1251 6.2321 23.8498 9.19803 24.0983 12.5741" stroke="#119498" stroke-width="0.8" stroke-miterlimit="10" stroke-linecap="round" stroke-linejoin="round"/>
<path d="M6.84501 20.6238C7.48947 20.8786 8.2269 20.8273 8.83362 20.4691C9.14911 20.2828 9.5352 20.2693 9.8735 20.41L9.88595 20.4152C10.2236 20.5549 10.4862 20.8371 10.5772 21.191C10.8292 22.17 11.7176 22.8933 12.7753 22.8933C13.8329 22.8933 14.7212 22.17 14.9733 21.1911C15.0644 20.8372 15.3269 20.555 15.6646 20.4153L15.6772 20.4101C16.0155 20.2694 16.4016 20.2829 16.717 20.4692C17.5874 20.9829 18.7269 20.8661 19.4746 20.1184C20.2223 19.3707 20.3391 18.2312 19.8254 17.3609C19.6392 17.0454 19.6257 16.6593 19.7664 16.3211L19.7717 16.3083C19.9114 15.9707 20.1936 15.7082 20.5474 15.6171C21.5263 15.365 22.2496 14.4767 22.2496 13.4191C22.2496 12.3615 21.5263 11.4731 20.5474 11.2211C20.1936 11.13 19.9114 10.8674 19.7717 10.5298L19.7664 10.5171C19.6257 10.1788 19.6392 9.79276 19.8254 9.47727C20.3391 8.60692 20.2223 7.46747 19.4746 6.71974C18.7269 5.972 17.5874 5.8552 16.717 6.36899C16.4016 6.55523 16.0155 6.56871 15.6772 6.42803C15.673 6.42626 15.6688 6.42451 15.6646 6.4228C15.3269 6.2831 15.0644 6.00091 14.9733 5.64709C14.7212 4.66819 13.8329 3.94482 12.7753 3.94482C11.7176 3.94482 10.8292 4.66824 10.5772 5.64719C10.4862 6.00106 10.2236 6.28325 9.88595 6.42295L9.8735 6.42812C9.53525 6.5688 9.14911 6.55533 8.83362 6.36909C7.96327 5.85525 6.82372 5.972 6.07594 6.71979C5.32816 7.46757 5.2114 8.60716 5.72529 9.47751C5.91158 9.793 5.92505 10.1791 5.78437 10.5174L5.77925 10.5297C5.6395 10.8674 5.35731 11.13 5.00344 11.221C4.02444 11.473 3.30103 12.3614 3.30103 13.4191C3.30103 14.4767 4.02444 15.3652 5.00344 15.6171C5.35736 15.7082 5.63954 15.9708 5.77925 16.3084L5.78437 16.3207C5.92505 16.659 5.91158 17.0451 5.72529 17.3606C5.34075 18.0119 5.30945 18.8138 5.63124 19.4896" stroke="#119498" stroke-width="0.8" stroke-miterlimit="10" stroke-linecap="round" stroke-linejoin="round"/>
<path d="M15.4047 12.4744C16.3478 12.4744 17.1123 11.7098 17.1123 10.7667C17.1123 9.82362 16.3478 9.05908 15.4047 9.05908C14.4616 9.05908 13.697 9.82362 13.697 10.7667C13.697 11.7098 14.4616 12.4744 15.4047 12.4744Z" stroke="#119498" stroke-width="0.8" stroke-miterlimit="10" stroke-linecap="round" stroke-linejoin="round"/>
<path d="M3.19813 18.7266C3.4845 18.0353 3.1562 17.2427 2.46485 16.9563C1.7735 16.67 0.980903 16.9983 0.694537 17.6896C0.408171 18.381 0.736475 19.1736 1.42782 19.4599C2.11917 19.7463 2.91177 19.418 3.19813 18.7266Z" stroke="#119498" stroke-width="0.8" stroke-miterlimit="10" stroke-linecap="round" stroke-linejoin="round"/>
<path d="M9.57985 14.9854C10.4451 14.9854 11.1465 14.284 11.1465 13.4187C11.1465 12.5535 10.4451 11.8521 9.57985 11.8521C8.7146 11.8521 8.01318 12.5535 8.01318 13.4187C8.01318 14.284 8.7146 14.9854 9.57985 14.9854Z" stroke="#119498" stroke-width="0.8" stroke-miterlimit="10" stroke-linecap="round" stroke-linejoin="round"/>
<path d="M13.8919 17.2433C13.9919 16.627 13.5734 16.0462 12.957 15.9462C12.3407 15.8462 11.7599 16.2647 11.6599 16.8811C11.5599 17.4974 11.9784 18.0782 12.5948 18.1782C13.2111 18.2782 13.7919 17.8597 13.8919 17.2433Z" stroke="#119498" stroke-width="0.8" stroke-miterlimit="10" stroke-linecap="round" stroke-linejoin="round"/>
<path d="M8.01315 17.5816V17.5749M12.2539 6.7807V6.77397M13.3158 20.7864V20.7797M18.1792 13.8852V13.8785M13.3158 13.0643V13.0576M6.29834 12.6431V12.6365M13.3158 5.7543V5.74756M16.4452 16.4718V16.4651M9.57986 17.9583V17.9516M11.3806 9.63604L11.4911 10.3143M7.95793 8.56564L8.06843 9.24394M16.6989 18.1995L17.1924 18.6887" stroke="#119498" stroke-width="0.8" stroke-miterlimit="10" stroke-linecap="round" stroke-linejoin="round"/>
<path d="M18.1789 4.82468C19.3717 4.82468 20.3386 3.85777 20.3386 2.66503C20.3386 1.47228 19.3717 0.505371 18.1789 0.505371C16.9862 0.505371 16.0193 1.47228 16.0193 2.66503C16.0193 3.85777 16.9862 4.82468 18.1789 4.82468Z" stroke="#119498" stroke-width="0.8" stroke-miterlimit="10" stroke-linecap="round" stroke-linejoin="round"/>
<path d="M17.5889 2.22705L17.5908 2.21973" stroke="#119498" stroke-width="0.8" stroke-miterlimit="10" stroke-linecap="round" stroke-linejoin="round"/>
</g>
<defs>
<clipPath id="clip0_4039_13597">
<rect width="25" height="25" fill="white" transform="translate(0 0.13916)"/>
</clipPath>
</defs>
</svg>
