<svg width="25" height="26" viewBox="0 0 25 26" fill="none" xmlns="http://www.w3.org/2000/svg">
<path d="M9.30062 1.50436C8.59195 1.49964 8.16675 1.52515 8.16675 1.52515C8.15252 1.52573 8.13833 1.52699 8.12423 1.52893C8.12423 1.52893 6.4168 1.78878 4.72639 2.58721C3.88165 2.98596 3.03219 3.52266 2.39345 4.26062C1.75564 4.99858 1.34178 5.95954 1.42682 7.10097C1.58934 9.26761 2.66274 10.512 3.6889 11.1442C4.47127 11.6261 4.91159 11.6327 5.23191 11.679C5.12419 11.9171 4.99946 12.0352 5.01458 12.5048C5.0382 13.2673 5.55506 14.1981 6.96673 14.7253C8.36801 15.2469 9.4159 15.0211 10.066 14.6157C10.1038 14.5911 10.0849 14.5817 10.1208 14.5571C10.3003 15.1071 10.7217 15.7061 11.7479 16.2768C13.9023 17.4731 16.0897 20.2444 16.6746 23.4108C16.6964 23.5269 16.7633 23.6296 16.8608 23.6964C16.9582 23.7631 17.0781 23.7886 17.1943 23.767C17.2519 23.7565 17.3069 23.7348 17.3562 23.7031C17.4054 23.6713 17.4479 23.6302 17.4813 23.582C17.5146 23.5338 17.5381 23.4796 17.5505 23.4223C17.5629 23.365 17.5638 23.3059 17.5533 23.2483C16.9136 19.789 14.6147 16.8494 12.1825 15.4973C11.2395 14.9738 10.9599 14.5326 10.8814 14.2425C10.9126 14.2394 10.9433 14.2331 10.9731 14.2236C11.0284 14.2041 11.0793 14.1739 11.123 14.1347C11.1666 14.0955 11.2021 14.0481 11.2273 13.9951C11.2526 13.9422 11.2672 13.8848 11.2703 13.8263C11.2733 13.7677 11.2648 13.7091 11.2452 13.6538C10.6773 12.0503 11.1923 10.3873 11.2197 10.2994C11.5173 10.0755 11.8849 10.0018 12.1778 10.0849C12.326 10.1221 12.4592 10.204 12.5592 10.3195C12.6593 10.4349 12.7214 10.5783 12.7372 10.7303C12.7394 10.7398 12.7419 10.7493 12.7448 10.7587C12.7379 10.779 12.7325 10.7999 12.7287 10.821C12.7287 10.821 12.6956 11.5089 12.7448 12.3461C12.7939 13.1832 12.9007 14.1678 13.2975 14.8907C13.6915 15.6088 14.575 16.4875 15.3857 17.2605C16.1965 18.0334 16.9259 18.6551 16.9259 18.6551C16.9969 18.7122 17.0836 18.7461 17.1744 18.7525C17.25 18.8923 17.3303 19.0454 17.4125 19.2334C17.7895 20.0885 18.1694 21.4246 18.1448 23.3248C18.1438 23.4429 18.1897 23.5566 18.2724 23.6409C18.3552 23.7253 18.468 23.7733 18.5861 23.7746C18.6447 23.7754 18.7028 23.7648 18.7573 23.7432C18.8117 23.7216 18.8614 23.6894 18.9034 23.6486C18.9454 23.6078 18.979 23.5591 19.0022 23.5054C19.0254 23.4516 19.0378 23.3938 19.0387 23.3352C19.0652 21.3103 18.6541 19.8419 18.228 18.8753C18.0295 18.4236 17.9747 18.4359 17.8094 18.1921C18.4425 18.2564 19.1275 18.3669 19.5622 18.2621C20.2189 18.1043 20.6743 17.7565 20.9379 17.3654C21.1686 17.0332 21.2929 16.6387 21.2942 16.2343C21.363 16.1829 21.4155 16.1127 21.4453 16.0321C21.8327 15.8904 22.3638 15.6116 22.8551 14.8812C23.6356 13.7218 24.0098 11.6667 22.8381 8.10067C21.6192 4.38723 17.8746 2.76107 14.5372 2.05146C13.0755 1.74965 11.5908 1.57263 10.0991 1.52232C9.83302 1.51213 9.56684 1.50583 9.30062 1.50342V1.50436ZM9.36298 2.39634C9.65023 2.39918 9.99701 2.41052 10.3684 2.42847C10.4165 2.52047 10.4961 2.59238 10.5932 2.63162C10.9712 2.7828 11.2377 3.09745 11.3019 3.41872C11.337 3.56751 11.3255 3.7235 11.2688 3.8655C11.2122 4.0075 11.1132 4.12863 10.9854 4.21243C10.937 4.24644 10.8958 4.28948 10.8641 4.33907C10.8324 4.38866 10.8108 4.44383 10.8006 4.50142C10.7904 4.559 10.7918 4.61787 10.8047 4.67465C10.8176 4.73142 10.8418 4.78499 10.8758 4.83228C10.9443 4.92734 11.0486 4.99117 11.1657 5.00977C11.2828 5.02838 11.4032 5.00022 11.5003 4.93149C11.7658 4.74485 11.9715 4.48514 12.0922 4.1839C12.213 3.88265 12.2437 3.55283 12.1807 3.23446C12.1298 2.98534 12.0279 2.74949 11.8811 2.54186C12.6503 2.62123 13.4865 2.73934 14.3511 2.92265C15.1259 3.08706 15.9092 3.30061 16.668 3.57651C16.1946 3.85998 15.8497 4.3107 15.742 4.84267C15.6788 5.16118 15.7095 5.49116 15.8303 5.79257C15.951 6.09398 16.1567 6.35385 16.4223 6.54065C16.5196 6.60928 16.64 6.63728 16.7571 6.61851C16.8742 6.59973 16.9784 6.5357 17.0469 6.44049C17.1151 6.34534 17.1421 6.22688 17.1219 6.11106C17.1017 5.99523 17.036 5.89148 16.9391 5.82253C16.8111 5.73886 16.7119 5.61778 16.6551 5.47577C16.5983 5.33376 16.5866 5.17771 16.6217 5.02882C16.6869 4.70755 16.9524 4.39196 17.3303 4.23983C17.3935 4.21471 17.4498 4.17561 17.495 4.1255C17.5402 4.07539 17.573 4.0156 17.5911 3.95069C19.5234 4.81622 21.1817 6.14757 21.9244 8.19327C21.8302 8.24409 21.7571 8.32762 21.7184 8.42854C21.6704 8.57361 21.5789 8.70039 21.4563 8.79167C21.3338 8.88295 21.1861 8.93431 21.0334 8.93879C20.7055 8.95768 20.3323 8.78288 20.0885 8.455C20.0535 8.408 20.0097 8.36851 19.9596 8.3388C19.9095 8.30909 19.854 8.28973 19.7965 8.28183C19.7389 8.27393 19.6803 8.27765 19.6241 8.29277C19.5678 8.3079 19.515 8.33412 19.4686 8.36996C19.3755 8.44245 19.3142 8.54939 19.2983 8.66735C19.2823 8.7853 19.313 8.90466 19.3836 8.99926C19.7908 9.5473 20.4211 9.87423 21.0778 9.83549C21.5379 9.80903 21.9594 9.58982 22.2513 9.24588C23.0356 12.0919 22.6463 13.5924 22.1143 14.3833C21.8214 14.8179 21.485 15.0579 21.2223 15.1902C21.005 14.7007 20.6365 13.9411 20.1291 13.1776C19.2834 11.9058 18.0248 10.5413 16.342 10.6056C16.2242 10.6103 16.113 10.6614 16.0328 10.7478C15.9526 10.8342 15.9098 10.9489 15.9139 11.0667C15.9181 11.1848 15.969 11.2965 16.0555 11.3771C16.142 11.4577 16.2569 11.5007 16.375 11.4966C17.5363 11.4531 18.6097 12.501 19.3874 13.6699C19.8787 14.4107 20.2359 15.159 20.4324 15.6097C20.3949 15.6905 20.3824 15.7807 20.3965 15.8686C20.3965 15.8686 20.4863 16.4384 20.1981 16.8674C20.1105 16.996 19.9969 17.1048 19.8645 17.1868C19.8649 17.1833 19.8652 17.1798 19.8655 17.1764C19.8732 17.0593 19.8333 16.9442 19.7546 16.8565C19.6759 16.7688 19.5649 16.7156 19.4459 16.7086C19.2933 16.7052 19.1453 16.6549 19.0222 16.5644C18.8992 16.474 18.8069 16.3478 18.7581 16.2031C18.6428 15.8951 18.7004 15.4878 18.9414 15.1581C19.0107 15.0625 19.0387 14.9439 19.0194 14.8284C19.0001 14.7129 18.935 14.6099 18.8384 14.542C18.742 14.4744 18.6221 14.4472 18.5049 14.4663C18.3878 14.4854 18.2828 14.5493 18.2129 14.6441C17.8094 15.1959 17.6818 15.896 17.9124 16.5121C18.0749 16.9468 18.4113 17.286 18.8289 17.4617C18.3914 17.4863 17.833 17.4466 17.1073 17.286C16.9983 17.2662 16.8858 17.2878 16.7917 17.3465C16.5546 17.132 16.2909 16.8901 16.0009 16.6142C15.209 15.8601 14.3303 14.9181 14.0799 14.4598C13.8314 14.0081 13.6811 13.0765 13.6348 12.2922C13.5876 11.508 13.6197 10.8654 13.6197 10.8654C13.6218 10.8261 13.6186 10.7867 13.6103 10.7483C13.6194 10.699 13.6204 10.6485 13.6131 10.599C13.569 10.2778 13.4326 9.97638 13.2204 9.73131C13.0082 9.48624 12.7294 9.30808 12.4178 9.21848C11.7847 9.03895 11.0969 9.22131 10.58 9.66919C10.5177 9.7246 10.4719 9.79662 10.4477 9.87707C10.4195 9.91371 10.3972 9.95451 10.3816 9.99801C10.3816 9.99801 9.84582 11.5306 10.2115 13.2664L10.185 13.2503C10.185 13.2503 10.0282 13.5886 9.59543 13.8588C9.16172 14.1291 8.47667 14.3351 7.27855 13.8881C6.09082 13.4459 5.91979 12.9243 5.90562 12.4765C5.899 12.2762 5.94341 12.0938 5.99349 11.9464C6.28728 12.0514 6.59998 12.0931 6.91104 12.0687C7.22209 12.0443 7.52445 11.9543 7.79824 11.8046C8.42187 11.4607 8.82439 10.822 8.81683 10.1256C8.81559 10.0075 8.76753 9.89465 8.68321 9.81192C8.59889 9.7292 8.48519 9.6833 8.36706 9.68431C8.30833 9.6848 8.25028 9.69689 8.19624 9.71988C8.14219 9.74287 8.09322 9.7763 8.05213 9.81827C8.01104 9.86024 7.97865 9.90991 7.95681 9.96442C7.93496 10.0189 7.92411 10.0772 7.92485 10.136C7.92863 10.4856 7.73115 10.822 7.36831 11.0223C7.00547 11.2217 6.53681 11.2339 6.16168 11.0516C6.09596 11.0204 6.02362 11.0058 5.95097 11.009C5.89784 10.9799 5.83932 10.9619 5.779 10.9561C5.779 10.9561 4.99285 10.8985 4.15756 10.3835C3.32322 9.86951 2.45959 8.94446 2.31596 7.03388C2.24888 6.13623 2.54935 5.44362 3.06716 4.84362C3.30754 4.57205 3.57793 4.32861 3.87315 4.11794C3.88843 4.22047 3.93896 4.31448 4.01604 4.3838C4.09312 4.45312 4.19194 4.49343 4.29552 4.49779C4.64513 4.51101 4.97206 4.72456 5.15443 5.0959C5.33585 5.46819 5.3264 5.9378 5.12608 6.30348C5.06953 6.40724 5.05647 6.52921 5.08978 6.6426C5.12309 6.75598 5.20003 6.85151 5.30372 6.90821C5.40749 6.96476 5.52945 6.97782 5.64284 6.94451C5.75622 6.9112 5.85175 6.83426 5.90845 6.73057C6.07724 6.42111 6.1696 6.07578 6.17782 5.72338C6.18604 5.37097 6.10988 5.02171 5.9557 4.70472C5.82917 4.43836 5.64359 4.20436 5.41306 4.02049C5.18253 3.83662 4.91311 3.70772 4.62529 3.6436C4.78403 3.55573 4.9456 3.46974 5.10907 3.39321C6.64925 2.66564 8.23761 2.41713 8.24895 2.41524C8.26691 2.4143 8.68172 2.38973 9.36298 2.39634ZM11.266 5.08457C10.9882 5.08457 10.7255 5.10535 10.4808 5.13937C9.99417 5.20551 9.57558 5.32173 9.22786 5.41339C8.80266 5.51638 8.45494 5.80174 8.22533 6.17875C7.99572 6.55387 7.89651 7.06979 8.12612 7.54318C8.33116 7.96838 8.69116 8.2613 9.09463 8.35768C9.49905 8.45311 9.9422 8.34823 10.2701 8.05815C10.2792 8.05063 10.288 8.04275 10.2965 8.03452C10.529 7.79169 10.6348 7.70192 10.8021 7.63956C10.9693 7.5772 11.2594 7.54034 11.8093 7.52617C12.7334 7.50444 13.2456 7.85216 13.6348 8.27075C13.8286 8.48051 13.9845 8.71012 14.1167 8.92272C14.249 9.13532 14.3378 9.31958 14.4985 9.49816C14.7442 9.77124 15.0494 9.79675 15.3328 9.7873C15.6163 9.77785 15.9073 9.70699 16.1766 9.56809C16.445 9.43013 16.7086 9.21375 16.8286 8.87642C16.9486 8.5391 16.8645 8.1224 16.6094 7.78035C16.5951 7.76116 16.5793 7.74314 16.5621 7.72649C14.8519 6.07292 13.3892 5.37087 12.1495 5.15921C11.8576 5.10918 11.5621 5.08389 11.266 5.08362V5.08457ZM11.2622 5.9756C11.4937 5.9756 11.7384 5.9945 11.9983 6.03985C13.0244 6.21466 14.3057 6.80238 15.9026 8.33594C16.0018 8.47957 16.0028 8.54004 15.9895 8.57689C15.9754 8.61752 15.9045 8.70351 15.7675 8.77438C15.6223 8.84612 15.4642 8.8879 15.3026 8.89721C15.2062 8.90005 15.1495 8.87075 15.142 8.87359C15.1042 8.82257 15.0031 8.66288 14.8727 8.45406C14.7039 8.17202 14.508 7.90714 14.2878 7.66318C13.7775 7.1142 12.9611 6.60773 11.7876 6.63608C11.2112 6.64931 10.8332 6.67766 10.4931 6.80333C10.1643 6.92616 9.92614 7.13687 9.68047 7.39105C9.63098 7.43848 9.57021 7.47249 9.5039 7.48985C9.43759 7.50721 9.36794 7.50736 9.30157 7.49027C9.16928 7.45908 9.03038 7.36554 8.92833 7.15388C8.84991 6.99231 8.87447 6.82317 8.98597 6.64081C9.09747 6.45844 9.30723 6.31198 9.43669 6.28175C9.43985 6.28052 9.443 6.27926 9.44613 6.27797C9.98 6.13623 10.5658 5.97371 11.2622 5.9756ZM7.16421 6.90821C7.10565 6.90809 7.04763 6.9195 6.99347 6.9418C6.93931 6.9641 6.89008 6.99684 6.84858 7.03817C6.80707 7.0795 6.77412 7.12859 6.75159 7.18265C6.72906 7.23672 6.7174 7.29469 6.71728 7.35326C6.71728 7.70287 6.51602 8.04019 6.15034 8.23579C5.78467 8.43138 5.31695 8.4361 4.94371 8.2509C4.83793 8.19844 4.71567 8.19007 4.60372 8.22762C4.49177 8.26517 4.39929 8.34558 4.34654 8.45122C4.3202 8.50358 4.30444 8.56062 4.30016 8.61907C4.29588 8.67752 4.30316 8.73624 4.32159 8.79188C4.34002 8.84752 4.36923 8.89898 4.40756 8.94331C4.44589 8.98765 4.49258 9.024 4.54497 9.05028C4.86074 9.20723 5.20946 9.28637 5.56204 9.28111C5.91462 9.27585 6.26082 9.18634 6.57177 9.02005C7.20012 8.68367 7.60926 8.04964 7.60926 7.35326C7.60876 7.23563 7.56181 7.12296 7.47864 7.03978C7.39546 6.9566 7.28279 6.90965 7.16516 6.90915L7.16421 6.90821ZM18.3801 7.14916C18.2783 7.15628 18.182 7.19727 18.107 7.26538C17.6015 7.72554 17.3379 8.38697 17.4399 9.03706C17.4919 9.35718 17.6357 9.65531 17.854 9.89519C18.0722 10.1351 18.3554 10.3064 18.6692 10.3883C18.7263 10.4035 18.7859 10.4075 18.8446 10.4001C18.9033 10.3927 18.9598 10.374 19.0111 10.345C19.0624 10.316 19.1073 10.2774 19.1433 10.2313C19.1793 10.1852 19.2058 10.1326 19.2211 10.0764C19.2364 10.0204 19.2404 9.96188 19.2327 9.90428C19.2251 9.84668 19.206 9.79111 19.1765 9.74075C19.147 9.69038 19.1077 9.64621 19.0609 9.61075C19.0141 9.57528 18.9606 9.54923 18.9036 9.53407C18.7544 9.50033 18.6192 9.42147 18.5164 9.3082C18.4136 9.19492 18.3482 9.05275 18.3291 8.90099C18.2781 8.57784 18.417 8.19138 18.7193 7.91641C18.7628 7.87701 18.7979 7.82957 18.8226 7.77679C18.8474 7.72401 18.8613 7.66693 18.8636 7.60883C18.8658 7.55073 18.8564 7.49274 18.8359 7.43819C18.8154 7.38363 18.7841 7.33358 18.7439 7.29089C18.698 7.24188 18.6414 7.20367 18.5784 7.17913C18.5154 7.15459 18.4476 7.14434 18.3801 7.14916ZM14.4087 12.1023C14.3503 12.0978 14.2913 12.1048 14.2353 12.123C14.1792 12.1411 14.127 12.1701 14.0818 12.2082C14.0367 12.2463 13.9993 12.2927 13.9719 12.3449C13.9445 12.3971 13.9275 12.454 13.9221 12.5124C13.8588 13.1927 14.1092 13.8598 14.6232 14.2699C14.8772 14.4716 15.1843 14.5952 15.5073 14.6255C15.8302 14.6559 16.155 14.5917 16.4421 14.4409C16.4946 14.4136 16.5413 14.3763 16.5796 14.3312C16.6179 14.2861 16.647 14.2341 16.6652 14.1781C16.6835 14.1221 16.6905 14.0632 16.686 14.0049C16.6814 13.9465 16.6653 13.8898 16.6387 13.8381C16.5853 13.7337 16.4923 13.6554 16.38 13.6204C16.2677 13.5853 16.1453 13.5963 16.0396 13.651C15.9068 13.7266 15.754 13.7595 15.6019 13.7453C15.4498 13.7311 15.3057 13.6705 15.1892 13.5716C14.9331 13.3666 14.7734 12.9867 14.8112 12.5804C14.8223 12.4627 14.7861 12.3463 14.7106 12.2566C14.6351 12.167 14.5265 12.1115 14.4087 12.1023Z" fill="#119498"/>
</svg>
