<svg width="25" height="23" viewBox="0 0 25 23" fill="none" xmlns="http://www.w3.org/2000/svg">
<path d="M13.2503 5.22277C14.6901 5.22277 15.8616 4.05132 15.8616 2.61139C15.8616 1.17146 14.6902 0 13.2503 0C11.8103 0 10.6389 1.17151 10.6389 2.61139C10.6389 4.05127 11.8104 5.22277 13.2503 5.22277ZM13.2503 0.708502C14.2995 0.708502 15.1531 1.5621 15.1531 2.61139C15.1531 3.66068 14.2995 4.51427 13.2503 4.51427C12.201 4.51427 11.3474 3.66068 11.3474 2.61139C11.3474 1.5621 12.201 0.708502 13.2503 0.708502ZM23.9342 18.003C24.58 17.5272 25 16.7617 25 15.8998C25 14.46 23.8285 13.2885 22.3886 13.2885C20.9487 13.2885 19.7772 14.4599 19.7772 15.8998C19.7772 16.7617 20.1972 17.5272 20.843 18.003C20.3082 18.1515 19.8978 18.6017 19.8078 19.1581H18.6336C19.0335 18.7429 19.2802 18.1791 19.2802 17.5585C19.2802 16.2857 18.2447 15.2503 16.9719 15.2503L16.5831 15.2504V9.29595C16.5831 7.53558 15.1509 6.10334 13.3904 6.10334C12.427 6.10334 11.5625 6.53295 10.9767 7.20987L5.84145 12.3452C5.7617 12.4249 5.69252 12.5146 5.63563 12.612L4.47262 11.9409C3.84367 11.5778 3.03669 11.7941 2.67353 12.423C2.49818 12.7267 2.45187 13.0815 2.54312 13.422C2.63436 13.7626 2.85187 14.0467 3.15562 14.2221L8.37009 17.2326H2.37849C1.65228 17.2326 1.06149 17.8234 1.06149 18.5496C1.06149 18.769 1.11574 18.9759 1.21108 19.158H0.896103C0.401974 19.1581 0 19.5601 0 20.0541V21.5481C0 22.0422 0.401974 22.4442 0.896053 22.4442H24.0921C24.5861 22.4442 24.9881 22.0422 24.9881 21.5481V20.0541C24.9881 20.0522 24.9878 20.0503 24.9878 20.0483H24.9881V19.3885C24.9881 18.7286 24.5411 18.1715 23.9342 18.003ZM20.4858 15.8998C20.4858 14.8506 21.3394 13.997 22.3887 13.997C23.438 13.997 24.2915 14.8506 24.2915 15.8998C24.2915 16.9491 23.4379 17.8027 22.3886 17.8027C21.3393 17.8027 20.4858 16.9491 20.4858 15.8998ZM21.2271 18.6591H23.5502C23.8772 18.6591 24.1546 18.8754 24.2469 19.1725C24.1958 19.1632 24.1439 19.1584 24.092 19.1581H20.5355C20.6323 18.8686 20.9055 18.6591 21.2271 18.6591ZM13.3905 6.81184C14.7603 6.81184 15.8747 7.92621 15.8747 9.29595V15.2506L12.2143 15.2515L14.1822 14.0606C14.634 13.7872 14.9325 13.39 15.0694 12.8799L15.4061 11.6248C15.4187 11.5797 15.4222 11.5326 15.4165 11.4861C15.4108 11.4396 15.3959 11.3947 15.3727 11.3541C15.3495 11.3134 15.3185 11.2777 15.2814 11.2491C15.2443 11.2205 15.202 11.1995 15.1567 11.1874C15.1115 11.1752 15.0643 11.1722 15.0179 11.1784C14.9715 11.1846 14.9268 11.2 14.8864 11.2236C14.8459 11.2472 14.8106 11.2786 14.7823 11.3159C14.7541 11.3533 14.7335 11.3959 14.7219 11.4412L14.3851 12.6963C14.296 13.0284 14.1097 13.2765 13.8154 13.4545L10.4366 15.499C10.1494 15.6727 9.77464 15.5802 9.60106 15.2931C9.42748 15.006 9.51989 14.6312 9.80698 14.4575L13.0827 12.477C13.161 12.4297 13.2179 12.3539 13.2416 12.2655L13.9903 9.47156C14.0142 9.38093 14.0013 9.2845 13.9543 9.2034C13.9072 9.1223 13.83 9.06314 13.7395 9.03888C13.6489 9.01462 13.5524 9.02724 13.4712 9.07398C13.3899 9.12071 13.3305 9.19775 13.3059 9.28821L12.5942 11.9445L10.9064 12.9649V9.2959C10.9064 8.68745 11.1267 8.12971 11.4911 7.69737L11.5139 7.6746C11.5307 7.65779 11.5454 7.63968 11.5581 7.6207C12.0126 7.12399 12.6657 6.81184 13.3905 6.81184ZM8.89782 14.4941L7.95906 13.9525L10.1979 11.7137V13.3933L9.44038 13.8512C9.19379 14.0001 9.0031 14.226 8.89782 14.4941ZM6.34236 12.8461L10.214 8.97444C10.2033 9.08128 10.1979 9.18858 10.1979 9.29595V10.7118L7.20294 13.7068C6.96564 13.944 6.57971 13.944 6.34236 13.7067C6.22819 13.5926 6.16528 13.4398 6.16528 13.2765C6.16533 13.1132 6.22819 12.9603 6.34236 12.8461ZM1.76999 18.5496C1.76999 18.2141 2.04297 17.9411 2.37849 17.9411H9.69211C9.77009 17.9411 9.84589 17.9154 9.90776 17.8679C9.96963 17.8205 10.0141 17.7539 10.0343 17.6786C10.0545 17.6033 10.0492 17.5234 10.0194 17.4513C9.98953 17.3793 9.93675 17.3191 9.86923 17.2801L3.50982 13.6085C3.36994 13.5277 3.26969 13.3965 3.22743 13.2387C3.18517 13.081 3.20638 12.9171 3.28715 12.7772C3.36786 12.6373 3.49914 12.5371 3.65693 12.4948C3.81473 12.4526 3.97849 12.4738 4.11847 12.5546L5.45815 13.3276C5.4707 13.6609 5.60552 13.9718 5.8415 14.2077C6.08947 14.4557 6.42019 14.5923 6.77267 14.5923C6.99099 14.5923 7.20091 14.5398 7.38801 14.441L8.83973 15.2786C8.87105 15.413 8.92338 15.5417 8.99479 15.6598C9.24205 16.0686 9.67778 16.2951 10.124 16.295C10.3635 16.2951 10.5985 16.2295 10.8033 16.1053L11.0429 15.9603L16.9721 15.9589C17.8542 15.9589 18.5717 16.6765 18.5717 17.5585C18.5717 18.4405 17.8541 19.1581 16.9721 19.1581H11.9386C11.6031 19.1581 11.3302 18.8852 11.3302 18.5497C11.3302 18.2141 11.6031 17.9412 11.9386 17.9412H16.8713C16.9653 17.9412 17.0554 17.9039 17.1218 17.8374C17.1882 17.771 17.2256 17.6809 17.2256 17.5869C17.2256 17.493 17.1882 17.4029 17.1218 17.3365C17.0554 17.27 16.9653 17.2327 16.8713 17.2327H11.9386C11.2124 17.2327 10.6217 17.8235 10.6217 18.5497C10.6215 18.7616 10.6728 18.9704 10.7712 19.1581H2.37849C2.04291 19.1581 1.76999 18.8851 1.76999 18.5496ZM24.2796 21.5481C24.2796 21.5979 24.2598 21.6455 24.2246 21.6807C24.1895 21.7158 24.1418 21.7356 24.0921 21.7357H0.896053C0.846328 21.7356 0.798654 21.7158 0.763493 21.6807C0.728333 21.6455 0.708556 21.5979 0.708502 21.5481V20.0541C0.708556 20.0044 0.728333 19.9568 0.763493 19.9216C0.798654 19.8864 0.846328 19.8667 0.896053 19.8666H24.0921C24.1418 19.8667 24.1895 19.8864 24.2246 19.9216C24.2598 19.9568 24.2796 20.0044 24.2796 20.0541V21.5481Z" fill="#119498"/>
</svg>
