<svg width="25" height="25" viewBox="0 0 25 25" fill="none" xmlns="http://www.w3.org/2000/svg">
<path d="M22.9175 20V13.8313C23.1904 12.8733 23.3342 11.8667 23.3342 10.8333C23.3342 4.85958 18.4746 0 12.5008 0C6.52706 0 1.66748 4.85958 1.66748 10.8333C1.66748 11.8663 1.81123 12.8733 2.08415 13.8313V20C2.08415 20.9192 2.83165 21.6667 3.75081 21.6667H7.14123L7.10665 21.8492C7.09165 21.9283 7.0879 22.0079 7.0879 22.0871H7.08415V23.7496C7.08415 24.4388 7.64498 24.9996 8.33415 24.9996H16.6675C17.3566 24.9996 17.9175 24.4388 17.9175 23.7496V22.0871H17.9137C17.9137 22.0079 17.91 21.9283 17.895 21.8492L17.8604 21.6667H21.2508C22.17 21.6667 22.9175 20.9192 22.9175 20ZM12.5008 0.833333C18.0146 0.833333 22.5008 5.31958 22.5008 10.8333C22.5008 14.4638 20.5779 17.7392 17.4504 19.5154L16.5871 14.9838C17.6962 13.8892 18.3337 12.3929 18.3337 10.8329C18.3337 7.61625 15.7171 4.99958 12.5004 4.99958C9.28373 4.99958 6.66706 7.61625 6.66706 10.8329C6.66706 12.3929 7.30498 13.8892 8.41373 14.9838L7.5504 19.5154C4.4229 17.7392 2.49998 14.4633 2.49998 10.8333C2.50081 5.31958 6.98706 0.833333 12.5008 0.833333ZM7.9254 22.0054L9.27456 14.9221C9.29268 14.8269 9.34341 14.741 9.41801 14.6792C9.49261 14.6174 9.58642 14.5835 9.68332 14.5833H15.3179C15.4148 14.5835 15.5086 14.6174 15.5832 14.6792C15.6578 14.741 15.7085 14.8269 15.7266 14.9221L17.0758 22.0054C17.0877 22.0655 17.0859 22.1275 17.0707 22.1868C17.0555 22.2462 17.0272 22.3013 16.9879 22.3483C16.9489 22.3957 16.8998 22.4339 16.8442 22.46C16.7887 22.4862 16.728 22.4997 16.6666 22.4996H8.33415C8.20915 22.4996 8.09248 22.4446 8.0129 22.3483C7.97361 22.3013 7.94532 22.2462 7.93011 22.1868C7.9149 22.1275 7.91356 22.0655 7.9254 22.0054ZM16.235 14.1554C16.1186 14.028 15.977 13.9262 15.8192 13.8565C15.6614 13.7867 15.4909 13.7504 15.3183 13.75H9.68373C9.32456 13.75 8.99748 13.9054 8.76706 14.1554C7.95354 13.2398 7.50328 12.0581 7.50123 10.8333C7.50123 8.07625 9.74415 5.83333 12.5012 5.83333C15.2583 5.83333 17.5012 8.07625 17.5012 10.8333C17.5012 12.0596 17.0446 13.2433 16.235 14.1554ZM3.75081 20.8333C3.29123 20.8333 2.91748 20.4596 2.91748 20V15.9058C3.90498 17.7746 5.44373 19.335 7.38748 20.3746L7.29998 20.8333H3.75081ZM16.6675 24.1667H8.33415C8.22364 24.1667 8.11766 24.1228 8.03952 24.0446C7.96138 23.9665 7.91748 23.8605 7.91748 23.75V23.2542C8.0504 23.3013 8.18956 23.3333 8.33456 23.3333H16.6671C16.8096 23.3312 16.9507 23.3044 17.0841 23.2542V23.75C17.0841 23.8605 17.0403 23.9665 16.9621 24.0446C16.884 24.1228 16.778 24.1667 16.6675 24.1667ZM21.2508 20.8333H17.7016L17.6141 20.3746C19.5579 19.335 21.0966 17.7746 22.0842 15.9058V20C22.0842 20.4596 21.7104 20.8333 21.2508 20.8333Z" fill="#119498"/>
<path d="M11.2516 4.16602H13.7516C14.2112 4.16602 14.585 3.79227 14.585 3.33268V2.49935C14.585 2.03977 14.2112 1.66602 13.7516 1.66602H11.2516C10.792 1.66602 10.4183 2.03977 10.4183 2.49935V3.33268C10.4183 3.79227 10.792 4.16602 11.2516 4.16602ZM11.2516 2.49935H13.7516L13.7525 3.33268H11.2516V2.49935ZM3.75163 11.2531C3.98204 11.2531 4.16829 11.0631 4.16829 10.8327C4.16829 10.7222 4.1244 10.6162 4.04626 10.5381C3.96812 10.4599 3.86213 10.416 3.75163 10.416C3.64112 10.416 3.53514 10.4599 3.457 10.5381C3.37886 10.6162 3.33496 10.7222 3.33496 10.8327V10.8398C3.33496 11.0702 3.52121 11.2531 3.75163 11.2531ZM5.41829 10.416C5.30779 10.416 5.20181 10.4599 5.12367 10.5381C5.04553 10.6162 5.00163 10.7222 5.00163 10.8327V10.8398C5.00163 11.0702 5.18788 11.2531 5.41829 11.2531C5.64871 11.2531 5.83496 11.0631 5.83496 10.8327C5.83496 10.6023 5.64871 10.416 5.41829 10.416ZM5.83496 12.4994C5.83496 12.3888 5.79106 12.2829 5.71292 12.2047C5.63478 12.1266 5.5288 12.0827 5.41829 12.0827H3.75163C3.64112 12.0827 3.53514 12.1266 3.457 12.2047C3.37886 12.2829 3.33496 12.3888 3.33496 12.4994C3.33496 12.6099 3.37886 12.7158 3.457 12.794C3.53514 12.8721 3.64112 12.916 3.75163 12.916H5.41829C5.5288 12.916 5.63478 12.8721 5.71292 12.794C5.79106 12.7158 5.83496 12.6099 5.83496 12.4994ZM3.75163 9.58268H5.41829C5.5288 9.58268 5.63478 9.53878 5.71292 9.46064C5.79106 9.3825 5.83496 9.27652 5.83496 9.16602C5.83496 9.05551 5.79106 8.94953 5.71292 8.87139C5.63478 8.79325 5.5288 8.74935 5.41829 8.74935H3.75163C3.64112 8.74935 3.53514 8.79325 3.457 8.87139C3.37886 8.94953 3.33496 9.05551 3.33496 9.16602C3.33496 9.27652 3.37886 9.3825 3.457 9.46064C3.53514 9.53878 3.64112 9.58268 3.75163 9.58268ZM19.585 11.2531C19.8154 11.2531 20.0016 11.0631 20.0016 10.8327C20.0016 10.7222 19.9577 10.6162 19.8796 10.5381C19.8014 10.4599 19.6955 10.416 19.585 10.416C19.4745 10.416 19.3685 10.4599 19.2903 10.5381C19.2122 10.6162 19.1683 10.7222 19.1683 10.8327V10.8398C19.1683 11.0702 19.3545 11.2531 19.585 11.2531ZM21.2516 10.416C21.1411 10.416 21.0351 10.4599 20.957 10.5381C20.8789 10.6162 20.835 10.7222 20.835 10.8327V10.8398C20.835 11.0702 21.0212 11.2531 21.2516 11.2531C21.482 11.2531 21.6683 11.0631 21.6683 10.8327C21.6683 10.6023 21.482 10.416 21.2516 10.416ZM19.585 12.916H21.2516C21.3621 12.916 21.4681 12.8721 21.5463 12.794C21.6244 12.7158 21.6683 12.6099 21.6683 12.4994C21.6683 12.3888 21.6244 12.2829 21.5463 12.2047C21.4681 12.1266 21.3621 12.0827 21.2516 12.0827H19.585C19.4745 12.0827 19.3685 12.1266 19.2903 12.2047C19.2122 12.2829 19.1683 12.3888 19.1683 12.4994C19.1683 12.6099 19.2122 12.7158 19.2903 12.794C19.3685 12.8721 19.4745 12.916 19.585 12.916ZM19.585 9.58268H21.2516C21.3621 9.58268 21.4681 9.53878 21.5463 9.46064C21.6244 9.3825 21.6683 9.27652 21.6683 9.16602C21.6683 9.05551 21.6244 8.94953 21.5463 8.87139C21.4681 8.79325 21.3621 8.74935 21.2516 8.74935H19.585C19.4745 8.74935 19.3685 8.79325 19.2903 8.87139C19.2122 8.94953 19.1683 9.05551 19.1683 9.16602C19.1683 9.27652 19.2122 9.3825 19.2903 9.46064C19.3685 9.53878 19.4745 9.58268 19.585 9.58268Z" fill="#119498"/>
</svg>
