<svg width="25" height="24" viewBox="0 0 25 24" fill="none" xmlns="http://www.w3.org/2000/svg">
<path d="M23.2983 9.07279C23.2983 9.64163 23.2563 10.2242 23.1733 10.8042C23.1661 10.855 23.1489 10.9039 23.1228 10.948C23.0967 10.9922 23.0621 11.0307 23.0211 11.0615C22.98 11.0923 22.9333 11.1147 22.8836 11.1275C22.8339 11.1402 22.7822 11.143 22.7314 11.1358C22.5181 11.105 22.3696 10.9073 22.3999 10.6939C22.4775 10.1504 22.5171 9.60501 22.5171 9.07279C22.5171 7.56693 22.0913 6.03324 21.3496 4.8638C21.2339 4.68167 21.2881 4.44046 21.4702 4.32474C21.6523 4.20902 21.8936 4.26322 22.0093 4.44535C22.8408 5.7554 23.2983 7.39896 23.2983 9.07279ZM25 9.07279C25 11.291 24.4453 13.5625 23.4785 15.3042C22.4175 17.2159 20.9575 18.3389 19.3687 18.4659C19.2813 18.4727 19.1948 18.4761 19.1094 18.4761C17.7837 18.4761 16.7183 17.6597 16.1606 16.2022C15.7583 15.1509 15.6763 13.8579 15.9355 12.6538C16.0244 12.2412 16.1509 11.8487 16.3115 11.482V10.4615C16.3115 10.1768 16.0703 9.93607 15.7852 9.93607H15.2432C14.9692 9.93607 14.6992 9.98392 14.4468 10.0767C14.7642 10.7456 14.9419 11.4937 14.9419 12.2818V22.7486C14.9419 22.9644 14.7671 23.1392 14.5513 23.1392C14.3354 23.1392 14.1606 22.9644 14.1606 22.7486V12.2813C14.1606 11.4903 13.9497 10.7476 13.5815 10.106C13.5781 10.1011 13.5752 10.0957 13.5723 10.0904C13.5698 10.086 13.5674 10.0821 13.5654 10.0777C13.2449 9.53001 12.8107 9.05747 12.292 8.69193C12.2842 8.68704 12.2764 8.68119 12.2686 8.67581C11.5319 8.16367 10.656 7.88964 9.75879 7.89066H9.03223C8.41309 7.89066 7.90918 7.38724 7.90918 6.76859V6.7554C7.74414 6.90042 7.56934 7.03714 7.38623 7.16458C7.20898 7.28763 6.96533 7.24369 6.84277 7.06595C6.72021 6.88822 6.76367 6.64505 6.94141 6.5225C7.73828 5.96976 8.34521 5.21488 8.64941 4.3975C9.02393 3.39994 8.97168 2.57376 8.49854 2.00687C7.9668 1.36966 6.93311 1.11869 5.73389 1.33548C2.95557 1.83402 0.78125 5.23294 0.78125 9.07279C0.78125 11.1617 1.30078 13.2945 2.20654 14.9248C3.13721 16.6006 4.37549 17.5816 5.69336 17.6866C7.16602 17.8013 7.84131 16.6285 8.11279 15.919C8.56982 14.7251 8.55664 13.0889 7.95947 11.7491C7.94727 11.7276 7.93652 11.7046 7.92871 11.6807C7.74609 11.2876 7.51172 10.9224 7.22363 10.6021C7.11281 11.1077 6.90251 11.5862 6.60498 12.0098C6.56891 12.0613 6.52097 12.1033 6.4652 12.1323C6.40944 12.1612 6.34751 12.1764 6.28467 12.1763C6.20703 12.1763 6.12891 12.1534 6.06104 12.1055C6.019 12.0761 5.98318 12.0387 5.95562 11.9954C5.92806 11.9522 5.90929 11.9039 5.90041 11.8534C5.89152 11.8029 5.89268 11.7511 5.90382 11.701C5.91496 11.6509 5.93586 11.6035 5.96533 11.5616C6.33789 11.0298 6.53467 10.4043 6.53467 9.75247C6.53467 9.17581 6.37842 8.61234 6.08301 8.12259C5.97168 7.93802 6.03125 7.69779 6.21582 7.58646C6.40039 7.47513 6.64062 7.5347 6.75195 7.71927C7.09619 8.29007 7.28906 8.94095 7.31299 9.6099C7.53516 9.793 7.74121 10.0005 7.9292 10.2285C8.04297 9.62699 8.58545 9.15482 9.21484 9.15482H9.75684C10.5889 9.15482 11.3745 9.48148 11.9697 10.0752C12.5649 10.669 12.8926 11.4522 12.8926 12.2818V22.7486C12.8926 22.9644 12.7178 23.1392 12.502 23.1392C12.2861 23.1392 12.1113 22.9644 12.1113 22.7486V12.2813C12.1113 11.5479 11.7715 10.8916 11.2402 10.4615C10.9771 11.0318 10.8389 11.6534 10.8389 12.2813V22.7481C10.8389 22.9639 10.6641 23.1387 10.4482 23.1387C10.2324 23.1387 10.0576 22.9639 10.0576 22.7481V12.2813C10.0576 11.5186 10.2295 10.7642 10.5581 10.0757C10.3011 9.98268 10.0297 9.93526 9.75635 9.93558H9.21436C8.9292 9.93558 8.68799 10.1763 8.68799 10.461V11.4702C8.85059 11.8399 8.97852 12.2359 9.06787 12.6519C9.32617 13.855 9.24414 15.148 8.8418 16.1988C8.2832 17.6582 7.21631 18.4761 5.89014 18.4761C5.80469 18.4761 5.71826 18.4727 5.63135 18.4659C4.04346 18.3389 2.58496 17.2163 1.52295 15.3047C0.555176 13.5616 0 11.2901 0 9.07279C0 7.07279 0.552246 5.10453 1.55518 3.53177C2.59473 1.90042 4.0293 0.84769 5.59326 0.56644C7.07275 0.298862 8.38232 0.650425 9.09668 1.50638C9.75098 2.29056 9.85107 3.41458 9.37939 4.67093C9.2168 5.10746 8.98242 5.52738 8.68896 5.91654V6.76908C8.68896 6.95706 8.84229 7.1099 9.03076 7.1099H9.75732C10.7642 7.1099 11.7051 7.39798 12.5015 7.89554C13.3169 7.38089 14.2588 7.1099 15.2422 7.1099H15.9688C16.1572 7.1099 16.3105 6.95706 16.3105 6.76908V5.91654C16.0171 5.52738 15.7822 5.10697 15.6196 4.66996C15.1479 3.41459 15.2485 2.29056 15.9023 1.50638C16.6162 0.650425 17.9263 0.298862 19.4063 0.56644C20.9722 0.847202 22.4072 1.90042 23.4463 3.53177C24.4487 5.10404 25 7.07181 25 9.07279ZM24.2188 9.07279C24.2188 5.23148 22.0444 1.83304 19.2686 1.335C18.0684 1.1182 17.0347 1.36917 16.5034 2.00638C16.0303 2.57328 15.978 3.39994 16.3525 4.39603C16.6572 5.21488 17.2637 5.96976 18.061 6.5225C18.1461 6.58154 18.2043 6.67193 18.2228 6.77382C18.2413 6.87571 18.2186 6.98077 18.1597 7.06595C18.1006 7.15102 18.0102 7.20918 17.9083 7.22768C17.8065 7.24617 17.7014 7.22348 17.6162 7.16458C17.4326 7.03763 17.2583 6.90042 17.0933 6.7554V6.76859C17.0933 7.38724 16.5894 7.89066 15.9702 7.89066H15.2437C14.5132 7.89066 13.8101 8.06644 13.1836 8.40238C13.5142 8.69339 13.8076 9.02591 14.0557 9.39115C14.4287 9.23539 14.8335 9.15433 15.2441 9.15433H15.7861C16.4175 9.15433 16.9614 9.62894 17.0728 10.2334C17.2607 10.0054 17.4663 9.79788 17.688 9.61429C17.7114 8.94388 17.9043 8.29105 18.249 7.71878C18.3604 7.53421 18.6006 7.47464 18.7852 7.58597C18.9697 7.6973 19.0293 7.93753 18.918 8.1221C18.6226 8.61185 18.4663 9.17581 18.4663 9.75199C18.4663 10.4038 18.6631 11.0298 19.0356 11.5611C19.0651 11.603 19.086 11.6504 19.0972 11.7005C19.1083 11.7506 19.1095 11.8024 19.1006 11.8529C19.0917 11.9034 19.073 11.9517 19.0454 11.995C19.0178 12.0382 18.982 12.0756 18.9399 12.105C18.8716 12.1529 18.7935 12.1758 18.7163 12.1758C18.5933 12.1758 18.4722 12.1177 18.396 12.0093C18.0998 11.5871 17.8899 11.1105 17.7783 10.607C16.5015 12.0298 16.292 14.356 16.8911 15.9219C17.1621 16.6299 17.8364 17.8003 19.3081 17.6861C20.6274 17.5806 21.8662 16.6001 22.7964 14.9243C23.7002 13.2959 24.2188 11.1626 24.2188 9.07279ZM3.52979 4.32474C3.34766 4.20902 3.10645 4.26322 2.99072 4.44535C2.16309 5.74955 1.70703 7.3931 1.70703 9.07279C1.70703 9.6807 1.74951 10.2642 1.83252 10.8081C1.84027 10.8589 1.85793 10.9076 1.88451 10.9515C1.91108 10.9954 1.94604 11.0336 1.9874 11.064C2.02875 11.0944 2.07569 11.1163 2.12552 11.1285C2.17535 11.1408 2.22711 11.1431 2.27783 11.1353C2.32856 11.1275 2.37726 11.1099 2.42116 11.0833C2.46505 11.0567 2.50329 11.0218 2.53367 10.9804C2.56405 10.9391 2.58598 10.8921 2.59822 10.8423C2.61045 10.7925 2.61275 10.7407 2.60498 10.69C2.52783 10.1851 2.48828 9.64115 2.48828 9.07279C2.48828 7.56156 2.91162 6.02738 3.65039 4.8638C3.76611 4.68167 3.71191 4.44046 3.52979 4.32474Z" fill="#119498"/>
</svg>
