<svg width="25" height="26" viewBox="0 0 25 26" fill="none" xmlns="http://www.w3.org/2000/svg">
<g clip-path="url(#clip0_4036_13548)">
<path d="M12.4974 21.0034C11.3419 21.0034 10.2915 20.4956 9.82082 19.71C9.77199 19.6213 9.7595 19.5171 9.78595 19.4193C9.81241 19.3216 9.87576 19.2379 9.96267 19.1859C10.0496 19.1339 10.1533 19.1177 10.2519 19.1406C10.3505 19.1636 10.4364 19.2239 10.4915 19.3088C10.8185 19.8549 11.6243 20.2221 12.4974 20.2221C13.3829 20.2221 14.1728 19.8627 14.5095 19.3069C14.5632 19.2183 14.6499 19.1546 14.7506 19.1299C14.8512 19.1052 14.9576 19.1215 15.0462 19.1752C15.1348 19.229 15.1985 19.3157 15.2232 19.4163C15.2479 19.517 15.2316 19.6233 15.1778 19.712C14.7021 20.4963 13.6501 21.0034 12.4974 21.0034ZM18.8321 25.1143C18.7382 25.1149 18.6472 25.0814 18.576 25.02C18.5049 24.9586 18.4585 24.8734 18.4454 24.7803C18.1294 23.3471 18.1435 21.8123 18.4857 20.2178C18.4962 20.1675 18.5167 20.1199 18.5457 20.0775C18.5748 20.0352 18.612 19.999 18.6552 19.9711C18.6983 19.9432 18.7466 19.9242 18.7971 19.915C18.8477 19.9059 18.8995 19.9068 18.9497 19.9178C18.9999 19.9286 19.0475 19.9491 19.0897 19.9783C19.1319 20.0074 19.168 20.0446 19.1959 20.0877C19.2237 20.1308 19.2428 20.1789 19.2521 20.2294C19.2613 20.2799 19.2605 20.3317 19.2497 20.3819C18.9294 21.8748 18.9173 23.3061 19.2138 24.6362C19.2266 24.6935 19.2265 24.7529 19.2133 24.8101C19.2002 24.8673 19.1744 24.9208 19.1378 24.9667C19.1012 25.0127 19.0548 25.0498 19.002 25.0754C18.9491 25.101 18.8912 25.1144 18.8325 25.1147L18.8321 25.1143ZM6.16808 25.1143C5.95207 25.1143 5.77746 24.9428 5.77746 24.7268V24.7209C5.77746 24.6924 5.78058 24.6639 5.78683 24.6358C6.08332 23.3061 6.0716 21.8748 5.7509 20.3815C5.74012 20.3313 5.73934 20.2795 5.74858 20.229C5.75783 20.1786 5.77693 20.1304 5.80478 20.0873C5.83264 20.0442 5.86871 20.0071 5.91094 19.9779C5.95317 19.9487 6.00073 19.9282 6.0509 19.9174C6.10106 19.9067 6.15286 19.9059 6.20334 19.9151C6.25381 19.9244 6.30197 19.9435 6.34506 19.9713C6.38815 19.9992 6.42533 20.0352 6.45449 20.0775C6.48364 20.1197 6.50419 20.1673 6.51496 20.2174C6.85871 21.8182 6.87082 23.3588 6.55129 24.7971C6.51613 24.9768 6.35793 25.1143 6.16847 25.1143H6.16808Z" fill="#119498"/>
<path d="M22.2656 25.1392H2.73438C2.63077 25.1392 2.53142 25.098 2.45816 25.0247C2.38491 24.9515 2.34375 24.8521 2.34375 24.7485C2.34375 21.6993 5.64688 19.2013 9.78438 19.0524V18.1079C9.78438 18.0043 9.82553 17.905 9.89879 17.8317C9.97204 17.7584 10.0714 17.7173 10.175 17.7173C10.2786 17.7173 10.378 17.7584 10.4512 17.8317C10.5245 17.905 10.5656 18.0043 10.5656 18.1079V19.436C10.5656 19.5396 10.5245 19.639 10.4512 19.7122C10.378 19.7855 10.2786 19.8267 10.175 19.8267C6.47578 19.8267 3.4332 21.8259 3.14727 24.3579H21.8527C21.5668 21.8263 18.5242 19.8267 14.825 19.8267C14.7214 19.8267 14.622 19.7855 14.5488 19.7122C14.4755 19.639 14.4344 19.5396 14.4344 19.436V18.1079C14.4344 18.0043 14.4755 17.905 14.5488 17.8317C14.622 17.7584 14.7214 17.7173 14.825 17.7173C14.9286 17.7173 15.028 17.7584 15.1012 17.8317C15.1745 17.905 15.2156 18.0043 15.2156 18.1079V19.0524C19.3531 19.2013 22.6562 21.6993 22.6562 24.7485C22.6562 24.8521 22.6151 24.9515 22.5418 25.0247C22.4686 25.098 22.3692 25.1392 22.2656 25.1392ZM18.5508 15.7642H17.7301C17.6265 15.7642 17.5271 15.723 17.4539 15.6497C17.3806 15.5765 17.3395 15.4771 17.3395 15.3735C17.3395 15.2699 17.3806 15.1706 17.4539 15.0973C17.5271 15.0241 17.6265 14.9829 17.7301 14.9829H18.5508C18.8703 14.9829 19.1406 14.5892 19.1406 14.1235V13.4985C19.1406 13.0329 18.8707 12.6392 18.5508 12.6392H18.3594C18.2558 12.6392 18.1564 12.598 18.0832 12.5247C18.0099 12.4515 17.9688 12.3521 17.9688 12.2485C17.9688 12.1449 18.0099 12.0456 18.0832 11.9723C18.1564 11.8991 18.2558 11.8579 18.3594 11.8579H18.5508C19.307 11.8579 19.9219 12.5938 19.9219 13.4985V14.1235C19.9219 15.0282 19.307 15.7642 18.5508 15.7642ZM7.26953 15.7642H6.44883C5.69258 15.7642 5.07773 15.0282 5.07773 14.1235V13.4985C5.07773 12.5938 5.69258 11.8579 6.44883 11.8579H6.64023C6.74383 11.8579 6.84319 11.8991 6.91645 11.9723C6.9897 12.0456 7.03086 12.1449 7.03086 12.2485C7.03086 12.3521 6.9897 12.4515 6.91645 12.5247C6.84319 12.598 6.74383 12.6392 6.64023 12.6392H6.44883C6.1293 12.6392 5.85898 13.0329 5.85898 13.4985V14.1235C5.85898 14.5892 6.12891 14.9829 6.44883 14.9829H7.26953C7.37313 14.9829 7.47249 15.0241 7.54574 15.0973C7.619 15.1706 7.66016 15.2699 7.66016 15.3735C7.66016 15.4771 7.619 15.5765 7.54574 15.6497C7.47249 15.723 7.37313 15.7642 7.26953 15.7642ZM18.4375 11.4673C18.3339 11.4673 18.2345 11.4261 18.1613 11.3529C18.088 11.2796 18.0469 11.1803 18.0469 11.0767C18.0469 10.9731 18.088 10.8737 18.1613 10.8004C18.2345 10.7272 18.3339 10.686 18.4375 10.686C19.102 10.686 19.5312 10.0169 19.5312 8.98135C19.5312 6.45557 17.043 4.40049 13.9844 4.40049C11.5457 4.40049 9.63555 3.35557 9.63555 2.02119C9.63555 1.39111 9.31914 0.92041 9.03672 0.92041C7.10273 0.92041 5.46875 4.61182 5.46875 8.98135C5.46875 10.0169 5.89805 10.686 6.5625 10.686C6.6661 10.686 6.76546 10.7272 6.83871 10.8004C6.91197 10.8737 6.95312 10.9731 6.95312 11.0767C6.95312 11.1803 6.91197 11.2796 6.83871 11.3529C6.76546 11.4261 6.6661 11.4673 6.5625 11.4673C5.6293 11.4673 4.6875 10.6985 4.6875 8.98135C4.6875 4.02314 6.59805 0.13916 9.03672 0.13916C9.81055 0.13916 10.4168 0.966113 10.4168 2.02119C10.4168 2.77705 11.882 3.61924 13.9844 3.61924C17.4738 3.61924 20.3125 6.02471 20.3125 8.98135C20.3125 10.6985 19.3707 11.4673 18.4375 11.4673ZM14.8438 14.1759C13.9676 14.1759 13.2812 13.6724 13.2812 13.0298C13.2812 12.9262 13.3224 12.8268 13.3957 12.7536C13.4689 12.6803 13.5683 12.6392 13.6719 12.6392C13.7755 12.6392 13.8748 12.6803 13.9481 12.7536C14.0213 12.8268 14.0625 12.9262 14.0625 13.0298C14.0625 13.1751 14.3742 13.3946 14.8438 13.3946C15.3133 13.3946 15.625 13.1751 15.625 13.0298C15.625 12.9262 15.6662 12.8268 15.7394 12.7536C15.8127 12.6803 15.912 12.6392 16.0156 12.6392C16.1192 12.6392 16.2186 12.6803 16.2918 12.7536C16.3651 12.8268 16.4062 12.9262 16.4062 13.0298C16.4062 13.6724 15.7199 14.1759 14.8438 14.1759Z" fill="#119498"/>
<path d="M16.0152 13.4204C15.9116 13.4204 15.8123 13.3793 15.739 13.306C15.6658 13.2327 15.6246 13.1334 15.6246 13.0298C15.6246 12.8704 15.3203 12.6392 14.8434 12.6392C14.3738 12.6392 14.0621 12.8743 14.0621 13.0298C14.0621 13.1334 14.021 13.2327 13.9477 13.306C13.8744 13.3793 13.7751 13.4204 13.6715 13.4204C13.5679 13.4204 13.4685 13.3793 13.3953 13.306C13.322 13.2327 13.2809 13.1334 13.2809 13.0298C13.2809 12.3728 13.9672 11.8579 14.8434 11.8579C15.7195 11.8579 16.4059 12.3728 16.4059 13.0298C16.4059 13.1334 16.3647 13.2327 16.2914 13.306C16.2182 13.3793 16.1188 13.4204 16.0152 13.4204ZM10.1562 14.1759C9.28008 14.1759 8.59375 13.6724 8.59375 13.0298C8.59375 12.9262 8.6349 12.8268 8.70816 12.7536C8.78142 12.6803 8.88077 12.6392 8.98438 12.6392C9.08798 12.6392 9.18733 12.6803 9.26059 12.7536C9.33385 12.8268 9.375 12.9262 9.375 13.0298C9.375 13.1751 9.68672 13.3946 10.1562 13.3946C10.6258 13.3946 10.9375 13.1751 10.9375 13.0298C10.9375 12.9262 10.9787 12.8268 11.0519 12.7536C11.1252 12.6803 11.2245 12.6392 11.3281 12.6392C11.4317 12.6392 11.5311 12.6803 11.6043 12.7536C11.6776 12.8268 11.7188 12.9262 11.7188 13.0298C11.7188 13.6724 11.0324 14.1759 10.1562 14.1759Z" fill="#119498"/>
<path d="M11.3277 13.4204C11.2241 13.4204 11.1248 13.3793 11.0515 13.306C10.9783 13.2327 10.9371 13.1334 10.9371 13.0298C10.9371 12.8704 10.6328 12.6392 10.1559 12.6392C9.68633 12.6392 9.37461 12.8743 9.37461 13.0298C9.37461 13.1334 9.33345 13.2327 9.2602 13.306C9.18694 13.3793 9.08758 13.4204 8.98398 13.4204C8.88038 13.4204 8.78103 13.3793 8.70777 13.306C8.63451 13.2327 8.59336 13.1334 8.59336 13.0298C8.59336 12.3728 9.27969 11.8579 10.1559 11.8579C11.032 11.8579 11.7184 12.3728 11.7184 13.0298C11.7184 13.1334 11.6772 13.2327 11.6039 13.306C11.5307 13.3793 11.4313 13.4204 11.3277 13.4204ZM1.25391 20.4517C1.15031 20.4517 1.05095 20.4105 0.977693 20.3372C0.904436 20.264 0.863281 20.1646 0.863281 20.061C0.863281 18.781 0.663672 17.4938 0.452344 16.1306C0.230078 14.6966 0 13.2138 0 11.6626C0 10.1114 0.230078 8.62822 0.452344 7.19424C0.663672 5.83174 0.863281 4.54463 0.863281 3.26416C0.863281 3.16056 0.904436 3.0612 0.977693 2.98795C1.05095 2.91469 1.15031 2.87354 1.25391 2.87354C2.32539 2.87354 3.20273 3.73604 3.5668 4.15596C4.29103 3.94235 5.02367 3.75834 5.76289 3.60439C5.86426 3.5829 5.97002 3.60255 6.05691 3.65903C6.14379 3.71551 6.20467 3.80419 6.22617 3.90557C6.24767 4.00694 6.22802 4.1127 6.17153 4.19958C6.11505 4.28646 6.02637 4.34735 5.925 4.36885C4.47148 4.67627 3.56211 4.97549 3.55312 4.97861C3.47448 5.0044 3.38969 5.00465 3.3109 4.97932C3.2321 4.95399 3.16334 4.90438 3.11445 4.8376C3.10664 4.82744 2.4543 3.94424 1.63789 3.71104C1.59961 4.89854 1.41719 6.07588 1.225 7.31416C1.00703 8.71885 0.781641 10.1716 0.781641 11.663C0.781641 13.1544 1.00703 14.6067 1.225 16.0118C1.4168 17.2497 1.59922 18.4267 1.63789 19.6142C1.99375 19.5114 2.31445 19.288 2.54414 19.0923C2.75444 18.9115 2.94532 18.7092 3.11367 18.4888C3.16232 18.4216 3.23109 18.3716 3.31003 18.3461C3.38897 18.3206 3.47398 18.3209 3.55273 18.347C3.57031 18.3528 5.33008 18.9274 7.90664 19.3157C8.11992 19.3481 8.2668 19.547 8.23477 19.7606C8.21858 19.8628 8.16283 19.9545 8.07957 20.0159C7.99632 20.0773 7.89224 20.1035 7.78984 20.0888C5.69648 19.7728 4.15625 19.3462 3.56758 19.1692C3.44727 19.3087 3.27109 19.4978 3.05234 19.6856C2.4625 20.1876 1.84141 20.4521 1.2543 20.4521L1.25391 20.4517ZM23.7461 20.4517C22.6742 20.4517 21.7969 19.5888 21.4332 19.1688C21.0285 19.2899 20.1715 19.5302 18.9926 19.772C18.397 19.8936 17.7981 19.9978 17.1965 20.0845C17.1457 20.0921 17.0939 20.0897 17.044 20.0772C16.9942 20.0647 16.9473 20.0424 16.9062 20.0117C16.865 19.9809 16.8304 19.9423 16.8042 19.8981C16.7781 19.8539 16.761 19.8049 16.7539 19.754C16.7391 19.6515 16.7655 19.5473 16.8275 19.4643C16.8895 19.3813 16.9819 19.3263 17.0844 19.3114C17.6708 19.2268 18.2546 19.1252 18.8352 19.0067C20.427 18.6798 21.4375 18.3493 21.4477 18.3462C21.6074 18.2942 21.7859 18.3505 21.8855 18.4876C21.8934 18.4978 22.5457 19.381 23.3621 19.6145C23.4004 18.4271 23.5828 17.2497 23.775 16.0114C23.993 14.6063 24.2184 13.154 24.2184 11.6626C24.2184 10.1712 23.993 8.71846 23.775 7.31377C23.5832 6.07588 23.4008 4.89893 23.3621 3.71143C23.0063 3.81416 22.6855 4.0376 22.4559 4.2333C22.2456 4.41413 22.0547 4.6164 21.8863 4.83682C21.7863 4.97432 21.609 5.03213 21.4469 4.97861C21.4066 4.96533 17.3848 3.65479 12.4996 3.65479C11.9912 3.65564 11.4828 3.66853 10.975 3.69346C10.8719 3.6969 10.7715 3.65997 10.6952 3.59052C10.6189 3.52107 10.5727 3.42458 10.5664 3.32158C10.564 3.27033 10.5717 3.21911 10.5891 3.17084C10.6065 3.12257 10.6332 3.0782 10.6677 3.04026C10.7022 3.00231 10.7439 2.97154 10.7903 2.94971C10.8368 2.92787 10.887 2.91539 10.9383 2.91299C11.4583 2.8876 11.9789 2.87444 12.4996 2.87354C16.8559 2.87354 20.4512 3.85947 21.4328 4.15596C21.5531 4.0165 21.7293 3.82822 21.9477 3.63994C22.5367 3.13799 23.1582 2.87354 23.7457 2.87354C23.8493 2.87354 23.9487 2.91469 24.0219 2.98795C24.0952 3.0612 24.1363 3.16056 24.1363 3.26416C24.1363 4.54424 24.3359 5.83135 24.5473 7.19424C24.7695 8.62822 24.9996 10.1114 24.9996 11.6626C24.9996 13.2138 24.7695 14.697 24.5473 16.1306C24.3359 17.4935 24.1363 18.7806 24.1363 20.061C24.1363 20.1646 24.0952 20.264 24.0219 20.3372C23.9487 20.4105 23.8497 20.4517 23.7461 20.4517Z" fill="#119498"/>
<path d="M12.5 18.9868C9.05391 18.9868 6.25 16.1829 6.25 12.7368V9.4165C6.25 9.3129 6.29115 9.21355 6.36441 9.14029C6.43767 9.06703 6.53702 9.02588 6.64062 9.02588C6.74423 9.02588 6.84358 9.06703 6.91684 9.14029C6.9901 9.21355 7.03125 9.3129 7.03125 9.4165V12.7368C7.03125 15.7524 9.48438 18.2056 12.5 18.2056C15.5156 18.2056 17.9688 15.7524 17.9688 12.7368V9.4165C17.9688 9.3129 18.0099 9.21355 18.0832 9.14029C18.1564 9.06703 18.2558 9.02588 18.3594 9.02588C18.463 9.02588 18.5623 9.06703 18.6356 9.14029C18.7088 9.21355 18.75 9.3129 18.75 9.4165V12.7368C18.75 16.1829 15.9461 18.9868 12.5 18.9868Z" fill="#119498"/>
<path d="M18.3594 9.66043C15.5207 9.66043 11.7594 8.58308 10.7063 8.26316C10.3098 8.74988 9.22344 9.66043 6.64062 9.66043C6.53702 9.66043 6.43767 9.61927 6.36441 9.54602C6.29115 9.47276 6.25 9.3734 6.25 9.2698C6.25 9.1662 6.29115 9.06684 6.36441 8.99359C6.43767 8.92033 6.53702 8.87918 6.64062 8.87918C9.53789 8.87918 10.1883 7.6491 10.1945 7.6366C10.2809 7.46433 10.4844 7.3741 10.666 7.43308C10.7113 7.44754 15.2203 8.87918 18.3594 8.87918C18.463 8.87918 18.5623 8.92033 18.6356 8.99359C18.7088 9.06684 18.75 9.1662 18.75 9.2698C18.75 9.3734 18.7088 9.47276 18.6356 9.54602C18.5623 9.61927 18.463 9.66043 18.3594 9.66043ZM16.7969 11.4671C15.3883 11.4671 14.2664 10.6436 14.2195 10.6085C14.1387 10.5458 14.0857 10.4539 14.0719 10.3526C14.058 10.2513 14.0845 10.1486 14.1456 10.0665C14.2066 9.9845 14.2974 9.92968 14.3985 9.91386C14.4995 9.89804 14.6027 9.92247 14.6859 9.98191C14.7078 9.99793 15.6605 10.6862 16.7965 10.6862C16.9001 10.6862 16.9994 10.7274 17.0727 10.8006C17.146 10.8739 17.1871 10.9732 17.1871 11.0768C17.1871 11.1804 17.146 11.2798 17.0727 11.353C16.9994 11.4263 16.9001 11.4675 16.7965 11.4675L16.7969 11.4671ZM8.20312 11.4671C8.09952 11.4671 8.00017 11.4259 7.92691 11.3527C7.85365 11.2794 7.8125 11.18 7.8125 11.0764C7.8125 10.9728 7.85365 10.8735 7.92691 10.8002C8.00017 10.727 8.09952 10.6858 8.20312 10.6858C9.34687 10.6858 10.3047 9.98855 10.3141 9.98152C10.3975 9.92537 10.4993 9.90351 10.5984 9.92047C10.6975 9.93744 10.7863 9.99193 10.8462 10.0726C10.9062 10.1533 10.9328 10.254 10.9205 10.3538C10.9082 10.4536 10.8579 10.5448 10.7801 10.6085C10.7332 10.6436 9.61211 11.4671 8.20312 11.4671ZM13.6723 16.3499C13.6154 16.35 13.5592 16.3377 13.5075 16.3138C13.4559 16.2899 13.4101 16.2551 13.3734 16.2116C13.291 16.1139 12.9812 15.9593 12.5012 15.9593C12.018 15.9593 11.7121 16.1112 11.625 16.2132C11.5917 16.2523 11.551 16.2845 11.5052 16.3079C11.4594 16.3312 11.4095 16.3453 11.3582 16.3494C11.307 16.3534 11.2555 16.3473 11.2066 16.3314C11.1577 16.3155 11.1125 16.2901 11.0734 16.2567C11.0344 16.2232 11.0023 16.1824 10.9791 16.1366C10.9559 16.0907 10.9419 16.0407 10.938 15.9895C10.9341 15.9382 10.9404 15.8867 10.9565 15.8379C10.9725 15.7891 10.9981 15.7439 11.0316 15.705C11.3102 15.38 11.873 15.1776 12.5016 15.1776C13.1301 15.1776 13.6953 15.3807 13.9707 15.7065C14.0187 15.7634 14.0495 15.8328 14.0594 15.9065C14.0692 15.9803 14.0579 16.0553 14.0266 16.1228C13.9952 16.1903 13.9453 16.2475 13.8826 16.2876C13.8199 16.3277 13.7471 16.349 13.6727 16.3491L13.6723 16.3499Z" fill="#119498"/>
</g>
<defs>
<clipPath id="clip0_4036_13548">
<rect width="25" height="25" fill="white" transform="translate(0 0.13916)"/>
</clipPath>
</defs>
</svg>
