<svg width="25" height="26" viewBox="0 0 25 26" fill="none" xmlns="http://www.w3.org/2000/svg">
<g clip-path="url(#clip0_4771_398)">
<path d="M18.5512 4.43916C18.1471 3.9508 17.6404 3.55737 17.0672 3.28679C16.494 3.01622 15.8682 2.87513 15.2344 2.87354V0.529785H14.4531V3.26416C14.4531 3.36776 14.4943 3.46712 14.5675 3.54037C14.6408 3.61363 14.7401 3.65479 14.8438 3.65479H15.2344C15.7799 3.65608 16.3178 3.78372 16.8057 4.0277C17.2937 4.27168 17.7185 4.62537 18.0469 5.06104C18.0833 5.10955 18.1304 5.14893 18.1847 5.17605C18.2389 5.20317 18.2987 5.21729 18.3594 5.21729C19.8093 5.21884 21.1994 5.7955 22.2247 6.82076C23.2499 7.84601 23.8266 9.23611 23.8281 10.686V24.7485H24.6094V10.686C24.6075 9.06223 23.9744 7.50277 22.8439 6.3371C21.7135 5.17143 20.1741 4.49086 18.5512 4.43916Z" fill="#119498"/>
<path d="M21.0691 12.7767L20.3371 12.5032L19.1652 15.6282C19.1491 15.6717 19.1408 15.7178 19.1406 15.7642V16.8438C19.1392 17.3577 19.0189 17.8643 18.7891 18.3239C18.5067 18.8924 18.3596 19.5185 18.3594 20.1532V24.7485H19.1406V20.1532C19.142 19.6393 19.2624 19.1328 19.4922 18.6731C19.6579 18.3346 19.7762 17.9748 19.8438 17.604C20.1532 18.6169 20.3112 19.6699 20.3125 20.729V24.7485H21.0938V20.7282C21.0905 19.0041 20.7011 17.3025 19.9543 15.7485L21.0691 12.7767ZM10.1562 3.65479C10.2599 3.65479 10.3592 3.61363 10.4325 3.54037C10.5057 3.46712 10.5469 3.36776 10.5469 3.26416V0.529785H9.76562V2.87354C9.13176 2.87513 8.50601 3.01622 7.93279 3.28679C7.35957 3.55737 6.85293 3.9508 6.44883 4.43916C4.82585 4.49086 3.28653 5.17143 2.15606 6.3371C1.0256 7.50277 0.392539 9.06223 0.390625 10.686V24.7485H1.17188V10.686C1.17343 9.23611 1.75009 7.84601 2.77535 6.82076C3.8006 5.7955 5.1907 5.21884 6.64062 5.21729C6.70127 5.21729 6.76108 5.20317 6.81532 5.17605C6.86956 5.14893 6.91674 5.10955 6.95312 5.06104C7.28149 4.62537 7.70631 4.27168 8.19427 4.0277C8.68223 3.78372 9.22007 3.65608 9.76562 3.65479H10.1562Z" fill="#119498"/>
<path d="M5.85938 16.8438V15.7642C5.85942 15.7172 5.85109 15.6707 5.83477 15.6267L4.66289 12.5017L3.93086 12.7751L5.0457 15.747C4.29866 17.3015 3.90931 19.0035 3.90625 20.7282V24.7485H4.6875V20.7282C4.68885 19.6691 4.84681 18.6161 5.15625 17.6032C5.22375 17.9741 5.34205 18.3338 5.50781 18.6724C5.73775 19.1322 5.85808 19.6391 5.85938 20.1532V24.7485H6.64062V20.1532C6.64038 19.5185 6.49331 18.8924 6.21094 18.3239C5.98112 17.8643 5.86079 17.3577 5.85938 16.8438ZM14.0625 22.7954C14.0625 22.6918 14.0213 22.5925 13.9481 22.5192C13.8748 22.4459 13.7755 22.4048 13.6719 22.4048H11.3281C11.2245 22.4048 11.1252 22.4459 11.0519 22.5192C10.9787 22.5925 10.9375 22.6918 10.9375 22.7954V23.186H10.1562V23.9673H10.9375V24.3579C10.9375 24.4615 10.9787 24.5609 11.0519 24.6341C11.1252 24.7074 11.2245 24.7485 11.3281 24.7485H13.6719C13.7755 24.7485 13.8748 24.7074 13.9481 24.6341C14.0213 24.5609 14.0625 24.4615 14.0625 24.3579V23.9673H14.8438V23.186H14.0625V22.7954ZM13.2812 23.9673H11.7188V23.186H13.2812V23.9673ZM14.0625 19.6704C14.0625 19.5668 14.0213 19.4675 13.9481 19.3942C13.8748 19.3209 13.7755 19.2798 13.6719 19.2798H11.3281C11.2245 19.2798 11.1252 19.3209 11.0519 19.3942C10.9787 19.4675 10.9375 19.5668 10.9375 19.6704V20.061H10.1562V20.8423H10.9375V21.2329C10.9375 21.3365 10.9787 21.4359 11.0519 21.5091C11.1252 21.5824 11.2245 21.6235 11.3281 21.6235H13.6719C13.7755 21.6235 13.8748 21.5824 13.9481 21.5091C14.0213 21.4359 14.0625 21.3365 14.0625 21.2329V20.8423H14.8438V20.061H14.0625V19.6704ZM13.2812 20.8423H11.7188V20.061H13.2812V20.8423ZM14.0625 16.5454C14.0625 16.4418 14.0213 16.3425 13.9481 16.2692C13.8748 16.1959 13.7755 16.1548 13.6719 16.1548H11.3281C11.2245 16.1548 11.1252 16.1959 11.0519 16.2692C10.9787 16.3425 10.9375 16.4418 10.9375 16.5454V16.936H10.1562V17.7173H10.9375V18.1079C10.9375 18.2115 10.9787 18.3109 11.0519 18.3841C11.1252 18.4574 11.2245 18.4985 11.3281 18.4985H13.6719C13.7755 18.4985 13.8748 18.4574 13.9481 18.3841C14.0213 18.3109 14.0625 18.2115 14.0625 18.1079V17.7173H14.8438V16.936H14.0625V16.5454ZM13.2812 17.7173H11.7188V16.936H13.2812V17.7173ZM14.4531 13.811H13.7812L13.6602 13.3259C13.6391 13.2413 13.5903 13.1663 13.5217 13.1126C13.453 13.059 13.3684 13.0298 13.2812 13.0298H11.7188C11.6316 13.0298 11.547 13.059 11.4783 13.1126C11.4097 13.1663 11.3609 13.2413 11.3398 13.3259L11.2187 13.811H10.5469V14.5923H11.0234L10.9492 14.8884C10.9349 14.946 10.9338 15.006 10.9461 15.0641C10.9585 15.1221 10.9839 15.1766 11.0204 15.2233C11.0569 15.2701 11.1036 15.3079 11.1569 15.334C11.2102 15.36 11.2688 15.3735 11.3281 15.3735H13.6719C13.7312 15.3735 13.7898 15.36 13.8431 15.334C13.8964 15.3079 13.9431 15.2701 13.9796 15.2233C14.0161 15.1766 14.0415 15.1221 14.0539 15.0641C14.0662 15.006 14.0651 14.946 14.0508 14.8884L13.9766 14.5923H14.4531V13.811ZM11.8285 14.5923L12.0238 13.811H12.9762L13.1715 14.5923H11.8285ZM14.4531 10.686H13.7812L13.6602 10.2009C13.6391 10.1163 13.5903 10.0413 13.5217 9.98762C13.453 9.93397 13.3684 9.90481 13.2812 9.90479H11.7188C11.6316 9.90481 11.547 9.93397 11.4783 9.98762C11.4097 10.0413 11.3609 10.1163 11.3398 10.2009L11.2187 10.686H10.5469V11.4673H11.0234L10.9492 11.7634C10.9349 11.821 10.9338 11.881 10.9461 11.9391C10.9585 11.9971 10.9839 12.0516 11.0204 12.0983C11.0569 12.1451 11.1036 12.1829 11.1569 12.209C11.2102 12.235 11.2688 12.2485 11.3281 12.2485H13.6719C13.7312 12.2485 13.7898 12.235 13.8431 12.209C13.8964 12.1829 13.9431 12.1451 13.9796 12.0983C14.0161 12.0516 14.0415 11.9971 14.0539 11.9391C14.0662 11.881 14.0651 11.821 14.0508 11.7634L13.9766 11.4673H14.4531V10.686ZM11.8285 11.4673L12.0238 10.686H12.9762L13.1715 11.4673H11.8285ZM14.4531 7.56104H13.7812L13.6602 7.07588C13.6391 6.99133 13.5903 6.91627 13.5217 6.86262C13.453 6.80897 13.3684 6.77981 13.2812 6.77979H11.7188C11.6316 6.77981 11.547 6.80897 11.4783 6.86262C11.4097 6.91627 11.3609 6.99133 11.3398 7.07588L11.2187 7.56104H10.5469V8.34229H11.0234L10.9492 8.63838C10.9349 8.69595 10.9338 8.75604 10.9461 8.81408C10.9585 8.87212 10.9839 8.92658 11.0204 8.97335C11.0569 9.02011 11.1036 9.05794 11.1569 9.08396C11.2102 9.10999 11.2688 9.12352 11.3281 9.12354H13.6719C13.7312 9.12352 13.7898 9.10999 13.8431 9.08396C13.8964 9.05794 13.9431 9.02011 13.9796 8.97335C14.0161 8.92658 14.0415 8.87212 14.0539 8.81408C14.0662 8.75604 14.0651 8.69595 14.0508 8.63838L13.9766 8.34229H14.4531V7.56104ZM11.8285 8.34229L12.0238 7.56104H12.9762L13.1715 8.34229H11.8285ZM10.5469 4.43604V5.21729H11.0234L10.9492 5.51338C10.9349 5.57095 10.9338 5.63104 10.9461 5.68908C10.9585 5.74712 10.9839 5.80158 11.0204 5.84835C11.0569 5.89511 11.1036 5.93294 11.1569 5.95896C11.2102 5.98499 11.2688 5.99852 11.3281 5.99854H13.6719C13.7312 5.99852 13.7898 5.98499 13.8431 5.95896C13.8964 5.93294 13.9431 5.89511 13.9796 5.84835C14.0161 5.80158 14.0415 5.74712 14.0539 5.68908C14.0662 5.63104 14.0651 5.57095 14.0508 5.51338L13.9766 5.21729H14.4531V4.43604H13.7812L13.6602 3.95088C13.6391 3.86634 13.5903 3.79127 13.5217 3.73762C13.453 3.68397 13.3684 3.65481 13.2812 3.65479H11.7188C11.6316 3.65481 11.547 3.68397 11.4783 3.73762C11.4097 3.79127 11.3609 3.86634 11.3398 3.95088L11.2187 4.43604H10.5469ZM12.0238 4.43604H12.9762L13.1715 5.21729H11.8285L12.0238 4.43604ZM14.5676 9.62861L16.1301 8.06611L16.6824 8.61846L15.1199 10.181L14.5676 9.62861ZM15.2344 10.686H17.1875V11.4673H15.2344V10.686ZM14.5676 12.5251L15.1199 11.9724L16.6824 13.5349L16.1301 14.0876L14.5676 12.5251ZM8.31758 8.61846L8.86992 8.06611L10.4324 9.62861L9.88008 10.181L8.31758 8.61846ZM7.8125 10.686H9.76562V11.4673H7.8125V10.686ZM8.31758 13.5349L9.88008 11.9724L10.4328 12.5247L8.87031 14.0872L8.31758 13.5349Z" fill="#119498"/>
</g>
<defs>
<clipPath id="clip0_4771_398">
<rect width="25" height="25" fill="white" transform="translate(0 0.13916)"/>
</clipPath>
</defs>
</svg>
