<svg width="24" height="23" viewBox="0 0 24 23" fill="none" xmlns="http://www.w3.org/2000/svg">
<rect x="0.533325" width="23" height="23" rx="11.5" fill="#148A8B"/>
<g clip-path="url(#clip0_148_213)">
<path d="M17.7527 8.45408C17.6145 7.8347 17.2091 7.34646 16.6951 7.17967C15.7561 6.87012 11.9998 6.87012 11.9998 6.87012C11.9998 6.87012 8.24377 6.87012 7.30474 7.16795C6.80061 7.33455 6.38541 7.83482 6.24712 8.45408C6 9.58536 6 11.9315 6 11.9315C6 11.9315 6 14.2895 6.24712 15.4089C6.38554 16.0282 6.79072 16.5165 7.30481 16.6833C8.25366 16.9929 12 16.9929 12 16.9929C12 16.9929 15.7561 16.9929 16.6951 16.6951C17.2092 16.5284 17.6145 16.0401 17.7529 15.4208C17.9999 14.2895 17.9999 11.9434 17.9999 11.9434C17.9999 11.9434 18.0098 9.58534 17.7527 8.45408ZM10.8039 14.099V9.76403L13.9274 11.9315L10.8039 14.099Z" fill="white"/>
</g>
<defs>
<clipPath id="clip0_148_213">
<rect width="12" height="10" fill="white" transform="translate(6 7)"/>
</clipPath>
</defs>
</svg>
