<svg width="46" height="45" viewBox="0 0 46 45" fill="none" xmlns="http://www.w3.org/2000/svg">
<g clip-path="url(#clip0_4920_3201)">
<path d="M42.6523 34.8811C44.2137 34.8811 45.4794 33.6153 45.4794 32.0539C45.4794 30.4926 44.2137 29.2268 42.6523 29.2268C41.0909 29.2268 39.8252 30.4926 39.8252 32.0539C39.8252 33.6153 41.0909 34.8811 42.6523 34.8811Z" fill="#148A8B"/>
<path d="M37.2501 19.8066C36.3236 19.3099 35.273 19.0807 34.1937 19.1762L31.9301 19.3863C31.5385 19.4341 31.1469 19.2144 30.975 18.8515C30.8031 18.4885 30.8795 18.0587 31.1565 17.7722L32.7324 16.139C32.9139 15.9575 33.0667 15.7665 33.21 15.5659C32.303 15.1003 31.3193 14.8026 30.3064 14.6872C28.4314 14.4928 26.5434 14.9045 24.9196 15.862C25.4449 16.7216 26.5433 18.0969 28.2243 18.393C28.7496 18.479 29.0934 18.9756 28.9979 19.5009C28.9215 19.9594 28.5204 20.2841 28.0619 20.2841C28.0046 20.2841 27.9569 20.2841 27.8995 20.2746C24.9005 19.7493 23.3437 17.0654 22.9139 16.1867C21.1966 14.9967 19.1071 14.4675 17.0304 14.6967C13.0762 15.1265 9.85751 18.2975 9.39905 22.2421C9.03611 25.2507 10.23 28.1829 12.5891 30.0836C12.7801 30.2364 12.9043 30.4561 12.933 30.6948C13.5347 34.8114 14.5567 38.2593 16.0753 41.2488C16.4573 42.0225 17.231 42.5 18.1001 42.5C18.5944 42.4985 19.0749 42.3367 19.4693 42.0387C19.8638 41.7407 20.1508 41.3228 20.2873 40.8477L21.4239 35.6996C21.6627 34.6108 22.57 33.8945 23.6684 33.8945H23.678C24.7763 33.8945 25.6741 34.6203 25.9129 35.6996L27.0686 40.905C27.3265 41.8219 28.2243 42.5 29.2367 42.5C30.0963 42.5 30.889 42.0129 31.2711 41.2584C32.7706 38.2784 33.8212 34.7254 34.4038 30.6948C34.4421 30.4561 34.5662 30.2364 34.7572 30.0836C35.9142 29.1576 36.8147 27.9508 37.3732 26.5782C37.9316 25.2055 38.1292 23.7128 37.9473 22.2421C37.8422 21.3921 37.6035 20.5707 37.2501 19.8066ZM18.3293 27.925C17.5795 27.925 16.8604 27.6272 16.3303 27.097C15.8001 26.5668 15.5022 25.8477 15.5022 25.0979C15.5022 24.3481 15.8001 23.629 16.3303 23.0988C16.8604 22.5686 17.5795 22.2708 18.3293 22.2708C19.8957 22.2708 21.166 23.5411 21.166 25.0979C21.166 26.6643 19.8957 27.925 18.3293 27.925Z" fill="#148A8B"/>
<path d="M41.4336 13.8371C40.4754 13.8896 39.5163 13.7521 38.6115 13.4324C37.7067 13.1128 36.874 12.6174 36.1614 11.9747C36.2302 12.0367 36.1691 12.5133 36.1652 12.6175C36.1363 13.3453 36.0015 14.065 35.765 14.754C35.4463 15.6747 34.9516 16.5246 34.3085 17.2564C34.4327 17.2469 34.5664 17.2469 34.7001 17.2469C36.5148 17.2469 38.234 17.9059 39.5807 19.1093C39.4756 17.1705 40.1442 15.2793 41.4336 13.8371ZM13.4909 9.63082L17.1136 6.64706H26.9026C27.4525 6.64706 27.9799 6.4286 28.3688 6.03973C28.7577 5.65087 28.9761 5.12345 28.9761 4.57351C28.9761 4.02358 28.7577 3.49616 28.3688 3.1073C27.9799 2.71843 27.4525 2.49997 26.9026 2.49997H16.3696C15.8887 2.49988 15.4228 2.66702 15.0516 2.97275L11.4288 5.95651H2.59405C2.04411 5.95651 1.5167 6.17498 1.12784 6.56384C0.738971 6.95271 0.520508 7.48012 0.520508 8.03006C0.520508 8.58 0.738971 9.10741 1.12784 9.49628C1.5167 9.88514 2.04411 10.1036 2.59405 10.1036H12.1729C12.6542 10.1036 13.1203 9.93646 13.4909 9.63082Z" fill="#148A8B"/>
<path d="M19.1509 11.9756H27.3362V8.53723C27.1929 8.54678 27.0496 8.55633 26.9064 8.55633H19.1509V11.9756Z" fill="#148A8B"/>
</g>
<defs>
<clipPath id="clip0_4920_3201">
<rect width="45" height="45" fill="white" transform="translate(0.5)"/>
</clipPath>
</defs>
</svg>
