<svg width="46" height="46" viewBox="0 0 46 46" fill="none" xmlns="http://www.w3.org/2000/svg">
<path fill-rule="evenodd" clip-rule="evenodd" d="M5.79623 7.19226C8.08833 6.96471 9.90151 5.15152 10.1291 2.85942C10.3566 5.15152 12.1698 6.96471 14.4619 7.19226C12.1698 7.4198 10.3566 9.23299 10.1291 11.5251C9.90151 9.23299 8.08833 7.4198 5.79623 7.19226ZM6.6464 16.5766H7.63499C7.79816 16.5766 7.95465 16.5118 8.07003 16.3964C8.18541 16.281 8.25023 16.1245 8.25023 15.9614C8.25023 15.7982 8.18541 15.6417 8.07003 15.5263C7.95465 15.411 7.79816 15.3461 7.63499 15.3461H6.6464C6.48323 15.3461 6.32674 15.411 6.21136 15.5263C6.09598 15.6417 6.03116 15.7982 6.03116 15.9614C6.03116 16.1245 6.09598 16.281 6.21136 16.3964C6.32674 16.5118 6.48323 16.5766 6.6464 16.5766ZM5.4597 16.5328C5.29653 16.5328 5.14004 16.5976 5.02466 16.713C4.90928 16.8284 4.84446 16.9849 4.84446 17.1481V18.1367C4.84446 18.2998 4.90928 18.4563 5.02466 18.5717C5.14004 18.6871 5.29653 18.7519 5.4597 18.7519C5.62287 18.7519 5.77936 18.6871 5.89473 18.5717C6.01011 18.4563 6.07493 18.2998 6.07493 18.1367V17.1481C6.07493 16.9849 6.01011 16.8284 5.89473 16.713C5.77936 16.5976 5.62287 16.5328 5.4597 16.5328ZM17.5227 7.80749H18.5114C18.6745 7.80749 18.831 7.74267 18.9464 7.62729C19.0618 7.51191 19.1266 7.35543 19.1266 7.19226C19.1266 7.02909 19.0618 6.8726 18.9464 6.75722C18.831 6.64184 18.6745 6.57702 18.5114 6.57702H17.5227C17.3595 6.57702 17.203 6.64184 17.0877 6.75722C16.9723 6.8726 16.9075 7.02909 16.9075 7.19226C16.9075 7.35543 16.9723 7.51191 17.0877 7.62729C17.203 7.74267 17.3595 7.80749 17.5227 7.80749ZM20.8847 7.80749H21.8733C22.0364 7.80749 22.1929 7.74267 22.3083 7.62729C22.4237 7.51191 22.4885 7.35543 22.4885 7.19226C22.4885 7.02909 22.4237 6.8726 22.3083 6.75722C22.1929 6.64184 22.0364 6.57702 21.8733 6.57702H20.8847C20.7215 6.57702 20.565 6.64184 20.4496 6.75722C20.3343 6.8726 20.2694 7.02909 20.2694 7.19226C20.2694 7.35543 20.3343 7.51191 20.4496 7.62729C20.565 7.74267 20.7215 7.80749 20.8847 7.80749ZM19.698 6.62079C19.8611 6.62079 20.0176 6.55597 20.133 6.44059C20.2484 6.32521 20.3132 6.16873 20.3132 6.00556V5.01696C20.3132 4.93617 20.2973 4.85617 20.2664 4.78152C20.2355 4.70688 20.1901 4.63906 20.133 4.58193C20.0759 4.5248 20.0081 4.47948 19.9334 4.44856C19.8588 4.41764 19.7788 4.40173 19.698 4.40173C19.6172 4.40173 19.5372 4.41764 19.4625 4.44856C19.3879 4.47948 19.3201 4.5248 19.2629 4.58193C19.2058 4.63906 19.1605 4.70688 19.1296 4.78152C19.0987 4.85617 19.0827 4.93617 19.0827 5.01696V6.00556C19.0827 6.16873 19.1476 6.32521 19.2629 6.44059C19.3783 6.55597 19.5348 6.62079 19.698 6.62079ZM19.698 7.76372C19.5348 7.76372 19.3783 7.82854 19.2629 7.94392C19.1476 8.0593 19.0827 8.21578 19.0827 8.37895V9.36755C19.0827 9.44834 19.0987 9.52835 19.1296 9.60299C19.1605 9.67763 19.2058 9.74546 19.2629 9.80259C19.3201 9.85972 19.3879 9.90503 19.4625 9.93595C19.5372 9.96687 19.6172 9.98278 19.698 9.98278C19.7788 9.98278 19.8588 9.96687 19.9334 9.93595C20.0081 9.90503 20.0759 9.85972 20.133 9.80259C20.1901 9.74546 20.2355 9.67763 20.2664 9.60299C20.2973 9.52835 20.3132 9.44834 20.3132 9.36755V8.37895C20.3132 8.21578 20.2484 8.0593 20.133 7.94392C20.0176 7.82854 19.8611 7.76372 19.698 7.76372ZM5.4597 15.3899C5.62287 15.3899 5.77936 15.3251 5.89473 15.2097C6.01011 15.0943 6.07493 14.9378 6.07493 14.7747V13.786C6.07493 13.7052 6.05902 13.6252 6.0281 13.5505C5.99718 13.4759 5.95186 13.4081 5.89473 13.3509C5.8376 13.2938 5.76978 13.2485 5.69514 13.2176C5.62049 13.1867 5.54049 13.1708 5.4597 13.1708C5.3789 13.1708 5.2989 13.1867 5.22426 13.2176C5.14961 13.2485 5.08179 13.2938 5.02466 13.3509C4.96753 13.4081 4.92221 13.4759 4.8913 13.5505C4.86038 13.6252 4.84446 13.7052 4.84446 13.786V14.7747C4.84446 14.9378 4.90928 15.0943 5.02466 15.2097C5.14004 15.3251 5.29653 15.3899 5.4597 15.3899ZM3.28441 16.5766H4.27309C4.43626 16.5766 4.59274 16.5118 4.70812 16.3964C4.8235 16.281 4.88832 16.1245 4.88832 15.9614C4.88832 15.7982 4.8235 15.6417 4.70812 15.5263C4.59274 15.411 4.43626 15.3461 4.27309 15.3461H3.28441C3.12123 15.3461 2.96475 15.411 2.84937 15.5263C2.73399 15.6417 2.66917 15.7982 2.66917 15.9614C2.66917 16.1245 2.73399 16.281 2.84937 16.3964C2.96475 16.5118 3.12123 16.5766 3.28441 16.5766ZM43.2648 27.6222C42.6983 28.989 42.5258 30.5466 42.7472 32.2946C42.8484 33.8969 42.7593 35.3427 42.48 36.6315C42.2369 37.7537 41.8014 39.301 41.1739 39.9759C40.9752 40.1895 40.7461 40.3051 40.5315 40.3066C40.2407 40.3087 40.0402 40.1074 39.9256 39.8558C39.7561 39.4842 39.7533 38.841 39.6744 37.771C39.5904 36.6331 39.4678 35.5168 39.173 34.3774C38.9801 33.6323 38.1979 30.8454 37.2163 30.8013C36.2348 30.8454 35.4526 33.6323 35.2597 34.3774C34.9648 35.5169 34.8422 36.6332 34.7582 37.771C34.6793 38.8409 34.6765 39.4841 34.507 39.8558C34.3923 40.1074 34.1919 40.3086 33.9011 40.3066C33.6864 40.3051 33.4573 40.1895 33.2587 39.9759C32.6312 39.301 32.1957 37.7537 31.9525 36.6315C31.6733 35.3426 31.5842 33.8969 31.6853 32.2946C31.9067 30.5465 31.7342 28.989 31.1677 27.6222C29.9585 24.9973 28.4569 19.0377 32.9684 18.8743C34.7083 18.8114 35.7335 19.6701 37.2163 19.6574C38.699 19.6701 39.7242 18.8114 41.4641 18.8743C45.9756 19.0376 44.474 24.9973 43.2648 27.6222ZM33.4433 25.6706C33.0956 25.0166 32.8842 24.2604 32.7856 23.562C32.6728 22.7637 32.7017 22.0731 32.8399 21.7279C32.8708 21.6529 32.8865 21.5726 32.8862 21.4915C32.8858 21.4104 32.8694 21.3302 32.8379 21.2555C32.8063 21.1808 32.7603 21.1131 32.7025 21.0563C32.6446 20.9995 32.5761 20.9547 32.5008 20.9245C32.4256 20.8944 32.3451 20.8794 32.264 20.8805C32.1829 20.8817 32.1029 20.8989 32.0285 20.9311C31.9541 20.9633 31.8868 21.01 31.8306 21.0684C31.7743 21.1268 31.7302 21.1957 31.7008 21.2713C31.4896 21.7984 31.428 22.7285 31.5695 23.7302C31.6867 24.5603 31.9396 25.4623 32.357 26.2474C32.4342 26.39 32.5647 26.4963 32.72 26.5431C32.8753 26.59 33.0428 26.5736 33.186 26.4975C33.3293 26.4214 33.4367 26.2918 33.4849 26.137C33.533 25.9821 33.518 25.8144 33.4432 25.6706L33.4433 25.6706ZM24.5514 31.8695C23.9849 33.2364 23.8124 34.7938 24.0338 36.5419C24.135 38.1443 24.0458 39.59 23.7666 40.8788C23.5235 42.001 23.088 43.5483 22.4605 44.2232C22.2618 44.4368 22.0327 44.5524 21.8181 44.5539C21.5272 44.556 21.3268 44.3547 21.2122 44.1032C21.0427 43.7316 21.0399 43.0884 20.961 42.0184C20.8769 40.8805 20.7544 39.7642 20.4596 38.6248C20.2667 37.8797 19.4845 35.0927 18.5029 35.0487C17.5214 35.0928 16.7391 37.8797 16.5463 38.6248C16.2513 39.7642 16.1288 40.8805 16.0448 42.0184C15.9659 43.0883 15.9631 43.7316 15.7936 44.1032C15.6789 44.3548 15.4785 44.556 15.1877 44.5539C14.973 44.5524 14.7439 44.4369 14.5453 44.2232C13.9178 43.5483 13.4822 42.001 13.2391 40.8788C12.9598 39.59 12.8708 38.1443 12.9719 36.5419C13.1933 34.7938 13.0208 33.2364 12.4543 31.8695C11.2451 29.2446 9.7434 23.285 14.255 23.1216C15.9949 23.0587 17.0202 23.9174 18.5028 23.9047C19.9856 23.9174 21.0108 23.0587 22.7507 23.1216C27.2622 23.2849 25.7606 29.2446 24.5514 31.8695ZM14.7299 29.918C14.3823 29.2639 14.1708 28.5078 14.0722 27.8093C13.9594 27.011 13.9883 26.3204 14.1265 25.9752C14.1574 25.9002 14.1731 25.8199 14.1728 25.7388C14.1724 25.6577 14.156 25.5775 14.1245 25.5028C14.0929 25.4281 14.0469 25.3604 13.9891 25.3036C13.9312 25.2468 13.8627 25.202 13.7874 25.1719C13.7122 25.1417 13.6317 25.1267 13.5506 25.1279C13.4695 25.129 13.3895 25.1462 13.3151 25.1784C13.2407 25.2106 13.1734 25.2573 13.1172 25.3157C13.0609 25.3741 13.0168 25.4431 12.9874 25.5186C12.7762 26.0458 12.7146 26.9758 12.856 27.9775C12.9733 28.8076 13.2262 29.7096 13.6435 30.4947C13.7208 30.6373 13.8513 30.7436 14.0066 30.7904C14.1619 30.8373 14.3294 30.8209 14.4726 30.7448C14.6159 30.6687 14.7233 30.5392 14.7714 30.3843C14.8196 30.2294 14.8046 30.0618 14.7298 29.9179L14.7299 29.918ZM38.7307 12.9106L37.6651 13.5258L38.7271 15.3653C38.4944 15.7505 38.4727 16.2474 38.7137 16.6648C39.0663 17.2752 39.8469 17.4845 40.4575 17.132C41.0681 16.7795 41.2772 15.9987 40.9247 15.3882C40.6838 14.9708 40.2427 14.7411 39.7927 14.7501L38.7307 12.9106ZM14.2104 21.892C15.4963 21.8454 16.3101 22.1825 17.4929 22.5118C17.5682 22.5327 17.6434 22.5525 17.7188 22.5707L23.7509 18.7433L21.4938 14.8338L3.15811 24.4216C1.55278 25.261 1.0257 27.1977 1.92737 28.7595C2.81595 30.2984 4.77942 30.7808 6.27989 29.8288L10.0076 27.4635C9.89501 26.0248 10.0752 24.5026 10.973 23.3768C11.7778 22.3675 12.9482 21.9378 14.2105 21.892L14.2104 21.892ZM30.1449 13.584C29.6688 14.4085 29.0713 15.0061 28.2468 15.4821L26.9605 16.2247L25.2796 13.3132L26.3567 12.6913C26.79 12.4412 27.104 12.1271 27.3541 11.6939L28.8983 9.01941C29.5424 7.90373 29.8173 6.78603 29.7641 5.49887C29.7063 4.09842 30.408 2.70913 31.6999 1.9632C33.5502 0.89498 35.9381 1.53474 37.0063 3.38501L39.7668 8.16626L33.0385 12.0508L32.0343 10.3114L30.1449 13.5839V13.584ZM31.9777 4.18147C32.076 4.31092 32.2217 4.39603 32.3827 4.41806C32.5438 4.4401 32.7069 4.39727 32.8364 4.29898C33.0525 4.13458 33.3159 4.04441 33.5873 4.0419C33.8531 4.03892 34.118 4.11819 34.3405 4.28018C34.4717 4.37247 34.634 4.40954 34.7923 4.38342C34.9507 4.3573 35.0924 4.27007 35.1871 4.1405C35.2817 4.01093 35.3218 3.84938 35.2985 3.6906C35.2753 3.53182 35.1907 3.38851 35.0628 3.29149C34.6304 2.97546 34.1074 2.80768 33.5718 2.81319C33.0375 2.81935 32.5195 2.99808 32.0951 3.3227C31.9657 3.42101 31.8806 3.56671 31.8586 3.72776C31.8365 3.8888 31.8794 4.052 31.9776 4.18147H31.9777ZM33.7876 13.3485C34.1506 13.9774 34.9598 14.1942 35.5888 13.8311L40.0331 11.2651C40.6621 10.9019 40.8789 10.0928 40.5158 9.46388L40.3819 9.23202L33.6537 13.1166L33.7876 13.3485ZM23.8081 13.2256C23.5911 12.8498 23.1062 12.7198 22.7303 12.9368C22.3545 13.1538 22.2246 13.6388 22.4415 14.0145L24.9342 18.332C25.1512 18.7079 25.6362 18.8378 26.012 18.6208C26.3878 18.4038 26.5178 17.919 26.3008 17.5431L23.8081 13.2256Z" fill="#148A8B"/>
</svg>
