<svg width="46" height="45" viewBox="0 0 46 45" fill="none" xmlns="http://www.w3.org/2000/svg">
<g clip-path="url(#clip0_4920_3076)">
<path d="M9.81641 31.6406C11.084 31.6406 10.5195 27.4219 13.332 27.4219C16.1445 27.4219 15.5801 31.6406 16.8477 31.6406C18.957 31.6406 21.0664 25.3125 21.0664 21.0938C21.0664 18.3755 19.5659 16.1719 16.8477 16.1719C15.4701 16.1719 14.6087 16.875 13.332 16.875C12.0553 16.875 11.194 16.1719 9.81641 16.1719C7.09813 16.1719 5.59766 18.3755 5.59766 21.0938C5.59766 25.3125 7.70712 31.6406 9.81641 31.6406Z" fill="#148A8B"/>
<path d="M42.9995 22.2205C42.8598 24.3624 42.3412 26.7715 41.5528 28.8747C40.2081 32.4598 38.402 34.2774 36.1836 34.2774C35.6114 34.2774 34.1823 34.1007 33.2867 32.4651C33.0046 31.9491 32.8411 31.4174 32.668 30.8663C32.4939 31.42 32.3305 31.9509 32.0492 32.4651C31.1527 34.1007 29.7245 34.2774 29.1523 34.2774C26.934 34.2774 25.127 32.4598 23.7831 28.8747C23.4799 28.0661 23.2171 27.2127 23 26.3461C22.7829 27.2127 22.5201 28.0661 22.2169 28.8747C20.873 32.4598 19.066 34.2774 16.8477 34.2774C16.2755 34.2774 14.8473 34.1007 13.9508 32.4651C13.6695 31.9509 13.5061 31.42 13.332 30.8663C13.1589 31.4174 12.9954 31.9491 12.7133 32.4651C11.8177 34.1007 10.3886 34.2774 9.81641 34.2774C7.59805 34.2774 5.79189 32.4598 4.44717 28.8747C3.65879 26.7715 3.14023 24.3624 3.00049 22.2205C1.53096 22.8542 0.5 24.3167 0.5 26.0156V35.1563C0.5 37.4344 2.35273 39.2871 4.63086 39.2871H41.3691C43.6473 39.2871 45.5 37.4344 45.5 35.1563V26.0156C45.5 24.3167 44.469 22.8542 42.9995 22.2205Z" fill="#148A8B"/>
<path d="M29.1523 16.1719C26.434 16.1719 24.9335 18.3755 24.9335 21.0938C24.9335 25.3125 27.0429 31.6406 29.1523 31.6406C30.4198 31.6406 29.8554 27.4219 32.6679 27.4219C35.4804 27.4219 34.9159 31.6406 36.1835 31.6406C38.2929 31.6406 40.4023 25.3125 40.4023 21.0938C40.4023 18.3755 38.9018 16.1719 36.1835 16.1719C34.806 16.1719 33.9446 16.875 32.6679 16.875C31.3913 16.875 30.5299 16.1719 29.1523 16.1719ZM14.3335 12.1822C14.8483 12.697 15.683 12.697 16.1979 12.1822C16.6682 11.712 16.7075 10.9754 16.3186 10.459H29.6814C29.0276 11.3272 29.6521 12.5684 30.7344 12.5684C30.9075 12.5686 31.079 12.5346 31.239 12.4683C31.399 12.402 31.5443 12.3048 31.6665 12.1822L33.7759 10.0728C34.2908 9.55803 34.2908 8.72325 33.7759 8.20838L31.6665 6.09901C31.1518 5.58414 30.317 5.58414 29.8021 6.09901C29.3318 6.56931 29.2925 7.30575 29.6814 7.82219H16.3185C16.7074 7.30575 16.6681 6.56922 16.1978 6.09901C15.683 5.58414 14.8482 5.58414 14.3334 6.09901L12.224 8.20838C11.7091 8.72316 11.7091 9.55794 12.224 10.0728L14.3335 12.1822Z" fill="#148A8B"/>
</g>
<defs>
<clipPath id="clip0_4920_3076">
<rect width="45" height="45" fill="white" transform="translate(0.5)"/>
</clipPath>
</defs>
</svg>
