<svg width="46" height="45" viewBox="0 0 46 45" fill="none" xmlns="http://www.w3.org/2000/svg">
<path fill-rule="evenodd" clip-rule="evenodd" d="M22.9986 26.5869C22.9986 26.5869 18.3731 26.5869 18.6506 34.6352C18.9281 42.6836 15.469 43.5931 15.469 43.5931C11.6316 42.4824 11.6169 31.006 11.8742 25.0498C11.9956 22.7445 11.64 20.439 10.8297 18.2774C10.1622 16.4795 9.60402 14.6429 9.15842 12.7775H11.9094L14.1433 15.0117C14.2136 15.0818 14.2997 15.1338 14.3944 15.1634C14.4891 15.1931 14.5896 15.1993 14.6873 15.1818C14.7849 15.1642 14.8769 15.1233 14.9553 15.0625C15.0338 15.0018 15.0964 14.9229 15.1378 14.8328L16.5124 12.4518L17.1659 13.5837C17.2468 13.7245 17.3804 13.8275 17.5373 13.8698C17.6941 13.9122 17.8614 13.8905 18.0022 13.8096L19.8523 12.7414H23.0644C23.2276 12.7414 23.384 12.6766 23.4994 12.5612C23.6148 12.4458 23.6796 12.2894 23.6796 12.1262C23.6796 11.963 23.6148 11.8065 23.4994 11.6911C23.384 11.5758 23.2276 11.5109 23.0644 11.5109H19.6928C19.5855 11.5117 19.4802 11.5407 19.3876 11.5951L17.9212 12.4416L17.0469 10.9274C16.9938 10.833 16.9167 10.7544 16.8234 10.6996C16.7301 10.6447 16.624 10.6155 16.5158 10.6149C16.4076 10.6143 16.3011 10.6423 16.2072 10.6962C16.1134 10.75 16.0354 10.8277 15.9813 10.9215L14.4482 13.577L12.6025 11.7313C12.5453 11.673 12.4771 11.6266 12.4017 11.595C12.3264 11.5635 12.2455 11.5472 12.1638 11.5473H8.89774C5.79414 -4.93708 22.9986 3.63586 22.9986 3.63586C22.9986 3.63586 26.3574 1.96312 29.8389 1.51585V4.33925L27.6045 6.5736C27.5344 6.64386 27.4823 6.73001 27.4527 6.82472C27.4231 6.91943 27.4168 7.01988 27.4344 7.11754C27.452 7.2152 27.4929 7.30717 27.5537 7.38561C27.6144 7.46406 27.6932 7.52666 27.7834 7.56809L30.1644 8.94269L29.0325 9.59616C28.8916 9.67712 28.7887 9.81072 28.7464 9.96756C28.704 10.1244 28.7257 10.2917 28.8066 10.4325L29.8748 12.2826V15.4951C29.8748 15.6583 29.9396 15.8148 30.055 15.9302C30.1703 16.0455 30.3268 16.1104 30.49 16.1104C30.6532 16.1104 30.8097 16.0455 30.925 15.9302C31.0404 15.8148 31.1052 15.6583 31.1052 15.4951V12.1231C31.1045 12.0158 31.0754 11.9105 31.0211 11.8179L30.1746 10.3515L31.6888 9.47725C31.7832 9.42417 31.8618 9.34708 31.9167 9.25379C31.9716 9.16051 32.0008 9.05436 32.0014 8.94612C32.002 8.83788 31.9739 8.73141 31.9201 8.63753C31.8662 8.54364 31.7885 8.46568 31.6947 8.41157L29.0395 6.87858L30.8852 5.03288C30.9435 4.97571 30.9898 4.90745 31.0214 4.83212C31.053 4.75679 31.0692 4.6759 31.0691 4.59422V1.41354C35.942 1.24743 40.3055 4.17981 35.1695 18.273C34.3578 20.436 34.0015 22.7432 34.1229 25.0503C34.3801 31.0068 34.3653 42.4822 30.5281 43.593C30.5281 43.593 27.0689 42.6834 27.3465 34.6351C27.6242 26.5867 22.9986 26.5869 22.9986 26.5869Z" fill="#148A8B"/>
</svg>
