<svg width="46" height="45" viewBox="0 0 46 45" fill="none" xmlns="http://www.w3.org/2000/svg">
<path d="M26.0375 2.60155C21.5024 4.21874 20.075 1.79296 16.2782 2.14452C9.31722 2.79139 5.68909 11.2851 10.2524 16.9101C11.1102 17.9789 11.7571 21.3047 12.2071 22.6055C12.4166 23.1846 12.7985 23.6857 13.3013 24.0414C13.8041 24.3971 14.4037 24.5904 15.0196 24.5953H30.9524C31.5683 24.5904 32.1679 24.3971 32.6707 24.0414C33.1734 23.6857 33.5553 23.1846 33.7649 22.6055C34.2149 21.3047 34.8617 17.9789 35.7196 16.9101C41.3657 9.93514 34.4539 -0.358606 26.0375 2.60155ZM29.8625 5.66014C27.7669 6.84729 25.4081 7.49257 23 7.53749C20.5919 7.49257 18.2331 6.84729 16.1375 5.66014C16.0102 5.55325 15.9248 5.40468 15.8966 5.24082C15.8685 5.07696 15.8992 4.90842 15.9835 4.76511C16.0678 4.6218 16.2002 4.513 16.3571 4.45803C16.514 4.40305 16.6853 4.40546 16.8407 4.46483C21.2844 6.68671 24.6594 6.68671 29.1032 4.46483C29.1816 4.41497 29.2692 4.38106 29.3608 4.36502C29.4524 4.34899 29.5462 4.35116 29.637 4.3714C29.7277 4.39164 29.8136 4.42956 29.8897 4.48299C29.9658 4.53642 30.0306 4.60431 30.0805 4.6828C30.1304 4.76129 30.1643 4.84882 30.1803 4.94041C30.1963 5.03201 30.1942 5.12586 30.1739 5.21661C30.1537 5.30737 30.1158 5.39325 30.0623 5.46935C30.0089 5.54545 29.941 5.61028 29.8625 5.66014ZM20.2227 42.8906H25.8125L26.6703 41.2523L18.936 40.3383C19.2946 41.1187 19.7235 41.9344 20.2227 42.8906ZM30.7977 28.125L29.8485 28.0406L29.9891 26.0156H16.011L16.0602 26.789L15.3571 26.7187C15.1706 26.702 14.9851 26.7599 14.8413 26.8799C14.6976 26.9999 14.6074 27.1721 14.5907 27.3586C14.5739 27.5451 14.6319 27.7306 14.7518 27.8743C14.8718 28.018 15.044 28.1082 15.2305 28.125L30.6992 29.5312C30.8857 29.5443 31.0698 29.4827 31.2108 29.3601C31.3519 29.2375 31.4385 29.0638 31.4516 28.8773C31.4646 28.6908 31.4031 28.5068 31.2805 28.3657C31.1578 28.2246 30.9842 28.138 30.7977 28.125ZM30.7977 31.6406L29.6094 31.5351L29.6586 30.832L16.2571 29.6297L16.3063 30.3328L15.3289 30.2344C15.1425 30.2176 14.9569 30.2756 14.8132 30.3956C14.6695 30.5155 14.5793 30.6877 14.5625 30.8742C14.5457 31.0607 14.6037 31.2462 14.7237 31.3899C14.8437 31.5337 15.0159 31.6238 15.2024 31.6406L30.6711 33.0469C30.8576 33.0636 31.0431 33.0057 31.1868 32.8857C31.3306 32.7657 31.4207 32.5935 31.4375 32.407C31.4543 32.2205 31.3963 32.035 31.2763 31.8913C31.1563 31.7476 30.9842 31.6574 30.7977 31.6406ZM30.1016 35.1562L29.3985 35.0859L29.4477 34.3406L16.5032 33.1664L16.5453 33.8062L16.0391 33.75C15.8526 33.7313 15.6664 33.7875 15.5213 33.9062C15.3763 34.0249 15.2843 34.1963 15.2657 34.3828C15.247 34.5693 15.3032 34.7555 15.4219 34.9006C15.5406 35.0456 15.712 35.1376 15.8985 35.1562L29.961 36.5625C30.1474 36.5811 30.3337 36.5249 30.4787 36.4063C30.6238 36.2876 30.7158 36.1162 30.7344 35.9297C30.7531 35.7432 30.6969 35.5569 30.5782 35.4119C30.4595 35.2668 30.2881 35.1749 30.1016 35.1562ZM28.7094 38.6719L28.0063 38.5875L28.4141 37.807L16.9602 36.668L17.3047 37.3711L16.7563 37.2656C16.5698 37.2432 16.3821 37.2959 16.2344 37.4119C16.0867 37.5279 15.9912 37.6979 15.9688 37.8844C15.9464 38.0708 15.999 38.2586 16.1151 38.4063C16.2311 38.5539 16.401 38.6495 16.5875 38.6719L28.5407 40.0781C28.7271 40.1005 28.9149 40.0479 29.0625 39.9318C29.2102 39.8158 29.3058 39.6458 29.3282 39.4594C29.3505 39.2729 29.2979 39.0851 29.1819 38.9375C29.0658 38.7898 28.8959 38.6942 28.7094 38.6719Z" fill="#148A8B"/>
</svg>
