<svg width="46" height="46" viewBox="0 0 46 46" fill="none" xmlns="http://www.w3.org/2000/svg">
<g clip-path="url(#clip0_4920_3129)">
<path d="M1.89719 23.0922C-0.159048 19.9024 -0.0272378 15.5263 3.16257 14.7355C5.8515 14.0237 6.80053 16.159 9.19948 15.5263C10.7285 15.1309 11.5721 14.2082 13.5492 14.7355C15.21 15.1573 16.08 16.6599 16.1854 18.3207V19.0588H10.8866C10.7703 18.6082 10.5081 18.2086 10.1409 17.9225C9.77375 17.6364 9.32224 17.4798 8.85677 17.4771H7.82865C7.55515 17.4806 7.28501 17.5378 7.03365 17.6457C6.7823 17.7536 6.55464 17.9099 6.3637 18.1057C6.17276 18.3015 6.02226 18.5331 5.92081 18.7871C5.81935 19.0411 5.76893 19.3126 5.77241 19.5861C5.78617 20.1362 6.01442 20.6592 6.40845 21.0434C6.80247 21.4276 7.33106 21.6425 7.88137 21.6423H8.88313C9.3406 21.6355 9.78343 21.4801 10.1448 21.1995C10.5062 20.9189 10.7666 20.5285 10.8866 20.087H16.0536C15.8191 21.1577 15.3902 22.1763 14.7882 23.0922C14.7882 24.2258 14.551 30.8163 10.4912 31.3963C10.4388 31.4042 10.3855 31.4042 10.333 31.3963C8.64587 31.2118 9.30492 28.5228 9.27856 27.0465C9.22584 25.1748 7.45958 25.1748 7.43322 27.0465C7.40686 28.4174 8.03955 31.449 6.27329 31.3963C6.23823 31.3998 6.2029 31.3998 6.16784 31.3963C2.13445 30.7636 1.89719 24.2258 1.89719 23.0922ZM31.1854 23.1186C30.5897 22.1927 30.1697 21.165 29.9464 20.087H35.1134C35.2285 20.5334 35.4868 20.9297 35.8486 21.2154C36.2105 21.501 36.6559 21.6603 37.1169 21.6687H38.1714C38.7215 21.6549 39.2445 21.4267 39.6286 21.0327C40.0128 20.6386 40.2278 20.11 40.2276 19.5597C40.2142 19.0186 39.9933 18.5033 39.6105 18.1205C39.2278 17.7378 38.7125 17.5169 38.1714 17.5035H37.1169C36.6628 17.5087 36.2226 17.6603 35.8616 17.9358C35.5006 18.2113 35.2382 18.5959 35.1134 19.0325H29.841C29.7091 17.0026 30.5 15.21 32.4772 14.7091C35.1397 14.0501 36.1151 16.1854 38.5141 15.5527C40.0431 15.1573 40.8603 14.2346 42.8374 14.7091C44.4982 15.1309 45.3682 16.6335 45.4736 18.3207C45.5316 20.0243 45.052 21.7028 44.1028 23.1186C44.1028 24.2258 43.8392 30.8163 39.7794 31.3963C39.727 31.4042 39.6737 31.4042 39.6213 31.3963C37.9341 31.2381 38.5931 28.5492 38.5668 27.0729C38.5141 25.1748 36.7478 25.1748 36.7214 27.0729C36.6951 28.4174 37.3278 31.449 35.5615 31.4226C35.5265 31.4262 35.4911 31.4262 35.4561 31.4226C31.4227 30.7372 31.2118 24.2522 31.1854 23.1186Z" fill="#148A8B"/>
<path d="M16.5545 23.1186C15.9588 22.1927 15.5388 21.165 15.3155 20.087H20.4561C20.5724 20.5377 20.8346 20.9372 21.2018 21.2233C21.569 21.5094 22.0205 21.666 22.4859 21.6687H23.5141C23.975 21.6603 24.4205 21.501 24.7823 21.2154C25.1441 20.9297 25.4024 20.5334 25.5176 20.087H30.7109C30.4795 21.1669 30.0505 22.1947 29.4455 23.1186C29.4455 24.2258 29.2083 30.8163 25.1221 31.3963C25.0784 31.4018 25.0341 31.4018 24.9903 31.3963C23.3032 31.2381 23.9358 28.5492 23.9358 27.0729C23.8831 25.1749 22.0905 25.1749 22.0905 27.0729C22.0378 28.4174 22.6968 31.449 20.9042 31.4227C20.8779 31.4246 20.8515 31.4246 20.8251 31.4227C16.7917 30.7372 16.5545 24.2522 16.5545 23.1186ZM15.1837 19.0325C15.0518 17.0026 15.8691 15.21 17.8199 14.7355C20.5088 14.0764 21.4578 16.2118 23.8831 15.5791C25.3594 15.1573 26.1766 14.2082 28.1801 14.7091C29.8673 15.1309 30.7109 16.6336 30.8163 18.3207V19.0325H25.5439C25.4166 18.5872 25.1463 18.1963 24.7747 17.9199C24.403 17.6436 23.9508 17.4972 23.4877 17.5035H22.4332C21.9837 17.5143 21.5494 17.6685 21.1937 17.9436C20.838 18.2186 20.5796 18.6002 20.4561 19.0325H15.1837Z" fill="#148A8B"/>
<path fill-rule="evenodd" clip-rule="evenodd" d="M7.82866 18.5316C6.4842 18.5316 6.4842 20.5879 7.82866 20.5879H8.88314C10.2012 20.5879 10.2012 18.5316 8.88314 18.5316H7.82866ZM8.3559 20.1133C7.64413 20.1133 7.64413 19.0589 8.3559 19.0589C9.06768 19.0589 9.04131 20.1133 8.3559 20.1133ZM22.486 18.558C21.1415 18.558 21.1415 20.6142 22.486 20.6142H23.5141C24.8585 20.6142 24.8585 18.558 23.5141 18.558H22.486ZM23.0132 20.1133C22.2751 20.1133 22.3014 19.0589 23.0132 19.0589C23.6986 19.0589 23.6986 20.1133 23.0132 20.1133ZM37.1432 18.558C35.7724 18.558 35.7724 20.6142 37.1432 20.6142H38.1714C39.4895 20.6142 39.4895 18.558 38.1714 18.558H37.1432ZM37.6705 20.1133C36.9323 20.1133 36.9587 19.0589 37.6441 19.0589C38.3559 19.0589 38.3559 20.1133 37.6705 20.1133Z" fill="#148A8B"/>
</g>
<defs>
<clipPath id="clip0_4920_3129">
<rect width="45" height="45" fill="white" transform="translate(0.5 0.5)"/>
</clipPath>
</defs>
</svg>
