<svg width="46" height="46" viewBox="0 0 46 46" fill="none" xmlns="http://www.w3.org/2000/svg">
<path d="M5.77414 9.68492C8.41353 8.72391 11.2009 8.23296 14.0098 8.23438H15.3845C17.9389 8.23438 20.4477 8.92907 22.6379 10.2432C22.8608 10.3761 23.1385 10.3761 23.3614 10.2432C25.5529 8.92893 28.0602 8.23461 30.6155 8.23438H31.9902C34.8076 8.23438 37.5786 8.72235 40.2259 9.68492C41.1522 10.0242 41.9522 10.6392 42.5181 11.4473C43.084 12.2553 43.3885 13.2174 43.3906 14.2039C43.3906 14.8184 43.2746 15.4196 43.0468 15.9898L43.0081 16.0869C42.8133 16.0099 42.6059 15.9698 42.3964 15.9688C41.9499 15.9688 41.5126 16.1502 41.1962 16.4659L40.5781 17.0839V15.9364C40.5776 15.3857 40.3586 14.8577 39.9692 14.4683C39.5798 14.0789 39.0518 13.8599 38.5011 13.8594C37.8043 13.8594 37.1581 14.2053 36.7728 14.784L35.6984 16.3963C35.612 16.1326 35.529 15.8675 35.4256 15.6073C35.0002 14.5456 33.987 13.8594 32.8438 13.8594C31.7005 13.8594 30.6873 14.5456 30.2612 15.6095C30.226 15.6973 30.2021 15.788 30.1691 15.8766C30.1318 15.774 30.1023 15.6685 30.0608 15.5673C29.7804 14.8509 29.2877 14.2373 28.6489 13.8088C28.015 13.3897 27.2718 13.1666 26.5119 13.1672C25.7521 13.1678 25.0092 13.3922 24.376 13.8123C23.7621 14.2255 23.2834 14.8101 22.9993 15.4934C22.7137 14.8085 22.233 14.2226 21.617 13.8088C20.9831 13.3897 20.2398 13.1666 19.48 13.1672C18.7201 13.1678 17.9773 13.3922 17.3441 13.8123C16.7106 14.2385 16.2214 14.8471 15.9413 15.5574C15.8991 15.6622 15.8682 15.7712 15.8295 15.8773C15.7958 15.7881 15.7719 15.6966 15.736 15.608C15.3127 14.5456 14.2995 13.8594 13.1563 13.8594C12.013 13.8594 10.9998 14.5456 10.5737 15.6095C10.4703 15.8682 10.388 16.1326 10.3016 16.3956L9.22719 14.784C9.03779 14.4992 8.78085 14.2657 8.47929 14.1044C8.17772 13.9431 7.84091 13.8589 7.49891 13.8594C6.94822 13.8599 6.42024 14.0789 6.03084 14.4683C5.64144 14.8577 5.42243 15.3857 5.42188 15.9364V17.0839L4.80383 16.4652C4.48435 16.1487 4.0533 15.9704 3.60359 15.9688C3.38774 15.9688 3.18242 16.013 2.99188 16.0869L2.9532 15.9898C2.7257 15.4219 2.60899 14.8157 2.60938 14.2039C2.61148 13.2174 2.91601 12.2553 3.4819 11.4473C4.04778 10.6392 4.84782 10.0242 5.77414 9.68492ZM40.1 24.3493C40.8408 25.3956 41.2519 26.6395 41.2805 27.9212L40.5275 27.3566C40.4266 26.2812 40.1573 25.2285 39.7295 24.2368C39.849 24.2825 39.9727 24.3219 40.1 24.3493ZM7.32594 28.5392C7.15719 28.7087 6.82813 28.5709 6.82813 28.3339C6.82813 26.6858 7.28094 25.0904 8.13102 23.6884C8.19219 23.6926 8.25195 23.7031 8.31383 23.7031C8.66891 23.7031 9.01484 23.6286 9.33969 23.4985C9.07331 24.2999 8.93751 25.1389 8.9375 25.9834V26.9277L7.32594 28.5392ZM5.4732 27.3566L4.72016 27.9212C4.74816 26.6395 5.15907 25.3955 5.9 24.3493C6.02727 24.3226 6.15031 24.2832 6.27125 24.2368C5.84338 25.2285 5.57408 26.2812 5.4732 27.3566ZM14.637 21.4735C14.6363 21.4735 14.6363 21.4735 14.637 21.4735C14.4789 21.5524 14.3047 21.5936 14.128 21.5938H12.1845C12.0088 21.5938 11.833 21.5523 11.6755 21.4735C11.4861 21.3796 11.3268 21.2345 11.2157 21.0547C11.1046 20.8748 11.0461 20.6675 11.0469 20.4561C11.0469 18.9683 11.3267 17.5128 11.8808 16.1298C12.0903 15.6045 12.5909 15.2656 13.1563 15.2656C13.7216 15.2656 14.2222 15.6045 14.4324 16.1312C14.9842 17.5062 15.2671 18.9744 15.2656 20.4561C15.2656 20.8899 15.0245 21.2802 14.637 21.4735ZM9.87758 21.5277L9.06617 22.0691C8.89265 22.1852 8.69465 22.2596 8.48762 22.2866C8.28059 22.3136 8.07013 22.2924 7.87263 22.2247C7.67513 22.157 7.49594 22.0446 7.34904 21.8962C7.20213 21.7479 7.09148 21.5676 7.0257 21.3695C6.89506 20.977 6.82834 20.566 6.82813 20.1523V15.9364C6.8286 15.7927 6.87519 15.6528 6.96105 15.5376C7.04692 15.4223 7.16751 15.3376 7.30511 15.2959C7.4427 15.2543 7.59002 15.2579 7.72541 15.3062C7.86079 15.3546 7.97709 15.4451 8.05719 15.5645L9.83891 18.2377C9.71001 18.9702 9.64368 19.7124 9.64063 20.4561C9.64063 20.8358 9.7257 21.1986 9.87758 21.5277ZM10.3438 25.9834C10.3438 24.8499 10.6496 23.7622 11.203 22.7877C11.5145 22.9184 11.847 23 12.1845 23H13.1563V24.7944C13.1563 25.3309 13.19 25.8666 13.2491 26.3989C12.8123 27.1246 12.2888 27.7944 11.6902 28.3937C11.5798 28.5035 11.4394 28.5783 11.2866 28.6085C11.1338 28.6387 10.9755 28.6231 10.8316 28.5636C10.6877 28.504 10.5646 28.4033 10.4777 28.274C10.3909 28.1446 10.3443 27.9925 10.3438 27.8368V25.9834ZM14.5625 24.7944V22.9494C14.8058 22.9072 15.0448 22.8418 15.2656 22.7314C15.3823 22.673 15.492 22.6055 15.5968 22.5317C15.8218 22.8559 16.1457 23.0987 16.52 23.2236C16.8769 23.3399 17.2406 23.4341 17.6091 23.5056L17.7427 24.5729C17.4627 25.8227 17.0321 27.0339 16.4602 28.1799C16.3937 28.314 16.2909 28.4268 16.1635 28.5054C16.0361 28.5841 15.8892 28.6255 15.7395 28.625C15.3697 28.625 15.0484 28.3747 14.9591 28.0147C14.6958 26.9615 14.5626 25.88 14.5625 24.7944ZM29.3281 21.4813C29.3286 21.5717 29.3005 21.6599 29.2479 21.7334C29.1952 21.8069 29.1207 21.8619 29.0349 21.8905C27.3986 22.4309 25.6318 22.4307 23.9956 21.8898C23.9101 21.8611 23.8358 21.8062 23.7833 21.7328C23.7308 21.6595 23.7027 21.5715 23.7031 21.4813V19.0555C23.7031 18.0275 23.8965 17.0277 24.2811 16.0756C24.4527 15.6334 24.7592 15.253 25.1614 14.9788C25.5621 14.7139 26.0316 14.5723 26.5119 14.5717C26.9922 14.5711 27.4622 14.7114 27.8635 14.9752C28.2665 15.2454 28.5769 15.6327 28.753 16.0848C29.1348 17.0277 29.3281 18.0275 29.3281 19.0555V21.4813ZM22.2969 21.4813C22.2974 21.5717 22.2693 21.6599 22.2166 21.7334C22.164 21.8069 22.0894 21.8619 22.0037 21.8905C20.3673 22.4309 18.6006 22.4307 16.9644 21.8898C16.8789 21.8611 16.8046 21.8062 16.752 21.7328C16.6995 21.6595 16.6715 21.5715 16.6719 21.4813V19.0555C16.6719 18.0275 16.8652 17.0277 17.2498 16.0756C17.4214 15.6334 17.728 15.253 18.1302 14.9788C18.5308 14.7139 19.0004 14.5723 19.4807 14.5717C19.961 14.5711 20.4309 14.7114 20.8323 14.9752C21.2352 15.2454 21.5457 15.6327 21.7217 16.0848C22.1035 17.0277 22.2969 18.0275 22.2969 19.0555V21.4813ZM19.0477 23.6834C20.0688 23.7308 21.0908 23.6123 22.074 23.3326L21.6634 26.6183C21.6303 26.8798 21.5544 27.1316 21.4363 27.3671C21.2654 27.7088 20.9216 27.9219 20.5391 27.9219C20.1566 27.9219 19.8127 27.7088 19.6419 27.3671C19.5245 27.1321 19.4477 26.8789 19.4148 26.6183L19.0477 23.6834ZM26.5156 23.7031C26.6619 23.7031 26.8067 23.6926 26.9516 23.6855L26.5852 26.6176C26.5522 26.8791 26.4763 27.1309 26.3581 27.3664C26.1873 27.7088 25.8434 27.9219 25.4609 27.9219C25.0784 27.9219 24.7346 27.7088 24.5638 27.3671C24.4462 27.1321 24.3694 26.8789 24.3366 26.6183L23.926 23.3326C24.7655 23.5738 25.6332 23.7031 26.5156 23.7031ZM28.3909 23.5077C28.759 23.4353 29.1225 23.3409 29.4793 23.225C29.8639 23.097 30.1824 22.8488 30.4032 22.5324C30.5073 22.6063 30.617 22.6738 30.7344 22.7321C30.957 22.8384 31.1938 22.9118 31.4375 22.9501V24.7951C31.4375 25.88 31.3039 26.9635 31.0409 28.0161C30.9509 28.3747 30.6303 28.625 30.2598 28.625C29.9532 28.625 29.6769 28.4548 29.5405 28.1799C28.9685 27.0342 28.5378 25.8232 28.258 24.5736L28.3909 23.5077ZM39.1719 20.1523C39.1719 20.5658 39.1051 20.975 38.9743 21.3681C38.9086 21.5664 38.798 21.7468 38.6511 21.8953C38.5042 22.0439 38.3249 22.1564 38.1273 22.2242C37.9297 22.292 37.7191 22.3132 37.512 22.2862C37.3048 22.2591 37.1067 22.1846 36.9331 22.0684L36.1217 21.5277C36.2743 21.1986 36.3594 20.8358 36.3594 20.4561C36.3594 19.7073 36.2863 18.9683 36.1604 18.2384L37.9428 15.5645C38.0229 15.4451 38.1392 15.3546 38.2746 15.3062C38.41 15.2579 38.5573 15.2543 38.6949 15.2959C38.8325 15.3376 38.9531 15.4223 39.0389 15.5376C39.1248 15.6528 39.1714 15.7927 39.1719 15.9364V20.1523ZM34.9531 20.4561C34.9529 20.7578 34.833 21.047 34.6197 21.2603C34.4064 21.4736 34.1171 21.5936 33.8155 21.5938H31.872C31.6963 21.5938 31.5205 21.5523 31.363 21.4735C31.1736 21.3796 31.0143 21.2345 30.9032 21.0547C30.7921 20.8748 30.7336 20.6675 30.7344 20.4561C30.7344 18.9683 31.0142 17.5128 31.5683 16.1298C31.7778 15.6045 32.2784 15.2656 32.8438 15.2656C33.4091 15.2656 33.9097 15.6045 34.1199 16.1312C34.6717 17.5062 34.9546 18.9744 34.9531 20.4561ZM32.8438 24.7944V23H33.8155C34.153 23 34.4855 22.9184 34.797 22.7877C35.3565 23.76 35.6527 24.8615 35.6562 25.9834V27.8368C35.6558 27.9926 35.6093 28.1448 35.5225 28.2742C35.4358 28.4036 35.3127 28.5045 35.1687 28.5641C35.0248 28.6237 34.8664 28.6394 34.7136 28.6092C34.5607 28.579 34.4202 28.5043 34.3098 28.3944C33.7112 27.7949 33.1877 27.1248 32.7509 26.3989C32.81 25.8659 32.8438 25.3302 32.8438 24.7944ZM36.661 23.4985C36.9859 23.6286 37.3311 23.7031 37.6862 23.7031C37.748 23.7031 37.8078 23.6926 37.869 23.6884C38.7209 25.0882 39.1716 26.6952 39.1719 28.3339C39.1719 28.5709 38.8421 28.708 38.6741 28.5399L37.0625 26.9277V25.9834C37.0625 25.1291 36.924 24.293 36.661 23.4985ZM3.59164 19.6595C3.40648 19.0112 3.31253 18.3403 3.3125 17.6661C3.3125 17.4284 3.64227 17.292 3.80961 17.4601L5.42188 19.0723V20.1523C5.42188 20.717 5.51258 21.2759 5.69117 21.8131C5.79734 22.1323 5.96258 22.4171 6.16508 22.6688L6.15664 22.6773C5.94852 22.8854 5.67149 23 5.37758 23C5.13827 22.9992 4.90566 22.9209 4.71462 22.7768C4.52358 22.6326 4.38441 22.4305 4.31797 22.2006L3.59164 19.6595ZM39.0024 37.317C37.6618 37.6148 36.2927 37.7652 34.9194 37.7656H29.7901C27.4128 37.7656 25.1776 36.8403 23.4971 35.1591C23.3627 35.0323 23.1848 34.9616 23 34.9616C22.8152 34.9616 22.6373 35.0323 22.5029 35.1591C21.6785 35.9882 20.6978 36.6455 19.6176 37.093C18.5374 37.5404 17.3791 37.769 16.2099 37.7656H11.0806C9.71024 37.7656 8.33633 37.6145 6.99758 37.317C5.94981 37.0896 5.01198 36.5091 4.34112 35.6728C3.67027 34.8364 3.30713 33.795 3.3125 32.7228C3.3125 31.6407 3.73086 30.6233 4.48742 29.8527L5.57797 29.0349C5.71228 29.3313 5.92899 29.5828 6.20225 29.7595C6.47552 29.9361 6.79383 30.0305 7.11922 30.0313C7.5657 30.0313 8.00305 29.8498 8.31945 29.5341L9.12875 28.7248C9.3008 29.113 9.58163 29.4429 9.93727 29.6748C10.2929 29.9066 10.7081 30.0304 11.1327 30.0313C11.7184 30.0313 12.2696 29.8034 12.6852 29.3886C13.0093 29.0638 13.3116 28.7178 13.5957 28.3578C13.715 28.8361 13.991 29.2608 14.3796 29.564C14.7683 29.8673 15.2473 30.0318 15.7402 30.0313C16.1512 30.0327 16.5543 29.9189 16.9039 29.7029C17.2534 29.487 17.5355 29.1774 17.7181 28.8092C17.9094 28.4274 18.0809 28.0365 18.2427 27.6413C18.2877 27.7602 18.3263 27.8818 18.384 27.9964C18.7946 28.8177 19.6201 29.3281 20.5391 29.3281C21.458 29.3281 22.2835 28.8177 22.6941 27.9957C22.8365 27.7016 22.9394 27.39 23 27.069C23.0647 27.3889 23.1589 27.7011 23.3059 27.9957C23.5046 28.397 23.8119 28.7346 24.1928 28.9702C24.5738 29.2057 25.0131 29.3297 25.4609 29.3281C26.3792 29.3281 27.2047 28.8177 27.6153 27.9964C27.673 27.8818 27.7123 27.7602 27.7573 27.6406C27.9191 28.0358 28.0913 28.4267 28.2826 28.8085C28.4648 29.1768 28.7467 29.4866 29.0962 29.7028C29.4457 29.9189 29.8488 30.0327 30.2598 30.0313C30.7527 30.0318 31.2317 29.8673 31.6204 29.564C32.009 29.2608 32.285 28.8361 32.4043 28.3578C32.6891 28.7178 32.9907 29.0638 33.3155 29.3886C33.7304 29.8034 34.2809 30.0313 34.8673 30.0313C35.2918 30.0304 35.7069 29.9065 36.0624 29.6747C36.4179 29.4428 36.6986 29.1129 36.8705 28.7248L37.6805 29.5348C37.997 29.8498 38.4343 30.0313 38.8801 30.0313C39.5656 30.0313 40.1534 29.6213 40.422 29.0356L41.5126 29.8534C42.2675 30.6174 42.6898 31.6488 42.6875 32.7228C42.6929 33.795 42.3297 34.8364 41.6589 35.6728C40.988 36.5091 40.0502 37.0896 39.0024 37.317ZM42.4084 19.6602L41.6827 22.2006C41.6161 22.4305 41.4767 22.6326 41.2856 22.7767C41.0945 22.9208 40.8618 22.9991 40.6224 23C40.3285 23 40.0515 22.8854 39.8434 22.6773L39.8349 22.6688C40.0374 22.4178 40.202 22.1323 40.3088 21.8131C40.4872 21.2776 40.5781 20.7168 40.5781 20.1523V19.0723L42.1897 17.4608C42.3591 17.2906 42.6875 17.4284 42.6875 17.6661C42.6875 18.3411 42.5933 19.0119 42.4084 19.6602Z" fill="#148A8B"/>
</svg>
