<svg width="46" height="46" viewBox="0 0 46 46" fill="none" xmlns="http://www.w3.org/2000/svg">
<path d="M18.7812 27.9219C18.7812 31.8154 19.7011 32.8438 20.1875 32.8438C20.2366 32.8438 20.3517 32.8438 20.5079 32.4789C20.6826 32.0716 20.8906 31.1944 20.8906 29.3281C20.8906 28.4802 21.4524 27.2188 23 27.2188C24.5476 27.2188 25.1094 28.4802 25.1094 29.3281C25.1094 31.1944 25.3174 32.0716 25.4921 32.4789C25.6483 32.8438 25.7634 32.8438 25.8125 32.8438C26.2989 32.8438 27.2188 31.8154 27.2188 27.9219C27.2188 25.0242 27.7033 23.2578 28.0926 21.8384C28.3782 20.7969 28.625 19.8975 28.625 18.7812C28.6247 18.6479 28.617 18.5147 28.6017 18.3822C25.7793 21.0951 24.0383 21.84 22.9786 21.8401C22.4106 21.8401 22.0381 21.6265 21.7997 21.3878C21.4906 21.0787 21.0772 20.3848 21.7821 19.2105C21.9789 18.8897 22.2093 18.5907 22.4693 18.3185C23.2538 17.2977 23.9681 16.2248 24.6075 15.1074C24.1923 15.3395 23.7861 15.5876 23.39 15.851C23.2745 15.9279 23.1388 15.9689 23 15.9689C22.8612 15.9689 22.7255 15.9279 22.61 15.851C21.6387 15.2038 20.5346 14.6151 20.2039 14.5653C19.6904 14.7024 17.375 16.4242 17.375 18.7812C17.375 19.8975 17.6218 20.7969 17.9074 21.8384C18.2967 23.2578 18.7812 25.0242 18.7812 27.9219ZM26.6571 5.87223C25.8682 5.22672 25.3396 4.31746 25.1691 3.3125H24.0283C21.6741 6.15743 20.7292 10.0655 20.3654 13.1715C20.8244 13.2377 21.4602 13.5336 22.0544 13.8625C23.2461 10.9883 25.1172 8.05086 26.6571 5.87223ZM23.4622 14.1413C24.1741 13.7148 25.0597 13.2497 25.6472 13.1695C26.6798 11.0786 27.5547 8.91336 28.2645 6.69198C28.135 6.65823 28.008 6.61862 27.8836 6.57315C26.4196 8.63489 24.6289 11.4192 23.4622 14.1413ZM29.3281 5.42188C29.9515 5.42108 30.557 5.21359 31.0498 4.83189C31.5426 4.45019 31.8949 3.91584 32.0516 3.3125H26.6047C26.7613 3.91584 27.1137 4.45019 27.6065 4.83189C28.0993 5.21359 28.7048 5.42108 29.3281 5.42188ZM6.125 33.5469C6.125 37.4404 7.04486 38.4688 7.53125 38.4688C7.58038 38.4688 7.69543 38.4688 7.8517 38.1039C8.02634 37.6966 8.23438 36.8194 8.23438 34.9531C8.23438 34.1052 8.79617 32.8438 10.3438 32.8438C11.8913 32.8438 12.4531 34.1052 12.4531 34.9531C12.4531 36.8194 12.6612 37.6966 12.8358 38.1039C12.9921 38.4688 13.1071 38.4688 13.1562 38.4688C13.6426 38.4688 14.5625 37.4404 14.5625 33.5469C14.5625 30.6492 15.047 28.8828 15.4363 27.4634C15.722 26.4219 15.9688 25.5225 15.9688 24.4062C15.9688 22.046 13.6475 20.3229 13.1379 20.1895C12.82 20.234 11.7099 20.8253 10.7337 21.4757C10.6182 21.5526 10.4825 21.5936 10.3438 21.5936C10.205 21.5936 10.0693 21.5526 9.95378 21.4757C8.98241 20.8285 7.87833 20.2398 7.54769 20.1901C7.03414 20.3274 4.71875 22.0492 4.71875 24.4062C4.71875 25.5225 4.96555 26.4219 5.25119 27.4634C5.64046 28.8828 6.125 30.6492 6.125 33.5469Z" fill="#148A8B"/>
<path d="M23.7031 29.3281C23.6934 29.1834 23.6542 29.0422 23.5878 28.9133C23.5098 28.7707 23.3779 28.625 23 28.625C22.6221 28.625 22.4907 28.7707 22.4122 28.9133C22.3446 29.0449 22.3053 29.1892 22.2969 29.3369C22.2969 29.5787 22.1856 31.4375 22.1856 31.4375C22.1036 32.094 21.9761 32.624 21.8007 33.0328C21.3694 34.0391 20.6854 34.25 20.1875 34.25C19.7412 34.25 18.8966 34.0774 18.2545 32.9215C18.007 32.4538 17.8242 31.9545 17.7112 31.4375H16.0686C16.0002 32.1385 15.9668 32.8425 15.9688 33.5469C15.9688 35.8139 15.6728 37.4962 15.0892 38.5465C14.4471 39.7024 13.6026 39.875 13.1562 39.875C12.6583 39.875 11.9744 39.6641 11.5431 38.6578C11.2092 37.8786 11.0469 36.667 11.0469 34.9531C11.0372 34.8084 10.9979 34.6672 10.9316 34.5383C10.8535 34.3957 10.7217 34.25 10.3438 34.25C9.96582 34.25 9.83398 34.3957 9.75594 34.5383C9.68834 34.6699 9.64905 34.8142 9.64062 34.9619C9.64062 36.667 9.47838 37.879 9.14448 38.6582C8.71312 39.6641 8.02915 39.875 7.53125 39.875C7.08494 39.875 6.24031 39.7024 5.59827 38.5465C5.01468 37.4962 4.71875 35.8139 4.71875 33.5469C4.72067 32.8425 4.68735 32.1385 4.61891 31.4375H4.01562C3.82921 31.4377 3.65049 31.5119 3.51867 31.6437C3.38686 31.7755 3.31271 31.9542 3.3125 32.1406V42.6875H42.6875V32.1406C42.6873 31.9542 42.6131 31.7755 42.4813 31.6437C42.3495 31.5119 42.1708 31.4377 41.9844 31.4375H41.3811C41.3126 32.1385 41.2793 32.8425 41.2812 33.5469C41.2812 35.8139 40.9853 37.4962 40.4017 38.5465C39.7597 39.7024 38.9151 39.875 38.4688 39.875C37.9708 39.875 37.2869 39.6641 36.8556 38.6578C36.5217 37.8786 36.3594 36.667 36.3594 34.9531C36.3497 34.8084 36.3104 34.6672 36.2441 34.5383C36.166 34.3957 36.0342 34.25 35.6562 34.25C35.2783 34.25 35.1465 34.3957 35.0684 34.5383C35.0008 34.6699 34.9616 34.8142 34.9531 34.9619C34.9531 36.667 34.7909 37.879 34.457 38.6582C34.0256 39.6641 33.3417 39.875 32.8438 39.875C32.3974 39.875 31.5528 39.7024 30.9108 38.5465C30.3272 37.4962 30.0312 35.8139 30.0312 33.5469C30.0332 32.8425 29.9999 32.1385 29.9314 31.4375H28.2888C28.1758 31.9545 27.993 32.4538 27.7455 32.9215C27.1034 34.0774 26.2588 34.25 25.8125 34.25C25.3146 34.25 24.6306 34.0391 24.1994 33.0328C24.0242 32.6239 23.8967 32.0947 23.8146 31.4375C23.8146 31.4375 23.7031 29.5731 23.7031 29.3281ZM23.5549 19.2129C23.5374 19.236 22.7896 20.2191 22.8021 20.4C22.9964 20.5421 24.5347 20.4709 28.1282 16.8778C31.2378 13.7679 35.2728 6.18652 36.1812 3.3125H33.4872C33.3304 4.23137 32.8742 5.07261 32.1896 5.70528C31.5051 6.33794 30.6305 6.72653 29.7022 6.81055C28.7548 9.82713 26.7929 15.0499 23.5549 19.2129Z" fill="#148A8B"/>
<path d="M31.4375 33.5469C31.4375 37.4404 32.3574 38.4687 32.8438 38.4687C32.8929 38.4687 33.0079 38.4687 33.1642 38.1039C33.3388 37.6966 33.5469 36.8194 33.5469 34.9531C33.5469 34.1052 34.1087 32.8437 35.6562 32.8437C37.2038 32.8437 37.7656 34.1052 37.7656 34.9531C37.7656 36.8194 37.9737 37.6966 38.1483 38.1039C38.3046 38.4687 38.4196 38.4687 38.4688 38.4687C38.9551 38.4687 39.875 37.4404 39.875 33.5469C39.875 30.6492 40.3595 28.8828 40.7488 27.4634C41.0345 26.4219 41.2812 25.5225 41.2812 24.4062C41.2812 22.046 38.96 20.3229 38.4504 20.1895C38.1325 20.234 37.0224 20.8253 36.0462 21.4757C35.9307 21.5526 35.795 21.5936 35.6562 21.5936C35.5175 21.5936 35.3818 21.5526 35.2663 21.4757C34.2949 20.8285 33.1908 20.2398 32.8602 20.19C32.3466 20.3274 30.0312 22.0492 30.0312 24.4062C30.0312 25.5225 30.278 26.4219 30.5637 27.4634C30.953 28.8828 31.4375 30.6492 31.4375 33.5469Z" fill="#148A8B"/>
</svg>
