<svg width="46" height="45" viewBox="0 0 46 45" fill="none" xmlns="http://www.w3.org/2000/svg">
<path fill-rule="evenodd" clip-rule="evenodd" d="M27.0113 44.9983C26.1781 44.9983 25.8415 43.984 25.642 43.1007C25.5374 42.6401 25.4732 42.0021 25.3994 41.2629C25.1937 39.2124 24.8826 36.1134 23.3542 34.5261C23.2663 34.4356 23.1055 34.2668 23.0018 34.1816C22.898 34.2659 22.7363 34.4312 22.6669 34.5024C21.12 36.0861 20.808 39.2019 20.6006 41.2638C20.5268 42.0021 20.4626 42.6401 20.358 43.1007C20.1585 43.984 19.8219 44.9983 18.9887 44.9983C18.3822 44.9983 17.8514 44.4349 17.2133 43.113C16.5602 41.7586 15.0301 38.5875 15.1742 34.5454C15.1856 34.2193 15.2067 33.8739 15.2287 33.5083C15.3192 32.0098 15.4212 30.3117 14.9527 29.1059C14.5185 27.9905 13.9736 27.2057 13.4472 26.4463C13.1501 26.0191 12.8697 25.6157 12.6254 25.1754C12.0717 24.1796 11.5751 22.8226 12.0936 20.3142C12.643 17.6599 15.3474 14.6909 18.1449 14.6909C18.8867 14.6909 19.5942 14.894 20.2473 15.2939C21.4549 16.033 22.252 16.3345 23 16.3345C23.7479 16.3345 24.5451 16.033 25.7527 15.2939C26.4058 14.894 27.1133 14.6909 27.8551 14.6909C30.6526 14.6909 33.357 17.6599 33.9063 20.3133C34.5734 23.538 33.5926 24.9504 32.5537 26.4463C32.0264 27.2048 31.4814 27.9905 31.0481 29.1059C30.5788 30.3117 30.6816 32.0098 30.7713 33.5083C30.7933 33.8739 30.8143 34.2193 30.8258 34.5454C30.9699 38.5866 29.4397 41.7586 28.7867 43.113C28.1486 44.4349 27.6178 44.9983 27.0113 44.9983ZM15.8176 22.246C15.7484 22.246 15.6798 22.2324 15.6159 22.2058C15.552 22.1793 15.4939 22.1405 15.445 22.0915C15.3961 22.0425 15.3573 21.9844 15.3309 21.9204C15.3045 21.8564 15.291 21.7879 15.2911 21.7187C15.2911 19.9626 16.7202 18.5326 18.4771 18.5326C18.7681 18.5326 19.0045 18.7691 19.0045 19.06C19.0045 19.3518 18.7681 19.5873 18.4771 19.5873C17.3012 19.5873 16.3449 20.5436 16.3449 21.7187C16.3449 22.0105 16.1094 22.246 15.8176 22.246ZM6.61367 20.0619C6.38163 20.0619 6.17773 19.9116 6.10917 19.6901L5.04658 16.2308L1.58808 15.1682C1.48019 15.135 1.38579 15.0681 1.31872 14.9773C1.25165 14.8865 1.21545 14.7766 1.21542 14.6637C1.21542 14.4325 1.3666 14.2277 1.58808 14.1601L5.04658 13.0975L6.10917 9.6381C6.14222 9.53019 6.20903 9.43574 6.29977 9.36864C6.3905 9.30154 6.50037 9.26532 6.61323 9.26532C6.72608 9.26532 6.83595 9.30154 6.92669 9.36864C7.01742 9.43574 7.08423 9.53019 7.11728 9.6381L8.17988 13.0975L11.6393 14.1601C11.8607 14.2277 12.0119 14.4325 12.0119 14.6637C12.0119 14.8957 11.8607 15.0996 11.6393 15.1682L8.17988 16.2308L7.11728 19.6901C7.08422 19.7979 7.01744 19.8922 6.92678 19.9591C6.83612 20.026 6.72636 20.0621 6.61367 20.0619ZM39.3863 20.0619C39.1552 20.0619 38.9504 19.9116 38.8827 19.6901L37.8201 16.2308L34.3607 15.1682C34.2528 15.135 34.1584 15.0681 34.0914 14.9773C34.0243 14.8865 33.9881 14.7766 33.9881 14.6637C33.9881 14.4325 34.1393 14.2277 34.3607 14.1601L37.8201 13.0975L38.8827 9.6381C38.9504 9.41661 39.1552 9.26544 39.3863 9.26544C39.6184 9.26544 39.8223 9.41661 39.8908 9.6381L40.9534 13.0975L44.4119 14.1601C44.6334 14.2277 44.7846 14.4325 44.7846 14.6637C44.7846 14.8957 44.6334 15.0996 44.4119 15.1682L40.9534 16.2308L39.8908 19.6901C39.8576 19.7979 39.7906 19.8922 39.6998 19.9591C39.609 20.0261 39.4991 20.0621 39.3863 20.0619ZM23.0184 10.7983C22.7873 10.7983 22.5825 10.6471 22.5148 10.4256L21.4522 6.96622L17.9929 5.90362C17.885 5.87061 17.7906 5.80387 17.7236 5.71322C17.6565 5.62256 17.6203 5.51278 17.6202 5.40001C17.6202 5.16798 17.7714 4.96407 17.9929 4.89552L21.4522 3.83292L22.5148 0.374424C22.5479 0.26652 22.6147 0.17207 22.7054 0.104967C22.7962 0.037863 22.906 0.00164795 23.0189 0.00164795C23.1317 0.00164795 23.2416 0.037863 23.3324 0.104967C23.4231 0.17207 23.4899 0.26652 23.5229 0.374424L24.5855 3.83292L28.0449 4.89552C28.2664 4.96407 28.4167 5.16798 28.4167 5.40001C28.4167 5.63116 28.2664 5.83595 28.0449 5.90362L24.5855 6.96622L23.5229 10.4256C23.4898 10.5335 23.423 10.628 23.3321 10.6951C23.2413 10.7622 23.1314 10.7984 23.0184 10.7983Z" fill="#148A8B"/>
</svg>
