<svg width="46" height="46" viewBox="0 0 46 46" fill="none" xmlns="http://www.w3.org/2000/svg">
<g clip-path="url(#clip0_5010_318)">
<path d="M45.077 42.5795L39.758 36.2975L40.379 35.528C41.4365 34.2365 41.648 32.4995 40.9325 30.9965C40.217 29.498 38.7455 28.5665 37.085 28.5665H37.0625C36.4415 28.571 35.8475 28.7015 35.312 28.9445C35.276 28.958 35.2445 28.9715 35.2085 28.994C34.349 29.4125 33.6425 30.119 33.215 31.0325C32.513 32.5445 32.738 34.2815 33.809 35.5595L36.176 38.39C35.9465 38.597 35.7125 38.804 35.474 39.0065C31.8695 42.0395 27.41 43.709 22.8965 43.709H22.748L22.5275 43.7045C11.1335 43.4975 1.84999 34.0475 1.84099 22.64C1.83649 17.0015 4.03249 11.696 8.02399 7.709C12.0065 3.731 17.2985 1.5395 22.928 1.5395H22.964C34.3445 1.5575 43.7855 10.8275 44.0105 22.2035C44.069 25.2005 43.5155 28.103 42.359 30.8345C42.3324 30.8971 42.3184 30.9644 42.3178 31.0325C42.3172 31.1005 42.33 31.168 42.3555 31.2311C42.381 31.2942 42.4187 31.3517 42.4664 31.4002C42.5141 31.4487 42.5709 31.4874 42.6335 31.514C42.6961 31.5406 42.7634 31.5546 42.8314 31.5552C42.8995 31.5558 42.967 31.543 43.0301 31.5175C43.0932 31.492 43.1507 31.4543 43.1992 31.4066C43.2477 31.3589 43.2864 31.3021 43.313 31.2395C44.5235 28.373 45.1085 25.3265 45.0455 22.1855C44.8115 10.247 34.907 0.518 22.964 0.5H22.928C17.0195 0.5 11.4665 2.7995 7.28599 6.9755C3.10099 11.1605 0.79699 16.7225 0.80149 22.6445C0.81049 34.6145 10.5485 44.528 22.5095 44.7485L22.739 44.753H22.8965C27.653 44.753 32.3555 43.0025 36.1445 39.8075C36.383 39.6095 36.6125 39.4025 36.842 39.1955L41.9585 45.32C42.0485 45.428 42.179 45.4955 42.3185 45.5045H42.359C42.485 45.5045 42.611 45.4595 42.7055 45.374L45.023 43.3085C45.2345 43.1195 45.257 42.7955 45.077 42.5795ZM39.074 35.492L36.599 32.5625C35.9465 31.7795 35.7035 30.794 35.9195 29.8175C36.2795 29.678 36.6665 29.606 37.0715 29.606H37.085C37.6943 29.6025 38.2918 29.7736 38.807 30.0989C39.3221 30.4243 39.7333 30.8903 39.992 31.442C40.532 32.5805 40.3745 33.8945 39.5735 34.871L39.074 35.492Z" fill="#148A8B"/>
<path d="M25.7225 28.3458C25.7225 26.4513 26.2175 21.9828 26.8115 19.2783C26.357 20.2323 25.232 21.3303 22.955 21.3303C20.678 21.3303 19.553 20.2278 19.0985 19.2783C19.697 21.9828 20.1875 26.4513 20.1875 28.3458V33.5838C20.1875 33.5838 20.2145 34.5693 20.6015 35.3073L20.1785 35.7843C19.9342 36.0346 19.7855 36.3627 19.7584 36.7114C19.7312 37.0601 19.8273 37.4073 20.03 37.6923C20.0345 37.6968 20.039 37.7058 20.0435 37.7103C20.615 38.5023 21.5465 38.9568 22.523 38.9523L23.405 38.9478C24.3725 38.9433 25.295 38.4888 25.8575 37.7013C25.862 37.6968 25.8665 37.6923 25.8665 37.6878C26.285 37.0983 26.222 36.2973 25.718 35.7798L25.2815 35.3298C25.682 34.5873 25.709 33.5838 25.709 33.5838V28.3458H25.7225ZM32.6975 29.8533C32.6795 29.8488 32.6615 29.8398 32.6435 29.8353C31.298 29.4573 29.8085 30.5688 29.3135 32.3148C28.823 34.0608 29.516 35.7888 30.8615 36.1668C31.4825 36.3423 32.135 36.1938 32.7065 35.8203C31.649 34.2768 31.4735 32.3238 32.2745 30.5958C32.4005 30.3303 32.54 30.0873 32.6975 29.8533Z" fill="#148A8B"/>
<path d="M34.286 14.0406C35.123 12.6636 35.7845 11.5791 35.231 10.2336C34.772 9.11308 33.845 8.55508 32.558 8.62258C30.7805 8.70808 29.1875 9.93658 28.589 11.6781L28.5305 11.8491C27.5495 11.1876 25.4975 10.0581 22.955 10.0581C20.561 10.0581 18.356 11.2596 17.3435 11.9076L17.2625 11.6736C16.664 9.93208 15.0665 8.70808 13.2935 8.61808C12.0065 8.55508 11.0795 9.11308 10.6205 10.2291C10.067 11.5746 10.7285 12.6591 11.5655 14.0361C12.4565 15.4941 13.559 17.3121 14.0225 20.3676C14.27 22.0056 13.6445 23.7336 13.0415 25.4076C12.7985 26.0781 12.5465 26.7711 12.3575 27.4461C12.344 27.4911 12.317 27.5721 12.281 27.6756C11.9975 28.5126 11.2415 30.7401 11.5025 32.8191C11.507 32.8416 11.5115 32.8641 11.516 32.8821C11.5385 33.1431 11.5835 33.4086 11.6555 33.6741C12.146 35.4201 13.6355 36.5316 14.9855 36.1536C16.331 35.7756 17.024 34.0521 16.5335 32.3016C16.043 30.5556 14.5535 29.4441 13.2035 29.8221C12.893 29.9076 12.623 30.0696 12.389 30.2811C12.5735 29.2551 12.8705 28.3731 13.0235 27.9231C13.064 27.7971 13.0955 27.7071 13.1135 27.6531C13.298 27.0051 13.532 26.3571 13.7795 25.6686C14.4185 23.9046 15.08 22.0821 14.801 20.2461C14.315 17.0376 13.1135 15.0666 12.236 13.6266C11.4305 12.3036 10.9445 11.5026 11.345 10.5261C11.678 9.72058 12.299 9.35158 13.2575 9.39658C14.7155 9.46858 16.0295 10.4856 16.5245 11.9211L16.7 12.4296C16.7042 12.4424 16.7102 12.4545 16.718 12.4656C16.52 13.2801 15.845 17.0061 19.643 18.3876C19.643 18.3876 19.9175 20.5341 22.9595 20.5341C26.0015 20.5341 26.276 18.3876 26.276 18.3876C30.254 16.9386 29.327 12.9246 29.1785 12.3666L29.3315 11.9166C29.8265 10.4766 31.1405 9.45958 32.5985 9.39208C33.5525 9.34708 34.178 9.71608 34.511 10.5216C34.9115 11.4981 34.4255 12.2991 33.62 13.6221C32.7425 15.0621 31.541 17.0331 31.055 20.2416C30.776 22.0776 31.4375 23.9001 32.0765 25.6641C32.324 26.3526 32.558 27.0006 32.7425 27.6486C32.756 27.7026 32.7875 27.7971 32.8325 27.9186C32.927 28.1976 33.08 28.6431 33.224 29.1876C33.422 28.9716 33.6425 28.7736 33.872 28.5981C33.7595 28.2111 33.6515 27.8916 33.575 27.6711C33.539 27.5631 33.512 27.4866 33.4985 27.4371C33.3095 26.7621 33.0575 26.0691 32.8145 25.3986C32.2115 23.7291 31.586 22.0011 31.8335 20.3586C32.2925 17.3211 33.3995 15.5031 34.286 14.0406Z" fill="#148A8B"/>
</g>
<defs>
<clipPath id="clip0_5010_318">
<rect width="45" height="45" fill="white" transform="translate(0.5 0.5)"/>
</clipPath>
</defs>
</svg>
