<svg width="46" height="46" viewBox="0 0 46 46" fill="none" xmlns="http://www.w3.org/2000/svg">
<g clip-path="url(#clip0_5010_345)">
<path d="M36.6453 28.2186C36.9672 27.5317 37.2516 26.8278 37.4972 26.1101C32.8266 25.9245 32.5589 24.2681 27.9845 24.2681C23.2375 24.2681 23.0127 26.126 17.6633 26.126C12.5889 26.126 12.1699 24.4901 8.22812 24.2898C8.42315 25.7039 8.82366 27.0436 9.4076 28.2186C11.5311 32.4913 17.0324 35.8813 20.3589 37.6231V44.6207C20.3589 45.1061 20.7524 45.4996 21.2378 45.4996H24.7534C25.2388 45.4996 25.6323 45.1061 25.6323 44.6207V37.5516C29.0656 35.6462 34.8832 31.9862 36.6453 28.2186ZM17.7265 30.9978C16.9985 30.9978 16.4082 30.4076 16.4082 29.6795C16.4082 28.9514 16.9985 28.3611 17.7265 28.3611C18.4546 28.3611 19.0449 28.9514 19.0449 29.6795C19.0449 30.4076 18.4546 30.9978 17.7265 30.9978ZM22.9999 33.6345C22.2718 33.6345 21.6816 33.0443 21.6816 32.3162C21.6816 31.5881 22.2718 30.9978 22.9999 30.9978C23.728 30.9978 24.3183 31.5881 24.3183 32.3162C24.3183 33.0443 23.728 33.6345 22.9999 33.6345ZM28.2733 30.9978C27.5452 30.9978 26.955 30.4076 26.955 29.6795C26.955 28.9514 27.5452 28.3611 28.2733 28.3611C29.0014 28.3611 29.5917 28.9514 29.5917 29.6795C29.5917 30.4076 29.0014 30.9978 28.2733 30.9978ZM8.92051 17.4478C8.4329 18.8132 8.16862 20.2385 8.10622 21.6454C12.8281 21.8216 13.0618 23.4893 17.6633 23.4893C22.4103 23.4893 22.6351 21.6314 27.9844 21.6314C33.3408 21.6314 33.4914 23.4594 38.1842 23.4886C38.5888 21.2634 38.5164 19.1088 37.9284 17.1638C41.5123 15.7783 44.0661 12.319 44.111 8.25074L44.1733 1.3869C44.1777 0.898404 43.783 0.5 43.2944 0.5H39.7809C39.2979 0.5 38.9053 0.889879 38.902 1.37292L38.856 8.18271C38.8377 10.4 37.1793 12.2212 35.0381 12.5021C32.5227 10.1478 28.5648 8.67375 22.9998 8.67375C18.04 8.67375 14.466 10.2268 12.062 12.5409H11.538C9.12521 12.5409 7.16369 10.5955 7.14373 8.18271L7.09777 1.37301C7.09452 0.889967 6.702 0.500088 6.21887 0.500088H2.70539C2.2169 0.500088 1.8221 0.898492 1.82649 1.38698L1.88872 8.25082C1.93723 12.6337 4.89718 16.3102 8.92051 17.4478ZM39.1229 39.3403L36.3096 37.4713C35.7033 37.0683 34.8849 37.2334 34.482 37.8398C34.0791 38.4462 34.2441 39.2646 34.8506 39.6675L36.0123 40.4392L34.8465 41.2148C34.0651 41.7348 34.0606 42.888 34.8473 43.4105L37.6606 45.2793C38.2657 45.6814 39.0844 45.5185 39.4881 44.9107C39.891 44.3043 39.726 43.4859 39.1194 43.0831L37.958 42.3115L39.1237 41.536C39.905 41.016 39.9096 39.863 39.1229 39.3403ZM45.4736 35.2499C45.3296 34.5362 44.6343 34.0749 43.9207 34.2183L42.5538 34.4941L42.8296 33.1214C43.0146 32.2008 42.2017 31.3829 41.2765 31.5694L37.9656 32.2371C37.2519 32.381 36.79 33.0763 36.9339 33.79C37.0778 34.5037 37.7729 34.9654 38.4868 34.8217L39.8539 34.546L39.578 35.9188C39.3933 36.8384 40.2049 37.6571 41.1312 37.4708L44.442 36.803C45.1558 36.6589 45.6177 35.9636 45.4736 35.2499ZM11.1534 41.2149L9.98758 40.4393L11.1492 39.6675C11.7557 39.2647 11.9207 38.4463 11.5178 37.8399C11.1149 37.2334 10.2965 37.0686 9.69025 37.4714L6.87699 39.3404C6.09521 39.8599 6.08994 41.013 6.8762 41.5361L8.04188 42.3116L6.88042 43.0832C6.27398 43.486 6.10883 44.3043 6.51172 44.9108C6.91592 45.5192 7.73479 45.6812 8.3393 45.2794L11.1526 43.4106C11.9348 42.8911 11.9391 41.7378 11.1534 41.2149ZM6.42172 35.9187L6.14583 34.5459L7.51296 34.8217C8.22698 34.966 8.92201 34.5036 9.06588 33.7899C9.20976 33.0763 8.7479 32.381 8.03415 32.237L4.72325 31.5693C3.80111 31.3826 2.9847 32.1985 3.17015 33.1213L3.44595 34.494L2.07909 34.2182C1.3656 34.0738 0.670126 34.5362 0.526163 35.2499C0.382199 35.9636 0.84406 36.6589 1.55781 36.803C5.06813 37.5019 4.89534 37.4968 5.1293 37.4968C5.96179 37.4968 6.58546 36.7337 6.42172 35.9187Z" fill="#148A8B"/>
</g>
<defs>
<clipPath id="clip0_5010_345">
<rect width="45" height="45" fill="white" transform="translate(0.5 0.5)"/>
</clipPath>
</defs>
</svg>
