<svg width="46" height="46" viewBox="0 0 46 46" fill="none" xmlns="http://www.w3.org/2000/svg">
<path d="M39.1719 25.8125C39.1709 24.5951 38.8819 23.3952 38.3286 22.3108C37.7753 21.2263 36.9733 20.2882 35.9881 19.573C37.6277 18.3268 38.8347 16.5973 39.439 14.6286C40.0434 12.6598 40.0145 10.5511 39.3565 8.59959C38.6985 6.64812 37.4446 4.95241 35.7715 3.75154C34.0985 2.55068 32.0907 1.90525 30.0312 1.90625H29.3281C28.3957 1.90625 27.5015 2.27665 26.8422 2.93595C26.1829 3.59526 25.8125 4.48947 25.8125 5.42188C25.8125 6.35428 26.1829 7.24849 26.8422 7.9078C27.5015 8.56711 28.3957 8.9375 29.3281 8.9375C29.4622 8.93864 29.5963 8.92923 29.7289 8.90938C29.1188 9.57952 28.7449 10.431 28.6644 11.3338L28.5357 11.3499C28.5037 11.3541 28.472 11.3604 28.4408 11.3689C27.1403 11.7226 25.9448 12.3861 24.9566 13.3024C23.9684 14.2188 23.2168 15.3609 22.7662 16.6311C22.3155 17.9012 22.1791 19.2616 22.3687 20.5959C22.5584 21.9302 23.0683 23.1988 23.855 24.293C23.556 25.7776 23.7005 27.3173 24.2705 28.7203C24.8405 30.1233 25.8108 31.3275 27.0605 32.1828C26.828 33.3281 26.3083 34.3956 25.5502 35.285L25.4877 35.3553C24.0768 34.5952 22.4928 34.2144 20.8906 34.25C19.2826 34.2133 17.6929 34.5972 16.2788 35.3638L16.2317 35.2977C15.1471 34.0332 14.5545 32.4201 14.5627 30.7542C14.5708 29.0883 15.1791 27.4812 16.276 26.2273L17.4186 24.9216C18.3498 23.8577 18.9954 22.5746 19.2951 21.1928C19.5947 19.811 19.5384 18.3757 19.1316 17.0216C18.7248 15.6675 17.9807 14.4389 16.9691 13.451C15.9575 12.4632 14.7116 11.7484 13.3482 11.3738L13.1141 11.3035C13.0275 10.4129 12.6551 9.57425 12.0523 8.91289C12.1851 8.93157 12.3191 8.9398 12.4531 8.9375C13.3855 8.9375 14.2797 8.56711 14.939 7.9078C15.5984 7.24849 15.9688 6.35428 15.9688 5.42188C15.9688 4.48947 15.5984 3.59526 14.939 2.93595C14.2797 2.27665 13.3855 1.90625 12.4531 1.90625H11.75C9.13928 1.90625 6.63548 2.94336 4.78942 4.78942C2.94336 6.63548 1.90625 9.13928 1.90625 11.75C1.90625 14.3607 2.94336 16.8645 4.78942 18.7106C6.63548 20.5566 9.13928 21.5938 11.75 21.5938C12.6565 21.5968 13.5291 21.2491 14.1851 20.6235C14.8411 19.9979 15.2298 19.1428 15.2697 18.2372C15.3097 17.3316 14.9979 16.4456 14.3995 15.7646C13.8012 15.0836 12.9626 14.6604 12.0594 14.5836C12.5309 14.0621 12.8627 13.4299 13.0241 12.7456C14.1511 13.0642 15.1793 13.6627 16.0128 14.4856C16.8462 15.3084 17.458 16.3288 17.791 17.4517C18.124 18.5745 18.1674 19.7634 17.9173 20.9076C17.6672 22.0518 17.1316 23.1141 16.3604 23.9956L15.2178 25.3006C13.9052 26.8002 13.174 28.7208 13.1569 30.7136C13.1399 32.7065 13.8382 34.6393 15.125 36.1611L15.1883 36.2504C14.8023 36.6625 14.5798 37.2012 14.5625 37.7656C14.5625 39.2717 16.2711 40.5535 18.6673 41.0541L19.8732 43.4652C19.9677 43.6541 20.113 43.8129 20.2926 43.9239C20.4723 44.035 20.6794 44.0938 20.8906 44.0938C21.1019 44.0938 21.3089 44.035 21.4886 43.9239C21.6683 43.8129 21.8135 43.6541 21.908 43.4652L23.1139 41.0541C25.5102 40.5535 27.2188 39.2717 27.2188 37.7656C27.2025 37.1961 26.9772 36.6525 26.5859 36.2384L26.6077 36.2138C27.4302 35.2533 28.0232 34.1181 28.3416 32.8944C29.5181 33.4108 30.8047 33.6256 32.0851 33.5194C33.3655 33.4132 34.5992 32.9894 35.6745 32.2862C36.7498 31.5831 37.6328 30.6229 38.2434 29.4925C38.8541 28.3621 39.1732 27.0973 39.1719 25.8125ZM23.6919 19.4246C23.6938 17.9115 24.1891 16.4403 25.1027 15.2341C26.0163 14.0279 27.2983 13.1525 28.7544 12.7407C28.9158 13.4269 29.2487 14.061 29.7219 14.5836C29.1561 14.6292 28.61 14.8121 28.131 15.1167C27.652 15.4212 27.2546 15.8381 26.9733 16.331C26.692 16.824 26.5353 17.3782 26.5168 17.9455C26.4983 18.5128 26.6186 19.0761 26.8672 19.5863C25.823 20.3543 24.9875 21.3712 24.4365 22.5444C23.9481 21.5769 23.6931 20.5084 23.6919 19.4246ZM31.4375 32.1406C30.4454 32.1402 29.4676 31.9046 28.5842 31.453C27.5426 30.9229 26.6673 30.116 26.0543 29.121C25.4413 28.1259 25.1143 26.9812 25.1094 25.8125V25.7886C25.1141 24.538 25.4893 23.3169 26.1875 22.2794C26.8857 21.2419 27.8756 20.4345 29.0324 19.9592C30.1891 19.4839 31.4607 19.362 32.6866 19.6089C33.9126 19.8558 35.0379 20.4603 35.9205 21.3463C36.8032 22.2322 37.4035 23.3598 37.6457 24.5867C37.888 25.8136 37.7613 27.0847 37.2816 28.2397C36.8019 29.3946 35.9909 30.3815 34.9507 31.0758C33.9106 31.7701 32.6881 32.1406 31.4375 32.1406ZM43.0145 35.7266L38.6705 31.3827C38.1443 32.0646 37.5249 32.6694 36.8305 33.1791L41.1955 37.5448C41.4373 37.7826 41.7633 37.9152 42.1024 37.9138C42.4416 37.9124 42.7664 37.7771 43.0063 37.5374C43.2461 37.2976 43.3816 36.9728 43.3831 36.6336C43.3846 36.2945 43.2521 35.9685 43.0145 35.7266Z" fill="#148A8B"/>
<path d="M31.4375 30.7344C34.1558 30.7344 36.3594 28.5308 36.3594 25.8125C36.3594 23.0942 34.1558 20.8906 31.4375 20.8906C28.7192 20.8906 26.5156 23.0942 26.5156 25.8125C26.5156 28.5308 28.7192 30.7344 31.4375 30.7344Z" fill="#148A8B"/>
</svg>
