<svg width="46" height="45" viewBox="0 0 46 45" fill="none" xmlns="http://www.w3.org/2000/svg">
<g clip-path="url(#clip0_5010_323)">
<path d="M12.6875 41.25C8.03562 41.25 4.25 36.6244 4.25 30.9375C4.25 25.2506 8.03562 20.625 12.6875 20.625C17.3394 20.625 21.125 25.2506 21.125 30.9375C21.125 36.6244 17.3394 41.25 12.6875 41.25ZM12.6875 24.375C10.1469 24.375 8 27.3806 8 30.9375C8 34.4944 10.1469 37.5 12.6875 37.5C15.2281 37.5 17.375 34.4944 17.375 30.9375C17.375 27.3806 15.2281 24.375 12.6875 24.375Z" fill="#148A8B"/>
<path d="M13.5688 39.9189L13.4 39.3189C13.1563 39.3564 12.9313 39.3752 12.6875 39.3752C9.06875 39.3752 6.125 35.6064 6.125 30.9377C6.125 27.9377 7.34375 25.2939 9.18125 23.8314C9.125 23.6252 8.99375 23.4564 8.825 23.3252L7.56875 22.2752C6.89375 21.7127 5.99375 21.4689 5.13125 21.6002C4.26875 21.7127 3.51875 22.2002 3.03125 22.9127C1.38125 25.3502 0.5 28.3127 0.5 31.4627C0.5 37.8752 4.3625 43.5377 9.70625 44.9064C10.1695 45.0236 10.6533 45.0338 11.1211 44.9364C11.5889 44.8389 12.0283 44.6363 12.4063 44.3439C13.175 43.7439 13.625 42.8252 13.625 41.8314V40.2752C13.625 40.1627 13.6063 40.0314 13.5688 39.9189Z" fill="#148A8B"/>
<path d="M2.375 32.8125C1.87772 32.8125 1.40081 32.615 1.04917 32.2633C0.697544 31.9117 0.5 31.4348 0.5 30.9375V25.9931C0.501424 23.7455 0.974623 21.5233 1.88899 19.4701C2.80335 17.4169 4.13852 15.5784 5.80813 14.0738C7.08771 12.9218 8.11097 11.5139 8.81157 9.94117C9.51217 8.36846 9.87447 6.66608 9.875 4.94438V1.875C9.875 1.37772 10.0725 0.900806 10.4242 0.549175C10.7758 0.197544 11.2527 0 11.75 0C12.2473 0 12.7242 0.197544 13.0758 0.549175C13.4275 0.900806 13.625 1.37772 13.625 1.875V4.94438C13.6236 7.19197 13.1504 9.41424 12.236 11.4674C11.3216 13.5206 9.98648 15.3591 8.31688 16.8638C7.03729 18.0157 6.01403 19.4236 5.31343 20.9963C4.61283 22.569 4.25053 24.2714 4.25 25.9931V30.9375C4.25 31.4348 4.05246 31.9117 3.70083 32.2633C3.34919 32.615 2.87228 32.8125 2.375 32.8125ZM24.875 30.9375C24.875 25.2506 28.6606 20.625 33.3125 20.625C37.9644 20.625 41.75 25.2506 41.75 30.9375C41.75 36.6244 37.9644 41.25 33.3125 41.25C28.6606 41.25 24.875 36.6244 24.875 30.9375ZM28.625 30.9375C28.625 34.4944 30.7719 37.5 33.3125 37.5C35.8531 37.5 38 34.4944 38 30.9375C38 27.3806 35.8531 24.375 33.3125 24.375C30.7719 24.375 28.625 27.3806 28.625 30.9375Z" fill="#148A8B"/>
<path d="M32.375 40.2752V41.8314C32.375 42.8252 32.825 43.7439 33.5937 44.3439C33.9717 44.6363 34.4111 44.8389 34.8789 44.9364C35.3467 45.0338 35.8305 45.0236 36.2938 44.9064C41.6375 43.5377 45.5 37.8752 45.5 31.4627C45.5 28.3127 44.6187 25.3502 42.9688 22.9127C42.4812 22.2002 41.7313 21.7127 40.8688 21.6002C40.0063 21.4689 39.1062 21.7127 38.4312 22.2752L37.175 23.3252C37.0062 23.4564 36.875 23.6252 36.8188 23.8314C38.6563 25.2939 39.875 27.9377 39.875 30.9377C39.875 35.6064 36.9313 39.3752 33.3125 39.3752C33.0688 39.3752 32.8438 39.3564 32.6 39.3189L32.4313 39.9189C32.3938 40.0314 32.375 40.1627 32.375 40.2752Z" fill="#148A8B"/>
<path d="M43.625 32.8125C43.1277 32.8125 42.6508 32.615 42.2992 32.2633C41.9475 31.9117 41.75 31.4348 41.75 30.9375V25.9931C41.75 22.515 40.2687 19.1869 37.6831 16.8619C36.0133 15.3578 34.678 13.5197 33.7636 11.4668C32.8492 9.41384 32.3761 7.19175 32.375 4.94438V1.875C32.375 1.37772 32.5725 0.900806 32.9242 0.549175C33.2758 0.197544 33.7527 0 34.25 0C34.7473 0 35.2242 0.197544 35.5758 0.549175C35.9275 0.900806 36.125 1.37772 36.125 1.875V4.94438C36.125 8.4225 37.6063 11.7506 40.1919 14.0756C41.8617 15.5797 43.197 17.4178 44.1114 19.4707C45.0258 21.5237 45.4989 23.7458 45.5 25.9931V30.9375C45.5 31.4348 45.3025 31.9117 44.9508 32.2633C44.5992 32.615 44.1223 32.8125 43.625 32.8125Z" fill="#148A8B"/>
</g>
<defs>
<clipPath id="clip0_5010_323">
<rect width="45" height="45" fill="white" transform="translate(0.5)"/>
</clipPath>
</defs>
</svg>
