<svg width="46" height="46" viewBox="0 0 46 46" fill="none" xmlns="http://www.w3.org/2000/svg">
<g clip-path="url(#clip0_5010_313)">
<path fill-rule="evenodd" clip-rule="evenodd" d="M23.2637 30.5586H22.2969C22.0332 30.5586 21.7695 30.3828 21.6816 30.207L20.3633 26.9551C20.2754 26.6914 20.2754 26.5156 20.3633 26.3398C20.4512 26.1641 20.7148 26.0762 20.8906 26.0762H24.6699C24.8457 26.0762 25.1094 26.1641 25.1973 26.3398C25.2852 26.5156 25.2852 26.6914 25.1973 26.9551L23.8789 30.207C23.791 30.3828 23.5273 30.5586 23.2637 30.5586ZM21.5059 44.6211H21.3301C21.0664 44.5332 20.8906 44.1816 20.9785 43.8301L22.209 39.6113C22.2969 39.3477 22.6484 39.1719 23 39.2598C23.2637 39.3477 23.4395 39.6992 23.3516 39.9629L22.1211 44.1816C22.0332 44.4453 21.7695 44.6211 21.5059 44.6211Z" fill="#148A8B"/>
<path fill-rule="evenodd" clip-rule="evenodd" d="M22.8242 40.4902C22.4727 40.4902 22.209 40.2266 22.209 39.875V29.9434C22.209 29.5918 22.4727 29.3281 22.8242 29.3281C23.0879 29.3281 23.4395 29.5918 23.4395 29.9434V39.875C23.4395 40.2266 23.0879 40.4902 22.8242 40.4902Z" fill="#148A8B"/>
<path fill-rule="evenodd" clip-rule="evenodd" d="M24.0547 44.6211C23.791 44.6211 23.5273 44.4453 23.4394 44.1816L22.209 39.9629C22.1211 39.6992 22.2969 39.3477 22.6484 39.2598C22.9121 39.1719 23.2637 39.3477 23.3516 39.6113L24.582 43.8301C24.7578 44.1816 24.4941 44.5332 24.2305 44.6211H24.0547ZM21.2422 27.3066C21.0664 27.3066 20.8906 27.2188 20.8027 27.1309L17.1113 23.3516C16.8476 23.0879 16.9355 22.6484 17.1113 22.4727C17.375 22.209 17.7266 22.209 17.9902 22.4727L21.6816 26.252C21.9453 26.5156 21.9453 26.8672 21.6816 27.1309C21.5937 27.2188 21.418 27.3066 21.2422 27.3066ZM24.3184 27.3066C24.1426 27.3066 23.9668 27.2188 23.8789 27.1309C23.6152 26.8672 23.6152 26.5156 23.8789 26.252L27.5703 22.4727C27.834 22.209 28.1855 22.209 28.4492 22.4727C28.7129 22.6484 28.7129 23.0879 28.4492 23.3516L24.7578 27.1309C24.6699 27.2188 24.4941 27.3066 24.3184 27.3066ZM22.8242 19.5723C21.1543 19.5723 19.8359 18.2539 19.8359 16.584C19.8359 14.9141 21.1543 13.5957 22.8242 13.5957C24.4062 13.5957 25.7246 14.9141 25.7246 16.584C25.7246 18.2539 24.4062 19.5723 22.8242 19.5723ZM16.1445 21.2422C14.9141 21.2422 13.8594 20.2754 13.8594 18.957C13.8594 17.7266 14.9141 16.6719 16.1445 16.6719C17.4629 16.6719 18.4297 17.7266 18.4297 18.957C18.4297 20.2754 17.4629 21.2422 16.1445 21.2422ZM29.416 16.9355C28.2734 16.9355 27.3066 15.8809 27.3066 14.7383C27.3066 13.5078 28.2734 12.541 29.416 12.541C30.6465 12.541 31.6133 13.5078 31.6133 14.7383C31.6133 15.8809 30.6465 16.9355 29.416 16.9355ZM23.1758 9.28906C21.7695 9.28906 20.7148 8.23438 20.7148 6.82812C20.7148 6.47656 20.8027 6.03711 20.9785 5.77344C21.0664 5.42188 21.5059 5.33398 21.7695 5.42188C22.1211 5.59766 22.209 5.94922 22.0332 6.30078C21.9453 6.47656 21.9453 6.65234 21.9453 6.82812C21.9453 7.53125 22.4726 8.05859 23.1758 8.05859C23.6152 8.05859 23.9668 7.88281 24.2305 7.53125C24.4062 7.26758 24.7578 7.17969 25.0215 7.35547C25.2851 7.53125 25.373 7.88281 25.1973 8.23438C24.7578 8.9375 23.9668 9.28906 23.1758 9.28906ZM10.5195 45.5C10.2559 45.5 9.99218 45.3242 9.90429 45.1484C8.32226 41.8086 7.17968 36.0957 6.91601 30.1191C6.65234 23.7031 7.44335 17.8145 9.02538 14.123C9.8164 12.3652 10.4316 11.1348 10.959 10.2559C12.2773 7.70703 12.7168 6.91602 12.7168 1.11523C12.7168 0.763672 12.9805 0.5 13.332 0.5C13.6836 0.5 13.9473 0.763672 13.9473 1.11523C13.9473 7.17969 13.5078 8.14648 12.0137 10.7832C11.5742 11.75 10.959 12.8926 10.168 14.6504C6.82812 22.1211 7.79492 37.8535 11.0469 44.6211C11.2226 44.8848 11.0469 45.2363 10.7832 45.4121C10.6953 45.5 10.6074 45.5 10.5195 45.5ZM35.4805 45.5C35.3926 45.5 35.3047 45.5 35.2168 45.4121C34.9531 45.2363 34.7773 44.8848 34.9531 44.6211C38.2051 37.8535 39.1719 22.1211 35.832 14.6504C35.041 12.8926 34.4258 11.75 33.9863 10.7832C32.4922 8.14648 32.0527 7.17969 32.0527 1.11523C32.0527 0.763672 32.3164 0.5 32.668 0.5C33.0195 0.5 33.2832 0.763672 33.2832 1.11523C33.2832 6.91602 33.7227 7.70703 35.041 10.2559C35.5684 11.1348 36.1836 12.3652 36.9746 14.123C38.5566 17.8145 39.3477 23.7031 39.084 30.1191C38.8203 36.0957 37.6777 41.8086 36.0957 45.1484C36.0078 45.3242 35.7441 45.5 35.4805 45.5ZM28.2734 27.2188C27.5703 27.2188 27.043 26.6035 27.043 25.9004C27.043 25.1973 27.5703 24.6699 28.2734 24.6699C28.9766 24.6699 29.5918 25.1973 29.5918 25.9004C29.5918 26.6035 28.9766 27.2188 28.2734 27.2188ZM17.2871 27.2188C16.584 27.2188 15.9687 26.6035 15.9687 25.9004C15.9687 25.1973 16.584 24.6699 17.2871 24.6699C17.9902 24.6699 18.5176 25.1973 18.5176 25.9004C18.5176 26.6035 17.9902 27.2188 17.2871 27.2188Z" fill="#148A8B"/>
</g>
<defs>
<clipPath id="clip0_5010_313">
<rect width="45" height="45" fill="white" transform="translate(0.5 0.5)"/>
</clipPath>
</defs>
</svg>
