<svg width="46" height="46" viewBox="0 0 46 46" fill="none" xmlns="http://www.w3.org/2000/svg">
<g clip-path="url(#clip0_5010_330)">
<path d="M45.5 19.3075C45.5 16.6285 44.0474 14.2837 41.8894 13.0151C41.8939 13.1203 41.8962 13.2256 41.8965 13.3308C41.8965 14.2522 41.7362 15.1382 41.4402 15.9606C42.3167 16.8081 42.8632 17.9948 42.8632 19.3075C42.8632 20.5656 42.3438 21.7879 41.438 22.6611L40.7901 23.2858C40.3086 22.9833 39.7418 22.7839 39.1227 22.7093C38.0174 22.5761 36.8255 22.8394 35.7669 23.4507C34.7082 24.0619 33.8843 24.9624 33.4469 25.9863C32.961 27.1238 33.0016 28.329 33.558 29.2929C34.1144 30.2568 35.138 30.8945 36.366 31.0424C37.4714 31.1756 38.6632 30.9123 39.722 30.3011C40.7807 29.6899 41.6046 28.7894 42.0419 27.7655C42.3675 27.0035 42.4554 26.2114 42.3116 25.4815L43.2681 24.5596C44.6865 23.192 45.5 21.2777 45.5 19.3075Z" fill="#148A8B"/>
<path d="M39.2598 13.3311C39.2598 10.8499 37.4829 8.75647 35.0347 8.35323C34.6856 8.29592 34.3362 8.24116 33.9863 8.18896V10.1681C33.9863 12.3489 32.2121 14.1232 30.0312 14.1232H28.2734V15.881C28.2734 18.0618 26.4992 19.8361 24.3184 19.8361H21.6816C19.5008 19.8361 17.7266 18.0618 17.7266 15.881V14.1232H15.9688C13.7879 14.1232 12.0137 12.3489 12.0137 10.1681V8.18896C11.6638 8.24116 11.3144 8.29592 10.9653 8.35323C8.51712 8.75639 6.74023 10.8499 6.74023 13.3311C6.74023 15.7138 8.36472 17.739 10.6907 18.256L12.9298 18.7535C13.9429 18.9786 14.6504 19.8606 14.6504 20.8984V25.1501C14.6504 28.2627 16.3482 31.0598 19.0449 32.5044V44.1818C19.0449 44.9098 19.6352 45.5001 20.3633 45.5001H25.6367C26.3648 45.5001 26.9551 44.9098 26.9551 44.1818V32.5043C29.6518 31.0597 31.3496 28.2626 31.3496 25.15V20.8983C31.3496 19.8605 32.0571 18.9785 33.0702 18.7533L35.3093 18.2558C37.6353 17.739 39.2598 15.7138 39.2598 13.3311Z" fill="#148A8B"/>
<path d="M15.9688 11.4863H20.3633V15.8809C20.3633 16.6089 20.9536 17.1992 21.6816 17.1992H24.3184C25.0464 17.1992 25.6367 16.6089 25.6367 15.8809V11.4863H30.0312C30.7593 11.4863 31.3496 10.8961 31.3496 10.168V7.53125C31.3496 6.80316 30.7593 6.21289 30.0312 6.21289H25.6367V1.81836C25.6367 1.09027 25.0464 0.5 24.3184 0.5H21.6816C20.9536 0.5 20.3633 1.09027 20.3633 1.81836V6.21289H15.9688C15.2407 6.21289 14.6504 6.80316 14.6504 7.53125V10.168C14.6504 10.8961 15.2407 11.4863 15.9688 11.4863ZM10.2331 23.4507C9.17437 22.8394 7.98257 22.5762 6.87726 22.7093C6.25815 22.784 5.69135 22.9832 5.20988 23.2857L4.56204 22.6612C3.65615 21.7881 3.13672 20.5657 3.13672 19.3076C3.13672 17.995 3.68331 16.8083 4.55976 15.9608C4.26374 15.1383 4.10352 14.2523 4.10352 13.331C4.10352 13.2252 4.10633 13.1201 4.11055 13.0153C1.95257 14.2838 0.5 16.6285 0.5 19.3076C0.5 21.2779 1.31352 23.1921 2.73207 24.5596L3.6885 25.4816C3.54471 26.2114 3.63269 27.0035 3.95823 27.7655C4.39558 28.7894 5.21946 29.6899 6.27819 30.3012C7.33692 30.9124 8.52872 31.1757 9.63412 31.0424C10.8621 30.8945 11.8856 30.2569 12.4421 29.293C12.9987 28.3291 13.0392 27.1238 12.5532 25.9863C12.1157 24.9625 11.2918 24.062 10.2331 23.4507Z" fill="#148A8B"/>
</g>
<defs>
<clipPath id="clip0_5010_330">
<rect width="45" height="45" fill="white" transform="translate(0.5 0.5)"/>
</clipPath>
</defs>
</svg>
