<svg width="46" height="46" viewBox="0 0 46 46" fill="none" xmlns="http://www.w3.org/2000/svg">
<path d="M36.2715 33.2832V31.5254H33.2832C33.1433 31.5254 33.0092 31.4698 32.9103 31.3709C32.8114 31.272 32.7559 31.1379 32.7559 30.998V28.0098H30.998V30.998C30.998 31.1379 30.9425 31.272 30.8436 31.3709C30.7447 31.4698 30.6106 31.5254 30.4707 31.5254H27.3945V33.2832H30.4707C30.6106 33.2832 30.7447 33.3388 30.8436 33.4377C30.9425 33.5366 30.998 33.6707 30.998 33.8105V36.8867H32.7559V33.8105C32.7559 33.6707 32.8114 33.5366 32.9103 33.4377C33.0092 33.3388 33.1433 33.2832 33.2832 33.2832H36.2715Z" fill="#148A8B"/>
<path d="M41.3691 32.2331C41.3692 30.3745 40.818 28.5576 39.7855 27.0122C38.7529 25.4668 37.2852 24.2623 35.5681 23.5511C33.851 22.8398 31.9615 22.6537 30.1386 23.0163C28.3157 23.3789 26.6413 24.2738 25.327 25.5881C24.0128 26.9023 23.1178 28.5767 22.7552 30.3996C22.3926 32.2225 22.5787 34.112 23.2899 35.8291C24.0012 37.5463 25.2057 39.0139 26.751 40.0465C28.2964 41.0791 30.1133 41.6302 31.9719 41.6302C34.4633 41.6274 36.8519 40.6364 38.6136 38.8747C40.3753 37.113 41.3663 34.7245 41.3691 32.2331ZM29.9434 37.4137V34.3375H26.8672C26.7273 34.3375 26.5932 34.282 26.4943 34.1831C26.3954 34.0842 26.3398 33.95 26.3398 33.8102V30.9977C26.3398 30.8578 26.3954 30.7237 26.4943 30.6248C26.5932 30.5259 26.7273 30.4703 26.8672 30.4703H29.9434V27.4821C29.9434 27.3422 29.9989 27.2081 30.0978 27.1092C30.1967 27.0103 30.3308 26.9547 30.4707 26.9547H33.2832C33.4231 26.9547 33.5572 27.0103 33.6561 27.1092C33.755 27.2081 33.8106 27.3422 33.8106 27.4821V30.4703H36.7988C36.9387 30.4703 37.0728 30.5259 37.1717 30.6248C37.2706 30.7237 37.3262 30.8578 37.3262 30.9977V33.8102C37.3262 33.95 37.2706 34.0842 37.1717 34.1831C37.0728 34.282 36.9387 34.3375 36.7988 34.3375H33.8106V37.4137C33.8106 37.5536 33.755 37.6877 33.6561 37.7866C33.5572 37.8855 33.4231 37.941 33.2832 37.941H30.4707C30.3308 37.941 30.1967 37.8855 30.0978 37.7866C29.9989 37.6877 29.9434 37.5536 29.9434 37.4137ZM31.4395 20.7991C31.0354 20.4104 30.7372 19.925 30.5729 19.3889C28.8547 19.4781 27.5407 19.3284 25.6539 18.5068C25.3962 19.7536 25.2056 21.7487 25.0936 24.3704C26.5274 23.1116 28.2791 22.2706 30.1579 21.939C30.5338 21.505 30.9646 21.1218 31.4395 20.7991ZM13.4039 27.2847C13.4215 27.2912 13.4343 27.2942 13.4412 27.2962C13.4287 27.2926 13.4163 27.2888 13.4039 27.2847Z" fill="#148A8B"/>
<path d="M6.76558 34.4564C8.80701 36.1214 10.9609 36.1149 11.1997 36.1088C11.8575 36.0918 12.5056 35.9454 13.1068 35.678C13.708 35.4105 14.2507 35.0273 14.7038 34.5501C15.1569 34.073 15.5115 33.5112 15.7475 32.897C15.9835 32.2827 16.0962 31.628 16.0792 30.9702C16.0162 28.5188 13.5209 27.3381 13.3978 27.2823C13.2904 27.2438 13.1983 27.1715 13.1355 27.0762C13.0727 26.9809 13.0425 26.8678 13.0494 26.7539C13.0563 26.64 13.1 26.5314 13.1739 26.4444C13.2479 26.3574 13.348 26.2968 13.4593 26.2716C13.663 26.2253 14.1976 25.8909 14.4942 25.417C14.6466 25.1731 14.7009 24.9507 14.6553 24.7558C14.638 24.6813 14.637 24.604 14.6525 24.5291C14.668 24.4542 14.6996 24.3837 14.7451 24.3222C14.7906 24.2608 14.8489 24.21 14.916 24.1733C14.983 24.1366 15.0573 24.115 15.1336 24.1098C17.11 23.9767 18.2383 23.1651 19.8621 21.8441C19.9373 21.7829 20.028 21.7436 20.1242 21.7306C20.2203 21.7176 20.3182 21.7313 20.407 21.7704C20.4958 21.8094 20.5722 21.8722 20.6276 21.9518C20.6831 22.0314 20.7155 22.1248 20.7213 22.2216C20.7364 22.4719 20.7552 22.7753 20.7768 23.1249C21.021 27.0661 21.6506 37.2274 21.1919 41.3814L24.1953 41.586C24.1546 40.9604 24.1127 40.0889 24.075 39.073C22.4409 37.191 21.5346 34.7862 21.5202 32.2939C21.5058 29.8015 22.3844 27.3864 23.9967 25.4858C24.1191 21.6529 24.3844 19.0049 24.7857 17.6156C24.807 17.5421 24.844 17.474 24.8942 17.4162C24.9444 17.3584 25.0065 17.3122 25.0764 17.2809C25.1462 17.2495 25.2221 17.2338 25.2986 17.2347C25.3752 17.2356 25.4506 17.2532 25.5197 17.2862C27.7205 18.3376 28.9846 18.4506 30.9858 18.3065C31.0593 18.3012 31.1331 18.3114 31.2024 18.3364C31.2718 18.3613 31.3351 18.4006 31.3883 18.4515C31.4416 18.5025 31.4835 18.5641 31.5115 18.6322C31.5395 18.7004 31.5529 18.7737 31.5508 18.8474C31.5347 19.4111 32.2612 20.2468 32.5547 20.3103C32.666 20.3344 32.7665 20.3939 32.8412 20.4798C32.9159 20.5658 32.9607 20.6736 32.9691 20.7871C32.9774 20.9007 32.9488 21.0139 32.8874 21.1098C32.8261 21.2057 32.7354 21.2792 32.6288 21.3193C32.3652 21.4515 32.1136 21.6064 31.877 21.7823C31.9087 21.7823 31.9404 21.7812 31.9722 21.7812C33.7496 21.782 35.4974 22.2361 37.0505 23.1004C38.6036 23.9646 39.9107 25.2106 40.8483 26.7206C42.0269 24.9452 42.6452 22.5699 42.6852 19.6416C42.7468 15.1616 41.6197 11.9142 39.3352 9.9896C38.1844 9.02127 36.7346 8.47987 35.2307 8.45687C34.77 8.45049 34.3125 8.53493 33.8845 8.70536C33.4564 8.87579 33.0661 9.12888 32.7358 9.45017C32.4056 9.77145 32.1418 10.1547 31.9597 10.5779C31.7775 11.0011 31.6805 11.4561 31.6742 11.9168C31.6627 12.7517 32.7113 13.6615 33.476 14.3258C33.5803 14.4159 33.6841 14.5067 33.7872 14.5982C33.8557 14.6593 33.9071 14.7372 33.9363 14.8243C33.9654 14.9113 33.9714 15.0044 33.9535 15.0945C33.9357 15.1845 33.8946 15.2683 33.8344 15.3376C33.7742 15.4069 33.697 15.4593 33.6104 15.4896C33.0247 15.6945 32.4163 15.9938 31.9345 16.7898C31.8875 16.8674 31.8213 16.9316 31.7423 16.9761C31.6632 17.0207 31.574 17.0441 31.4833 17.0441C30.2823 17.0441 25.4202 16.1976 24.2476 13.6591C23.4765 11.9908 23.2626 8.951 23.5958 4.37646L21.0946 4.4074C21.4425 10.4543 21.4154 14.4747 21.0137 16.3636C20.773 17.4974 19.8237 19.0252 18.5363 20.3511C17.8845 21.0224 16.2125 22.5835 14.7666 22.5835C14.6953 22.5835 14.6247 22.569 14.5591 22.541C14.4935 22.5129 14.4343 22.4718 14.3851 22.4201C13.911 21.9232 13.2952 21.7713 12.8458 21.6604C12.4778 21.5696 12.1603 21.4911 12.0256 21.1658C11.9843 21.0657 11.9748 20.9554 11.9984 20.8497C12.0219 20.7441 12.0775 20.6482 12.1574 20.5752C12.253 20.4879 12.3567 20.3957 12.465 20.2992C13.2222 19.6258 14.2592 18.7037 14.2375 17.8687C14.2132 16.9385 13.8204 16.0561 13.1455 15.4154C12.4707 14.7748 11.569 14.4285 10.6387 14.4526C9.13544 14.4941 7.69256 15.0533 6.55402 16.0359C4.2926 17.9865 3.20469 21.2471 3.32035 25.7269C3.42477 29.7401 4.58378 32.677 6.76558 34.4564Z" fill="#148A8B"/>
<path d="M32.6224 21.3218C32.6077 21.3271 32.5927 21.3317 32.5774 21.3358C32.5927 21.3321 32.6077 21.3274 32.6224 21.3218Z" fill="#148A8B"/>
</svg>
