<svg width="46" height="45" viewBox="0 0 46 45" fill="none" xmlns="http://www.w3.org/2000/svg">
<path fill-rule="evenodd" clip-rule="evenodd" d="M7.88281 38.3203C8.14648 37.002 8.49805 36.4746 9.02539 35.7715C9.37695 35.4199 9.64062 34.9805 9.99219 34.3652C13.1562 28.5645 10.8711 23.291 8.76172 18.1934C7.35547 14.9414 6.03711 11.8652 6.03711 8.78906V0.615234C6.03711 0.263672 6.38867 0 6.65234 0H18.957C19.1328 0 19.3086 0.0878906 19.3965 0.263672C19.4844 0.351562 21.9453 3.86719 24.4941 4.57031C25.9004 4.92188 27.1309 5.97656 27.9219 7.38281C28.7129 8.96484 28.8008 10.8105 28.1855 12.3047C25.9004 18.0176 39.9629 12.6562 39.9629 26.4551C39.9629 33.2227 35.6562 35.7715 31.0859 37.5293C30.7344 37.7051 30.4707 37.9688 30.2949 38.3203H8.32227H7.88281ZM32.0527 27.6855C31.6133 27.6855 31.0859 27.5977 30.7344 27.334C30.0312 26.9824 29.5918 26.3672 29.416 25.6641C29.2402 24.9609 29.3281 24.2578 29.6797 23.5547C30.207 22.7637 31.0859 22.2363 32.0527 22.2363C32.5801 22.2363 33.0195 22.3242 33.459 22.5879C34.0742 22.9395 34.5137 23.5547 34.6895 24.2578C34.9531 24.9609 34.8652 25.6641 34.4258 26.3672C33.9863 27.1582 33.0195 27.6855 32.0527 27.6855ZM32.0527 23.4668C31.5254 23.4668 30.998 23.7305 30.7344 24.1699C30.5586 24.5215 30.4707 24.9609 30.6465 25.4004C30.7344 25.752 30.998 26.1035 31.3496 26.2793C31.5254 26.4551 31.7891 26.4551 32.0527 26.4551C32.5801 26.4551 33.1074 26.1914 33.3711 25.752C33.6348 25.4004 33.6348 24.9609 33.5469 24.6094C33.459 24.1699 33.1953 23.8184 32.8438 23.6426C32.5801 23.5547 32.3164 23.4668 32.0527 23.4668ZM28.1855 36.2988C26.5156 36.2988 24.9336 34.2773 24.0547 33.1348C23.9668 32.959 23.8789 32.7832 23.791 32.7832C23.7031 32.6953 23.7031 32.7832 23.6152 32.7832L23 33.9258C22.6484 34.541 22.0332 34.8926 21.418 34.8926C21.1543 34.8926 20.8027 34.8047 20.5391 34.6289C19.748 34.1895 19.4844 33.0469 20.0117 32.2559L21.3301 29.7949C21.6816 29.3555 22.209 29.0039 22.8242 29.0039C23.0879 29.0039 23.4395 29.0918 23.791 29.2676L26.5156 30.9375L26.9551 30.1465L24.0547 27.2461C23.2637 26.4551 23.2637 25.2246 24.0547 24.4336C24.4941 24.082 24.9336 23.8184 25.4609 23.8184C26.0762 23.8184 26.5156 24.082 26.9551 24.4336C27.1309 24.6094 27.3066 24.873 27.5703 25.0488C29.0645 26.6309 29.8555 27.334 31.9648 28.5645C32.3164 28.8281 32.5801 29.1797 32.7559 29.6191C32.8438 30.0586 32.7559 30.498 32.5801 30.8496L30.207 34.9805C29.5039 36.123 28.7129 36.2988 28.1855 36.2988ZM23.791 31.5527C23.9668 31.5527 24.2305 31.5527 24.4062 31.7285C24.582 31.8164 24.7578 31.9922 25.0215 32.3438C25.6367 33.1348 27.1309 35.0684 28.1855 35.0684C28.2734 35.0684 28.7129 35.0684 29.1523 34.3652L31.5254 30.2344C31.5254 30.1465 31.6133 30.0586 31.5254 29.8828C31.5254 29.7949 31.4375 29.707 31.3496 29.6191C29.0645 28.3887 28.2734 27.5098 26.6914 25.9277L26.0762 25.3125C25.9004 25.1367 25.7246 25.0488 25.4609 25.0488C25.2852 25.0488 25.1094 25.1367 24.9336 25.3125C24.6699 25.5762 24.6699 26.1035 24.9336 26.3672L27.9219 29.3555C28.2734 29.6191 28.3613 30.1465 28.1855 30.498L27.3945 31.8164C27.2188 32.0801 26.9551 32.2559 26.6914 32.2559C26.5156 32.2559 26.3398 32.2559 26.252 32.168L23.1758 30.4102C23 30.3223 22.9121 30.2344 22.8242 30.2344C22.6484 30.2344 22.4727 30.3223 22.4727 30.4102L21.0664 32.8711C20.8906 33.1348 20.9785 33.4863 21.1543 33.5742C21.2422 33.6621 21.3301 33.6621 21.418 33.6621C21.5938 33.6621 21.7695 33.5742 21.9453 33.3105L22.5605 32.168C22.8242 31.8164 23.2637 31.5527 23.791 31.5527ZM13.6836 13.3594V13.2715L10.4316 6.67969C10.3438 6.41602 10.4316 5.97656 10.7832 5.88867C11.0469 5.71289 11.3984 5.88867 11.5742 6.15234L14.6504 12.3926L20.0996 11.6016L18.4297 7.20703C18.2539 6.94336 18.4297 6.5918 18.7812 6.41602C19.0449 6.32812 19.3965 6.50391 19.5723 6.76758L21.5938 11.9531L22.7363 15.0293L22.9121 14.6777C23.2637 14.1504 23.8789 13.7109 24.582 13.5352C25.2852 13.4473 25.9883 13.5352 26.6035 13.8867C28.0098 14.6777 28.4492 16.2598 27.7461 17.4902L24.4941 23.291H24.4062V23.3789H24.3184C23.5273 24.1699 22.5605 24.6094 21.5059 24.6094C20.4512 24.6094 19.4844 24.1699 18.6934 23.3789C18.6055 23.3789 18.6055 23.291 18.5176 23.2031L13.6836 13.3594ZM23.1758 16.7871L21.2422 20.127C21.0664 20.3906 20.7148 20.5664 20.3633 20.3906C20.0996 20.2148 20.0117 19.7754 20.1875 19.5117L21.9453 16.4355L20.627 12.832L15.1777 13.5352L19.5723 22.5879C20.7148 23.5547 22.3848 23.5547 23.4395 22.5879L26.6914 16.875C27.043 16.2598 26.7793 15.3809 26.0762 14.9414H25.9883C25.6367 14.7656 25.1973 14.6777 24.8457 14.7656C24.4941 14.8535 24.1426 15.0293 24.0547 15.293L23.1758 16.7871ZM29.5039 45H8.32227C8.05859 45 7.79492 44.7363 7.79492 44.3848V40.166C7.79492 39.8145 8.05859 39.5508 8.32227 39.5508H29.5039C29.8555 39.5508 30.1191 39.8145 30.1191 40.166V44.3848C30.1191 44.7363 29.8555 45 29.5039 45Z" fill="#148A8B"/>
</svg>
