<svg width="46" height="46" viewBox="0 0 46 46" fill="none" xmlns="http://www.w3.org/2000/svg">
<g clip-path="url(#clip0_5046_565)">
<path d="M31.3496 9.28906C33.7766 9.28906 35.7441 7.32156 35.7441 4.89453C35.7441 2.4675 33.7766 0.5 31.3496 0.5C28.9226 0.5 26.9551 2.4675 26.9551 4.89453C26.9551 7.32156 28.9226 9.28906 31.3496 9.28906Z" fill="#148A8B"/>
<path d="M26.9551 44.1816C26.9551 44.9097 27.5454 45.5 28.2734 45.5H30.9102V31.2617H26.9551V44.1816ZM33.5469 45.5H36.1836C36.9117 45.5 37.502 44.9097 37.502 44.1816V31.2617H33.5469V45.5Z" fill="#148A8B"/>
<path d="M14.6504 9.28906C17.0774 9.28906 19.0449 7.32156 19.0449 4.89453C19.0449 2.4675 17.0774 0.5 14.6504 0.5C12.2234 0.5 10.2559 2.4675 10.2559 4.89453C10.2559 7.32156 12.2234 9.28906 14.6504 9.28906Z" fill="#148A8B"/>
<path d="M10.2658 44.3432C10.3052 44.6624 10.46 44.9563 10.701 45.1693C10.942 45.3824 11.2525 45.5 11.5742 45.5H13.332V31.2617H8.6508L10.2658 44.3432ZM15.9688 45.5H17.7266C18.0482 45.5 18.3588 45.3824 18.5998 45.1693C18.8408 44.9563 18.9956 44.6624 19.035 44.3432L20.65 31.2617H15.9688V45.5ZM25.1973 25.9883V28.625H37.9414C38.6695 28.625 39.2598 28.0347 39.2598 27.3066V23.9686C37.8592 25.2236 36.0105 25.9883 33.9863 25.9883H25.1973ZM39.2435 15.4414C39.0949 13.1969 37.8183 11.256 35.9767 10.182C34.7391 11.2663 33.1204 11.9258 31.3496 11.9258C29.1343 11.9258 27.1564 10.895 25.8666 9.28906H21.6183C23.394 10.8552 24.6403 13.0081 25.0504 15.4414H31.3496C31.3496 14.7133 31.9399 14.123 32.668 14.123C33.3961 14.123 33.9863 14.7133 33.9863 15.4414V16.7598C33.9863 17.4879 33.3961 18.0781 32.668 18.0781H23.9338C22.497 18.0781 21.2826 19.2045 21.2432 20.6408C21.2024 22.1308 22.398 23.3516 23.8789 23.3516H33.9863C36.8988 23.3516 39.2598 20.9906 39.2598 18.0781V15.4414H39.2435Z" fill="#148A8B"/>
<path d="M18.6055 20.7146C18.6055 18.317 20.2144 16.2895 22.4088 15.6512C21.9804 13.4917 20.6729 11.6489 18.8751 10.5107C17.7666 11.3467 16.4036 11.8614 14.9251 11.9185C14.9845 12.21 15.0144 12.5068 15.0144 12.8043C15.0144 13.9781 14.5574 15.0818 13.7273 15.9117L12.4842 17.1547C11.6545 17.9846 10.5508 18.4418 9.37695 18.4418C8.41306 18.4418 7.4968 18.1331 6.74023 17.5632V27.3064C6.74023 28.0345 7.33051 28.6247 8.05859 28.6247H22.5605V25.8211C20.2887 25.2343 18.6055 23.1673 18.6055 20.7146Z" fill="#148A8B"/>
<path d="M8.134 15.2906C8.82043 15.977 9.93347 15.977 10.6199 15.2906L11.8628 14.0476C12.5494 13.3612 12.5494 12.2482 11.8628 11.5617L11.2414 10.9403C10.2116 9.91054 8.54217 9.91054 7.51253 10.9403C6.48289 11.97 6.4828 13.6395 7.51253 14.6691L8.134 15.2906Z" fill="#148A8B"/>
</g>
<defs>
<clipPath id="clip0_5046_565">
<rect width="45" height="45" fill="white" transform="translate(0.5 0.5)"/>
</clipPath>
</defs>
</svg>
