<svg width="46" height="45" viewBox="0 0 46 45" fill="none" xmlns="http://www.w3.org/2000/svg">
<path fill-rule="evenodd" clip-rule="evenodd" d="M3.80649 28.5118L7.06548 31.8552C7.80112 32.6093 8.01294 33.6842 7.61831 34.6606L4.82163 41.5838C5.46763 42.0153 6.70688 42.3959 8.32583 42.3959C10.7323 42.3959 12.2677 41.5574 12.302 41.1013C12.3038 41.0749 12.3073 41.0477 12.3134 41.0213L14.6882 30.768C14.6935 30.7469 14.6997 30.7267 14.7067 30.7064C14.8763 30.2406 14.9625 29.759 14.9625 29.2729C14.9625 27.2374 13.4367 25.3574 10.981 24.3678C10.6189 24.2219 10.3763 23.9028 10.3306 23.5152L9.90259 19.8353C9.79097 18.8781 9.36733 18.2225 8.60796 17.8305C7.99888 17.5158 7.17886 17.3831 6.21558 17.4394L7.03823 24.5075C7.07163 24.7976 6.86509 25.0586 6.57593 25.0929C6.28677 25.1263 6.02397 24.9188 5.99058 24.6297L5.10552 17.0245C5.09727 16.9557 5.10274 16.886 5.12159 16.8193C5.14045 16.7526 5.17232 16.6903 5.21538 16.636C5.30233 16.5267 5.42905 16.4562 5.56782 16.44L5.62319 16.4339C5.76558 16.4172 5.9062 16.404 6.04507 16.3943L9.64683 8.73994C9.95444 8.08604 9.67319 7.30381 9.01929 6.99619C8.36538 6.68857 7.58315 6.9707 7.27554 7.62373L3.05942 16.5842C2.79839 17.1388 2.68237 17.6591 2.68237 18.2717V25.7459C2.68237 26.8305 3.05063 27.7357 3.80649 28.5118ZM34.6359 24.3678C32.1802 25.3574 30.6544 27.2374 30.6544 29.2729C30.6544 29.759 30.7406 30.2406 30.9102 30.7064C30.9172 30.7267 30.9234 30.7469 30.9287 30.768L33.3035 41.0213C33.3096 41.0477 33.3131 41.0749 33.3149 41.1013C33.3492 41.5574 34.8846 42.3959 37.2911 42.3959C38.91 42.3959 40.1493 42.0153 40.7953 41.5838L37.9986 34.6606C37.604 33.6842 37.8158 32.6093 38.5514 31.8552L41.8104 28.5118C42.5671 27.7357 42.9354 26.8305 42.9354 25.7459V18.2717C42.9354 17.6591 42.8194 17.1388 42.5583 16.5842L38.3431 7.62373C38.0346 6.9707 37.2524 6.68857 36.5985 6.99619C35.9446 7.30381 35.6633 8.08604 35.9709 8.73994L39.5727 16.3943C39.7116 16.404 39.8522 16.4172 39.9955 16.4339L40.0499 16.44C40.1888 16.4559 40.3154 16.5271 40.4024 16.636C40.4454 16.6903 40.4773 16.7526 40.4962 16.8193C40.515 16.886 40.5205 16.9557 40.5123 17.0245L39.6272 24.6297C39.5938 24.9188 39.3319 25.1263 39.0418 25.0929C38.9029 25.0765 38.7762 25.0056 38.6896 24.8959C38.6029 24.7861 38.5633 24.6464 38.5795 24.5075L39.4022 17.4394C39.2581 17.4314 39.1166 17.4271 38.9786 17.4271C38.1972 17.4271 37.5275 17.5633 37.0098 17.8305C36.2504 18.2225 35.8268 18.8781 35.7152 19.8353L35.2872 23.5152C35.2415 23.9028 34.998 24.2219 34.6359 24.3678ZM19.0089 11.6333C19.0089 13.7286 20.714 15.4337 22.8093 15.4337C24.9046 15.4337 26.6097 13.7286 26.6097 11.6333C26.6097 9.53711 24.9046 7.83291 22.8093 7.83291C20.714 7.83291 19.0089 9.53711 19.0089 11.6333ZM20.5883 12.1606C20.2974 12.1606 20.061 11.9242 20.061 11.6333C20.061 11.3415 20.2974 11.106 20.5883 11.106H22.282V9.4123C22.282 9.12139 22.5184 8.88496 22.8093 8.88496C23.1002 8.88496 23.3367 9.12139 23.3367 9.4123V11.106H25.0303C25.3212 11.106 25.5577 11.3415 25.5577 11.6333C25.5577 11.9242 25.3212 12.1606 25.0303 12.1606H23.3367V13.8534C23.3367 14.1452 23.1002 14.3808 22.8093 14.3808C22.5184 14.3808 22.282 14.1452 22.282 13.8534V12.1606H20.5883ZM16.2087 19.8221V10.4011C16.2087 10.1093 15.9723 9.87373 15.6814 9.87373H13.1132C13.0675 9.87373 13.0376 9.85176 13.0227 9.80869C13.0086 9.76562 13.0192 9.73047 13.0552 9.70234L15.8791 7.55342C15.9437 7.50408 15.996 7.4405 16.032 7.36763C16.068 7.29476 16.0867 7.21457 16.0866 7.1333V3.99648H17.1008V5.55918C17.1008 5.75957 17.2142 5.94238 17.3935 6.03115C17.5737 6.1208 17.7881 6.09971 17.9472 5.97842L22.8084 2.27734L32.5617 9.70234C32.5977 9.73047 32.6083 9.76562 32.5942 9.80869C32.5793 9.85176 32.5494 9.87373 32.5037 9.87373H29.9355C29.6446 9.87373 29.4082 10.1093 29.4082 10.4011V19.8221H16.2087ZM22.8084 16.4884C20.1313 16.4884 17.9534 14.3104 17.9534 11.6333C17.9534 8.95615 20.1313 6.77822 22.8084 6.77822C25.4856 6.77822 27.6635 8.95615 27.6635 11.6333C27.6635 14.3104 25.4856 16.4884 22.8084 16.4884Z" fill="#148A8B"/>
</svg>
