<svg width="46" height="46" viewBox="0 0 46 46" fill="none" xmlns="http://www.w3.org/2000/svg">
<g clip-path="url(#clip0_5046_573)">
<path d="M42.5731 30.815C43.1567 30.815 43.6002 30.2352 43.4862 29.6116L40.139 11.3187C39.9357 10.2073 39.039 9.40802 37.9917 9.40802H34.2051C33.8405 9.40802 33.4945 9.50738 33.1887 9.68157L34.3806 10.0487L29.9888 9.63599L23.6084 6.86939C22.746 6.49552 21.7436 6.89143 21.3696 7.75386C20.9957 8.61629 21.3917 9.61863 22.2541 9.99267L28.8828 12.867C29.0474 12.9383 29.2222 12.9832 29.4008 13L34.062 13.4381L31.6199 13.7113L31.3973 14.9276L30.7957 15.5039L25.2459 18.1747V21.9526L30.5817 19.3848L28.7105 29.6116C28.5962 30.2367 29.0388 30.8151 29.6235 30.8151H30.9763L30.2399 33.5948C30.1997 33.7466 30.1761 33.9023 30.1695 34.0591L29.7786 43.2329C29.726 44.4675 30.7118 45.5003 31.953 45.5003C33.1114 45.5002 34.0744 44.5865 34.1242 43.418L34.505 34.4802L35.4759 30.8151H36.4202V34.8015C36.4202 34.9702 36.4398 35.1383 36.4786 35.3024L38.4963 43.8259C38.7722 44.9911 39.9411 45.7186 41.1137 45.4413C42.2825 45.1647 43.0057 43.9928 42.7291 42.824L40.7698 34.5476V30.8151L42.5731 30.815Z" fill="#148A8B"/>
<path d="M36.3651 7.99906C38.4343 7.85183 39.9924 6.05507 39.8451 3.98588C39.6979 1.91669 37.9011 0.358641 35.832 0.505873C33.7628 0.653106 32.2047 2.44987 32.352 4.51906C32.4992 6.58824 34.2959 8.1463 36.3651 7.99906Z" fill="#148A8B"/>
<path d="M20.3493 17.15L20.9961 15.4884L21.7625 10.9947C20.8229 10.1265 19.4535 9.77965 18.1519 10.2072C16.2409 10.8349 15.2007 12.8929 15.8283 14.8038C16.4478 16.6896 18.46 17.7262 20.3493 17.15ZM25.3844 5.67555C24.9048 5.59382 24.44 5.73276 24.0906 6.01706L26.7264 7.16001C26.6763 6.4314 26.1362 5.80381 25.3844 5.67555Z" fill="#148A8B"/>
<path d="M22.7848 11.2842L22.0809 15.4117L19.2064 20.086L19.7382 18.7198L17.3569 18.7013C15.9981 18.6907 14.8881 19.7836 14.8776 21.1423L14.8711 21.9709L13.4694 26.7104L7.77244 28.5286C6.92024 28.8005 6.44992 29.7118 6.72189 30.564C6.90754 31.1458 7.39143 31.5484 7.95069 31.6596C7.76341 31.8355 7.61138 32.0455 7.50277 32.2784L2.68566 42.6201C2.21358 43.6337 2.65251 44.8381 3.66613 45.3102C4.68601 45.7853 5.88722 45.3369 6.3563 44.3298L8.87474 38.9229L8.14437 35.1881C7.81035 33.4799 9.11003 31.8361 10.938 31.8576L18.1298 31.9889L11.0586 32.771C9.88237 32.9011 9.06693 34.0099 9.29428 35.1719L10.994 43.8636C11.2087 44.9614 12.2725 45.6766 13.3696 45.462C14.4669 45.2475 15.1826 44.1839 14.968 43.0865L13.6904 36.5539L20.7761 35.7701L14.9096 37.2932L16.0451 43.0533C16.2037 43.8644 16.0321 44.6632 15.6247 45.3119C15.8079 45.4348 16.0236 45.5002 16.2442 45.4999C16.8601 45.4999 17.3593 45.0007 17.3593 44.3849V37.4462H21.748V44.3849C21.748 45.0006 22.2472 45.4999 22.8631 45.4999C23.4789 45.4999 23.9782 45.0007 23.9782 44.3849V36.3311C23.9782 35.8356 23.6546 35.4161 23.2076 35.2708C23.8142 34.864 24.1795 34.1422 24.0938 33.366C24.093 33.3588 24.0917 33.3519 24.0908 33.3448V19.3104L21.9661 21.7828L25.0048 16.8415C25.1132 16.6651 25.1869 16.4695 25.2217 16.2654L25.845 12.6109L22.7848 11.2842ZM14.8073 30.1509L11.6793 30.682L14.8109 29.6825L14.8073 30.1509Z" fill="#148A8B"/>
</g>
<defs>
<clipPath id="clip0_5046_573">
<rect width="45" height="45" fill="white" transform="translate(0.5 0.5)"/>
</clipPath>
</defs>
</svg>
