<svg width="46" height="46" viewBox="0 0 46 46" fill="none" xmlns="http://www.w3.org/2000/svg">
<path d="M31.6695 18.8583C29.9247 13.4474 24.8466 9.52344 18.8654 9.52344C12.8775 9.52344 7.79932 13.4476 6.05451 18.8583C3.50182 18.4781 1.29541 20.4809 1.29541 22.9725C1.29541 25.5048 3.55613 27.4735 6.06119 27.0935C7.11359 30.3725 9.40139 33.1085 12.3682 34.7516C10.5826 36.0007 9.15705 37.7659 8.31523 39.9042C7.40557 42.2261 9.12998 44.7245 11.608 44.7245H26.1161C28.5941 44.7245 30.3116 42.2195 29.4088 39.9042C28.567 37.7657 27.1412 36.0005 25.349 34.7582C28.3225 33.1085 30.6105 30.3794 31.6695 27.0935C34.195 27.4737 36.4286 25.4844 36.4286 22.9725C36.4286 20.4878 34.2222 18.4783 31.6695 18.8583ZM5.70154 25.7561C3.99752 25.9191 2.65332 24.5612 2.65332 22.9726C2.65332 21.3025 4.11301 20.0195 5.70154 20.1823C5.5076 21.0997 5.40974 22.0349 5.40957 22.9726C5.40957 23.9298 5.51152 24.8598 5.70154 25.7561ZM18.8654 35.0706C12.1919 35.0706 6.76748 29.6462 6.76748 22.9725C6.76748 16.3056 12.1919 10.8812 18.8654 10.8812C25.5323 10.8812 30.9567 16.3056 30.9567 22.9725C30.9567 29.6462 25.5323 35.0706 18.8654 35.0706ZM32.0227 25.7628C32.2169 24.8454 32.3148 23.9102 32.3146 22.9725C32.3146 22.0153 32.2129 21.0851 32.0227 20.1821C33.6181 20.026 35.0709 21.309 35.0709 22.9725C35.0709 24.5816 33.6995 25.9191 32.0227 25.7628Z" fill="#148A8B"/>
<path d="M14.2773 23.4078C14.4573 23.4078 14.63 23.3363 14.7573 23.209C14.8846 23.0817 14.9561 22.909 14.9561 22.729V22.1194C14.9561 21.9393 14.8846 21.7666 14.7573 21.6393C14.63 21.512 14.4573 21.4405 14.2773 21.4405C14.0972 21.4405 13.9245 21.512 13.7972 21.6393C13.6699 21.7666 13.5984 21.9393 13.5984 22.1194V22.729C13.5984 22.909 13.67 23.0816 13.7973 23.2089C13.9246 23.3362 14.0972 23.4078 14.2773 23.4078ZM23.4485 23.4078C23.6285 23.4078 23.8012 23.3363 23.9285 23.209C24.0558 23.0817 24.1273 22.909 24.1273 22.729V22.1194C24.1273 21.9393 24.0558 21.7666 23.9285 21.6393C23.8012 21.512 23.6285 21.4405 23.4485 21.4405C23.2684 21.4405 23.0957 21.512 22.9684 21.6393C22.8411 21.7666 22.7696 21.9393 22.7696 22.1194V22.729C22.7696 22.909 22.8412 23.0816 22.9685 23.2089C23.0958 23.3362 23.2684 23.4078 23.4485 23.4078ZM22.0572 29.4698C22.3224 29.2046 22.3224 28.775 22.0572 28.5099C21.7919 28.2448 21.3623 28.2446 21.0972 28.5099C19.8664 29.74 17.8618 29.7384 16.6283 28.505C16.5653 28.4419 16.4905 28.3919 16.4081 28.3577C16.3258 28.3236 16.2375 28.306 16.1484 28.306C16.0592 28.306 15.9709 28.3236 15.8886 28.3577C15.8062 28.3919 15.7314 28.4419 15.6684 28.505C15.6053 28.568 15.5553 28.6428 15.5212 28.7252C15.487 28.8075 15.4695 28.8958 15.4695 28.9849C15.4695 29.0741 15.487 29.1624 15.5212 29.2447C15.5553 29.3271 15.6053 29.4019 15.6684 29.4649C17.4278 31.2245 20.2935 31.2334 22.0572 29.4698ZM37.094 1.27539C32.8985 1.27539 29.4836 4.68344 29.4836 8.88584C29.4836 13.0814 32.8985 16.4963 37.094 16.4963C41.2896 16.4963 44.7045 13.0814 44.7045 8.88584C44.7045 4.68344 41.2897 1.27539 37.094 1.27539ZM39.2461 9.56471H37.7729V11.0311C37.7729 11.4113 37.4674 11.7099 37.094 11.7099C36.7207 11.7099 36.4151 11.4111 36.4151 11.0311V9.56471H34.9419C34.762 9.5642 34.5897 9.49251 34.4625 9.36531C34.3353 9.23811 34.2636 9.06573 34.2631 8.88584C34.2628 8.79661 34.2801 8.70819 34.3141 8.62569C34.3481 8.54319 34.3981 8.46823 34.4612 8.40514C34.5243 8.34204 34.5993 8.29204 34.6818 8.25803C34.7643 8.22402 34.8527 8.20667 34.9419 8.20697H36.4151V6.73375C36.4151 6.35354 36.7207 6.05488 37.094 6.05488C37.4674 6.05488 37.7729 6.35354 37.7729 6.73375V8.20697H39.2461C39.3353 8.20667 39.4237 8.22402 39.5063 8.25803C39.5888 8.29204 39.6637 8.34204 39.7268 8.40514C39.7899 8.46823 39.8399 8.54319 39.8739 8.62569C39.9079 8.70819 39.9253 8.79661 39.925 8.88584C39.9245 9.06573 39.8528 9.23811 39.7256 9.36531C39.5984 9.49251 39.426 9.5642 39.2461 9.56471Z" fill="#148A8B"/>
</svg>
