<svg width="46" height="45" viewBox="0 0 46 45" fill="none" xmlns="http://www.w3.org/2000/svg">
<path d="M34.1746 26.0259C33.4275 21.3763 33.1488 19.2925 30.3187 16.4022C28.3907 14.4019 28.1417 12.4579 28.1096 11.8635C28.7201 10.7227 28.7281 8.69036 28.6639 7.48539C32.0322 7.09819 32.045 2.08872 29.6921 0.544745C28.2542 -0.443333 26.8564 0.231452 25.9808 1.03477C25.065 0.32785 23.2094 -0.523664 20.1407 0.432281C16.4776 1.57299 14.9513 4.33639 15.7305 8.41723C16.1563 10.6344 15.1923 12.0803 15.1521 12.1366C14.7786 12.6411 15.1778 13.4259 15.8108 13.4058H16.9837C17.9493 16.1813 19.7808 19.0933 23.2736 16.3861C23.362 18.0008 23.0085 21.4309 18.7429 22.9974C16.9676 23.6481 15.9554 24.604 15.7225 25.8492C15.4895 27.1345 16.1804 28.3394 16.823 29.1428C13.5134 30.4763 11.4408 32.3962 10.6535 34.8543C9.65744 37.9873 11.0472 41.072 11.8585 42.4939C12.3783 42.42 13.0635 42.2826 13.5535 42.1806C16.0197 41.6664 19.5543 40.7266 21.6831 39.2244C23.8119 37.7222 26.8564 36.6939 28.696 36.1557C28.7683 35.9067 29.3467 33.7538 28.2221 31.4322C27.1858 29.2954 27.1858 25.8733 27.1858 25.7287C27.1858 25.2869 27.5473 24.9334 27.9891 24.9334C28.4389 24.9334 28.7924 25.2949 28.7924 25.7367C28.7924 25.7688 28.7924 28.9339 29.668 30.7333C30.64 32.7416 30.5918 34.6133 30.4312 35.7139C31.3759 35.6705 31.6 37.0747 30.6481 37.2964C30.5918 37.3125 25.5309 38.4853 22.6069 40.5418C20.9255 41.7219 18.5453 42.5806 16.3732 43.1686C15.2565 43.4659 14.1962 43.6988 13.3125 43.8756C15.0798 44.6708 16.9194 45.0002 18.751 45.0002C26.8966 45.0002 34.8976 38.5094 35.3153 38.164C35.4519 38.0515 35.5483 37.8909 35.5884 37.7141C36.1106 35.3524 34.3674 26.9336 34.1746 26.0259Z" fill="#148A8B"/>
</svg>
