<svg width="46" height="45" viewBox="0 0 46 45" fill="none" xmlns="http://www.w3.org/2000/svg">
<g clip-path="url(#clip0_5046_537)">
<path d="M20.6156 42.2499C20.6156 43.429 21.5714 44.3848 22.7505 44.3848C23.9295 44.3848 24.8853 43.429 24.8853 42.2499L24.8937 39.3535H20.624L20.6156 42.2499ZM25.8071 42.2499C25.8071 43.429 26.7629 44.3848 27.9419 44.3848C29.121 44.3848 30.0768 43.429 30.0768 42.2499L30.0852 39.3535H25.8154L25.8071 42.2499Z" fill="#148A8B"/>
<path d="M29.0344 4.59601C29.236 2.56969 27.7567 0.763653 25.7304 0.562114C23.704 0.360574 21.898 1.83985 21.6965 3.86618C21.4949 5.8925 22.9742 7.69854 25.0005 7.90008C27.0268 8.10162 28.8329 6.62234 29.0344 4.59601Z" fill="#148A8B"/>
<path d="M25.182 28.9543H32.3811L31.4634 24.2161H30.6966L25.182 28.9543ZM26.2476 20.4424L27.7515 19.1502C28.274 18.7012 28.9401 18.4544 29.6289 18.4544H30.3474L29.886 15.871L30.8058 18.4544H35.3024L34.1956 17.3666C33.4804 15.3717 32.9273 13.8057 32.5499 12.7077C31.7245 10.3058 30.3405 9.08789 28.4364 9.08789H22.2726C20.3685 9.08789 18.9845 10.3057 18.159 12.7077C17.8002 13.7519 17.5448 14.485 17.1952 15.4661L12.2962 12.9721C11.4207 12.5263 10.3494 12.8747 9.90371 13.7504C9.45797 14.626 9.80644 15.6972 10.682 16.1429L17.3807 19.5532C18.3351 20.0391 19.4991 19.5766 19.8615 18.5708C20.1829 17.6768 20.5028 16.7823 20.8211 15.8871L19.4673 23.0727L23.0592 20.3386C24.0296 19.5999 25.3629 19.6711 26.2476 20.4424ZM36.0885 24.2161L36.2728 24.3971C36.6051 24.7247 37.0532 24.908 37.5198 24.9074C37.8142 24.9078 38.1041 24.8348 38.3634 24.6952C38.6226 24.5556 38.843 24.3536 39.0047 24.1075C38.75 24.1795 38.4866 24.216 38.2219 24.2161H36.0885Z" fill="#148A8B"/>
<path d="M10.1858 19.4324C10.1962 17.3781 8.53936 15.7044 6.48511 15.694C4.43086 15.6836 2.75713 17.3405 2.74673 19.3947C2.73633 21.449 4.3932 23.1227 6.44745 23.1331C8.5017 23.1435 10.1754 21.4866 10.1858 19.4324Z" fill="#148A8B"/>
<path d="M41.6524 33.8295C42.6962 33.8295 43.5424 32.9833 43.5424 31.9396C43.5424 30.8958 42.6963 30.0496 41.6524 30.0496H22.5657L30.3294 23.2252H38.222C39.2658 23.2252 40.1119 22.379 40.1119 21.3352C40.1119 20.2915 39.2658 19.4453 38.222 19.4453H29.629C29.1771 19.4453 28.7401 19.6073 28.3974 19.9018L26.8534 21.2284C27.381 22.2918 27.099 23.6133 26.1194 24.359L20.3505 28.7501C19.7433 29.2123 18.9344 29.2298 18.3174 28.8603L14.7145 26.6893L18.5985 28.0681C18.8624 28.1617 19.1455 28.1882 19.4222 28.145C19.6989 28.1018 19.9604 27.9904 20.1833 27.8208L25.6101 23.6899C26.3509 23.1261 26.4943 22.0686 25.9305 21.3278C25.3667 20.5871 24.309 20.4437 23.5684 21.0076L18.867 24.5862L15.8422 23.5125L18.414 23.8745L18.8803 23.5195L14.3531 20.5195C13.3769 19.8726 12.061 20.1395 11.414 21.1159L8.88483 24.9325C8.23794 25.9087 8.50491 27.2246 9.48115 27.8716L18.4482 33.8137L41.6524 33.8295Z" fill="#148A8B"/>
<path d="M43.7273 34.7412H16.622L2.98511 26.0889C2.365 25.6955 1.54347 25.8792 1.15007 26.4993C0.756661 27.1194 0.940367 27.941 1.56048 28.3344L11.6583 34.7412H2.27283C1.29368 34.7412 0.5 35.5349 0.5 36.514C0.5 37.4932 1.29368 38.2869 2.27283 38.2869H2.88695V42.6879C2.88695 43.6669 3.68063 44.4607 4.65979 44.4607C5.63894 44.4607 6.43262 43.667 6.43262 42.6879V38.2869H39.5675V42.6879C39.5675 43.6669 40.3612 44.4607 41.3403 44.4607C42.3195 44.4607 43.1131 43.667 43.1131 42.6879V38.2869H43.7273C44.7064 38.2869 45.5001 37.4932 45.5001 36.514C45.5001 35.5349 44.7063 34.7412 43.7273 34.7412Z" fill="#148A8B"/>
</g>
<defs>
<clipPath id="clip0_5046_537">
<rect width="45" height="45" fill="white" transform="translate(0.5)"/>
</clipPath>
</defs>
</svg>
