<svg width="46" height="46" viewBox="0 0 46 46" fill="none" xmlns="http://www.w3.org/2000/svg">
<g clip-path="url(#clip0_5046_561)">
<path d="M40.7404 8.9867L38.7173 8.92317C38.0085 9.28119 37.2255 9.46756 36.4315 9.46724C35.8363 9.46751 35.2458 9.362 34.6875 9.15562C34.229 9.40781 33.8575 9.79281 33.6219 10.26L30.2775 15.9425C28.5353 17.2331 23.7218 20.7912 23.5893 20.898C24.0179 20.9153 24.9494 20.6386 26.0156 21.2745C25.8155 19.812 26.6674 18.3641 28.1161 17.8656L35.6107 15.2868L37.1442 13.2171L35.8276 16.6966L28.7245 19.0643C27.7384 19.393 27.2055 20.4589 27.5342 21.445C27.8634 22.4329 28.9306 22.9636 29.9148 22.6353L37.8664 19.9848C38.1316 19.8964 38.3737 19.7501 38.5752 19.5565C38.7768 19.3628 38.9327 19.1268 39.0316 18.8654L40.6847 14.4967L40.3148 19.1304C40.2525 19.9109 39.7294 20.5442 39.0339 20.7846C36.9092 21.5155 32.9261 22.8651 32.9261 22.8651V24.7744L29.9174 32.5364C29.7426 32.9872 29.7211 33.483 29.8563 33.9472L32.756 43.9128C33.0958 45.0805 34.318 45.7514 35.4851 45.4117C36.6527 45.0719 37.3238 43.8501 36.984 42.6826L34.2925 33.4328L37.2099 25.9065H38.4708C38.4708 25.9065 38.476 38.4355 38.4708 43.2982C38.4708 44.5142 39.4128 45.4998 40.6287 45.4998C41.8445 45.4998 42.8303 44.5141 42.8303 43.2982C42.8323 38.5246 42.8323 16.8846 42.8303 11.6501C42.8751 10.224 42.1667 9.03149 40.7404 8.9867ZM34.8868 7.97401C35.3743 8.18559 35.9001 8.29487 36.4315 8.29508C37.9388 8.29508 39.3736 7.41554 40.0099 5.94413C40.8641 3.96895 39.9553 1.67525 37.9801 0.82107C37.4926 0.609508 36.9669 0.500232 36.4354 0.5C34.9281 0.5 33.4933 1.37954 32.857 2.85095C32.0028 4.82613 32.9116 7.11983 34.8868 7.97401ZM9.89707 35.035C8.25965 35.035 6.78127 34.3454 5.73368 33.2428C4.16916 34.5064 3.1676 36.4393 3.1676 38.607C3.1676 42.4138 6.25363 45.4998 10.0604 45.4998C13.8672 45.4998 16.9533 42.4138 16.9533 38.607C16.9533 37.2993 16.5891 36.0767 15.9566 35.0349L9.89707 35.035ZM13.961 16.4473C15.446 15.9798 16.5686 14.6451 16.6855 12.998C16.8382 10.8463 15.2177 8.97821 13.0661 8.82554C10.9144 8.67278 9.04625 10.2933 8.89358 12.445C8.77987 14.0468 9.64925 15.4909 10.9886 16.1876C11.4619 16.4339 11.9808 16.5802 12.513 16.6174C13.0175 16.6533 13.5061 16.5905 13.961 16.4473Z" fill="#148A8B"/>
<path d="M15.0742 29.4395V26.1836L12.3051 22.7671L16.2406 25.6978C16.5727 25.9451 16.9814 26.0673 17.3948 26.0429L24.5792 25.6181C25.5487 25.5608 26.2882 24.7283 26.2308 23.7588C26.1734 22.7894 25.3413 22.0506 24.3715 22.1071L17.8271 22.494L14.4843 20.0047L15.0742 20.2436V19.8136C15.0742 18.456 13.9737 17.3555 12.6161 17.3555H9.79265C7.3219 17.3555 5.31888 19.3585 5.31888 21.8292V29.2893C5.31888 31.8178 7.36863 33.8367 9.89717 33.8367H16.8952L19.1796 43.8509C19.4338 44.9848 20.5596 45.704 21.7004 45.4485C22.8377 45.1936 23.5529 44.065 23.298 42.9278L20.6439 31.0882C20.539 30.6203 20.2779 30.2021 19.9037 29.9024C19.5294 29.6028 19.0642 29.4395 18.5847 29.4395H15.0742Z" fill="#148A8B"/>
</g>
<defs>
<clipPath id="clip0_5046_561">
<rect width="45" height="45" fill="white" transform="translate(0.5 0.5)"/>
</clipPath>
</defs>
</svg>
