<svg width="46" height="46" viewBox="0 0 46 46" fill="none" xmlns="http://www.w3.org/2000/svg">
<g clip-path="url(#clip0_5046_545)">
<path d="M40.9591 20.3598C42.673 20.3598 44.0623 18.9704 44.0623 17.2566C44.0623 15.5427 42.673 14.1533 40.9591 14.1533C39.2452 14.1533 37.8558 15.5427 37.8558 17.2566C37.8558 18.9704 39.2452 20.3598 40.9591 20.3598Z" fill="#148A8B"/>
<path d="M3.95718 17.5953C3.75916 18.2977 4.03786 19.0202 4.59852 19.4226L5.73354 16.3737C4.93962 16.3007 4.1813 16.8 3.95718 17.5953ZM44.0633 28.9727H39.9016C40.0002 28.4985 39.8524 27.9864 39.4661 27.6394L35.7804 24.3278L36.0909 19.6849L36.4778 21.688C36.8248 21.3468 37.0123 20.9086 36.9569 20.4559L36.6027 17.5613C36.493 16.6649 35.4725 16.0522 34.3232 16.1929C21.5052 17.7617 27.6465 17.0395 13.7708 18.608L10.3628 17.6475C10.3253 17.7738 10.4093 17.5404 9.18781 20.8222L13.1739 21.9456C13.3842 22.0048 13.604 22.0227 13.8211 21.9981L23.4851 20.9058L23.4674 25.6814H15.4191C14.4874 25.6814 13.7318 26.4367 13.7318 27.3685C13.7318 28.1181 14.221 28.7527 14.8973 28.9725H4.62066L8.96457 17.303C9.14914 16.8072 8.89681 16.2557 8.4011 16.0711C7.90522 15.8867 7.3538 16.139 7.16923 16.6347L2.57668 28.9725H1.93684C1.14529 28.9727 0.5 29.6149 0.5 30.4094C0.5 31.2029 1.14327 31.8462 1.93675 31.8462H44.0633C44.8567 31.8462 45.5 31.2028 45.5 30.4094C45.5 29.616 44.8567 28.9727 44.0633 28.9727ZM25.6699 28.9727C26.3442 28.7536 26.8328 28.1221 26.8356 27.3748L26.8505 23.3405L32.2138 22.684L33.2853 19.4972L32.9292 24.8228C32.915 25.0355 32.9493 25.2486 33.0295 25.446C33.1098 25.6435 33.2338 25.8201 33.3924 25.9625L36.7428 28.9726L25.6699 28.9727Z" fill="#148A8B"/>
</g>
<defs>
<clipPath id="clip0_5046_545">
<rect width="45" height="45" fill="white" transform="translate(0.5 0.5)"/>
</clipPath>
</defs>
</svg>
