<svg width="46" height="45" viewBox="0 0 46 45" fill="none" xmlns="http://www.w3.org/2000/svg">
<g clip-path="url(#clip0_5046_555)">
<path d="M20.4282 10.4458L19.4161 11.5803C19.8209 11.4609 20.2409 11.4002 20.663 11.4H20.6631C21.0284 11.4 21.4003 11.4445 21.7775 11.5413C21.7207 11.5072 20.9521 11.2876 20.4282 10.4458ZM15.3953 8.19398C14.5084 7.82321 13.4843 8.22777 13.0945 9.11114C12.8427 9.68174 12.9178 10.313 13.2366 10.7981C13.3461 10.5537 13.4924 10.3275 13.6703 10.1274L15.3953 8.19398ZM22.9338 12.0213C23.3757 12.2845 23.7766 12.6266 24.127 13.064L24.5799 12.7044L22.9338 12.0213ZM29.3112 14.668L26.4144 13.4764V41.2043C26.4144 42.3771 27.3523 43.3278 28.5251 43.3278C29.6979 43.3278 30.6487 42.3771 30.6487 41.2043V24.2304H31.5656V41.2044C31.5656 42.3772 32.5163 43.3279 33.6891 43.3279C34.8619 43.3279 35.8131 42.3772 35.8131 41.2044V12.3371L31.5631 14.5669C31.2181 14.7479 30.8376 14.8508 30.4484 14.8682C30.0592 14.8857 29.671 14.8174 29.3112 14.668Z" fill="#148A8B"/>
<path d="M8.55975 32.9511C7.97871 33.4097 7.71324 34.1859 7.92088 34.9205L10.3657 43.6411C10.644 44.6339 11.6735 45.2081 12.6609 44.9311C13.6509 44.6535 14.2285 43.626 13.951 42.6359L11.8391 35.103L14.9704 32.6209L17.1475 32.8327C16.4424 32.5567 15.8615 31.9798 15.6093 31.2034C15.1625 29.8276 15.9155 28.35 17.2914 27.9031L21.1706 26.6432L21.2101 27.6341L17.5862 28.8111C16.7118 29.0951 16.2332 30.0341 16.5173 30.9085C16.8012 31.7829 17.7403 32.2615 18.6147 31.9775L23.4378 30.411C23.783 30.2989 24.082 30.0771 24.2895 29.7794C24.4969 29.4816 24.6014 29.1242 24.5869 28.7616L24.3205 22.0699C24.2806 21.0667 23.8413 20.1568 23.1555 19.5004C22.3001 20.0821 21.2677 20.3451 20.2383 20.2438C17.7509 20.0018 16.0242 17.7867 16.2559 15.4034C16.3322 14.6156 16.6186 13.8627 17.0851 13.2233L17.1889 12.6306L20.0531 9.42043C19.9842 8.94727 20.0449 8.46428 20.2287 8.02289C20.6634 6.97559 21.6906 6.35461 22.7603 6.38612L22.9573 6.16541C23.5693 5.47941 23.5094 4.42719 22.8233 3.81508C22.1373 3.20315 21.0851 3.26291 20.473 3.949L14.3888 10.7682C14.1823 10.9996 14.0446 11.2841 13.9912 11.5895L12.6575 19.2126L11.5595 30.5733L8.55975 32.9511Z" fill="#148A8B"/>
<path d="M22.5051 31.7174L18.9095 32.8852C18.6084 32.9831 18.3218 33.0204 18.0184 33.0108L21.0642 35.2897L17.9445 42.3895C17.5309 43.3308 17.9587 44.4292 18.9 44.8429C19.8374 45.2548 20.938 44.8327 21.3534 43.8874L25.0679 35.4339C25.4058 34.6651 25.1858 33.7541 24.5168 33.2258C24.5037 33.2154 23.1794 32.2228 22.5051 31.7174ZM20.663 12.382C18.9081 12.3821 17.4068 13.7154 17.2334 15.4983C17.0489 17.3948 18.4368 19.0816 20.3332 19.266C22.2334 19.4508 23.9169 18.0588 24.1009 16.1662C24.2981 14.1392 22.7063 12.382 20.663 12.382ZM38.0977 8.61742C38.0031 8.23324 37.7824 7.89186 37.4709 7.64782C37.1595 7.40378 36.7752 7.27116 36.3795 7.27113H34.0657C33.2554 7.94309 32.2157 8.34766 31.0833 8.34766C29.9508 8.34766 28.9112 7.94309 28.1008 7.27113H26.348C26.1144 7.27113 25.8855 7.31861 25.6726 7.40654L30.2506 9.32378L33.0102 9.04068L30.2463 10.3393L23.36 7.40619C22.4572 7.03147 21.4218 7.45955 21.0471 8.36231C20.6725 9.26507 21.1006 10.3005 22.0033 10.6752L29.6509 13.8492C29.8906 13.9487 30.1493 13.9942 30.4086 13.9826C30.6679 13.9709 30.9215 13.9024 31.1514 13.7818L37.2016 10.6078C37.552 10.424 37.8307 10.128 37.9931 9.76725C38.1556 9.40645 38.1924 9.00161 38.0977 8.61742Z" fill="#148A8B"/>
<path d="M34.7465 4.03631C34.9469 2.02066 33.4755 0.224141 31.4598 0.0236639C29.4442 -0.176814 27.6476 1.29467 27.4472 3.31031C27.2467 5.32596 28.7182 7.12248 30.7338 7.32296C32.7495 7.52343 34.546 6.05195 34.7465 4.03631Z" fill="#148A8B"/>
</g>
<defs>
<clipPath id="clip0_5046_555">
<rect width="45" height="45" fill="white" transform="translate(0.5)"/>
</clipPath>
</defs>
</svg>
