<svg width="46" height="45" viewBox="0 0 46 45" fill="none" xmlns="http://www.w3.org/2000/svg">
<path d="M30.4024 13.0161C30.8218 13.052 31.2391 13.0833 31.6547 13.1086C31.5492 10.1344 31.8909 6.77767 34.7048 3.97431C35.6038 3.07888 35.9529 2.46751 35.3658 1.609C35.1439 1.28486 34.8194 1.10099 34.4014 1.06197C33.8284 1.01064 33.1453 1.25427 32.7403 1.65892C29.8332 4.56599 28.4871 8.13435 28.5089 12.8615C29.0538 12.8998 29.592 12.9462 30.1215 12.9919L30.4024 13.0161ZM12.8408 36.3926L9.10403 32.6558C8.61642 32.7428 8.13731 32.8721 7.67212 33.0422L12.4551 37.8249C12.6248 37.3595 12.7539 36.8803 12.8408 36.3926Z" fill="#148A8B"/>
<path d="M41.0278 10.2986C41.1146 10.2114 41.2095 10.1165 41.3118 10.0198L35.4805 4.18848C35.3838 4.29078 35.2885 4.3857 35.2013 4.47254C34.9924 4.68262 34.7928 4.90173 34.603 5.12926L40.3721 10.8984C40.5993 10.7081 40.8181 10.508 41.0278 10.2986ZM37.5016 12.5377L32.9633 7.99941C32.7996 8.46642 32.6702 8.94477 32.5762 9.43063L36.0697 12.9238C36.5558 12.8301 37.0343 12.7011 37.5016 12.5377ZM12.9147 31.8262C12.8872 31.4801 12.8585 31.134 12.8286 30.788L12.7889 30.325C12.7388 29.7633 12.6936 29.2011 12.6532 28.6386C8.70934 28.4305 5.39657 28.9996 2.15481 32.2407C2.11473 32.2832 1.04352 33.4357 1.84473 34.6064C2.06024 34.921 2.38122 35.1123 2.7486 35.1457C3.21442 35.1854 3.70063 34.9783 4.11723 34.5575C6.85907 31.7844 9.95247 31.6392 12.9147 31.8262ZM23.5889 23.4622C23.2858 23.7656 23.2879 24.031 23.6064 24.3671L25.2753 26.036C25.3716 25.947 25.4683 25.8623 25.5636 25.7667C25.7732 25.5553 25.973 25.3344 26.1623 25.1047L24.5089 23.4513C24.2213 23.1637 23.9995 23.0864 23.5889 23.4622Z" fill="#148A8B"/>
<path d="M30.0111 17.5696L29.8832 17.5588C29.5133 17.5271 29.1502 17.4969 28.7898 17.4688C28.9723 20.4177 28.8246 23.5002 26.061 26.2645C23.7748 28.5507 21.2702 29.0471 18.8037 29.0471C18.2879 29.0471 17.775 29.0225 17.2649 28.9909C17.293 29.3512 17.3233 29.7151 17.3552 30.0849L17.3971 30.5687C17.4431 31.0978 17.4895 31.6357 17.5272 32.1809C21.143 32.3729 24.9395 32.0178 28.3764 28.5799C31.8182 25.1377 32.1715 21.3212 31.9746 17.686C31.3192 17.6656 30.6644 17.6268 30.0111 17.5696Z" fill="#148A8B"/>
<path d="M17.4714 23.8571L21.6466 28.0323C22.1105 27.9173 22.5634 27.7619 23.0001 27.5679L17.9376 22.5054C17.7397 22.9483 17.586 23.3987 17.4714 23.8571Z" fill="#148A8B"/>
<path d="M44.438 11.0978C44.3993 10.6802 44.2151 10.3557 43.891 10.1339C43.0335 9.5471 42.4218 9.8962 41.526 10.7951C38.2396 14.0942 34.1998 14.0478 30.3425 13.717L30.0616 13.6931C28.8501 13.5883 27.5915 13.4797 26.3129 13.4797C23.1709 13.4797 19.9084 14.1364 16.9205 17.124C12.7165 21.328 13.1272 26.0758 13.4893 30.265L13.5293 30.728C13.8598 34.5653 14.172 38.1903 10.9425 41.3832C10.5214 41.7998 10.3125 42.2857 10.3544 42.7518C10.3874 43.1192 10.579 43.4402 10.894 43.6557C12.0644 44.4573 13.2168 43.386 13.2653 43.34C17.438 39.1673 17.0611 34.8269 16.6969 30.63L16.6551 30.1459C16.3239 26.2984 16.0114 22.6642 19.2359 19.4397C22.4604 16.2152 26.0956 16.5277 29.9438 16.8589L30.0718 16.8698C37.9548 17.5466 41.5707 15.0301 43.8411 12.76C44.2457 12.3547 44.4915 11.6712 44.438 11.0978Z" fill="#148A8B"/>
<path d="M22.801 17.9367L27.5682 22.7038C27.7425 22.2321 27.867 21.755 27.9556 21.2733L24.2329 17.5503C23.747 17.6389 23.2696 17.7644 22.801 17.9367ZM11.0493 40.2261L5.27453 34.4513C5.04614 34.6411 4.82676 34.8415 4.61711 35.0518C4.52352 35.1454 4.42406 35.233 4.31934 35.314L10.1859 41.1809C10.266 41.079 10.3511 40.9788 10.4481 40.8828C10.6586 40.6734 10.8593 40.4542 11.0493 40.2261ZM22.0483 21.8998C22.3408 21.6073 22.4199 21.3851 22.0409 20.9833L20.3942 19.3369C20.1646 19.5264 19.9439 19.7264 19.7329 19.9363C19.6369 20.0323 19.5539 20.1294 19.4646 20.2257L21.1391 21.9002C21.5438 22.2707 21.7477 22.1997 22.0483 21.8998Z" fill="#148A8B"/>
</svg>
