<svg width="46" height="46" viewBox="0 0 46 46" fill="none" xmlns="http://www.w3.org/2000/svg">
<g clip-path="url(#clip0_5010_222)">
<path d="M33.9488 0.5V0.507077L35.4004 0.5H33.9488ZM8.40131 25.1774H10.5776L9.70622 23.2597L8.03977 24.0937L8.40131 25.1774ZM2.78484 13.4827L2.8341 13.3373C2.88195 13.1924 2.97426 13.0662 3.09793 12.9767C3.2216 12.8871 3.37032 12.8389 3.52298 12.8387H6.55704L7.16653 9.79014C7.2001 9.62627 7.28921 9.479 7.41881 9.37324C7.54841 9.26748 7.71055 9.2097 7.87782 9.20968H9.0187L6.46976 2.19966L7.15202 1.95161H0.5V12.149L1.17373 11.5788L2.78484 13.4827ZM23.8456 22.2742H26.023V28.8065H23.8456V22.2742ZM23.1198 17.9194H26.7488V20.8226H23.1198V17.9194ZM27.4746 16.4677H34.7327V3.40323H15.1359V16.4677H27.4746ZM17.952 14.6344L16.6747 13.9462L21.7553 4.51072L23.0326 5.19896L22.5899 6.02048C24.1304 6.39509 25.7382 6.39509 27.2786 6.02048L26.836 5.19896L28.1132 4.51072L33.1939 13.9462L31.9166 14.6344L31.4085 13.6864C27.5288 16.427 22.3441 16.427 18.4644 13.6864L17.952 14.6344ZM39.9643 17.7116L38.1933 19.8363C38.129 19.913 38.0496 19.9757 37.9601 20.0206L35.9578 21.0214L36.6975 21.761C36.821 21.8846 36.8959 22.0486 36.9082 22.2228C36.9206 22.3971 36.8697 22.57 36.7648 22.7098L35.6311 24.2216C35.5674 24.3066 35.5231 24.4046 35.5014 24.5086C35.4796 24.6126 35.481 24.72 35.5054 24.8234C35.5297 24.9268 35.5765 25.0236 35.6424 25.107C35.7083 25.1903 35.7916 25.2582 35.8866 25.3058L38.3617 26.5397L40.9403 25.2501L41.5893 26.5493L38.859 27.9144L38.0853 29.0757L42.8931 30.2776L42.5401 31.6856L36.8215 30.2581H30.5795C28.1139 30.2683 25.8805 31.7142 24.8617 33.9597C26.87 36.3264 28.0563 39.2808 28.2426 42.3792L32.9709 41.1965L38.4932 37.1809C40.141 35.9792 42.1288 35.3339 44.1681 35.3387V15.7419C43.3657 15.7409 42.5729 15.9169 41.8463 16.2574C41.1196 16.5978 40.477 17.0944 39.9643 17.7116ZM13.0145 45.0534L9.64879 36.9768C8.14028 37.5671 6.6865 38.2887 5.3042 39.1333L0.997903 41.7649L0.5 40.9499V45.5H13.6843C13.541 45.5 13.401 45.4576 13.2818 45.3781C13.1626 45.2987 13.0696 45.1857 13.0145 45.0534ZM24.0785 35.2902C23.9715 35.3313 23.8562 35.3455 23.7425 35.3316C19.4686 34.7246 15.1121 35.1197 11.0171 36.4856L14.1684 44.0484H21.5789L26.8049 42.7421C26.7011 40.0335 25.7472 37.4262 24.0785 35.2902ZM15.4988 39.3306V37.879C15.595 37.879 15.6873 37.8408 15.7554 37.7727C15.8235 37.7047 15.8617 37.6124 15.8617 37.5161C15.8617 37.4199 15.8235 37.3276 15.7554 37.2595C15.6873 37.1915 15.595 37.1532 15.4988 37.1532V35.7016C16.501 35.7016 17.3133 36.5139 17.3133 37.5161C17.3133 38.5184 16.501 39.3306 15.4988 39.3306Z" fill="#148A8B"/>
<path d="M30.7102 12.3948L27.9828 7.33008C26.9914 7.61314 25.9654 7.75722 24.9343 7.75821C23.9032 7.75722 22.8773 7.61313 21.8858 7.33008L20.0903 10.6685L22.1654 9.97709C22.2931 9.93383 22.4304 9.92727 22.5616 9.95816C22.6929 9.98905 22.8128 10.0562 22.9078 10.1518L24.0852 11.3285L26.9848 10.7479L27.5515 9.61419L28.8507 10.2631L28.1249 11.7147C28.0752 11.8136 28.0036 11.8998 27.9156 11.9668C27.8275 12.0338 27.7253 12.0798 27.6168 12.1013L23.9877 12.8272C23.871 12.8507 23.7502 12.8449 23.6362 12.8103C23.5222 12.7758 23.4185 12.7135 23.3345 12.629L22.198 11.4925L20.4459 12.073L20.0192 10.7936L19.1583 12.3902C22.5942 14.9181 27.2744 14.9181 30.7102 12.3902V12.3948ZM33.7077 42.4584C33.6325 42.5128 33.5476 42.5525 33.4576 42.5753L21.8447 45.4786C21.7869 45.4928 21.7276 45.5001 21.6681 45.5001H44.1681V36.7905C42.4343 36.7867 40.7444 37.3362 39.3444 38.3591L33.7077 42.4584ZM13.7569 34.2399L9.50417 29.2783L10.606 28.3349L13.6545 31.8913L14.2252 31.0361L10.4472 26.6292H0.619758V25.1776H6.87022L6.46304 23.9552C6.40775 23.7896 6.414 23.6095 6.48065 23.4481C6.5473 23.2867 6.66989 23.1547 6.82595 23.0764L7.62433 22.6759L6.70338 20.8227H0.619758V19.3711H4.24879V17.4595L0.5 13.032V31.7215L4.85484 30.9957C4.95524 30.9788 5.05807 30.9829 5.15679 31.0079C5.2555 31.0328 5.34794 31.0781 5.42823 31.1407L9.05726 34.0439L8.15 35.1776L4.77436 32.4792L0.739607 33.1512L0.5 31.7201V40.3674L4.54728 37.8944C7.3872 36.1618 10.5017 34.9259 13.7569 34.2399ZM8.09112 31.4973L9.1175 30.4709L12.0207 33.3741L10.9944 34.4004L8.09112 31.4973Z" fill="#148A8B"/>
</g>
<defs>
<clipPath id="clip0_5010_222">
<rect width="45" height="45" fill="white" transform="translate(0.5 0.5)"/>
</clipPath>
</defs>
</svg>
