<svg width="46" height="46" viewBox="0 0 46 46" fill="none" xmlns="http://www.w3.org/2000/svg">
<g clip-path="url(#clip0_5010_216)">
<path d="M28.5353 6.14098C28.2746 5.81131 27.7916 5.74998 27.4543 6.01065C26.1883 7.02358 24.6137 7.57278 22.9923 7.56698C21.3746 7.56698 19.7953 7.01498 18.538 6.01831C18.46 5.95316 18.3692 5.90515 18.2715 5.87741C18.1737 5.84967 18.0712 5.84282 17.9706 5.85731C17.7713 5.88031 17.5873 5.97998 17.457 6.14098L9.59098 16.0616C9.52704 16.1395 9.4794 16.2295 9.45089 16.3261C9.42238 16.4228 9.41359 16.5242 9.42503 16.6243C9.43647 16.7244 9.46792 16.8212 9.5175 16.9089C9.56708 16.9967 9.63378 17.0735 9.71365 17.135C13.524 20.171 18.1163 21.7733 22.9923 21.7733C27.8683 21.7733 32.4683 20.171 36.2787 17.135C36.3577 17.073 36.4237 16.9958 36.4727 16.9081C36.5218 16.8204 36.5529 16.7238 36.5643 16.624C36.5757 16.5241 36.5672 16.423 36.5392 16.3265C36.5112 16.2299 36.4644 16.1399 36.4013 16.0616L28.5353 6.14098Z" fill="#148A8B"/>
<path d="M41.446 38.1884C41.4451 37.2828 41.0851 36.4144 40.4447 35.7739C39.8044 35.1335 38.9361 34.7732 38.0305 34.7722H25.645C25.1458 34.7718 24.6672 34.5734 24.3142 34.2205C23.9612 33.8676 23.7626 33.3891 23.762 32.89V32.8747H37.559C39.7056 32.8747 41.446 31.1267 41.446 28.9877V3.887C41.446 1.74033 39.7056 0 37.559 0H8.44095C7.41006 0 6.42138 0.409522 5.69243 1.13848C4.96348 1.86743 4.55396 2.8561 4.55396 3.887V28.9877C4.55396 31.1267 6.29429 32.8747 8.44095 32.8747H22.2287V32.89C22.2297 33.7957 22.59 34.6639 23.2305 35.3043C23.8709 35.9446 24.7393 36.3047 25.645 36.3055H38.0305C39.0685 36.3055 39.9134 37.1504 39.9134 38.1884C39.9134 39.2265 39.0685 40.0714 38.0305 40.0714H22.5476C22.457 39.5643 22.1908 39.1053 21.7956 38.7748C21.4004 38.4444 20.9015 38.2637 20.3864 38.2643H14.8894L10.0671 35.9567C9.68372 35.7727 9.24672 35.673 8.81739 35.673H6.47906C5.42106 35.673 4.55472 36.547 4.55472 37.6127V44.0757C4.55472 45.1337 5.42106 46 6.47906 46H8.81739C8.89405 46 8.97839 46 9.05505 45.9923H9.08572C9.09415 45.9916 9.10105 45.9885 9.11025 45.987C9.13172 45.9893 9.15089 46 9.17312 46C9.30345 46 9.41922 45.9594 9.52655 45.9026L9.53805 45.9003C9.53805 45.9003 9.54572 45.908 9.54572 45.9003C9.72972 45.8543 9.89839 45.793 10.0671 45.7163L14.8894 43.4163H20.3941C21.4751 43.4163 22.3721 42.6343 22.5484 41.607V41.6047H38.0312C38.937 41.6039 39.8055 41.2437 40.446 40.6032C41.0865 39.9627 41.4467 39.0942 41.4475 38.1884H41.446ZM22.5783 29.7237C22.1566 29.7237 21.8116 29.3787 21.8116 28.957C21.8116 28.5353 22.1566 28.1903 22.5783 28.1903H23.414C23.8356 28.1903 24.1806 28.5353 24.1806 28.957C24.1806 29.3787 23.8356 29.7237 23.414 29.7237H22.5783ZM28.1596 29.7237H27.3316C26.91 29.7237 26.565 29.3787 26.565 28.957C26.565 28.5353 26.91 28.1903 27.3316 28.1903H28.1596C28.589 28.1903 28.9263 28.5353 28.9263 28.957C28.9263 29.3787 28.589 29.7237 28.1596 29.7237ZM17.8326 28.1903H18.6606C19.0823 28.1903 19.4273 28.5353 19.4273 28.957C19.4273 29.3787 19.0823 29.7237 18.6606 29.7237H17.8326C17.4033 29.7237 17.066 29.3787 17.066 28.957C17.066 28.5353 17.4033 28.1903 17.8326 28.1903ZM6.08729 3.887C6.08729 2.59133 7.14529 1.53333 8.44095 1.53333H37.559C38.8546 1.53333 39.9126 2.59133 39.9126 3.887V25.0393H6.08729V3.887ZM20.3933 41.883H14.7123C14.5973 41.883 14.4823 41.906 14.3826 41.9597L9.93902 44.0741V38.8654C9.93902 38.6621 9.85825 38.4671 9.71447 38.3233C9.57069 38.1795 9.37569 38.0987 9.17235 38.0987C8.96902 38.0987 8.77402 38.1795 8.63024 38.3233C8.48646 38.4671 8.40569 38.6621 8.40569 38.8654V44.4667H6.47829C6.26362 44.4667 6.08729 44.2903 6.08729 44.0757V37.6127C6.08729 37.398 6.27129 37.2063 6.47829 37.2063H8.81662C9.01595 37.2063 9.22295 37.2523 9.40695 37.3443L14.3826 39.721C14.4823 39.7747 14.5973 39.7977 14.7123 39.7977H20.3856C20.746 39.7977 21.0526 40.0967 21.0526 40.457V40.8227C21.0526 40.8281 21.0496 40.8327 21.0496 40.838C21.0496 40.8434 21.0526 40.8472 21.0526 40.8526V41.2237C21.0526 41.584 20.7536 41.883 20.3933 41.883Z" fill="#148A8B"/>
</g>
<defs>
<clipPath id="clip0_5010_216">
<rect width="45" height="45" fill="white" transform="translate(0.5 0.5)"/>
</clipPath>
</defs>
</svg>
