<svg width="46" height="46" viewBox="0 0 46 46" fill="none" xmlns="http://www.w3.org/2000/svg">
<g clip-path="url(#clip0_5010_210)">
<path d="M39.5116 17.9964C39.175 16.8169 38.8445 15.6576 38.5466 14.3041L37.4699 13.0007L29.7329 19.3912C30.1618 19.6725 30.6733 19.915 31.242 20.0451L30.6531 22.615C27.5057 21.9182 25.1516 19.066 25.0615 15.8439C25.7183 15.8214 27.04 15.775 27.6965 15.7517C27.7167 16.3353 27.8582 16.8837 28.0533 17.3583L35.7912 10.9678L33.7926 8.54814L37.4849 5.49922C37.4128 4.02969 37.3662 2.37734 37.3513 0.5H8.3755C8.34737 4.09297 8.20323 6.85977 7.98263 9.10098L12.2075 14.2171L9.7879 16.2157L16.1784 23.9527C16.4597 23.5238 16.7023 23.0123 16.8323 22.4437L19.4023 23.0325C18.7055 26.1793 15.8532 28.5343 12.6312 28.6241C12.6086 27.9673 12.5623 26.6457 12.5389 25.9892C13.1225 25.9689 13.6709 25.8274 14.1455 25.6323L7.75499 17.8944L5.78976 19.5178C3.09415 29.3637 3.99063 37.7608 7.47813 45.5H21.545V41.4544L14.2738 37.2884C14.6009 36.7182 15.2586 35.5707 15.5852 35.0006C16.905 35.7571 21.4677 38.3713 22.8634 39.171C24.2846 38.3567 28.7982 35.7705 30.1416 35.0006C30.4683 35.5709 31.126 36.7184 31.4529 37.2884L24.1817 41.4544V45.5H38.2478C42.1361 36.9352 42.5219 27.9262 39.5116 17.9964Z" fill="#148A8B"/>
<path d="M5.68865 16.1816C6.54198 15.4777 7.64184 14.5675 8.49587 13.8631C7.87255 13.1092 6.80099 11.8114 6.17732 11.0567C5.24207 11.8295 4.30662 12.6021 3.37097 13.3744C3.88566 13.998 5.68865 16.1816 5.68865 16.1816ZM39.8227 11.7089C40.3566 11.2677 42.0683 9.85422 42.6291 9.39121L40.3114 6.58398C39.5378 7.22233 38.2768 8.26375 37.5042 8.90166C37.5558 8.96415 39.2332 10.9936 39.8227 11.7089Z" fill="#148A8B"/>
</g>
<defs>
<clipPath id="clip0_5010_210">
<rect width="45" height="45" fill="white" transform="translate(0.5 0.5)"/>
</clipPath>
</defs>
</svg>
