<svg width="46" height="46" viewBox="0 0 46 46" fill="none" xmlns="http://www.w3.org/2000/svg">
<g clip-path="url(#clip0_5010_228)">
<path d="M39.8651 30.778H34.7197L30.5785 25.1499C29.9866 24.3455 28.9162 24.0595 28.0022 24.4615L23.3543 26.5081C23.0582 26.7451 22.7175 26.9204 22.3525 27.0234L15.4408 28.971C14.6257 29.2011 13.7832 28.8869 13.3001 28.2508L9.94621 23.8103L14.0715 27.353C14.2804 27.5322 14.5303 27.6571 14.799 27.7165C15.0678 27.7758 15.3471 27.7678 15.612 27.6932L22.0315 25.884C22.9186 25.6336 23.4353 24.7118 23.1853 23.8243C22.9351 22.9368 22.0129 22.4201 21.1258 22.6704L15.5678 24.237L12.1215 21.2775L15.4074 23.0522L20.8045 21.5309C22.2142 21.1336 23.6746 21.8691 24.2171 23.1926C24.3489 23.1837 24.4821 23.1586 24.6132 23.1154L30.7533 21.0788C31.1202 20.9571 31.4307 20.7067 31.6273 20.3739L33.9107 16.5126L32.6776 20.995C32.3895 22.0422 31.3579 22.1229 31.1374 22.2371L28.7235 23.0374C29.8198 22.9935 30.9015 23.4854 31.5827 24.4114L35.4472 29.6629H39.679L36.7446 13.6255C36.5533 12.5801 35.7098 11.828 34.7244 11.828H31.1625C30.1792 11.828 29.3333 12.5822 29.1424 13.6256L28.4942 17.169L31.1542 14.8829L29.1761 18.2282L23.6053 20.0756C23.0305 20.2662 22.6378 20.7516 22.5358 21.3081C22.131 21.0558 21.4959 20.7444 21.0904 20.6177V12.4764H22.6247C23.3199 12.4764 23.8833 11.913 23.8833 11.2178V1.75859C23.8833 1.06338 23.3199 0.5 22.6247 0.5H6.15276C5.4579 0.5 4.89417 1.06338 4.89417 1.75859V9.9812C5.32888 9.8521 5.77996 9.78641 6.23344 9.78617C8.10868 9.78617 9.7278 10.8536 10.5092 12.4765H19.3347V19.9541C18.2741 19.6879 16.1497 19.7886 15.052 20.2342L11.7552 17.8793C10.8481 17.239 9.61213 17.3438 8.82586 18.1272L6.27879 20.6654C5.55229 21.3915 5.48505 22.5678 6.1147 23.4796L12.8816 33.3286C13.2325 33.8392 13.7024 34.2567 14.2507 34.5452C14.799 34.8337 15.4093 34.9844 16.0289 34.9844H39.91C41.0917 34.9844 42.0489 34.0832 42.0427 32.8994C42.0366 31.7183 41.046 30.778 39.8651 30.778ZM14.833 9.57673H11.6535C10.808 9.57673 10.1226 8.89118 10.1226 8.04585C10.1226 7.6782 10.2524 7.3407 10.4687 7.07703V6.1504L9.59324 5.23168C9.20423 4.82343 9.22005 4.1777 9.62787 3.78869C10.0357 3.39969 10.6819 3.41551 11.0709 3.82341L12.2282 5.03771C12.4089 5.22761 12.5097 5.47972 12.5098 5.74188V6.51506H13.4556L13.4766 4.41008C13.482 3.84978 13.938 3.39969 14.4969 3.39969H14.5072C15.0709 3.40522 15.5231 3.86665 15.5176 4.43038L15.4953 6.66711C16.0085 6.91426 16.3639 7.43791 16.3639 8.04559C16.3639 8.89109 15.6786 9.57673 14.833 9.57673ZM18.096 7.54021C17.0506 7.54021 16.2032 6.69286 16.2032 5.64775C16.2032 4.60238 17.0505 3.75503 18.096 3.75503C19.141 3.75503 19.9883 4.60229 19.9883 5.64775C19.9883 6.69277 19.141 7.54021 18.096 7.54021ZM24.7166 30.778L28.1549 29.0542L29.4232 30.778H24.7166Z" fill="#148A8B"/>
<path d="M32.7028 7.98464C32.7028 6.0332 31.1208 4.45117 29.1693 4.45117C27.2179 4.45117 25.6358 6.0332 25.6358 7.98464C25.6358 9.93818 27.222 11.5181 29.1693 11.5181C31.1187 11.5181 32.7028 9.93511 32.7028 7.98464ZM9.94535 14.5204C9.94535 16.5615 8.29055 18.2163 6.24946 18.2163C4.20838 18.2163 2.55392 16.5615 2.55392 14.5205C2.55392 12.4795 4.20838 10.825 6.24946 10.825C8.29055 10.825 9.94535 12.4795 9.94535 14.5204ZM15.3925 36.3682C14.764 36.3682 14.1448 36.2159 13.5881 35.9244C13.0313 35.6328 12.5534 35.2107 12.1954 34.6942L3.69888 22.4375C3.14648 21.6406 2.05233 21.4426 1.25552 21.9949C0.4587 22.5472 0.260155 23.6411 0.812899 24.438L9.08288 36.3682H1.27028C0.873368 36.3682 0.551337 36.6899 0.551337 37.0867V40.4781C0.551337 40.875 0.873368 41.1967 1.27028 41.1967H44.7812C44.8756 41.1967 44.9691 41.1781 45.0562 41.142C45.1434 41.1059 45.2227 41.0529 45.2894 40.9862C45.3561 40.9195 45.409 40.8403 45.4452 40.7531C45.4813 40.6659 45.4998 40.5724 45.4998 40.4781V37.0867C45.4998 36.9924 45.4812 36.8989 45.4451 36.8117C45.409 36.7246 45.3561 36.6453 45.2894 36.5786C45.2226 36.5119 45.1434 36.459 45.0562 36.4229C44.969 36.3868 44.8756 36.3682 44.7812 36.3682H15.3925Z" fill="#148A8B"/>
</g>
<defs>
<clipPath id="clip0_5010_228">
<rect width="45" height="45" fill="white" transform="translate(0.5 0.5)"/>
</clipPath>
</defs>
</svg>
