<svg width="46" height="45" viewBox="0 0 46 45" fill="none" xmlns="http://www.w3.org/2000/svg">
<path d="M44.0841 14.1074C44.4584 12.9433 44.1774 11.6933 43.3363 10.7672C42.9125 10.3033 42.3759 9.95694 41.7787 9.76179C41.1815 9.56663 40.5439 9.52932 39.928 9.65348L39.7067 9.69642C39.1625 9.81498 38.6527 10.0792 38.1766 10.4871C35.1258 13.1216 30.9697 12.1106 30.1276 11.8641C28.2073 10.011 25.683 9 22.9972 9C20.3114 9 17.7787 10.011 15.85 11.8725C14.966 12.119 10.8444 13.0964 7.81877 10.4871C7.35107 10.0792 6.83295 9.81592 6.2971 9.70483L6.06745 9.65348C5.45153 9.52736 4.81339 9.56372 4.21579 9.75899C3.61818 9.95427 3.0817 10.3017 2.65909 10.7672C2.25071 11.2084 1.9664 11.7499 1.83507 12.3365C1.70373 12.9232 1.73004 13.5342 1.91132 14.1074C2.36876 15.5591 3.3135 16.7484 4.71381 17.6567C4.24051 18.8489 4.62139 20.3967 5.78739 21.5692C6.63691 22.4103 7.68248 22.8528 8.65149 22.8528C9.37406 22.8528 10.0537 22.6064 10.5718 22.0883C11.7621 20.898 11.5324 18.7994 10.0453 17.3123C8.78219 16.0492 7.08128 15.7038 5.86767 16.3544C4.68581 15.6431 3.88856 14.7273 3.53475 13.5977C3.34804 13.003 3.4834 12.3906 3.9175 11.9061C4.13909 11.6577 4.42263 11.4726 4.73917 11.3696C5.0557 11.2666 5.3939 11.2494 5.71924 11.3199L5.94889 11.3619C6.20375 11.4216 6.4586 11.557 6.71346 11.7698C9.77268 14.4127 13.5722 14.099 15.4337 13.7247C15.52 16.4379 16.1259 19.1094 17.2186 21.5944C19.0801 25.7842 20.023 30 20.023 34.1132V35.1504C20.023 35.6265 20.4057 35.9999 20.8725 35.9999H25.122C25.5897 35.9999 25.9715 35.6256 25.9715 35.1504V34.1226C25.9715 30.001 26.9153 25.7851 28.7759 21.5954C29.8686 19.1104 30.4745 16.4388 30.5608 13.7256C32.4307 14.0999 36.2209 14.4136 39.2894 11.7708C39.5359 11.5579 39.7991 11.4141 40.0456 11.3628L40.2752 11.3208C40.6006 11.2497 40.939 11.2665 41.2556 11.3695C41.5723 11.4726 41.8558 11.6581 42.077 11.9071C42.5101 12.3916 42.6548 13.003 42.4681 13.5986C42.1003 14.7497 41.2788 15.6795 40.0587 16.3965C38.8404 15.6786 37.0835 16.0184 35.7886 17.3123C34.3015 18.7994 34.0718 20.8989 35.2621 22.0883C35.7718 22.6064 36.4524 22.8528 37.1824 22.8528C38.143 22.8528 39.197 22.4113 40.0381 21.5692C41.1826 20.4247 41.5738 18.9217 41.1546 17.7417C42.6278 16.8231 43.6126 15.6029 44.0841 14.1074Z" fill="#148A8B"/>
</svg>
