<?xml version="1.0" encoding="UTF-8"?>
<!DOCTYPE svg PUBLIC "-//W3C//DTD SVG 1.1//EN" "http://www.w3.org/Graphics/SVG/1.1/DTD/svg11.dtd">
<!-- Creator: CorelDRAW -->
<svg xmlns="http://www.w3.org/2000/svg" xml:space="preserve" width="7.7187mm" height="6.6262mm" version="1.1" style="shape-rendering:geometricPrecision; text-rendering:geometricPrecision; image-rendering:optimizeQuality; fill-rule:evenodd; clip-rule:evenodd"
viewBox="0 0 771.86 662.61"
 xmlns:xlink="http://www.w3.org/1999/xlink"
 xmlns:xodm="http://www.corel.com/coreldraw/odm/2003">
 <defs>
  <style type="text/css">
   <![CDATA[
    .fil0 {fill:#1F9C9C;fill-rule:nonzero}
   ]]>
  </style>
 </defs>
 <g id="Layer_x0020_1">
  <metadata id="CorelCorpID_0Corel-Layer"/>
  <g id="_1694490424416">
   <path class="fil0" d="M36.84 529.74c-9.43,0 -16.94,7.68 -16.94,16.94l0 81.36c0,9.43 7.69,16.94 16.94,16.94l440.35 0c9.42,0 16.93,-7.68 16.93,-16.94l0 -81.36c0,-9.43 -7.68,-16.94 -16.93,-16.94l-440.35 0 0 0zm440.35 132.87l-440.35 0c-19.03,0 -34.4,-15.54 -34.4,-34.39l0 -81.37c0,-19.03 15.54,-34.4 34.4,-34.4l440.35 0c19.03,0 34.39,15.54 34.39,34.4l0 81.37c0,18.85 -15.36,34.39 -34.39,34.39z"/>
   <path class="fil0" d="M384.3 529.74c-4.88,0 -8.73,-3.84 -8.73,-8.73l0 -24.45c0,-8.55 -6.98,-15.71 -15.71,-15.71l-205.86 0c-8.56,0 -15.71,6.98 -15.71,15.71l0 24.45c0,4.89 -3.85,8.73 -8.73,8.73 -4.89,0 -8.73,-3.84 -8.73,-8.73l0 -24.45c0,-18.33 14.84,-33.17 33.17,-33.17l205.86 0c18.33,0 33.18,14.84 33.18,33.17l0 24.45c0,4.89 -3.85,8.73 -8.74,8.73z"/>
   <path class="fil0" d="M314.64 481.02c-3.32,0 -6.64,-1.92 -8.03,-5.23 -7.16,-16.59 -13.1,-34.75 0.34,-60.42 2.27,-4.19 7.51,-5.93 11.7,-3.66 4.19,2.27 5.94,7.5 3.67,11.69 -9.78,18.86 -5.94,31.08 0.35,45.4 1.92,4.37 -0.18,9.61 -4.54,11.53 -1.22,0.52 -2.45,0.69 -3.49,0.69zm-115.24 0c-1.22,0 -2.27,-0.17 -3.49,-0.69 -4.37,-1.92 -6.46,-6.99 -4.54,-11.53 6.11,-14.14 10.12,-26.54 0.35,-45.4 -2.27,-4.19 -0.53,-9.6 3.66,-11.69 4.19,-2.27 9.6,-0.53 11.7,3.66 13.44,25.49 7.51,43.83 0.35,60.42 -1.4,3.31 -4.71,5.23 -8.03,5.23z"/>
   <path class="fil0" d="M46.44 90.09c-15.89,0 -28.98,12.92 -28.98,28.99l0 262.78c0,15.89 12.92,28.98 28.98,28.98l420.97 0c15.89,0 28.98,-12.92 28.98,-28.98l0 -262.78c0,-15.89 -12.92,-28.99 -28.98,-28.99l-420.97 0 0 0zm420.97 338.04l-420.97 0c-25.49,0 -46.44,-20.78 -46.44,-46.45l0 -262.6c0,-25.5 20.78,-46.45 46.44,-46.45l420.97 0c25.49,0 46.44,20.78 46.44,46.45l0 262.78c0,25.49 -20.78,46.27 -46.44,46.27z"/>
   <path class="fil0" d="M80.32 129.2c-13.1,0 -23.75,10.66 -23.75,23.75l0 195.03c0,13.1 10.65,23.75 23.75,23.75l353.22 0c13.1,0 23.75,-10.65 23.75,-23.75l0 -195.03c0,-13.09 -10.65,-23.75 -23.75,-23.75l-353.22 0 0 0zm353.22 259.99l-353.22 0c-22.7,0 -41.21,-18.51 -41.21,-41.21l0 -195.03c0,-22.7 18.51,-41.21 41.21,-41.21l353.22 0c22.7,0 41.21,18.51 41.21,41.21l0 195.03c0.18,22.7 -18.33,41.21 -41.21,41.21z"/>
   <path class="fil0" d="M132.87 264.17c34.05,31.08 77.88,48.02 124.15,48.02 46.27,0 90.09,-16.94 124.14,-48.02l-72.11 -72.11c-14.67,11.88 -32.83,18.34 -52.03,18.34 -19.21,0 -37.37,-6.46 -52.04,-18.34l-72.11 72.11zm124.15 65.48c-53.96,0 -104.77,-20.95 -142.83,-59.19 -3.49,-3.49 -3.49,-8.9 0,-12.4l84.33 -84.33c3.5,-3.49 8.91,-3.49 12.4,0 12.4,12.4 28.81,19.21 46.27,19.21 17.46,0 33.88,-6.81 46.27,-19.21 3.49,-3.49 8.91,-3.49 12.4,0l84.33 84.33c3.5,3.5 3.5,8.91 0,12.4 -38.58,38.06 -89.22,59.19 -143.17,59.19z"/>
   <path class="fil0" d="M121.52 575.66l-61.81 0c-4.89,0 -8.73,-3.84 -8.73,-8.73 0,-4.89 3.84,-8.73 8.73,-8.73l61.81 0c4.89,0 8.73,3.84 8.73,8.73 0,4.89 -3.84,8.73 -8.73,8.73z"/>
   <path class="fil0" d="M121.52 616.87l-61.81 0c-4.89,0 -8.73,-3.84 -8.73,-8.73 0,-4.89 3.84,-8.73 8.73,-8.73l61.81 0c4.89,0 8.73,3.84 8.73,8.73 0,4.89 -3.84,8.73 -8.73,8.73z"/>
   <path class="fil0" d="M235.72 575.66l-61.81 0c-4.89,0 -8.73,-3.84 -8.73,-8.73 0,-4.89 3.84,-8.73 8.73,-8.73l61.81 0c4.88,0 8.73,3.84 8.73,8.73 0,4.89 -4.02,8.73 -8.73,8.73z"/>
   <path class="fil0" d="M235.72 616.87l-61.81 0c-4.89,0 -8.73,-3.84 -8.73,-8.73 0,-4.89 3.84,-8.73 8.73,-8.73l61.81 0c4.88,0 8.73,3.84 8.73,8.73 0,4.89 -4.02,8.73 -8.73,8.73z"/>
   <path class="fil0" d="M349.73 575.66l-61.81 0c-4.89,0 -8.73,-3.84 -8.73,-8.73 0,-4.89 3.84,-8.73 8.73,-8.73l61.81 0c4.89,0 8.73,3.84 8.73,8.73 0,4.89 -3.84,8.73 -8.73,8.73z"/>
   <path class="fil0" d="M349.73 616.87l-61.81 0c-4.89,0 -8.73,-3.84 -8.73,-8.73 0,-4.89 3.84,-8.73 8.73,-8.73l61.81 0c4.89,0 8.73,3.84 8.73,8.73 0,4.89 -3.84,8.73 -8.73,8.73z"/>
   <path class="fil0" d="M409.79 561.34c-0.35,0 -0.88,0.35 -0.88,0.88l0 50.46c0,0.35 0.35,0.87 0.88,0.87l34.92 0c0.35,0 0.87,-0.35 0.87,-0.87l0 -50.46c0,-0.35 -0.35,-0.88 -0.87,-0.88l-34.92 0zm34.92 69.67l-34.92 0c-10.13,0 -18.34,-8.21 -18.34,-18.33l0 -50.46c0,-10.13 8.21,-18.34 18.34,-18.34l34.92 0c10.13,0 18.33,8.21 18.33,18.34l0 50.46c0,10.12 -8.2,18.33 -18.33,18.33z"/>
   <path class="fil0" d="M555.58 596.26l-52.73 0c-4.89,0 -8.73,-3.84 -8.73,-8.73 0,-4.89 3.84,-8.73 8.73,-8.73l52.73 0c48.02,0 87.13,-39.11 87.13,-87.12l0 -205.86c0,-4.89 3.84,-8.73 8.73,-8.73 4.89,0 8.73,3.84 8.73,8.73l0 205.68c0,57.79 -46.97,104.76 -104.59,104.76z"/>
   <path class="fil0" d="M680.25 294.56l-57.62 0c-8.21,0 -15.01,-6.81 -15.01,-15.02l0 -76.83c0,-4.89 3.84,-8.73 8.73,-8.73 4.88,0 8.73,3.84 8.73,8.73l0 74.39 52.73 0 0 -74.39c0,-4.89 3.84,-8.73 8.73,-8.73 4.89,0 8.73,3.84 8.73,8.73l0 76.83c0,8.38 -6.64,15.02 -15.02,15.02z"/>
   <path class="fil0" d="M589.46 159.93c41.38,8.56 81.89,8.56 123.97,0 0.17,0 5.06,-1.04 5.06,-3.49 0,-37.01 -30.21,-67.22 -67.22,-67.22 -37.02,0 -67.23,30.21 -67.23,67.22 0.18,2.45 5.24,3.49 5.42,3.49l0 0zm61.63 23.93c-21.82,0 -43.47,-2.27 -65.3,-6.81l0 0c-11.52,-2.45 -19.03,-10.48 -19.03,-20.61 0,-46.62 37.89,-84.68 84.68,-84.68 46.62,0 84.68,37.89 84.68,84.68 0,10.13 -7.5,18.34 -19.03,20.61 -22.35,4.54 -44.17,6.81 -66,6.81z"/>
   <path class="fil0" d="M684.97 211.79l-66.88 0c-8.9,0 -16.06,-6.81 -16.06,-15.01l0 -24.27c0,-4.89 3.84,-8.73 8.73,-8.73 4.89,0 8.73,3.84 8.73,8.73l0 21.82 64.08 0 0 -22c0,-4.89 3.84,-8.73 8.73,-8.73 4.89,0 8.73,3.84 8.73,8.73l0 24.27c-0.18,8.38 -7.33,15.19 -16.06,15.19z"/>
   <path class="fil0" d="M740.66 105.28c-2.96,0 -5.93,-1.57 -7.68,-4.36 -16.59,-29.34 -47.84,-47.67 -81.54,-47.67 -33.7,0 -64.95,18.16 -81.54,47.67 -2.44,4.19 -7.68,5.76 -11.87,3.32 -4.19,-2.45 -5.76,-7.69 -3.32,-11.88 19.73,-34.92 56.75,-56.57 96.73,-56.57 39.99,0 77.18,21.65 96.73,56.57 2.45,4.19 0.88,9.61 -3.31,11.88 -1.23,0.69 -2.8,1.04 -4.2,1.04z"/>
   <path class="fil0" d="M763.19 82.58c-2.97,0 -5.94,-1.57 -7.68,-4.36 -21.13,-37.54 -61.12,-60.76 -104.07,-60.76 -43.13,0 -82.94,23.22 -104.06,60.76 -2.45,4.19 -7.69,5.76 -11.88,3.32 -4.19,-2.45 -5.76,-7.69 -3.31,-11.88 24.27,-42.95 70.01,-69.66 119.25,-69.66 49.41,0 94.99,26.71 119.26,69.66 2.44,4.19 0.87,9.61 -3.32,11.88 -1.22,0.7 -2.79,1.04 -4.19,1.04z"/>
  </g>
 </g>
</svg>
