<?xml version="1.0" encoding="UTF-8"?>
<!DOCTYPE svg PUBLIC "-//W3C//DTD SVG 1.1//EN" "http://www.w3.org/Graphics/SVG/1.1/DTD/svg11.dtd">
<!-- Creator: CorelDRAW -->
<svg xmlns="http://www.w3.org/2000/svg" xml:space="preserve" width="8.4666mm" height="8.4666mm" version="1.1" style="shape-rendering:geometricPrecision; text-rendering:geometricPrecision; image-rendering:optimizeQuality; fill-rule:evenodd; clip-rule:evenodd"
viewBox="0 0 846.66 846.66"
 xmlns:xlink="http://www.w3.org/1999/xlink"
 xmlns:xodm="http://www.corel.com/coreldraw/odm/2003">
 <defs>
  <style type="text/css">
   <![CDATA[
    .fil0 {fill:#1F9C9C}
   ]]>
  </style>
 </defs>
 <g id="Layer_x0020_1">
  <metadata id="CorelCorpID_0Corel-Layer"/>
  <g id="_1696093309648">
   <path class="fil0" d="M681.48 239.12c-2.86,0 -5.74,-1.09 -7.94,-3.28l-148.82 -148.83c-4.37,-4.38 -4.37,-11.49 0,-15.87 4.38,-4.39 11.5,-4.38 15.89,0l148.81 148.82c4.38,4.38 4.38,11.49 0,15.88 -2.19,2.19 -5.06,3.29 -7.94,3.29l0 -0.01z"/>
   <path class="fil0" d="M432.07 339.72c-2.87,0 -5.74,-1.09 -7.94,-3.28 -4.38,-4.39 -4.38,-11.5 0,-15.88l16.55 -16.56c4.39,-4.38 11.49,-4.38 15.87,0 4.39,4.39 4.39,11.49 0,15.88l-16.54 16.56c-2.19,2.19 -5.08,3.28 -7.94,3.28l0 0z"/>
   <path class="fil0" d="M483.41 370.72c-0.95,0 -1.93,-0.12 -2.91,-0.38 -5.99,-1.61 -9.55,-7.76 -7.94,-13.75l6.07 -22.62c1.59,-5.99 7.76,-9.53 13.74,-7.94 6,1.61 9.54,7.77 7.93,13.76l-6.04 22.61c-1.35,5.02 -5.9,8.32 -10.85,8.32l0 0 0 0z"/>
   <path class="fil0" d="M543.36 371.9c-4.96,0 -9.49,-3.31 -10.84,-8.33l-6.05 -22.61c-1.6,-5.99 1.95,-12.15 7.94,-13.75 5.98,-1.61 12.13,1.95 13.74,7.94l6.07 22.61c1.61,5.99 -1.96,12.15 -7.94,13.75 -0.98,0.26 -1.96,0.39 -2.92,0.39l0 0z"/>
   <path class="fil0" d="M403.1 287.21c-4.96,0 -9.5,-3.3 -10.85,-8.32 -1.59,-5.99 1.96,-12.15 7.94,-13.75l22.61 -6.06c6,-1.61 12.15,1.95 13.76,7.94 1.61,5.99 -1.95,12.14 -7.94,13.75l-22.61 6.05c-0.98,0.27 -1.95,0.39 -2.91,0.39l0 0 0 0z"/>
   <path class="fil0" d="M426.9 233.31c-0.97,0 -1.95,-0.12 -2.91,-0.39l-22.61 -6.06c-6,-1.6 -9.55,-7.76 -7.95,-13.75 1.6,-5.98 7.76,-9.53 13.74,-7.93l22.62 6.06c6,1.6 9.54,7.76 7.94,13.75 -1.34,5.01 -5.88,8.32 -10.84,8.32l0.01 0 0 0z"/>
   <path class="fil0" d="M132.85 228.69c-26.17,0 -47.47,21.29 -47.47,47.46 0.01,26.17 21.3,47.46 47.47,47.46 26.17,0 47.45,-21.29 47.45,-47.46 0,-26.17 -21.28,-47.46 -47.45,-47.46l0 0z"/>
   <path class="fil0" d="M141.79 361.74c-6.15,0 -11.93,2.38 -16.24,6.69 -4.31,4.3 -6.68,10.08 -6.68,16.24 0,6.15 2.36,11.92 6.68,16.23l201.93 201.94 70.89 0 146.32 0 68.38 0c9.31,0 17.36,-5.58 20.95,-13.57 0.12,-0.32 0.25,-0.63 0.4,-0.94 1.04,-2.62 1.61,-5.47 1.61,-8.45 0,-12.67 -10.3,-22.97 -22.96,-22.97l-6.17 0 -255.74 0c-2.98,0 -5.84,-1.18 -7.94,-3.29l-173.73 -173.74 -11.46 -11.45c-4.31,-4.32 -10.08,-6.69 -16.24,-6.69l0 0z"/>
   <path class="fil0" d="M185.36 327.03c-10.18,10.19 -10.19,26.78 0,36.98l170.45 170.44 257.26 0c25.04,0 45.42,20.38 45.42,45.43 0,3.82 -0.48,7.54 -1.37,11.09l75.69 95.48c8.68,10.96 23.37,18.59 36.63,10.93 6.46,-3.73 11.15,-10.05 12.86,-17.35 0.33,-1.41 0.54,-2.82 0.62,-4.2l0 -2.89c-0.24,-3.84 -1.43,-7.5 -3.54,-10.67l-129.4 -194.71 -241.2 0c-2.8,0 -5.51,-1.05 -7.59,-2.95l-164.69 -151.05c-8.93,-8.18 -38.99,1.33 -51.14,13.47z"/>
   <polygon class="fil0" points="580.3,739.79 296.69,739.79 296.69,776.17 646.37,776.17 646.37,739.79 "/>
   <polygon class="fil0" points="406.64,625.29 378,717.33 565.05,717.33 536.41,625.29 "/>
   <path class="fil0" d="M553.44 217.37l36.89 36.88c0.09,0.1 0.19,0.2 0.28,0.29l10.29 10.29 24.08 -45.85 -83.4 -83.41 -45.85 24.09 57.71 57.71 0 0z"/>
   <path class="fil0" d="M473.76 238.7c0,12.92 4.98,25.02 14.03,34.07 9.06,9.05 21.15,14.04 34.08,14.04 12.91,0 25.01,-4.99 34.06,-14.04l10.57 -10.58 -68.13 -68.13 -10.58 10.57c-9.04,9.06 -14.03,21.16 -14.03,34.07l0 0z"/>
  </g>
 </g>
</svg>
