<svg width="46" height="45" viewBox="0 0 46 45" fill="none" xmlns="http://www.w3.org/2000/svg">
<path d="M41.9844 17.5779C42.4814 17.5789 42.9627 17.4039 43.343 17.084C43.7234 16.7641 43.9782 16.3199 44.0624 15.8301C44.1466 15.3403 44.0548 14.8365 43.8031 14.4079C43.5515 13.9793 43.1563 13.6537 42.6875 13.4886V10.4173C42.9719 10.3172 43.2314 10.1572 43.4485 9.94809C43.6656 9.73898 43.8352 9.48565 43.9459 9.20527C44.0566 8.92489 44.1057 8.62399 44.0899 8.32297C44.0742 8.02195 43.9939 7.72783 43.8546 7.46052C43.7153 7.19322 43.5201 6.95898 43.2824 6.77367C43.0447 6.58835 42.7699 6.45629 42.4766 6.38643C42.1834 6.31656 41.8786 6.31053 41.5828 6.36874C41.2871 6.42694 41.0073 6.54803 40.7624 6.72379L36.9782 4.07793C37.0699 3.76356 37.0871 3.43216 37.0285 3.10997C36.9699 2.78778 36.8371 2.48366 36.6407 2.22168C36.4442 1.9597 36.1894 1.74707 35.8965 1.60062C35.6036 1.45417 35.2806 1.37793 34.9532 1.37793C34.6257 1.37793 34.3027 1.45417 34.0098 1.60062C33.7169 1.74707 33.4621 1.9597 33.2657 2.22168C33.0692 2.48366 32.9364 2.78778 32.8778 3.10997C32.8192 3.43216 32.8365 3.76356 32.9282 4.07793L29.1439 6.72379C28.7884 6.46645 28.3608 6.32791 27.9219 6.32791C27.483 6.32791 27.0554 6.46645 26.6999 6.72379L22.9157 4.07793C23.0074 3.76356 23.0246 3.43216 22.966 3.10997C22.9074 2.78778 22.7746 2.48366 22.5782 2.22168C22.3817 1.9597 22.1269 1.74707 21.834 1.60062C21.5411 1.45417 21.2181 1.37793 20.8907 1.37793C20.5632 1.37793 20.2402 1.45417 19.9473 1.60062C19.6544 1.74707 19.3996 1.9597 19.2032 2.22168C19.0067 2.48366 18.8739 2.78778 18.8153 3.10997C18.7567 3.43216 18.774 3.76356 18.8657 4.07793L15.0814 6.72379C14.6657 6.41768 14.1547 6.2691 13.6396 6.30451C13.1245 6.33993 12.6387 6.55704 12.2688 6.91718C11.8988 7.27731 11.6687 7.75709 11.6194 8.27104C11.5701 8.78499 11.7049 9.29975 11.9997 9.72362C12.2945 10.1475 12.7302 10.453 13.2292 10.5856C13.7282 10.7182 14.258 10.6695 14.7244 10.4479C15.1908 10.2264 15.5633 9.8465 15.7758 9.37592C15.9882 8.90534 16.0267 8.37463 15.8844 7.87832L19.6686 5.22895C20.0241 5.48628 20.4518 5.62483 20.8907 5.62483C21.3295 5.62483 21.7572 5.48628 22.1127 5.22895L25.8969 7.87832C25.7456 8.39033 25.7988 8.94107 26.0454 9.41463C26.2919 9.88819 26.7126 10.2476 27.2188 10.4173V13.4886C26.8084 13.6326 26.4527 13.9003 26.2008 14.255C25.949 14.6096 25.8133 15.0336 25.8125 15.4686C25.8125 15.6102 25.8267 15.7516 25.8547 15.8904L22.2266 18.0701C21.8527 17.7546 21.3799 17.5804 20.8907 17.5779C20.3937 17.577 19.9124 17.752 19.5321 18.0719C19.1517 18.3918 18.8969 18.836 18.8127 19.3258C18.7284 19.8156 18.8203 20.3194 19.0719 20.7479C19.3236 21.1765 19.7188 21.5022 20.1875 21.6673V24.7386C19.9032 24.8386 19.6437 24.9987 19.4266 25.2078C19.2095 25.4169 19.0399 25.6702 18.9292 25.9506C18.8185 26.231 18.7694 26.5319 18.7851 26.8329C18.8009 27.1339 18.8812 27.428 19.0205 27.6953C19.1598 27.9626 19.3549 28.1969 19.5927 28.3822C19.8304 28.5675 20.1052 28.6996 20.3984 28.7694C20.6917 28.8393 20.9965 28.8453 21.2922 28.7871C21.588 28.7289 21.8678 28.6078 22.1127 28.4321L25.8969 31.0814C25.8052 31.3958 25.788 31.7272 25.8466 32.0494C25.9051 32.3716 26.0379 32.6757 26.2344 32.9377C26.4309 33.1997 26.6857 33.4123 26.9786 33.5588C27.2715 33.7052 27.5944 33.7814 27.9219 33.7814C28.2494 33.7814 28.5724 33.7052 28.8653 33.5588C29.1582 33.4123 29.4129 33.1997 29.6094 32.9377C29.8059 32.6757 29.9387 32.3716 29.9973 32.0494C30.0558 31.7272 30.0386 31.3958 29.9469 31.0814L33.7311 28.4321C34.0866 28.6894 34.5143 28.828 34.9532 28.828C35.392 28.828 35.8197 28.6894 36.1752 28.4321L39.9594 31.0814C39.8081 31.5935 39.8613 32.1442 40.1079 32.6178C40.3544 33.0913 40.7751 33.4508 41.2813 33.6204V38.0979C40.8122 38.2638 40.4168 38.5902 40.165 39.0194C39.9132 39.4486 39.8213 39.9529 39.9054 40.4434C39.9896 40.9338 40.2444 41.3787 40.6248 41.6994C41.0052 42.0201 41.4868 42.196 41.9844 42.196C42.482 42.196 42.9636 42.0201 43.344 41.6994C43.7245 41.3787 43.9793 40.9338 44.0634 40.4434C44.1476 39.9529 44.0556 39.4486 43.8038 39.0194C43.5521 38.5902 43.1567 38.2638 42.6875 38.0979V33.6204C42.9719 33.5204 43.2314 33.3603 43.4485 33.1512C43.6656 32.9421 43.8352 32.6888 43.9459 32.4084C44.0566 32.128 44.1057 31.8271 44.0899 31.5261C44.0742 31.2251 43.9939 30.931 43.8546 30.6637C43.7153 30.3963 43.5201 30.1621 43.2824 29.9768C43.0447 29.7915 42.7699 29.6594 42.4766 29.5896C42.1834 29.5197 41.8786 29.5137 41.5828 29.5719C41.2871 29.6301 41.0073 29.7512 40.7624 29.9269L36.9782 27.2811C37.1305 26.7686 37.0778 26.2169 36.8312 25.7426C36.5846 25.2682 36.1633 24.9082 35.6563 24.7386V22.4007C36.0234 22.3121 36.3684 22.1491 36.6698 21.9217C36.9713 21.6943 37.2228 21.4073 37.4087 21.0786C37.5947 20.75 37.7111 20.3866 37.7507 20.011C37.7903 19.6355 37.7523 19.2558 37.6391 18.8956L40.6485 17.0893C41.0228 17.4035 41.4956 17.5765 41.9844 17.5779ZM34.25 22.4998V24.7386C33.743 24.9082 33.3218 25.2682 33.0751 25.7426C32.8285 26.2169 32.7758 26.7686 32.9282 27.2811L29.1439 29.9304C28.7884 29.6731 28.3608 29.5345 27.9219 29.5345C27.483 29.5345 27.0554 29.6731 26.6999 29.9304L22.9157 27.2811C23.068 26.7686 23.0153 26.2169 22.7687 25.7426C22.5221 25.2682 22.1008 24.9082 21.5938 24.7386V21.6673C22.0042 21.5233 22.3599 21.2555 22.6117 20.9009C22.8636 20.5463 22.9993 20.1223 23 19.6873C23.0001 19.5456 22.9859 19.4043 22.9579 19.2654L26.5874 17.0857C26.9607 17.402 27.4341 17.5756 27.9233 17.5756C28.4126 17.5756 28.886 17.402 29.2593 17.0857L29.3711 17.1525L32.1836 18.84L32.2707 18.8921C32.1569 19.2523 32.1183 19.6321 32.1575 20.0078C32.1966 20.3836 32.3126 20.7473 32.4982 21.0763C32.6838 21.4054 32.9351 21.6927 33.2365 21.9206C33.5379 22.1484 33.8829 22.3118 34.25 22.4007V22.4998ZM39.9172 15.8904L36.9219 17.6841C36.3967 17.1656 35.6884 16.8748 34.9504 16.8748C34.2123 16.8748 33.504 17.1656 32.9788 17.6841L32.0992 17.1568L30.0889 15.9509L29.9891 15.8904C30.0172 15.7516 30.0313 15.6102 30.0313 15.4686C30.0305 15.0336 29.8948 14.6096 29.643 14.255C29.3911 13.9003 29.0355 13.6326 28.625 13.4886V10.4173C29.1313 10.2476 29.5519 9.88819 29.7985 9.41463C30.045 8.94107 30.0982 8.39033 29.9469 7.87832L33.7311 5.22895C34.0866 5.48628 34.5143 5.62483 34.9532 5.62483C35.392 5.62483 35.8197 5.48628 36.1752 5.22895L39.9594 7.87832C39.8081 8.39033 39.8613 8.94107 40.1079 9.41463C40.3544 9.88819 40.7751 10.2476 41.2813 10.4173V13.4886C40.8709 13.6326 40.5152 13.9003 40.2633 14.255C40.0115 14.6096 39.8758 15.0336 39.875 15.4686C39.875 15.6102 39.8891 15.7516 39.9172 15.8904ZM18.0782 32.3436C18.078 31.6784 17.8892 31.0269 17.5336 30.4648C17.178 29.9026 16.6702 29.4529 16.0692 29.1678C15.4682 28.8828 14.7986 28.7741 14.1383 28.8543C13.478 28.9346 12.854 29.2006 12.3388 29.6213C11.8236 30.0421 11.4383 30.6003 11.2277 31.2313C11.0172 31.8623 10.9899 32.54 11.1491 33.1859C11.3084 33.8317 11.6476 34.4191 12.1273 34.8799C12.6071 35.3406 13.2077 35.6558 13.8594 35.7889V40.7811H11.75V42.1873H13.8594V44.2967H15.2657V42.1873H17.375V40.7811H15.2657V35.7889C16.0597 35.6268 16.7734 35.1953 17.286 34.5675C17.7985 33.9396 18.0783 33.154 18.0782 32.3436ZM8.44043 32.8407L9.43465 31.8464L5.91902 28.3308C5.78717 28.199 5.60836 28.125 5.42191 28.125C5.23547 28.125 5.05666 28.199 4.9248 28.3308L1.40918 31.8464L2.4034 32.8407L4.71879 30.5253V36.6326C3.86517 36.8069 3.10665 37.2919 2.59029 37.9936C2.07393 38.6953 1.83653 39.5638 1.92409 40.4306C2.01166 41.2974 2.41796 42.1008 3.06423 42.6851C3.7105 43.2693 4.55069 43.5928 5.42191 43.5928C6.29314 43.5928 7.13333 43.2693 7.7796 42.6851C8.42587 42.1008 8.83217 41.2974 8.91974 40.4306C9.0073 39.5638 8.76989 38.6953 8.25354 37.9936C7.73718 37.2919 6.97866 36.8069 6.12504 36.6326V30.5253L8.44043 32.8407Z" fill="#148A8B"/>
</svg>
