<svg width="46" height="46" viewBox="0 0 46 46" fill="none" xmlns="http://www.w3.org/2000/svg">
<g clip-path="url(#clip0_5010_108)">
<path d="M35.2096 22.6794H33.4025C33.1883 22.6794 32.9829 22.5943 32.8315 22.4429C32.6801 22.2915 32.595 22.0861 32.595 21.8719C32.595 21.6578 32.6801 21.4524 32.8315 21.3009C32.9829 21.1495 33.1883 21.0644 33.4025 21.0644H35.2096C35.4192 21.0711 35.618 21.1591 35.7639 21.3097C35.9098 21.4603 35.9914 21.6618 35.9914 21.8715C35.9914 22.0812 35.9098 22.2827 35.7639 22.4333C35.618 22.5839 35.4192 22.6727 35.2096 22.6794ZM40.641 22.6794H38.8338C38.6197 22.6794 38.4143 22.5943 38.2628 22.4429C38.1114 22.2915 38.0263 22.0861 38.0263 21.8719C38.0263 21.6578 38.1114 21.4524 38.2628 21.3009C38.4143 21.1495 38.6197 21.0644 38.8338 21.0644H40.641C40.8506 21.0711 41.0493 21.1591 41.1952 21.3097C41.3411 21.4603 41.4227 21.6618 41.4227 21.8715C41.4227 22.0812 41.3411 22.2827 41.1952 22.4333C41.0493 22.5839 40.8506 22.6727 40.641 22.6794ZM37.4538 6.5546H40.641C40.8486 6.56398 41.0446 6.65306 41.1883 6.80331C41.3319 6.95356 41.412 7.1534 41.412 7.36125C41.412 7.5691 41.3319 7.76895 41.1883 7.9192C41.0446 8.06945 40.8486 8.15853 40.641 8.1679H37.4538C37.2462 8.15853 37.0501 8.06945 36.9065 7.9192C36.7629 7.76895 36.6827 7.5691 36.6827 7.36125C36.6827 7.1534 36.7629 6.95356 36.9065 6.80331C37.0501 6.65306 37.2462 6.56398 37.4538 6.5546ZM41.4484 12.2036C41.4478 12.4175 41.3625 12.6224 41.2112 12.7736C41.0599 12.9247 40.8549 13.0098 40.641 13.0103H39.261C39.0469 13.0103 38.8416 12.9252 38.6903 12.7739C38.5389 12.6225 38.4539 12.4173 38.4539 12.2032C38.4539 11.9892 38.5389 11.7839 38.6903 11.6325C38.8416 11.4812 39.0469 11.3961 39.261 11.3961H40.641C40.855 11.3966 41.0601 11.4818 41.2115 11.6331C41.3628 11.7845 41.448 11.9896 41.4484 12.2036ZM30.2794 6.5546H33.4666C33.6742 6.56398 33.8702 6.65306 34.0138 6.80331C34.1575 6.95356 34.2376 7.1534 34.2376 7.36125C34.2376 7.5691 34.1575 7.76895 34.0138 7.9192C33.8702 8.06945 33.6742 8.15853 33.4666 8.1679H30.2794C30.0717 8.15853 29.8757 8.06945 29.7321 7.9192C29.5885 7.76895 29.5083 7.5691 29.5083 7.36125C29.5083 7.1534 29.5885 6.95356 29.7321 6.80331C29.8757 6.65306 30.0717 6.56398 30.2794 6.5546ZM21.297 6.5546H25.437C25.6447 6.56398 25.8407 6.65306 25.9843 6.80331C26.1279 6.95356 26.2081 7.1534 26.2081 7.36125C26.2081 7.5691 26.1279 7.76895 25.9843 7.9192C25.8407 8.06945 25.6447 8.15853 25.437 8.1679H21.297C21.0894 8.15853 20.8933 8.06945 20.7497 7.9192C20.6061 7.76895 20.5259 7.5691 20.5259 7.36125C20.5259 7.1534 20.6061 6.95356 20.7497 6.80331C20.8933 6.65306 21.0894 6.56398 21.297 6.5546ZM21.297 13.0111C21.0828 13.0111 20.8775 12.926 20.726 12.7746C20.5746 12.6232 20.4895 12.4178 20.4895 12.2036C20.4895 11.9895 20.5746 11.7841 20.726 11.6326C20.8775 11.4812 21.0828 11.3961 21.297 11.3961H25.2111L25.9209 9.56434C25.9719 9.43551 26.0551 9.32189 26.1625 9.23432C26.2699 9.14675 26.398 9.08815 26.5345 9.06409C26.6707 9.03969 26.811 9.05142 26.9413 9.09811C27.0715 9.14481 27.1873 9.22485 27.277 9.33024C28.1971 10.3792 30.1496 10.6059 30.8519 10.6059C31.5748 10.6059 33.5405 10.38 34.4679 9.33024C34.56 9.22699 34.6769 9.14887 34.8075 9.10323C34.9381 9.05759 35.0782 9.04593 35.2146 9.06934C35.3509 9.09275 35.4791 9.15047 35.587 9.23707C35.695 9.32366 35.7791 9.43628 35.8315 9.56434L38.4223 16.2303H40.641C40.8506 16.237 41.0493 16.3249 41.1952 16.4756C41.3411 16.6262 41.4227 16.8277 41.4227 17.0374C41.4227 17.247 41.3411 17.4485 41.1952 17.5991C41.0493 17.7498 40.8506 17.8377 40.641 17.8444H38.0181C35.9387 19.3528 33.4451 20.184 30.8766 20.2249C28.3085 20.1794 25.816 19.3486 23.7342 17.8444H21.297C21.0874 17.8377 20.8886 17.7498 20.7427 17.5991C20.5968 17.4485 20.5153 17.247 20.5153 17.0374C20.5153 16.8277 20.5968 16.6262 20.7427 16.4756C20.8886 16.3249 21.0874 16.237 21.297 16.2303H23.3227L24.5811 13.0103L21.297 13.0111ZM21.297 21.0644H30.424C30.6335 21.0711 30.8323 21.1591 30.9782 21.3097C31.1241 21.4603 31.2057 21.6618 31.2057 21.8715C31.2057 22.0812 31.1241 22.2827 30.9782 22.4333C30.8323 22.5839 30.6335 22.6719 30.424 22.6786H21.297C21.0874 22.6719 20.8886 22.5839 20.7427 22.4333C20.5968 22.2827 20.5153 22.0812 20.5153 21.8715C20.5153 21.6618 20.5968 21.4603 20.7427 21.3097C20.8886 21.1591 21.0874 21.0711 21.297 21.0644ZM40.5925 29.0143C40.8932 29.0143 41.1815 29.1337 41.3941 29.3463C41.6067 29.5589 41.7261 29.8472 41.7261 30.1479C41.7261 30.4485 41.6067 30.7368 41.3941 30.9494C41.1815 31.162 40.8932 31.2815 40.5925 31.2815C40.2919 31.2815 40.0035 31.162 39.7909 30.9494C39.5784 30.7368 39.4589 30.4485 39.4589 30.1479C39.4589 29.8472 39.5784 29.5589 39.7909 29.3463C40.0035 29.1337 40.2919 29.0143 40.5925 29.0143ZM35.5653 29.0143C35.866 29.0143 36.1543 29.1337 36.3669 29.3463C36.5795 29.5589 36.6989 29.8472 36.6989 30.1479C36.6989 30.4485 36.5795 30.7368 36.3669 30.9494C36.1543 31.162 35.866 31.2815 35.5653 31.2815C35.2647 31.2815 34.9763 31.162 34.7638 30.9494C34.5512 30.7368 34.4317 30.4485 34.4317 30.1479C34.4317 29.8472 34.5512 29.5589 34.7638 29.3463C34.9763 29.1337 35.2647 29.0143 35.5653 29.0143ZM30.5299 29.0143C30.8306 29.0143 31.1189 29.1337 31.3315 29.3463C31.5441 29.5589 31.6635 29.8472 31.6635 30.1479C31.6635 30.4485 31.5441 30.7368 31.3315 30.9494C31.1189 31.162 30.8306 31.2815 30.5299 31.2815C30.2293 31.2815 29.941 31.162 29.7284 30.9494C29.5158 30.7368 29.3963 30.4485 29.3963 30.1479C29.3963 29.8472 29.5158 29.5589 29.7284 29.3463C29.941 29.1337 30.2293 29.0143 30.5299 29.0143ZM15.9379 27.4889V29.5302C15.9388 30.3991 16.2844 31.2321 16.8989 31.8465C17.5134 32.4608 18.3466 32.8062 19.2155 32.8069H42.7225C43.5915 32.8064 44.4247 32.4611 45.0393 31.8467C45.6538 31.2323 45.9994 30.3991 46 29.5302V27.4889H15.9379ZM42.7233 3.3584H19.2147C18.3456 3.3584 17.5122 3.70362 16.8977 4.31812C16.2832 4.93263 15.9379 5.76607 15.9379 6.6351V12.8493C16.6613 12.4972 17.4389 12.2697 18.238 12.1765C18.3521 12.1628 18.4679 12.1735 18.5777 12.2077C18.6874 12.242 18.7887 12.2991 18.8748 12.3753C18.961 12.4515 19.03 12.545 19.0774 12.6498C19.1247 12.7546 19.1494 12.8682 19.1498 12.9832C19.1506 13.1783 19.0798 13.3669 18.9508 13.5134C18.8218 13.6598 18.6436 13.7538 18.4499 13.7775C17.02 13.9553 15.704 14.6484 14.7483 15.7268C13.7927 16.8052 13.263 18.1951 13.2584 19.636V37.9556C13.2574 38.4186 13.1532 38.8755 12.9534 39.2931C12.7535 39.7107 12.4631 40.0785 12.1032 40.3697C11.7433 40.6609 11.323 40.8682 10.8729 40.9765C10.4227 41.0848 9.95415 41.0914 9.50118 40.9958C8.7975 40.8331 8.17079 40.4342 7.7254 39.8657C7.28001 39.2971 7.04281 38.5932 7.0533 37.871V27.916C7.75901 27.8206 8.40645 27.4733 8.87635 26.9382C9.34625 26.4031 9.60695 25.7162 9.61043 25.004V24.0265H2.87219V25.004C2.87542 25.7178 3.13718 26.4062 3.609 26.9417C4.08082 27.4773 4.73072 27.8237 5.43836 27.9169V37.9564C5.66014 44.201 14.6475 44.2067 14.8725 37.9564V19.636C14.8676 18.5977 15.2471 17.5944 15.9379 16.8193V25.8748H46V6.6351C46 5.76607 45.6548 4.93263 45.0403 4.31812C44.4258 3.70362 43.5924 3.3584 42.7233 3.3584Z" fill="#148A8B"/>
<path d="M30.6827 17.0378C30.6831 17.1439 30.6624 17.249 30.6219 17.3471C30.5814 17.4451 30.522 17.5342 30.4469 17.6092C30.3719 17.6842 30.2827 17.7436 30.1846 17.7839C30.0865 17.8243 29.9814 17.8449 29.8753 17.8444H27.075C28.2819 18.3395 29.5721 18.5999 30.8766 18.6117C33.018 18.5653 35.0992 17.8946 36.8649 16.6821L34.7258 11.1949C33.5542 11.8716 32.2251 12.2278 30.8721 12.2278C29.5191 12.2278 28.1899 11.8716 27.0183 11.1949L25.0575 16.2303H29.8753C29.9816 16.2292 30.0871 16.2494 30.1856 16.2895C30.284 16.3297 30.3735 16.3892 30.4487 16.4644C30.5239 16.5396 30.5833 16.629 30.6235 16.7275C30.6637 16.826 30.6838 16.9314 30.6827 17.0378ZM1.76985 10.0769C3.01641 9.00651 4.60741 8.42188 6.25048 8.43048C7.89356 8.43908 9.47834 9.04034 10.7136 10.1238C10.8751 10.2594 11.0832 10.3265 11.2935 10.3106C11.5038 10.2948 11.6995 10.1974 11.8389 10.0391C11.9783 9.88085 12.0502 9.67436 12.0393 9.46377C12.0284 9.25318 11.9356 9.0552 11.7807 8.91215C10.2515 7.57243 8.29048 6.82922 6.2575 6.81896C4.22452 6.80869 2.25606 7.53207 0.71348 8.85629C0.55857 8.99831 0.465129 9.19512 0.453006 9.40492C0.440883 9.61473 0.511033 9.82099 0.648556 9.9799C0.786078 10.1388 0.980136 10.2378 1.18951 10.256C1.39888 10.2741 1.60707 10.2099 1.76985 10.0769Z" fill="#148A8B"/>
<path d="M9.5513 12.5792C9.66507 12.5793 9.77756 12.5553 9.88136 12.5087C9.98515 12.4621 10.0779 12.394 10.1534 12.309C11.25 10.8066 7.30139 9.57524 6.21216 9.69845C4.80488 9.69671 3.44497 10.2068 2.38592 11.1335C2.23715 11.2777 2.14952 11.4736 2.14116 11.6807C2.1328 11.8877 2.20435 12.09 2.341 12.2458C2.47766 12.4015 2.66896 12.4988 2.87532 12.5174C3.08169 12.5361 3.28732 12.4747 3.44968 12.3459C4.22454 11.6784 5.21461 11.3135 6.23736 11.3185C7.26011 11.3234 8.24657 11.698 9.0149 12.373C9.16224 12.5053 9.35329 12.5793 9.5513 12.5792Z" fill="#148A8B"/>
<path d="M4.05256 13.3968C3.90086 13.5397 3.81029 13.7357 3.79979 13.9438C3.78929 14.152 3.85967 14.3561 3.99621 14.5136C4.13276 14.671 4.32489 14.7696 4.53243 14.7886C4.73996 14.8077 4.94683 14.7457 5.10975 14.6158C5.42138 14.3554 5.81519 14.214 6.22125 14.2165C6.6273 14.2191 7.0193 14.3655 7.32763 14.6297C7.40702 14.7 7.49947 14.7539 7.5997 14.7884C7.69992 14.8229 7.80596 14.8373 7.91175 14.8308C8.01755 14.8243 8.12103 14.797 8.2163 14.7506C8.31156 14.7041 8.39673 14.6393 8.46696 14.5599C8.53718 14.4805 8.59108 14.3881 8.62558 14.2879C8.66008 14.1876 8.67449 14.0816 8.66801 13.9758C8.66153 13.87 8.63427 13.7665 8.58779 13.6712C8.54132 13.576 8.47653 13.4908 8.39714 13.4206C7.7912 12.9065 7.02355 12.6222 6.22892 12.6177C5.43429 12.6132 4.66347 12.8887 4.05174 13.3959L4.05256 13.3968ZM10.1838 22.412C10.661 21.5249 11.9219 19.2906 12.3868 18.433C12.4445 18.3284 12.4783 18.2124 12.4858 18.0933C12.4934 17.9742 12.4745 17.8548 12.4305 17.7438C12.3866 17.6329 12.3186 17.533 12.2315 17.4513C12.1445 17.3696 12.0404 17.3082 11.9268 17.2715C8.233 16.0432 4.24039 16.046 0.548321 17.2797C0.436597 17.3175 0.334567 17.3794 0.249479 17.4611C0.16439 17.5428 0.0983294 17.6422 0.0559892 17.7523C0.013649 17.8624 -0.00393211 17.9804 0.00449439 18.0981C0.0129209 18.2157 0.0471483 18.3301 0.104746 18.433L2.30701 22.412H10.1838Z" fill="#148A8B"/>
</g>
<defs>
<clipPath id="clip0_5010_108">
<rect width="45" height="45" fill="white" transform="translate(0.5 0.5)"/>
</clipPath>
</defs>
</svg>
