<svg width="25" height="26" viewBox="0 0 25 26" fill="none" xmlns="http://www.w3.org/2000/svg">
<g clip-path="url(#clip0_4036_13527)">
<path d="M18.3594 24.3586C18.463 24.3586 18.5623 24.3174 18.6356 24.2442C18.7088 24.1709 18.75 24.0715 18.75 23.9679V21.0031L21.3836 18.939C21.7133 18.6765 22.1547 18.1617 22.3273 17.7523L24.1867 13.4297C24.2079 13.3808 24.2188 13.3282 24.2188 13.275V9.51013C24.2188 9.02419 23.668 8.6656 23.1359 8.60076C22.4766 8.5156 21.6477 8.87419 21.3352 10.1219C21.1742 10.7695 21.1383 11.3172 21.1063 11.8C21.0986 11.905 21.1323 12.0089 21.2002 12.0895C21.268 12.17 21.3647 12.2209 21.4695 12.2312C21.6852 12.2461 21.8703 12.0984 21.8836 11.8836C21.9156 11.4008 21.9492 10.8906 22.0938 10.3101C22.1922 9.91794 22.4031 9.43591 22.8539 9.37576C23.1555 9.33279 23.4078 9.49451 23.4492 9.56794L23.4375 13.1945L21.6086 17.4468C21.4945 17.7195 21.1398 18.1343 20.8992 18.3265L18.118 20.5062C18.0713 20.5427 18.0337 20.5892 18.0078 20.6425C17.9819 20.6957 17.9686 20.7541 17.9688 20.8133V23.9679C17.9688 24.0715 18.0099 24.1709 18.0832 24.2442C18.1564 24.3174 18.2558 24.3586 18.3594 24.3586ZM6.64062 24.3586C6.53702 24.3586 6.43767 24.3174 6.36441 24.2442C6.29115 24.1709 6.25 24.0715 6.25 23.9679V21.0031L3.61641 18.939C3.28672 18.6765 2.84531 18.1617 2.67266 17.7523L0.813281 13.4297C0.792139 13.3808 0.781237 13.3282 0.78125 13.275V9.51013C0.78125 9.02419 1.33203 8.6656 1.86406 8.60076C2.52344 8.5156 3.35234 8.87419 3.66484 10.1219C3.82578 10.7695 3.86172 11.3172 3.89375 11.8C3.90139 11.905 3.86768 12.0089 3.79982 12.0895C3.73195 12.17 3.6353 12.2209 3.53047 12.2312C3.31484 12.2461 3.12969 12.0984 3.11641 11.8836C3.08438 11.4008 3.05078 10.8906 2.90625 10.3101C2.80781 9.91794 2.59687 9.43591 2.14609 9.37576C1.84453 9.33279 1.59219 9.49451 1.55078 9.56794L1.5625 13.1945L3.39141 17.4468C3.50547 17.7195 3.86016 18.1343 4.10078 18.3265L6.88203 20.5062C6.92865 20.5427 6.96633 20.5892 6.99219 20.6425C7.01805 20.6957 7.03141 20.7541 7.03125 20.8133V23.9679C7.03125 24.0715 6.9901 24.1709 6.91684 24.2442C6.84358 24.3174 6.74423 24.3586 6.64062 24.3586ZM11.3281 24.3586C11.2245 24.3586 11.1252 24.3174 11.0519 24.2442C10.9787 24.1709 10.9375 24.0715 10.9375 23.9679V19.7C10.9375 18.0539 9.80078 16.6187 8.17266 16.2094C8.1229 16.1968 8.07609 16.1746 8.03491 16.144C7.99373 16.1134 7.95898 16.075 7.93265 16.031C7.90631 15.9869 7.88891 15.9381 7.88143 15.8874C7.87395 15.8366 7.87655 15.7849 7.88906 15.7351C7.90158 15.6854 7.92377 15.6386 7.95438 15.5974C7.98498 15.5562 8.0234 15.5215 8.06744 15.4951C8.11147 15.4688 8.16026 15.4514 8.21102 15.4439C8.26179 15.4364 8.31352 15.439 8.36328 15.4515C10.3383 15.9484 11.7188 17.6953 11.7188 19.7V23.9679C11.7188 24.0715 11.6776 24.1709 11.6043 24.2442C11.5311 24.3174 11.4317 24.3586 11.3281 24.3586Z" fill="#119498"/>
<path d="M6.84528 17.6531C6.74164 17.6531 6.64221 17.6121 6.56872 17.539L3.14137 14.1171C3.10499 14.0808 3.07613 14.0377 3.05644 13.9903C3.03675 13.9428 3.02661 13.8919 3.02661 13.8406C3.02661 13.7892 3.03675 13.7383 3.05644 13.6908C3.07613 13.6434 3.10499 13.6003 3.14137 13.564C4.21559 12.4898 5.53981 12.5804 6.7734 13.814L8.53512 15.5718C8.60847 15.645 8.64972 15.7444 8.64979 15.8481C8.64987 15.9517 8.60876 16.0512 8.53551 16.1245C8.46227 16.1979 8.36288 16.2391 8.25923 16.2392C8.15557 16.2393 8.05613 16.1982 7.98278 16.1249L6.22106 14.3671C5.42028 13.5663 4.67106 13.3968 3.99372 13.864L7.12028 16.9859C7.17421 17.0407 7.21083 17.1102 7.22558 17.1856C7.24034 17.2611 7.23259 17.3392 7.20328 17.4103C7.17398 17.4814 7.12441 17.5424 7.06076 17.5855C6.99711 17.6287 6.92217 17.6522 6.84528 17.6531ZM13.6718 24.3585C13.5682 24.3585 13.4689 24.3174 13.3956 24.2441C13.3224 24.1709 13.2812 24.0715 13.2812 23.9679V19.6999C13.2812 17.6952 14.6617 15.9484 16.6367 15.4515C16.6865 15.4387 16.7382 15.436 16.7891 15.4434C16.8399 15.4507 16.8888 15.4681 16.9329 15.4945C16.977 15.5208 17.0154 15.5557 17.046 15.597C17.0765 15.6383 17.0986 15.6852 17.1109 15.7351C17.1358 15.8356 17.1199 15.9418 17.0668 16.0306C17.0137 16.1194 16.9276 16.1837 16.8273 16.2093C15.1992 16.6187 14.0625 18.0538 14.0625 19.6999V23.9679C14.0625 24.0715 14.0213 24.1709 13.9481 24.2441C13.8748 24.3174 13.7754 24.3585 13.6718 24.3585Z" fill="#119498"/>
<path d="M18.1547 17.6531C18.0777 17.6525 18.0025 17.6292 17.9386 17.5861C17.8748 17.5431 17.825 17.4822 17.7955 17.4111C17.766 17.3399 17.7581 17.2616 17.7728 17.186C17.7875 17.1104 17.8241 17.0408 17.8781 16.9859L21.0047 13.864C20.3281 13.3976 19.5781 13.5671 18.7774 14.3671L17.0156 16.1249C16.9423 16.1982 16.8429 16.2393 16.7392 16.2392C16.6355 16.2391 16.5362 16.1979 16.4629 16.1245C16.3897 16.0512 16.3486 15.9517 16.3486 15.8481C16.3487 15.7444 16.39 15.645 16.4633 15.5718L18.225 13.814C19.4586 12.5804 20.7828 12.4898 21.8571 13.564C21.8934 13.6003 21.9223 13.6434 21.942 13.6908C21.9617 13.7383 21.9718 13.7892 21.9718 13.8406C21.9718 13.8919 21.9617 13.9428 21.942 13.9903C21.9223 14.0377 21.8934 14.0808 21.8571 14.1171L18.4297 17.539C18.3937 17.5753 18.3509 17.604 18.3037 17.6236C18.2564 17.6432 18.2058 17.6532 18.1547 17.6531Z" fill="#119498"/>
<path d="M18.1546 17.6528C18.0775 17.6522 18.0024 17.6289 17.9385 17.5859C17.8746 17.5429 17.8248 17.482 17.7953 17.4108C17.7658 17.3396 17.7579 17.2614 17.7726 17.1857C17.7873 17.1101 17.824 17.0405 17.878 16.9856L21.0046 13.8637C20.328 13.3973 19.578 13.5669 18.7772 14.3669L17.0155 16.1247C16.9422 16.1979 16.8427 16.239 16.7391 16.2389C16.6354 16.2389 16.536 16.1976 16.4628 16.1243C16.3895 16.0509 16.3484 15.9515 16.3485 15.8478C16.3486 15.7442 16.3898 15.6448 16.4632 15.5715L18.2249 13.8137C19.4585 12.5801 20.7827 12.4895 21.8569 13.5637C21.8933 13.6 21.9222 13.6431 21.9419 13.6906C21.9615 13.738 21.9717 13.7889 21.9717 13.8403C21.9717 13.8917 21.9615 13.9425 21.9419 13.99C21.9222 14.0375 21.8933 14.0806 21.8569 14.1169L18.4296 17.5387C18.3936 17.575 18.3507 17.6038 18.3035 17.6233C18.2563 17.6429 18.2057 17.6529 18.1546 17.6528ZM14.2179 9.86529C14.0061 9.86529 13.7944 9.8481 13.5827 9.81295C12.5718 9.64498 11.6858 9.09264 11.0882 8.2567C10.4905 7.42076 10.2546 6.40357 10.4218 5.39264C10.4851 5.05916 10.6765 4.76373 10.9549 4.56954C11.2333 4.37536 11.5766 4.29784 11.9115 4.35358C12.2463 4.40932 12.546 4.59388 12.7465 4.86778C12.947 5.14169 13.0323 5.48318 12.9843 5.8192C12.9374 6.10045 12.9905 6.39185 13.1311 6.63795C13.1567 6.68247 13.1732 6.7316 13.1798 6.78251C13.1863 6.83342 13.1828 6.88513 13.1694 6.93468C13.156 6.98423 13.1329 7.03065 13.1016 7.07129C13.0702 7.11193 13.0311 7.146 12.9866 7.17154C12.9421 7.19709 12.893 7.21361 12.842 7.22018C12.7911 7.22674 12.7394 7.22321 12.6899 7.20979C12.6403 7.19637 12.5939 7.17332 12.5533 7.14196C12.5126 7.1106 12.4786 7.07154 12.453 7.02701C12.2222 6.62269 12.1372 6.15133 12.2124 5.69185C12.2348 5.55628 12.2025 5.41736 12.1227 5.3055C12.0429 5.19363 11.9221 5.11794 11.7866 5.09498C11.6512 5.07282 11.5124 5.10516 11.4007 5.18493C11.2891 5.26471 11.2135 5.38544 11.1905 5.52076C11.0569 6.32545 11.2452 7.1356 11.7218 7.80201C12.1983 8.46842 12.9046 8.90904 13.7093 9.04264C13.9304 9.07857 14.1546 9.09264 14.3733 9.08014C14.4246 9.07747 14.4758 9.08492 14.5242 9.10207C14.5726 9.11921 14.6171 9.14572 14.6552 9.18007C14.6933 9.21442 14.7243 9.25594 14.7464 9.30227C14.7685 9.34859 14.7812 9.39881 14.7839 9.45006C14.7865 9.5013 14.7791 9.55257 14.7619 9.60094C14.7448 9.64931 14.7183 9.69382 14.6839 9.73194C14.6496 9.77007 14.6081 9.80105 14.5617 9.82313C14.5154 9.8452 14.4652 9.85794 14.414 9.8606C14.3486 9.86377 14.2832 9.86533 14.2179 9.86529Z" fill="#119498"/>
<path d="M11.9421 15.1397C11.5843 15.1397 11.2038 15.1054 10.7976 15.0304C9.74131 14.835 8.87959 14.2272 8.37022 13.3171C8.01944 12.6913 7.72569 11.7124 7.92334 10.278C7.78778 10.3401 7.64613 10.3881 7.50069 10.421C6.95928 10.5515 6.18272 10.3233 5.73116 9.90302C5.38897 9.58349 5.23975 9.16864 5.31241 8.73505C5.37569 8.36083 5.56006 8.06317 5.846 7.87333C6.17178 7.65771 6.56319 7.62255 6.83584 7.63896C7.38116 6.19833 8.53194 5.49286 9.84131 5.82724C10.4187 5.97489 10.8882 6.33192 11.1983 6.85927C11.7632 7.81786 11.7132 9.12099 11.478 10.0202C11.4676 10.0724 11.4466 10.1219 11.4164 10.1656C11.3862 10.2094 11.3473 10.2465 11.3022 10.2748C11.2571 10.303 11.2067 10.3217 11.1541 10.3297C11.1015 10.3378 11.0479 10.335 10.9964 10.3216C10.9449 10.3082 10.8967 10.2844 10.8548 10.2516C10.8128 10.2189 10.778 10.178 10.7524 10.1313C10.7269 10.0847 10.7111 10.0333 10.7061 9.98033C10.7011 9.92737 10.707 9.87395 10.7233 9.82333C10.9085 9.10927 10.9687 8.00927 10.5257 7.25614C10.4328 7.09023 10.307 6.94505 10.156 6.82951C10.005 6.71398 9.83199 6.63052 9.64756 6.58427C8.65459 6.3288 7.84913 6.92724 7.47959 8.17724C7.45114 8.273 7.38715 8.35426 7.30073 8.40437C7.21431 8.45448 7.11199 8.46965 7.01475 8.44677C6.88741 8.41786 6.50303 8.37567 6.27647 8.52724C6.21084 8.57177 6.11944 8.65458 6.0835 8.8663C6.07256 8.92958 6.03975 9.12333 6.26397 9.33271C6.56866 9.6163 7.09366 9.7163 7.31788 9.66239C7.59444 9.59599 7.96241 9.50692 8.3585 8.52177C8.40303 8.39364 8.44991 8.26317 8.50147 8.13036C8.53638 8.03277 8.60863 7.95305 8.70233 7.90873C8.79602 7.86441 8.90349 7.85912 9.00108 7.89403C9.09867 7.92895 9.1784 8.0012 9.22272 8.09489C9.26704 8.18859 9.27232 8.29605 9.23741 8.39364C9.18975 8.53349 9.14288 8.66317 9.09444 8.78427C8.50303 10.4991 8.48819 11.9288 9.05225 12.9366C9.446 13.6397 10.1163 14.1108 10.9405 14.2632C14.4093 14.9022 15.7187 12.196 16.4991 10.5772C16.764 10.0272 16.9241 9.69599 17.1507 9.53427C17.278 9.45334 17.4095 9.37903 17.5444 9.31161C18.4741 8.82333 20.6523 7.6788 20.8983 5.53427C21.1054 3.74442 19.8124 2.04599 18.0187 1.74833C17.5985 1.67757 17.1686 1.6907 16.7536 1.78698C16.3386 1.88326 15.9467 2.06077 15.6007 2.30927C15.2534 2.55626 14.9585 2.86964 14.7331 3.2313C14.5077 3.59297 14.3562 3.99573 14.2874 4.4163C14.2671 4.58349 14.139 4.77489 13.9741 4.80771C13.7218 4.85477 13.4905 4.9793 13.3123 5.16396C13.1341 5.34861 13.0179 5.58423 12.9798 5.83802C12.9417 6.0918 12.9837 6.35115 13.0999 6.57997C13.2161 6.80879 13.4007 6.99572 13.628 7.11474C13.7193 7.16395 13.7873 7.2474 13.817 7.34673C13.8468 7.44607 13.8358 7.55315 13.7866 7.64442C13.7374 7.7357 13.654 7.80368 13.5546 7.83342C13.4553 7.86316 13.3482 7.85223 13.2569 7.80302C12.8846 7.6038 12.5839 7.29307 12.397 6.91439C12.2101 6.5357 12.1464 6.10802 12.2148 5.6913C12.2761 5.33349 12.4321 4.99864 12.6666 4.72153C12.9012 4.44442 13.2056 4.23517 13.5483 4.11552C13.7534 3.12932 14.3238 2.25716 15.1452 1.67411C15.5745 1.36526 16.0607 1.14463 16.5758 1.02501C17.0909 0.905392 17.6246 0.889154 18.146 0.977237C20.3437 1.34208 21.9265 3.42646 21.6741 5.62333C21.3796 8.1788 18.8569 9.5038 17.9069 10.003C17.7647 10.078 17.6585 10.1311 17.6046 10.1686C17.5288 10.239 17.3476 10.6147 17.2015 10.9163C16.5171 12.3366 15.164 15.1397 11.9421 15.1397Z" fill="#119498"/>
</g>
<defs>
<clipPath id="clip0_4036_13527">
<rect width="25" height="25" fill="white" transform="translate(0 0.139648)"/>
</clipPath>
</defs>
</svg>
