<svg width="46" height="45" viewBox="0 0 46 45" fill="none" xmlns="http://www.w3.org/2000/svg">
<path fill-rule="evenodd" clip-rule="evenodd" d="M24.7578 1.40625C30.5905 1.40625 35.3188 6.13459 35.3188 11.9673C35.3188 17.8 30.5905 22.5283 24.7578 22.5283C18.9251 22.5283 14.1968 17.8 14.1968 11.9673C14.1968 6.13459 18.9251 1.40625 24.7578 1.40625ZM33.0832 21.6335C29.9909 21.6335 27.484 24.1404 27.484 27.2327C27.484 30.3251 29.9909 32.832 33.0832 32.832C36.1756 32.832 38.6825 30.3251 38.6825 27.2327C38.6825 24.1404 36.1756 21.6335 33.0832 21.6335ZM22.8854 43.5938L43.2808 43.5937C43.3842 43.5941 43.4863 43.5717 43.58 43.528C43.6736 43.4844 43.7565 43.4205 43.8226 43.3411C43.8887 43.2617 43.9364 43.1687 43.9624 43.0686C43.9883 42.9686 43.9919 42.8641 43.9727 42.7626C43.3604 39.445 41.2694 36.6459 38.4088 35.0738C38.3689 35.2889 38.3178 35.5017 38.2554 35.7114C39.0495 36.0814 39.5406 36.878 39.523 37.7548L39.4814 39.82C39.4667 40.5551 39.0765 41.2024 38.4316 41.5564L38.165 41.7028C38.1903 41.8645 38.1582 42.03 38.0744 42.1706C37.9905 42.3112 37.8601 42.418 37.7058 42.4726C37.5515 42.5271 37.3829 42.526 37.2293 42.4694C37.0758 42.4128 36.9468 42.3042 36.8648 42.1625L36.4016 41.3602C36.318 41.2162 36.2884 41.0471 36.318 40.8833C36.3477 40.7194 36.4346 40.5715 36.5633 40.4658C36.6921 40.3602 36.8542 40.3039 37.0206 40.3068C37.1871 40.3097 37.3471 40.3718 37.4721 40.4819L37.756 40.326C37.9652 40.2112 38.076 40.0316 38.0807 39.7926L38.1223 37.7274C38.1299 37.3464 37.8933 37.0332 37.5256 36.9347L36.8036 36.7413C36.4371 36.6431 36.0746 36.7961 35.8913 37.1287L34.8947 38.9379C34.7801 39.1462 34.7823 39.3602 34.906 39.5641L35.0128 39.7402C35.1603 39.713 35.3126 39.7338 35.4475 39.7993C35.5824 39.8649 35.6927 39.9719 35.7625 40.1047C35.8322 40.2375 35.8576 40.3891 35.835 40.5374C35.8124 40.6857 35.743 40.8228 35.6369 40.9288L34.9818 41.584C34.8553 41.711 34.6852 41.7849 34.506 41.7906C34.3269 41.7963 34.1524 41.7334 34.0181 41.6147C33.8838 41.4961 33.7999 41.3306 33.7836 41.1521C33.7672 40.9737 33.8197 40.7957 33.9302 40.6546L33.7086 40.2892C33.3277 39.6612 33.3098 38.9061 33.6645 38.2623L34.661 36.4531C35.106 35.6452 35.9907 35.1989 36.9034 35.3305C36.988 35.0479 37.0515 34.7484 37.08 34.4549C35.8401 33.9748 34.4926 33.711 33.0832 33.711C30.8576 33.711 29.5792 35.9071 29.398 37.9258C30.1834 38.1727 30.7534 38.9067 30.7534 39.7734C30.7534 40.8424 29.886 41.7099 28.8169 41.7099C27.7479 41.7099 26.8805 40.8425 26.8805 39.7734C26.8805 39.0032 27.3308 38.3378 27.9822 38.0259C28.0559 36.7121 28.506 35.4473 29.2789 34.3824C25.6502 35.7099 22.9101 38.8815 22.1937 42.7627C22.1745 42.8643 22.178 42.9688 22.2039 43.0688C22.2298 43.1688 22.2776 43.2619 22.3437 43.3413C22.4098 43.4207 22.4926 43.4845 22.5863 43.5282C22.6799 43.5718 22.7821 43.5942 22.8854 43.5938ZM28.8169 38.8793C29.3106 38.8793 29.7109 39.2796 29.7109 39.7733C29.7109 40.2671 29.3106 40.6673 28.8169 40.6673C28.3231 40.6673 27.9228 40.2671 27.9228 39.7733C27.9228 39.2796 28.3231 38.8793 28.8169 38.8793ZM2.71905 43.5938C2.61572 43.5942 2.51357 43.5718 2.41991 43.5281C2.32625 43.4845 2.2434 43.4206 2.17729 43.3412C2.11118 43.2618 2.06344 43.1688 2.03749 43.0687C2.01153 42.9687 2.00801 42.8642 2.02717 42.7627C2.9778 37.6124 7.49151 33.711 12.9167 33.711C16.7905 33.711 20.1992 35.7004 22.1782 38.713C21.5185 39.8947 21.0565 41.1764 20.8106 42.5073C20.7426 42.8706 20.7717 43.2453 20.8949 43.5937L2.71905 43.5938ZM12.9167 21.4065L7.1069 21.9739V25.7904C14.0417 27.1666 11.7917 27.1666 18.7266 25.7904V21.9739L12.9167 21.4065ZM18.5156 27.2673C18.4971 30.3437 15.9977 32.832 12.9168 32.832C9.83599 32.832 7.33664 30.3437 7.31801 27.2673C8.41313 27.4901 9.50517 27.7282 10.6009 27.9442C12.429 28.3046 13.4044 28.3046 15.2325 27.9442C16.3284 27.7283 17.4205 27.4902 18.5156 27.2673ZM13.6199 25.3178V24.8176H14.12C14.3065 24.8176 14.4854 24.7435 14.6172 24.6116C14.7491 24.4798 14.8232 24.3009 14.8232 24.1145C14.8232 23.928 14.7491 23.7491 14.6172 23.6173C14.4854 23.4854 14.3065 23.4113 14.12 23.4113H13.6199V22.9112C13.6199 22.7248 13.5458 22.5459 13.4139 22.4141C13.2821 22.2822 13.1032 22.2081 12.9167 22.2081C12.7303 22.2081 12.5514 22.2822 12.4195 22.4141C12.2877 22.5459 12.2136 22.7248 12.2136 22.9112V23.4113H11.7135C11.527 23.4113 11.3482 23.4854 11.2163 23.6173C11.0845 23.7491 11.0104 23.928 11.0104 24.1145C11.0104 24.3009 11.0845 24.4798 11.2163 24.6116C11.3482 24.7435 11.527 24.8176 11.7135 24.8176H12.2136V25.3178C12.2136 25.5043 12.2877 25.6831 12.4195 25.815C12.5514 25.9468 12.7303 26.0209 12.9167 26.0209C13.1032 26.0209 13.2821 25.9468 13.4139 25.815C13.5458 25.6831 13.6199 25.5043 13.6199 25.3178ZM31.0165 13.6415L30.664 13.8052V16.3949L31.7196 15.7564L32.7753 16.3949V13.8052L32.4227 13.6415L32.4212 9.50177C32.4212 9.34679 32.3698 9.1962 32.2752 9.07347C32.1806 8.95075 32.048 8.8628 31.8981 8.82334L24.5219 6.86399C24.4019 6.83036 24.2751 6.82942 24.1547 6.86127L16.778 8.8207C16.6268 8.8582 16.4923 8.94499 16.3958 9.06739C16.2994 9.18978 16.2464 9.34081 16.2453 9.49665C16.2442 9.65249 16.295 9.80426 16.3897 9.92801C16.4844 10.0518 16.6176 10.1405 16.7684 10.1801L18.5794 10.6612L18.5816 14.157C18.5817 14.321 18.6392 14.4797 18.7442 14.6057C18.8492 14.7316 18.995 14.8168 19.1563 14.8464C19.9158 14.9853 20.6671 15.1305 21.2928 15.2515C24.0809 15.7905 24.5856 15.7904 27.3738 15.2515C27.9842 15.1335 28.7138 14.9924 29.4545 14.8566C29.6279 14.8391 29.7886 14.7578 29.9055 14.6286C30.0223 14.4993 30.087 14.3312 30.087 14.157V10.6612L31.0164 10.4143L31.0165 13.6415ZM28.6809 11.0348L24.5119 12.1423C24.3914 12.1742 24.2646 12.1732 24.1447 12.1395L19.9858 11.0348V13.574C20.6438 13.6963 21.1334 13.791 21.5566 13.8727C24.1561 14.3753 24.5106 14.3752 27.1101 13.8727C27.5332 13.791 28.0229 13.6963 28.6809 13.574V11.0348ZM28.9872 9.50177L24.3333 8.26559L19.6794 9.50177L24.3333 10.7379L28.9872 9.50177Z" fill="#148A8B"/>
</svg>
