<svg width="25" height="26" viewBox="0 0 25 26" fill="none" xmlns="http://www.w3.org/2000/svg">
<g clip-path="url(#clip0_4036_13461)">
<path d="M6.66687 5.13914C6.43686 5.13914 6.25024 4.95288 6.25024 4.72252C6.25024 4.49215 6.43694 4.30589 6.66687 4.30589C7.87141 4.30589 9.55092 2.60969 10.0968 1.95559C10.1318 1.91358 10.1748 1.87889 10.2232 1.85349C10.2717 1.8281 10.3247 1.8125 10.3791 1.80759C10.4336 1.80268 10.4885 1.80855 10.5407 1.82487C10.5929 1.84119 10.6414 1.86763 10.6834 1.90269C10.7682 1.97344 10.8215 2.07497 10.8315 2.18497C10.8415 2.29497 10.8074 2.40444 10.7367 2.48933C10.5109 2.76046 8.47641 5.13914 6.66687 5.13914ZM18.3332 19.3053C18.2551 19.3053 18.1786 19.2833 18.1124 19.2419L15.9858 17.9133C14.7183 17.1212 13.69 16.1274 12.9296 14.96C12.2093 13.8542 12.0976 13.1871 12.0871 13.1146C12.0847 13.095 12.0834 13.0752 12.0834 13.0555V5.97239C12.0833 5.877 12.116 5.78448 12.176 5.71031C12.236 5.63614 12.3196 5.58481 12.4129 5.56491L18.246 4.31494C18.3036 4.30282 18.363 4.30282 18.4206 4.31494L24.2537 5.56491C24.3469 5.5849 24.4305 5.63626 24.4904 5.71043C24.5503 5.78459 24.5829 5.87706 24.5828 5.97239V13.0555C24.5828 13.0751 24.5816 13.0951 24.5787 13.1146C24.5682 13.1871 24.457 13.8538 23.7362 14.96C22.9758 16.1274 21.9475 17.1211 20.6801 17.9133L18.5534 19.2419C18.4875 19.2834 18.4111 19.3054 18.3332 19.3053ZM12.9167 13.0172C12.9404 13.1255 13.0779 13.66 13.6283 14.5046C14.3221 15.57 15.2641 16.4787 16.4279 17.2062L18.3333 18.397L20.2387 17.2066C21.4023 16.4791 22.3445 15.57 23.0382 14.505C23.5848 13.6655 23.724 13.1322 23.7498 13.0164V6.30951L18.3334 5.14872L12.9169 6.30951V13.0172H12.9167Z" fill="#119498"/>
<path d="M18.3331 17.2221C18.2652 17.2221 18.1983 17.2055 18.1382 17.1738L16.8949 16.515C16.8861 16.51 16.8774 16.5054 16.8691 16.5C15.8087 15.8366 14.9533 15.013 14.3263 14.0505C13.9855 13.5267 13.8329 13.1547 13.7725 12.9796C13.7577 12.9357 13.7502 12.8897 13.75 12.8434V7.22236C13.7499 7.12604 13.7833 7.03267 13.8444 6.95821C13.9055 6.88375 13.9905 6.8328 14.085 6.81408L18.2515 5.98074C18.3055 5.97029 18.3609 5.97029 18.4149 5.98074L22.5814 6.81408C22.6758 6.83282 22.7609 6.88377 22.822 6.95823C22.8831 7.03269 22.9164 7.12604 22.9164 7.22236V12.8435C22.9164 12.8897 22.9085 12.9355 22.8934 12.9793C22.833 13.1548 22.6809 13.5264 22.3397 14.0497C21.7131 15.0122 20.8577 15.8363 19.7969 16.4996L18.5282 17.1733C18.4682 17.2053 18.4012 17.2221 18.3331 17.2221ZM17.2985 15.7859L18.3331 16.3337L19.3809 15.7783C20.3122 15.195 21.0817 14.455 21.6417 13.595C21.9 13.1983 22.0272 12.9142 22.083 12.77V7.56351L18.3331 6.81355L14.5832 7.56351V12.7696C14.639 12.9142 14.7661 13.1979 15.0244 13.595C15.5824 14.4517 16.3474 15.1884 17.2985 15.7859Z" fill="#119498"/>
<path d="M17.9165 13.0557C17.8618 13.0557 17.8076 13.045 17.757 13.024C17.7065 13.0031 17.6606 12.9724 17.6219 12.9337L16.3719 11.6837C16.3332 11.6451 16.3025 11.5991 16.2815 11.5486C16.2605 11.498 16.2498 11.4439 16.2498 11.3891C16.2498 11.3344 16.2605 11.2802 16.2815 11.2297C16.3025 11.1791 16.3332 11.1332 16.3719 11.0945C16.4106 11.0558 16.4565 11.0251 16.5071 11.0041C16.5576 10.9832 16.6118 10.9724 16.6665 10.9724C16.7212 10.9724 16.7754 10.9832 16.826 11.0041C16.8765 11.0251 16.9224 11.0558 16.9611 11.0945L17.8932 12.0262L20.1002 9.45132C20.1357 9.40965 20.1791 9.37541 20.228 9.35058C20.2768 9.32575 20.33 9.31081 20.3846 9.30663C20.4392 9.30245 20.4941 9.30911 20.5461 9.32622C20.5981 9.34333 20.6463 9.37056 20.6877 9.40634C20.7293 9.44191 20.7634 9.48532 20.7881 9.53408C20.8129 9.58285 20.8277 9.63602 20.8319 9.69055C20.8361 9.74507 20.8295 9.79989 20.8125 9.85186C20.7954 9.90383 20.7683 9.95193 20.7327 9.99341L18.2328 12.91C18.1954 12.9536 18.1495 12.989 18.0978 13.0141C18.0461 13.0391 17.9898 13.0531 17.9324 13.0554C17.9274 13.0557 17.9219 13.0557 17.9165 13.0557Z" fill="#119498"/>
<path d="M16.3082 25.1391C16.2332 25.1391 16.1574 25.1303 16.0816 25.1116C15.9223 25.0723 15.7763 24.9915 15.6584 24.8775C15.5405 24.7635 15.4549 24.6202 15.4103 24.4624C14.5687 21.4638 12.57 16.3889 10.4167 16.3889C8.26338 16.3889 6.26477 21.4637 5.42353 24.4624C5.37884 24.6202 5.29321 24.7633 5.17533 24.8773C5.05744 24.9914 4.91149 25.0722 4.75229 25.1116C4.42651 25.1924 4.0944 25.0953 3.86483 24.8528C1.91735 22.7983 2.07611 18.6305 2.08402 18.4539C2.08358 17.0489 2.47447 15.3765 2.80235 14.2249C3.05565 13.3341 2.88898 12.38 2.344 11.6066C2.2627 11.491 2.18353 11.3739 2.10651 11.2554C1.00116 9.55249 0.416992 7.51549 0.416992 5.36471V4.30601C0.41708 1.01017 3.96033 0.139404 5.83357 0.139404C8.20724 0.139404 9.79344 1.17561 10.4167 1.67183C11.0401 1.17561 12.6263 0.139404 14.9999 0.139404C16.8732 0.139404 20.4164 1.01017 20.4164 4.30592V5.07961C20.4165 5.14169 20.4026 5.203 20.3759 5.25903C20.3492 5.31505 20.3102 5.36438 20.2619 5.40337C20.2137 5.44256 20.1572 5.47039 20.0968 5.48481C20.0364 5.49923 19.9735 5.49986 19.9127 5.48666L18.3332 5.14831L12.9167 6.3091V13.0172C12.9404 13.1255 13.0779 13.6601 13.6284 14.5046C14.3221 15.57 15.2641 16.4787 16.4279 17.2062L18.5029 18.5028C18.5781 18.5354 18.6421 18.5894 18.6868 18.6581C18.7316 18.7267 18.7551 18.8071 18.7545 18.8891C18.7437 20.1269 18.5483 23.186 16.9691 24.8522C16.7928 25.039 16.5562 25.1391 16.3082 25.1391ZM10.4168 15.5556C13.5338 15.5556 15.6408 22.2004 16.2125 24.237C16.225 24.282 16.2608 24.2975 16.2812 24.3025C16.3137 24.3108 16.342 24.3029 16.3637 24.2795C17.6703 22.9004 17.8849 20.2201 17.9161 19.1192L15.9858 17.9126C14.7184 17.1205 13.6901 16.1268 12.9296 14.9593C12.2093 13.8535 12.0976 13.1864 12.0872 13.1139C12.0847 13.0946 12.0834 13.0751 12.0834 13.0556V5.97252C12.0833 5.87712 12.116 5.7846 12.176 5.71043C12.236 5.63626 12.3197 5.58493 12.4129 5.56503L18.2461 4.31506C18.3036 4.30294 18.3631 4.30294 18.4206 4.31506L19.5831 4.56423V4.30592C19.5831 1.0194 15.1866 0.973095 14.9995 0.972656C12.305 0.972656 10.7263 2.50263 10.7105 2.518C10.6322 2.59556 10.5264 2.63901 10.4162 2.63886C10.306 2.63871 10.2003 2.59498 10.1222 2.51721C10.1072 2.50263 8.52854 0.972656 5.83357 0.972656C5.64687 0.973095 1.25042 1.01931 1.25042 4.30592V5.36462C1.25042 7.35374 1.78829 9.23409 2.80534 10.8011C2.87639 10.9111 2.94974 11.0196 3.02534 11.1266C3.71573 12.1065 3.92659 13.319 3.60406 14.4523C3.29076 15.5535 2.91701 17.1447 2.91701 18.4722C2.9149 18.5301 2.76616 22.4825 4.46947 24.2794C4.49152 24.3028 4.51946 24.3103 4.55241 24.3024C4.57279 24.2969 4.60864 24.282 4.62112 24.2369C5.19281 22.2004 7.29975 15.5556 10.4168 15.5556Z" fill="#119498"/>
</g>
<defs>
<clipPath id="clip0_4036_13461">
<rect width="25" height="25" fill="white" transform="translate(0 0.139404)"/>
</clipPath>
</defs>
</svg>
