<?xml version="1.0" encoding="UTF-8"?>
<!DOCTYPE svg PUBLIC "-//W3C//DTD SVG 1.1//EN" "http://www.w3.org/Graphics/SVG/1.1/DTD/svg11.dtd">
<!-- Creator: CorelDRAW -->
<svg xmlns="http://www.w3.org/2000/svg" xml:space="preserve" width="7.6009mm" height="5.9853mm" version="1.1" style="shape-rendering:geometricPrecision; text-rendering:geometricPrecision; image-rendering:optimizeQuality; fill-rule:evenodd; clip-rule:evenodd"
viewBox="0 0 760.08 598.52"
 xmlns:xlink="http://www.w3.org/1999/xlink"
 xmlns:xodm="http://www.corel.com/coreldraw/odm/2003">
 <defs>
  <style type="text/css">
   <![CDATA[
    .fil0 {fill:#1F9C9C;fill-rule:nonzero}
   ]]>
  </style>
 </defs>
 <g id="Layer_x0020_1">
  <metadata id="CorelCorpID_0Corel-Layer"/>
  <g id="_1695976498720">
   <path class="fil0" d="M25.99 499.3l707.76 0 0 -473.3 -707.76 0 0 473.3zm721.01 26.17l-733.92 0c-7.13,0 -13.08,-5.78 -13.08,-13.09l0 -499.29c0,-7.14 5.78,-13.08 13.08,-13.08l733.92 0c7.13,0 13.08,5.77 13.08,13.08l0 499.29c-0.17,7.14 -5.95,13.09 -13.08,13.09z"/>
   <path class="fil0" d="M73.39 447.66l488.26 0 0 -369.86 -488.26 0 0 369.86zm501.34 26.16l-514.42 0c-7.13,0 -13.08,-5.78 -13.08,-13.08l0 -396.01c0,-7.13 5.78,-13.08 13.08,-13.08l514.42 0c7.13,0 13.08,5.78 13.08,13.08l0 396.01c0,7.13 -5.78,13.08 -13.08,13.08z"/>
   <path class="fil0" d="M629.77 163.61l62.18 0 0 -47.06 -62.18 0 0 47.06zm75.27 25.99l-88.18 0c-7.13,0 -13.08,-5.77 -13.08,-13.08l0 -73.22c0,-7.14 5.78,-13.08 13.08,-13.08l88.18 0c7.13,0 13.08,5.77 13.08,13.08l0 73.22c-0.17,7.31 -5.95,13.08 -13.08,13.08z"/>
   <path class="fil0" d="M629.77 286.27l62.18 0 0 -47.06 -62.18 0 0 47.06zm75.27 25.99l-88.18 0c-7.13,0 -13.08,-5.77 -13.08,-13.08l0 -73.22c0,-7.14 5.78,-13.08 13.08,-13.08l88.18 0c7.13,0 13.08,5.77 13.08,13.08l0 73.22c-0.17,7.31 -5.95,13.08 -13.08,13.08z"/>
   <path class="fil0" d="M629.77 408.92l62.18 0 0 -47.06 -62.18 0 0 47.06zm75.27 26.16l-88.18 0c-7.13,0 -13.08,-5.77 -13.08,-13.08l0 -73.22c0,-7.14 5.78,-13.08 13.08,-13.08l88.18 0c7.13,0 13.08,5.77 13.08,13.08l0 73.22c-0.17,7.14 -5.95,13.08 -13.08,13.08z"/>
   <path class="fil0" d="M105.67 572.53l67.11 0 0 -47.06 -67.11 0 0 47.06zm80.19 25.99l-93.27 0c-7.13,0 -13.08,-5.78 -13.08,-13.08l0 -73.23c0,-7.13 5.78,-13.08 13.08,-13.08l93.27 0c7.14,0 13.08,5.78 13.08,13.08l0 73.23c0,7.3 -5.77,13.08 -13.08,13.08z"/>
   <path class="fil0" d="M587.13 572.53l67.11 0 0 -47.06 -67.11 0 0 47.06zm80.19 25.99l-93.27 0c-7.14,0 -13.08,-5.78 -13.08,-13.08l0 -73.23c0,-7.13 5.77,-13.08 13.08,-13.08l93.27 0c7.14,0 13.08,5.78 13.08,13.08l0 73.23c0,7.3 -5.94,13.08 -13.08,13.08z"/>
   <path class="fil0" d="M395.67 193.85l0 0zm-163.78 161.06c-5.95,0 -11.04,-3.91 -12.57,-9.69l-34.32 -127.92 -33.64 58.27c-2.38,4.07 -6.62,6.45 -11.38,6.45l-79.68 0c-7.13,0 -13.08,-5.77 -13.08,-13.08 0,-7.3 5.78,-13.08 13.08,-13.08l72.03 0 45.71 -79c2.71,-4.59 7.81,-7.13 13.08,-6.45 5.26,0.67 9.51,4.41 10.87,9.51l29.9 111.28 19.03 -70.85c1.19,-4.58 4.76,-7.98 9.17,-9.17 4.59,-1.19 9.35,0 12.57,3.4l45.87 45.87 50.29 0c1.19,-7.99 3.06,-19.37 5.27,-31.09 8.49,-44.34 14.78,-51.82 20.56,-55.56 3.9,-2.55 8.32,-3.39 12.74,-2.21 8.32,2.21 13.08,9.69 20.04,31.6 3.91,11.9 8.33,28.21 13.26,48.42 3.56,14.44 6.96,29.05 9.51,40.95l32.28 -42.14c2.55,-3.22 6.28,-5.09 10.36,-5.09l81.72 0c7.14,0 13.08,5.77 13.08,13.08 0,7.3 -5.78,13.08 -13.08,13.08l-75.43 0 -45.53 59.46c-3.06,4.08 -8.33,5.95 -13.25,4.76 -4.93,-1.19 -8.84,-5.1 -9.86,-10.02 -8.15,-39.76 -19.03,-84.61 -26.84,-110.6 -3.91,16.48 -8.15,39.75 -10.87,60.48 -0.85,6.45 -6.46,11.38 -12.91,11.38l-66.94 0c-3.4,0 -6.8,-1.36 -9.18,-3.74l-33.63 -33.64 -25.66 95.65c-1.53,5.78 -6.79,9.69 -12.57,9.69z"/>
  </g>
 </g>
</svg>
