<svg width="46" height="45" viewBox="0 0 46 45" fill="none" xmlns="http://www.w3.org/2000/svg">
<g clip-path="url(#clip0_5010_234)">
<path d="M20.5553 16.1057C20.6529 15.4834 20.9529 14.9106 21.4089 14.476C22.2968 13.6275 23.5861 13.4599 24.6331 13.9575V3.96348C24.6331 3.85876 24.6124 3.75506 24.5724 3.65831C24.5323 3.56155 24.4735 3.47364 24.3995 3.39959C24.3254 3.32554 24.2375 3.2668 24.1408 3.22672C24.044 3.18664 23.9403 3.16602 23.8356 3.16602H1.29747C1.19274 3.166 1.08903 3.18662 0.992275 3.22669C0.895516 3.26676 0.807598 3.32551 0.733544 3.39956C0.65949 3.47361 0.600749 3.56153 0.560677 3.65829C0.520605 3.75505 0.499987 3.85875 0.5 3.96348V18.1601C0.5 18.2648 0.520627 18.3685 0.560704 18.4653C0.60078 18.562 0.659521 18.6499 0.733573 18.724C0.807625 18.798 0.895537 18.8568 0.99229 18.8969C1.08904 18.9369 1.19274 18.9576 1.29747 18.9576H17.102C17.9443 17.7462 19.142 16.7632 20.5553 16.1057ZM14.4623 13.5811L10.3093 16.3405C9.05742 17.1724 7.3879 16.1562 7.57073 14.6519L7.5988 12.027L5.64772 11.3215C5.07764 11.1153 4.78263 10.4859 4.98872 9.91593C5.19491 9.34575 5.82427 9.05085 6.39425 9.25694L9.07803 10.2275C9.29213 10.305 9.47686 10.447 9.60664 10.6341C9.73641 10.8212 9.80482 11.0439 9.80238 11.2716L9.78992 12.4308L11.9142 11.0194L10.6945 8.39833C10.4387 7.84866 10.6769 7.19575 11.2265 6.94C11.7761 6.68396 12.429 6.92244 12.6848 7.47201L14.063 10.4335C14.429 10.5594 14.7434 10.8024 14.9576 11.1248C15.4991 11.9396 15.2774 13.0395 14.4623 13.5811ZM15.4734 10.1319C14.8088 9.13171 15.0809 7.78202 16.0811 7.11744C17.0814 6.45285 18.431 6.72498 19.0956 7.7252C19.7602 8.72542 19.4881 10.0751 18.4879 10.7397C17.4876 11.4043 16.138 11.1323 15.4734 10.1319Z" fill="#148A8B"/>
<path d="M28.7919 17.9704L32.3907 18.2867L27.7843 19.107L24.416 15.5826C23.8782 15.0198 22.986 14.9997 22.4233 15.5374C21.8606 16.0751 21.8404 16.9673 22.3781 17.53L26.2685 21.6007C26.4291 21.7687 26.6287 21.8944 26.8495 21.9666C27.0704 22.0388 27.3057 22.0553 27.5345 22.0145L32.885 21.0617L27.792 23.46C27.0416 23.8134 26.1758 23.6277 25.6319 23.0603C25.0498 22.4502 25.7779 23.2123 21.3169 18.5445C21.0552 18.2712 20.8502 17.949 20.7137 17.5962C18.2433 18.9371 16.6349 21.5932 17.5012 24.1531L24.6352 25.1231H7.55757C6.6235 25.1231 5.86636 25.8804 5.86636 26.8143C5.86636 27.7484 6.62359 28.5055 7.55757 28.5055C21.5137 28.4488 25.4463 28.4647 25.792 28.442C26.5436 28.3924 26.9993 28.1845 27.2932 27.9904L35.7129 22.4294C36.7344 21.7547 36.9655 20.3505 36.212 19.384L34.0137 16.564C33.3001 15.6487 31.9796 15.4852 31.0644 16.1988L30.4964 16.6416C30.2178 15.8322 29.4516 15.2498 28.5477 15.2498C28.0834 15.2498 27.6564 15.405 27.3117 15.664C27.1594 15.7784 27.0236 15.9132 26.9081 16.0647L28.7235 17.9644L28.7919 17.9704Z" fill="#148A8B"/>
<path d="M38.8626 18.2726C40.5805 18.2726 41.9732 16.8799 41.9732 15.1619C41.9732 13.444 40.5805 12.0513 38.8626 12.0513C37.1446 12.0513 35.7519 13.444 35.7519 15.1619C35.7519 16.8799 37.1446 18.2726 38.8626 18.2726Z" fill="#148A8B"/>
<path d="M45.2589 19.3478C44.8145 18.6722 43.9065 18.4847 43.2308 18.9289L26.7463 29.7707H5.23064C4.42189 29.7707 3.76633 30.4263 3.76633 31.235C3.76633 32.0438 4.42199 32.6993 5.23064 32.6993H20.3529V36.0906H10.3844C9.39787 36.0906 8.59804 36.8903 8.59804 37.877C8.59804 38.8637 9.39787 39.6634 10.3844 39.6634H13.2324C13.1871 39.8176 13.164 39.9774 13.1638 40.1381C13.1638 41.0746 13.9231 41.8339 14.8596 41.8339C15.7963 41.8339 16.5554 41.0746 16.5554 40.1381C16.5554 39.9731 16.5307 39.8141 16.4868 39.6634H31.6981C31.6528 39.8176 31.6297 39.9774 31.6295 40.1381C31.6295 41.0746 32.3888 41.8339 33.3253 41.8339C34.2619 41.8339 35.0212 41.0746 35.0212 40.1381C35.0212 39.9731 34.9964 39.8141 34.9526 39.6634H37.8004C38.787 39.6634 39.5868 38.8637 39.5868 37.877C39.5868 36.8903 38.787 36.0906 37.8004 36.0906H27.832V32.5476C27.8862 32.5212 27.9387 32.4914 27.9893 32.4585L44.8401 21.3759C45.5158 20.9314 45.7034 20.0235 45.2589 19.3478Z" fill="#148A8B"/>
</g>
<defs>
<clipPath id="clip0_5010_234">
<rect width="45" height="45" fill="white" transform="translate(0.5)"/>
</clipPath>
</defs>
</svg>
