<svg width="46" height="46" viewBox="0 0 46 46" fill="none" xmlns="http://www.w3.org/2000/svg">
<path d="M40.2596 15.568C37.0576 10.6046 39.2538 4.775 40.4129 2.1302C40.4549 2.03297 40.4721 1.92681 40.463 1.82128C40.4538 1.71575 40.4184 1.61417 40.3602 1.52569C40.302 1.43721 40.2226 1.36461 40.1293 1.31444C40.036 1.26426 39.9317 1.23809 39.8258 1.23828H23.0675C22.9466 1.23829 22.8282 1.27255 22.7259 1.3371C22.6237 1.40165 22.5418 1.49385 22.4898 1.60301C22.4379 1.71217 22.4179 1.83383 22.4322 1.95389C22.4465 2.07395 22.4945 2.18749 22.5707 2.28137C22.6896 2.42815 22.7749 2.59909 22.8209 2.78226C22.8668 2.96543 22.8722 3.15642 22.8367 3.3419C22.8012 3.52738 22.7257 3.70289 22.6154 3.85617C22.5051 4.00945 22.3627 4.13681 22.1981 4.22938C12.4672 9.73344 7.45461 16.9159 8.28992 25.3674C9.13859 33.9529 16.7738 38.0834 20.5651 39.7266C21.9713 40.3352 22.7412 41.2278 22.7279 44.0509C22.7269 44.1439 22.7444 44.2363 22.7792 44.3226C22.8141 44.4089 22.8657 44.4874 22.9311 44.5537C22.9964 44.62 23.0742 44.6726 23.16 44.7087C23.2458 44.7448 23.3379 44.7635 23.431 44.7638H36.9711C37.1278 44.7638 37.28 44.7115 37.4036 44.6151C37.5271 44.5188 37.615 44.3839 37.6531 44.2319C37.8963 43.238 38.2792 42.2836 38.7904 41.3973C44.5086 31.8857 46.8507 25.7847 40.2596 15.568ZM34.7155 20.8323C31.903 25.4827 35.568 32.2166 26.4857 34.982C20.3186 36.8596 12.5435 33.3145 11.2149 25.8375C9.88637 18.3604 17.2126 9.40649 24.5469 7.43738C34.2356 4.83582 39.7182 12.5635 34.7155 20.8323ZM9.98902 11.6955C9.91162 11.7608 9.81706 11.8024 9.71663 11.8154C9.61621 11.8284 9.51416 11.8122 9.4227 11.7688C9.33123 11.7253 9.25421 11.6564 9.20084 11.5704C9.14746 11.4843 9.12 11.3847 9.12172 11.2835C9.12172 11.1805 9.10765 10.252 8.39715 10.2116C8.04591 10.1986 7.70228 10.1056 7.39246 9.93964C7.08264 9.77368 6.81483 9.53913 6.60945 9.25391C6.46186 9.00823 6.37831 8.72943 6.36646 8.44307C6.3546 8.15671 6.41482 7.87196 6.5416 7.61492C6.59549 7.48583 6.69846 7.38344 6.82785 7.33026C6.95724 7.27709 7.10245 7.27749 7.23154 7.33139C7.36063 7.38528 7.46303 7.48825 7.5162 7.61764C7.56937 7.74703 7.56897 7.89224 7.51508 8.02133C7.34176 8.43617 7.46375 8.63059 7.50347 8.69457C7.62066 8.83492 7.76617 8.94893 7.93048 9.02914C8.09478 9.10936 8.27417 9.15396 8.45691 9.16004C9.84418 9.23879 10.188 10.5962 10.1764 11.3028C10.1749 11.3778 10.1574 11.4517 10.1251 11.5194C10.0928 11.5871 10.0464 11.6472 9.98902 11.6955ZM6.39605 18.0595C6.38375 18.1598 6.34292 18.2544 6.2784 18.3321C6.21389 18.4098 6.12841 18.4674 6.03213 18.4979C5.93585 18.5285 5.83282 18.5307 5.73529 18.5044C5.63776 18.4781 5.54985 18.4244 5.48199 18.3495C5.41168 18.2736 4.76832 17.6042 4.22094 18.0591C3.95481 18.2893 3.63958 18.4556 3.29933 18.5453C2.95908 18.635 2.60283 18.6457 2.25781 18.5766C1.98238 18.4976 1.7312 18.3507 1.52733 18.1493C1.32346 17.948 1.17342 17.6986 1.09098 17.4242C1.06497 17.3589 1.0523 17.289 1.05372 17.2186C1.05514 17.1483 1.07061 17.079 1.09923 17.0147C1.12784 16.9505 1.16903 16.8926 1.22035 16.8445C1.27168 16.7964 1.33211 16.759 1.39809 16.7346C1.46407 16.7102 1.53426 16.6993 1.60453 16.7024C1.6748 16.7056 1.74373 16.7228 1.80727 16.7529C1.8708 16.7831 1.92766 16.8257 1.97448 16.8782C2.02131 16.9307 2.05716 16.992 2.07992 17.0586C2.23601 17.4805 2.45785 17.5388 2.53062 17.5589C2.71207 17.5815 2.89624 17.5656 3.07112 17.5122C3.24601 17.4588 3.40768 17.3692 3.54558 17.2491C4.61398 16.3611 5.79101 17.1194 6.26422 17.6439C6.31455 17.6998 6.35235 17.7658 6.37509 17.8375C6.39783 17.9091 6.40497 17.9848 6.39605 18.0595ZM6.44633 26.4717C6.46175 26.5716 6.44816 26.6737 6.40717 26.7661C6.36617 26.8585 6.2995 26.9371 6.21509 26.9927C6.13068 27.0482 6.03208 27.0784 5.93103 27.0795C5.82999 27.0806 5.73074 27.0527 5.64512 26.999C5.55723 26.9449 4.75496 26.4773 4.35277 27.0644C4.15976 27.3583 3.90217 27.6041 3.59966 27.7833C3.29715 27.9624 2.95772 28.07 2.60726 28.098C2.32085 28.0976 2.03913 28.0252 1.78796 27.8875C1.53679 27.7499 1.32421 27.5513 1.16972 27.3102C1.08716 27.1972 1.05283 27.0562 1.07429 26.9179C1.09575 26.7797 1.17124 26.6557 1.28416 26.5731C1.39707 26.4905 1.53816 26.4562 1.67638 26.4777C1.81461 26.4991 1.93865 26.5746 2.02121 26.6875C2.28629 27.0504 2.51551 27.0465 2.59109 27.0454C2.77177 27.0176 2.94456 26.952 3.09818 26.8529C3.2518 26.7538 3.38281 26.6234 3.48265 26.4703C4.26769 25.3242 5.60715 25.732 6.20586 26.1075C6.26972 26.1474 6.32425 26.2005 6.36574 26.2634C6.40723 26.3262 6.43472 26.3973 6.44633 26.4717ZM9.58402 33.3655C9.65073 33.4417 9.69408 33.5355 9.7089 33.6356C9.72372 33.7358 9.70938 33.8382 9.66759 33.9304C9.6258 34.0227 9.55834 34.1009 9.47326 34.1558C9.38818 34.2108 9.28908 34.24 9.18781 34.2402C9.0848 34.2402 8.15633 34.2732 8.1289 34.9841C8.12224 35.3356 8.03535 35.6809 7.87486 35.9937C7.71438 36.3065 7.48454 36.5786 7.20289 36.789C6.96004 36.9411 6.68286 37.0298 6.39679 37.047C6.11073 37.0641 5.82494 37.0091 5.56566 36.8871C5.43906 36.8334 5.33844 36.7323 5.28526 36.6055C5.23208 36.4787 5.23055 36.3361 5.28099 36.2082C5.33143 36.0802 5.42986 35.9771 5.55528 35.9207C5.6807 35.8642 5.82319 35.8591 5.95238 35.9062C6.37004 36.0718 6.56234 35.9466 6.62562 35.9062C6.7639 35.7863 6.87533 35.6387 6.95263 35.4728C7.02993 35.3069 7.07136 35.1266 7.07422 34.9436C7.12766 33.5553 8.48047 33.1858 9.18359 33.1858C9.25932 33.1853 9.33429 33.201 9.40338 33.232C9.47248 33.263 9.53409 33.3085 9.58402 33.3655Z" fill="#148A8B"/>
<path d="M20.5742 17.9324C20.8434 18.0674 21.1007 18.2251 21.3431 18.4038C22.4245 19.262 24.4955 20.1926 25.1832 20.2109C25.2619 20.2253 25.3431 20.2139 25.4148 20.1784C25.4865 20.1428 25.5447 20.085 25.5808 20.0136C25.68 19.7654 25.5263 19.5506 25.1793 19.4863C25.0114 19.456 24.8466 19.4101 24.6871 19.3492C23.3266 18.8672 23.1649 17.9204 23.2703 17.1438C23.0086 16.8292 22.7711 16.4952 22.5598 16.1447C22.151 15.5087 21.2801 15.0664 20.7131 15.4957C20.1738 15.9039 20.0504 16.7423 20.4346 17.6269C20.473 17.7158 20.5197 17.8188 20.5742 17.9324ZM16.6859 23.5275C17.1781 23.4097 17.6351 23.2768 17.96 23.183C18.2564 23.0968 18.4399 23.0423 18.5784 23.017C18.9863 22.9422 19.4032 22.9297 19.8148 22.9798C19.8287 22.9816 19.8428 22.9789 19.8551 22.9723C19.8674 22.9656 19.8773 22.9552 19.8833 22.9426C19.8894 22.9299 19.8913 22.9157 19.8888 22.9019C19.8862 22.8882 19.8794 22.8755 19.8693 22.8659C19.2387 22.2359 18.6787 21.5391 18.1991 20.7878C18.1593 20.7196 18.1287 20.6531 18.096 20.5863C17.5169 20.467 16.9521 20.2862 16.4114 20.047C15.427 19.4648 14.591 19.628 14.2475 20.1117C13.8309 20.6992 13.9631 21.4396 14.7696 22.1582C15.3837 22.6482 16.0234 23.1053 16.6859 23.5275Z" fill="#148A8B"/>
<path d="M30.8606 9.72338C27.0131 8.68135 25.2004 11.2703 24.8534 13.3005C24.7112 13.8065 24.3887 14.243 23.9468 14.5275C23.1441 15.096 24.0554 15.6008 23.9935 16.0125L23.9809 16.0536C24.3243 16.1139 24.6354 16.2933 24.8598 16.5602C24.8812 16.588 24.8969 16.6198 24.9059 16.6538C24.9149 16.6877 24.917 16.7231 24.9121 16.7578C24.9072 16.7926 24.8955 16.8261 24.8775 16.8562C24.8595 16.8864 24.8357 16.9126 24.8075 16.9335C24.7792 16.9543 24.7471 16.9693 24.713 16.9775C24.6788 16.9858 24.6434 16.9871 24.6088 16.9815C24.5741 16.9759 24.5409 16.9634 24.5112 16.9448C24.4814 16.9262 24.4556 16.9018 24.4354 16.8731C24.2831 16.7076 24.0788 16.599 23.8564 16.5651C23.8508 16.5651 23.8462 16.5602 23.8406 16.5588C23.5885 17.6293 23.7703 18.4014 25.0145 18.8422C25.0145 18.8422 25.217 18.9104 25.5242 18.9828C25.6599 19.0135 25.7861 19.0771 25.8915 19.1679C25.9969 19.2587 26.0785 19.374 26.1289 19.5037C26.1794 19.6334 26.1973 19.7734 26.181 19.9116C26.1647 20.0498 26.1147 20.1819 26.0354 20.2963C25.9448 20.433 25.8211 20.5446 25.6758 20.6206C25.5305 20.6966 25.3683 20.7347 25.2043 20.7312C24.2818 20.7069 22.029 19.7116 20.7395 18.6868C19.1715 17.4419 17.7512 18.7294 18.7046 20.3511C19.6548 21.8738 20.9033 23.1884 22.3749 24.2158C22.4776 24.2862 22.3591 24.4472 22.2508 24.3849C21.4422 23.9205 20.2033 23.2993 18.7588 23.5655C18.2578 23.6579 15.5342 24.6314 14.193 24.374C12.7361 24.0928 12.1153 25.0972 12.3136 25.9768C12.4893 26.7573 13.2849 27.2533 14.2535 27.3753C16.2795 27.6285 17.414 27.6133 19.0115 29.2365C21.2826 31.5445 24.6457 33.3287 27.9061 31.5283C30.4647 30.1161 31.4537 26.4131 31.4322 21.9725C31.4266 20.7772 31.2505 19.9366 31.8636 19.3249C32.6195 18.5708 33.6639 17.9471 34.4729 15.958C35.2045 14.158 34.43 10.6902 30.8606 9.72338ZM26.1809 14.3672L25.9953 14.4424L26.0793 14.6685C26.1036 14.734 26.1008 14.8065 26.0717 14.87C26.0426 14.9336 25.9894 14.9829 25.9239 15.0074C25.91 15.0125 25.8957 15.0165 25.8811 15.0193C25.8199 15.0308 25.7566 15.0204 25.7025 14.9897C25.6483 14.9591 25.6067 14.9103 25.585 14.852L25.5063 14.641L25.3094 14.7205C25.2933 14.7271 25.2766 14.7321 25.2595 14.7353C25.1953 14.7472 25.1289 14.7349 25.0733 14.7007C25.0176 14.6665 24.9766 14.6129 24.9582 14.5502C24.9398 14.4876 24.9454 14.4203 24.9738 14.3615C25.0021 14.3026 25.0513 14.2564 25.1118 14.2318L25.3228 14.1464L25.2482 13.9467C25.2355 13.9141 25.2294 13.8793 25.2302 13.8443C25.231 13.8093 25.2389 13.7748 25.2532 13.7428C25.2675 13.7109 25.288 13.6821 25.3136 13.6582C25.3391 13.6342 25.3692 13.6156 25.402 13.6035C25.4348 13.5913 25.4698 13.5858 25.5047 13.5872C25.5397 13.5887 25.5741 13.5971 25.6058 13.6119C25.6375 13.6268 25.6659 13.6478 25.6894 13.6738C25.7129 13.6998 25.7309 13.7302 25.7425 13.7632L25.8129 13.9488L25.9848 13.8785C26.0171 13.8643 26.0519 13.8567 26.0872 13.8562C26.1225 13.8557 26.1575 13.8623 26.1902 13.8756C26.2229 13.8889 26.2526 13.9086 26.2776 13.9336C26.3025 13.9586 26.3222 13.9883 26.3354 14.021C26.3486 14.0537 26.3551 14.0888 26.3546 14.1241C26.354 14.1594 26.3464 14.1942 26.3321 14.2265C26.3178 14.2588 26.2972 14.2878 26.2715 14.312C26.2458 14.3362 26.2155 14.3549 26.1823 14.3672H26.1809Z" fill="#148A8B"/>
</svg>
