<svg width="25" height="26" viewBox="0 0 25 26" fill="none" xmlns="http://www.w3.org/2000/svg">
<g clip-path="url(#clip0_4036_13534)">
<path d="M7.36907 21.4029C6.93073 22.4562 6.6925 23.5819 6.66657 24.7225C6.66657 24.833 6.71046 24.939 6.7886 25.0171C6.86674 25.0953 6.97273 25.1392 7.08323 25.1392H19.5832C19.6438 25.1391 19.7036 25.1259 19.7585 25.1005C19.8134 25.075 19.8621 25.0379 19.9012 24.9917C19.9403 24.9455 19.9688 24.8913 19.9849 24.833C20.0009 24.7746 20.0041 24.7134 19.9941 24.6537C19.9599 24.4454 19.1316 19.5537 17.4561 16.2033C17.073 15.3541 16.8782 14.432 16.8853 13.5004C17.767 13.6762 18.657 13.8054 19.552 13.8879L19.5832 13.8892C19.6761 13.8892 19.7663 13.8581 19.8396 13.801C19.9128 13.7438 19.9648 13.6639 19.9874 13.5737C20.6587 10.89 20.537 7.17417 20.4566 4.71542C20.4353 4.06125 20.4149 3.49375 20.4149 3.06542C20.4137 2.24397 20.0934 1.45512 19.5216 0.865415C19.3141 0.640282 19.0629 0.459777 18.7834 0.334914C18.5039 0.21005 18.2019 0.143446 17.8957 0.139165H12.9861C12.7707 0.138545 12.5589 0.193953 12.3714 0.299948C12.1839 0.405943 12.0271 0.558882 11.9166 0.743749C11.3635 1.69075 10.6122 2.50692 9.71407 3.13625C9.49323 3.28208 9.25823 3.405 9.0124 3.5025C8.52915 3.69095 8.11776 4.02718 7.83688 4.46324C7.556 4.8993 7.41998 5.41291 7.44823 5.93083C7.46221 6.32068 7.55376 6.70383 7.71752 7.05789C7.88128 7.41195 8.11396 7.72982 8.40198 7.99292C8.31448 8.02417 8.2299 8.06042 8.14698 8.10167C7.8946 8.22346 7.67265 8.40015 7.49739 8.61882C7.32213 8.83748 7.19799 9.09257 7.13407 9.36542C6.18443 9.99113 5.41234 10.8513 4.89248 11.8628C4.37262 12.8743 4.12258 14.0028 4.16657 15.1392C4.16657 18.5975 5.83532 20.4396 7.36907 21.4029ZM12.6291 1.175C12.666 1.11329 12.7184 1.06221 12.7809 1.02672C12.8435 0.991236 12.9142 0.972556 12.9861 0.972499H14.972C14.8853 1.77958 14.5136 3.4725 12.9166 3.4725C12.2374 3.4725 11.5595 3.40792 10.8924 3.28042C11.5722 2.66834 12.1575 1.95882 12.6291 1.175ZM8.28115 5.9025C8.25801 5.55632 8.34628 5.21182 8.53304 4.91942C8.7198 4.62702 8.99525 4.40207 9.31907 4.2775C9.55582 4.18085 9.78423 4.0649 10.002 3.93083C10.9541 4.18 11.9345 4.30583 12.9186 4.30583C14.9982 4.30583 15.6966 2.31542 15.8145 0.972499H16.5607C15.8949 3.72042 15.76 6.57021 16.1632 9.36875C15.5183 9.24432 14.8657 9.164 14.2099 9.12833C13.6782 9.11258 13.1497 9.03952 12.6336 8.91042C12.2836 8.79375 11.9253 8.64667 11.582 8.50458C11.0404 8.26041 10.4773 8.06708 9.8999 7.92708C9.45442 7.79742 9.05985 7.53335 8.77011 7.17097C8.48037 6.8086 8.30961 6.36559 8.28115 5.9025ZM8.51948 8.84542C8.87897 8.67948 9.28364 8.63855 9.66907 8.72917C9.70323 8.74041 9.73865 8.7475 9.77448 8.75041C10.2842 8.88318 10.7818 9.05866 11.262 9.275C11.6203 9.4225 11.9907 9.57541 12.3682 9.70125C12.9491 9.855 13.5453 9.94125 14.1457 9.95917C15.3328 10.0479 16.6791 10.1483 17.6666 10.8892C17.7103 10.922 17.7602 10.9459 17.8132 10.9595C17.8662 10.973 17.9213 10.976 17.9755 10.9683C18.0297 10.9606 18.0818 10.9422 18.1289 10.9144C18.1759 10.8865 18.2171 10.8496 18.2499 10.8058C18.2827 10.7621 18.3066 10.7122 18.3202 10.6592C18.3338 10.6062 18.3368 10.5511 18.329 10.4969C18.3213 10.4427 18.303 10.3906 18.2751 10.3435C18.2472 10.2965 18.2103 10.2553 18.1666 10.2225C17.8253 9.9725 17.4499 9.7725 17.0524 9.62958C16.5717 6.75001 16.6948 3.80194 17.4141 0.972499H17.8957C18.0908 0.978696 18.2825 1.02397 18.4598 1.10563C18.637 1.18729 18.796 1.30368 18.9274 1.44792C19.3411 1.88189 19.5754 2.45629 19.5832 3.05583C19.5832 3.50083 19.602 4.07792 19.6249 4.7425C19.7003 7.0475 19.8124 10.4779 19.262 13.0212C17.9999 12.88 13.6086 12.2642 9.82907 10.2154C9.3168 9.76331 8.68876 9.46278 8.01532 9.3475C8.12157 9.12833 8.29948 8.95166 8.51948 8.8475V8.84542ZM7.49365 10.1392H7.4999C8.16151 10.1572 8.79529 10.4092 9.28865 10.8504C9.31698 10.8783 9.34865 10.9025 9.38365 10.9217C11.482 12.0247 13.7224 12.8335 16.0416 13.325C16.0145 14.4449 16.2425 15.5562 16.7082 16.575C18.0303 19.215 18.8286 22.9788 19.0832 24.3058H7.52115C7.58532 23.4475 7.78198 22.6042 8.10448 21.8058C9.39533 22.4061 10.8034 22.7121 12.227 22.7017C12.6124 22.7017 12.9978 22.6804 13.3811 22.6375C13.491 22.6252 13.5915 22.5698 13.6605 22.4835C13.7295 22.3971 13.7613 22.2869 13.7491 22.1771C13.7368 22.0672 13.6814 21.9668 13.5951 21.8978C13.5087 21.8288 13.3985 21.7969 13.2886 21.8092C11.5087 22.0289 9.704 21.7036 8.11282 20.8762C6.69198 20.0846 4.9999 18.4479 4.9999 15.1392C4.9999 12.9696 5.84532 11.2929 7.49365 10.1392Z" fill="#119498"/>
<path d="M8.55907 18.571C8.79574 18.7685 9.04741 18.9789 9.31199 19.2056C9.38746 19.2701 9.48351 19.3056 9.58282 19.3056C9.68214 19.3056 9.77819 19.2701 9.85366 19.2056C10.1182 18.9789 10.3699 18.7685 10.6066 18.571C11.9999 17.4102 12.9166 16.6435 12.9166 15.4552C12.9262 15.2012 12.8851 14.9479 12.7956 14.7101C12.7061 14.4723 12.5701 14.2547 12.3955 14.0701C12.2209 13.8854 12.0112 13.7375 11.7787 13.6349C11.5463 13.5324 11.2956 13.4772 11.0416 13.4727C10.7686 13.4723 10.4984 13.5277 10.2476 13.6356C9.99685 13.7434 9.77076 13.9014 9.58324 14.0997C9.39572 13.9014 9.16963 13.7434 8.91885 13.6356C8.66807 13.5277 8.39789 13.4723 8.12491 13.4727C7.87084 13.4772 7.62023 13.5324 7.38775 13.6349C7.15526 13.7375 6.94558 13.8854 6.77098 14.0701C6.59637 14.2547 6.46035 14.4723 6.37088 14.7101C6.2814 14.9479 6.24028 15.2012 6.24991 15.4552C6.24991 16.6435 7.16657 17.4102 8.55907 18.571ZM8.12491 14.306C8.3488 14.3138 8.56679 14.3799 8.75735 14.4977C8.94792 14.6154 9.10448 14.7809 9.21157 14.9777C9.24636 15.0457 9.29919 15.1029 9.36431 15.143C9.42942 15.183 9.5043 15.2044 9.58074 15.2047H9.58324C9.73949 15.2039 9.88241 15.1164 9.95407 14.9777C10.0612 14.7807 10.2179 14.6152 10.4086 14.4974C10.5994 14.3796 10.8175 14.3136 11.0416 14.306C11.1864 14.3102 11.3288 14.3436 11.4604 14.4042C11.5919 14.4648 11.7099 14.5514 11.8072 14.6587C11.9045 14.766 11.9791 14.8919 12.0265 15.0288C12.0739 15.1656 12.0932 15.3107 12.0832 15.4552C12.0832 16.2535 11.327 16.8852 10.0737 17.9314C9.91657 18.0627 9.75282 18.1989 9.58324 18.3422C9.41366 18.1989 9.24991 18.0627 9.09282 17.9314C7.83949 16.8852 7.08324 16.2535 7.08324 15.4552C7.07325 15.3107 7.09255 15.1656 7.13999 15.0288C7.18742 14.8919 7.26202 14.766 7.35931 14.6587C7.45659 14.5514 7.57455 14.4648 7.70611 14.4042C7.83767 14.3436 7.98012 14.3102 8.12491 14.306Z" fill="#119498"/>
</g>
<defs>
<clipPath id="clip0_4036_13534">
<rect width="25" height="25" fill="white" transform="translate(0 0.13916)"/>
</clipPath>
</defs>
</svg>
