<svg width="25" height="26" viewBox="0 0 25 26" fill="none" xmlns="http://www.w3.org/2000/svg">
<g clip-path="url(#clip0_4771_386)">
<path d="M2.07178 5.03374C3.5043 3.03652 6.1396 1.67041 8.87036 1.67041C11.6011 1.67041 14.2351 3.03647 15.6676 5.03374M5.03784 7.99985C7.52363 6.68496 10.217 6.68496 12.7029 7.99849M18.3084 20.9617C21.7257 20.9617 24.5118 18.1756 24.5118 14.7583C24.5118 11.3424 21.7257 8.55625 18.3084 8.55625C14.8925 8.55625 12.1063 11.3424 12.1063 14.7583C12.1063 18.1756 14.8925 20.9617 18.3084 20.9617Z" stroke="#119498" stroke-miterlimit="10" stroke-linecap="round" stroke-linejoin="round"/>
<path d="M16.7111 20.7527L13.8572 23.6081L8.87035 18.6212M5.47519 15.2261L3.09735 12.8482C0.379043 10.1299 0.513272 7.20811 2.07177 5.03369L8.87035 11.8323" stroke="#119498" stroke-miterlimit="10" stroke-linecap="round" stroke-linejoin="round"/>
<path d="M16.7581 8.75132C16.873 7.40459 16.4495 6.12573 15.6674 5.03369L0.488281 20.2129L3.88345 23.6081L12.1353 15.3562M19.6162 11.6053H17.0017V13.4517H15.1554V16.0648H17.0017V17.9125H19.6162V16.0648H21.4626V13.4517H19.6162V11.6053Z" stroke="#119498" stroke-miterlimit="10" stroke-linecap="round" stroke-linejoin="round"/>
</g>
<defs>
<clipPath id="clip0_4771_386">
<rect width="25" height="25" fill="white" transform="translate(0 0.13916)"/>
</clipPath>
</defs>
</svg>
