<?xml version="1.0" encoding="UTF-8"?>
<!DOCTYPE svg PUBLIC "-//W3C//DTD SVG 1.1//EN" "http://www.w3.org/Graphics/SVG/1.1/DTD/svg11.dtd">
<!-- Creator: CorelDRAW -->
<svg xmlns="http://www.w3.org/2000/svg" xml:space="preserve" width="7.8212mm" height="7.6326mm" version="1.1" style="shape-rendering:geometricPrecision; text-rendering:geometricPrecision; image-rendering:optimizeQuality; fill-rule:evenodd; clip-rule:evenodd"
viewBox="0 0 782.12 763.26"
 xmlns:xlink="http://www.w3.org/1999/xlink"
 xmlns:xodm="http://www.corel.com/coreldraw/odm/2003">
 <defs>
  <style type="text/css">
   <![CDATA[
    .fil0 {fill:#1F9C9C;fill-rule:nonzero}
   ]]>
  </style>
 </defs>
 <g id="Layer_x0020_1">
  <metadata id="CorelCorpID_0Corel-Layer"/>
  <g id="_1696093917936">
   <path class="fil0" d="M343.86 0l93.92 0 -0.06 188.76c0.01,33.42 3.37,65.28 17.41,96.04l7.25 14.25c2.79,5.78 6.7,11.41 10.21,16.78l17.43 25.7c10.39,14.74 19.32,23.11 6.52,42.21 -2.74,4.09 -6.57,7.78 -10.22,11.04 -24.02,21.39 -37.05,9.86 -55.83,-12.27l-21.44 -26.93 -18.17 -26.77c-12.59,20.26 -40.06,58.04 -59.37,73.43 -24.17,19.26 -53.91,-18.72 -52.52,-38.63 0.68,-9.68 8.96,-18.44 14.31,-25.93 31.01,-43.44 48.39,-77.24 50.44,-130.96l0.12 -206.72z"/>
   <path class="fil0" d="M522.71 249.41c16.02,-0.78 30.62,6.94 44.49,13.91 139.2,70 203,190.21 213.16,345.42l0.83 19.2c0.58,6.73 0.91,16.83 0.94,26.8l0 2.71c-0.03,8.22 -0.26,16.14 -0.73,21.77 -3.03,36.07 -30.88,69.81 -68.34,72.29 -29.56,1.96 -57,-9.71 -84.33,-19.41l-125.03 -44.88c-27.65,-9.97 -55.53,-16.76 -63.61,-49.9 -1.97,-8.08 -1.24,-17.1 -1.24,-25.35l0.02 -174.99c0,-7.03 0.21,-14.14 -0.22,-21.15 1.12,0.76 2.14,2.12 3.12,3.08 8.35,8.21 22.74,9.83 33.18,5.39 0.86,5.07 2.68,9.68 4.51,14.46l26.47 72.28c7,20.13 12.36,42.23 14.61,63.39l0.9 12.93c0.36,8.02 -0.9,17.71 9.3,19.54l0.4 0.07c4.8,0.83 9.77,-1.59 11.54,-6.25l0.2 -0.54c4.02,-10.88 -5.17,-52.73 -7.8,-64.43 -0.8,-3.56 -5.63,-15.72 -3.45,-18.72 15.52,-2.04 57.52,26.73 70.28,34.87l41.8 27.44c5.12,3.47 13.41,10.18 19.92,6.82 8.74,-4.52 8.21,-13.95 0.78,-19.52 -6.67,-5.01 -14.16,-9.24 -21.21,-13.72l-20.2 -13.13c-34.33,-22.12 -57.79,-43.99 -100.08,-45.37l-21.6 -56.12c-2.47,-5.79 -4.98,-11.05 -6.51,-17.22 5.4,2.49 10.5,5.8 15.73,8.66l23.08 13.17 70.21 48.61c5.88,4.07 11.92,8.88 18.64,11.43l1.59 0.62c1.82,0.6 4.51,0.55 6.23,-0.33l2.37 -1.4c14.15,-10.2 -3.79,-21.76 -12.06,-27.22l-19.02 -12.15c-4.76,-3.01 -9.38,-6.55 -14.27,-9.26l40.5 -0.3c18,-1.68 15.08,-20.98 -1.31,-21.73l-63.63 -0.19c-9.9,-0.08 -14.58,-3.87 -22.97,-8.94l-31.89 -20.15 1.27 -1.36c19.06,-23.4 18.66,-42.95 0.13,-64.95 -18.48,-21.95 -47.74,-38.12 -23.6,-67.16 9.85,-11.85 21.89,-17.74 36.9,-19.02z"/>
   <path class="fil0" d="M255.41 249.79c18.35,-0.18 32.86,7.51 43.39,23.02 4,5.88 7.75,14.05 6.33,21.27l-0.11 0.53c-4.73,22.59 -56.4,43.97 -46.37,80.48 2.89,10.52 8.33,21.06 16.16,28.78l-45.75 25.43c-5.71,3.69 -15.9,1.71 -22.41,1.72l-38.68 0.04c-5.98,0 -13.26,-0.75 -18.97,0.92l-0.54 0.16c-8.89,2.73 -10.19,18.13 6.19,20.62 4.66,0.71 9.72,0.34 14.43,0.35l25.54 0.27c-1.52,0.98 -2.73,2.16 -4.23,3.13l-24.96 15.53c-5.49,3.46 -11.54,6.55 -16.58,10.63 -12.46,10.11 0.5,25.71 13.64,19.03 5.32,-2.72 10.32,-6.74 15.2,-10.19l19.19 -13.29c28.76,-19.88 57.29,-40.1 88.61,-55.87l-26.44 71.52c-29.93,-5.58 -86.48,36.29 -110.47,51.94l-17.63 11.33c-5.75,3.6 -16.01,8.34 -19.37,14.59l-0.23 0.46c-3.92,7.7 4.45,18.06 14.23,14.14 7.53,-3.02 14.54,-8.83 21.27,-13.35l28.73 -18.8c17.15,-11.2 54.76,-37.38 76.02,-37.3l-5.55 21.66c-3.98,16.03 -10.17,42.62 -7.31,59.34l0.1 0.56c2.03,12.13 17.64,11.2 20.37,0.58 0.86,-3.34 0.38,-7.79 0.45,-11.26 0.53,-23.69 8.71,-54.99 16.31,-77.11l29.62 -84.67c13.48,4.72 25.34,3.29 37.41,-4.91 -0.65,6.81 -0.31,13.82 -0.31,20.66l-0.01 171.5c0.01,7.27 0.73,15.92 -1.31,22.95 -10.21,35.08 -33.95,37.22 -63.29,48.01l-172.64 64.09c-13.35,5.03 -27.24,12.37 -41.44,14.45 -34.28,5.02 -59.16,-26.51 -63.37,-57.73 -0.91,-6.71 -0.56,-13.74 -0.57,-20.5l0.51 -73.36c6.81,-121.7 54.39,-240.39 156.01,-313.15 14.93,-10.69 70.42,-44.86 88.7,-47.17l10.13 -1.03z"/>
  </g>
 </g>
</svg>
