<svg width="25" height="26" viewBox="0 0 25 26" fill="none" xmlns="http://www.w3.org/2000/svg">
<g clip-path="url(#clip0_4036_13455)">
<path d="M14.457 8.34253C14.457 7.23979 15.4352 7.173 15.6289 7.17065H16.7898L16.7945 7.17144C17.1672 7.17144 17.3551 7.39761 17.6547 7.79683C17.968 8.2144 18.3578 8.73433 19.1391 8.73433C19.2427 8.73433 19.342 8.69317 19.4153 8.61991C19.4885 8.54666 19.5297 8.4473 19.5297 8.3437C19.5297 8.2401 19.4885 8.14074 19.4153 8.06749C19.342 7.99423 19.2427 7.95308 19.1391 7.95308C18.7668 7.95308 18.5789 7.72729 18.2797 7.32808C18.241 7.2769 18.2016 7.22378 18.1602 7.17065H18.3566L18.3586 7.17104L18.3633 7.17065H20.3133C20.4169 7.17065 20.5162 7.1295 20.5895 7.05624C20.6628 6.98299 20.7039 6.88363 20.7039 6.78003C20.7039 6.67643 20.6628 6.57707 20.5895 6.50382C20.5162 6.43056 20.4169 6.3894 20.3133 6.3894H19.7246C19.7656 6.33667 19.8051 6.28394 19.8434 6.23315C20.143 5.83394 20.3305 5.60815 20.7027 5.60815C20.8063 5.60815 20.9057 5.567 20.9789 5.49374C21.0522 5.42049 21.0934 5.32113 21.0934 5.21753C21.0934 5.11393 21.0522 5.01457 20.9789 4.94132C20.9057 4.86806 20.8063 4.8269 20.7027 4.8269C19.9215 4.8269 19.5316 5.34683 19.2184 5.7644C18.9195 6.16284 18.7316 6.38823 18.3609 6.3894H15.6289C14.9535 6.3894 13.6758 6.79761 13.6758 8.34253C13.6758 9.1562 14.318 10.191 15.0609 11.3898C15.8766 12.7046 16.8008 14.1945 16.8008 15.3738C16.8008 16.1191 16.5301 16.6562 16.0012 16.9839C15.8559 15.4289 14.3426 14.2011 12.5 14.2011C10.6578 14.2011 9.14453 15.4285 8.99883 16.9832C8.47266 16.6562 8.20312 16.1191 8.20312 15.3738C8.20312 14.1945 9.12734 12.7046 9.94297 11.3898C10.6859 10.191 11.3281 9.1562 11.3281 8.34253C11.3281 6.79761 10.0504 6.3894 9.375 6.3894H6.63867C6.26758 6.38823 6.08008 6.16284 5.78125 5.7644C5.46797 5.34683 5.07812 4.8269 4.29688 4.8269C4.19327 4.8269 4.09392 4.86806 4.02066 4.94132C3.94741 5.01457 3.90625 5.11393 3.90625 5.21753C3.90625 5.32113 3.94741 5.42049 4.02066 5.49374C4.09392 5.567 4.19327 5.60815 4.29688 5.60815C4.66953 5.60815 4.85703 5.83394 5.15625 6.23315C5.19453 6.28394 5.23398 6.33667 5.275 6.3894H4.6875C4.5839 6.3894 4.48454 6.43056 4.41129 6.50382C4.33803 6.57707 4.29688 6.67643 4.29688 6.78003C4.29688 6.88363 4.33803 6.98299 4.41129 7.05624C4.48454 7.1295 4.5839 7.17065 4.6875 7.17065H6.63633L6.64102 7.17104L6.64297 7.17065H6.83945C6.79909 7.22273 6.75924 7.27521 6.71992 7.32808C6.42031 7.72729 6.23281 7.95308 5.86055 7.95308C5.75695 7.95308 5.65759 7.99423 5.58433 8.06749C5.51108 8.14074 5.46992 8.2401 5.46992 8.3437C5.46992 8.4473 5.51108 8.54666 5.58433 8.61991C5.65759 8.69317 5.75695 8.73433 5.86055 8.73433C6.6418 8.73433 7.03164 8.2144 7.34492 7.79683C7.64453 7.39761 7.83203 7.17144 8.20469 7.17144L8.20938 7.17065H9.37305C9.56914 7.173 10.5469 7.23979 10.5469 8.34253C10.5469 8.93355 9.90234 9.97261 9.27891 10.9781C8.40859 12.3812 7.42188 13.9722 7.42188 15.3738C7.42188 16.9503 8.35664 17.6085 9.05195 17.8808C9.29141 19.1625 10.1555 20.8886 11.3281 21.6378V23.9671C11.3281 24.0707 11.3693 24.1701 11.4425 24.2434C11.5158 24.3166 11.6151 24.3578 11.7188 24.3578C11.8224 24.3578 11.9217 24.3166 11.995 24.2434C12.0682 24.1701 12.1094 24.0707 12.1094 23.9671V21.9714C12.2375 21.998 12.3676 22.014 12.5 22.014C12.6324 22.014 12.7625 21.998 12.8906 21.9714V23.9671C12.8906 24.0707 12.9318 24.1701 13.005 24.2434C13.0783 24.3166 13.1776 24.3578 13.2812 24.3578C13.3849 24.3578 13.4842 24.3166 13.5575 24.2434C13.6307 24.1701 13.6719 24.0707 13.6719 23.9671V21.6378C14.8449 20.889 15.7086 19.1628 15.948 17.8812C16.6449 17.6082 17.582 16.95 17.582 15.3738C17.582 13.9722 16.5957 12.3812 15.725 10.9781C15.1016 9.97261 14.457 8.93355 14.457 8.34253ZM12.5 21.2324C11.0594 21.2324 9.76562 18.5128 9.76562 17.2285C9.76562 15.9898 10.9922 14.9824 12.5 14.9824C14.0074 14.9824 15.2344 15.9898 15.2344 17.2285C15.2344 18.5128 13.9406 21.2324 12.5 21.2324ZM5.27344 12.6394C3.01172 12.6394 1.17188 10.0109 1.17188 6.78003C1.17188 3.54917 3.01172 0.920654 5.27344 0.920654C7.23242 0.920654 8.88164 2.82495 9.28477 5.55112C9.29359 5.60245 9.29207 5.65502 9.28028 5.70574C9.26849 5.75647 9.24668 5.80433 9.21612 5.8465C9.18557 5.88867 9.14689 5.92431 9.10236 5.95132C9.05784 5.97832 9.00836 5.99615 8.95684 6.00376C8.90532 6.01137 8.8528 6.00859 8.80237 5.9956C8.75194 5.98262 8.70461 5.95967 8.66317 5.92813C8.62174 5.89658 8.58703 5.85707 8.56108 5.81191C8.53514 5.76676 8.51849 5.71687 8.51211 5.66519C8.17227 3.3687 6.81055 1.7019 5.27344 1.7019C3.44258 1.7019 1.95312 3.98003 1.95312 6.78003C1.95312 9.58003 3.44258 11.8582 5.27344 11.8582C6.81055 11.8582 8.17227 10.1914 8.51211 7.89487C8.54375 7.6812 8.74492 7.5355 8.95547 7.56558C9.05792 7.58073 9.15015 7.63594 9.2119 7.71908C9.27365 7.80222 9.29986 7.90648 9.28477 8.00894C8.88164 10.7351 7.23242 12.6394 5.27344 12.6394ZM23.8273 6.78003C23.8273 10.0109 21.9875 12.6394 19.7258 12.6394C17.7668 12.6394 16.1172 10.7351 15.7141 8.00894C15.7066 7.95818 15.7092 7.90644 15.7217 7.85668C15.7342 7.80692 15.7563 7.76011 15.7869 7.71892C15.8487 7.63574 15.941 7.58051 16.0436 7.56538C16.1461 7.55026 16.2504 7.57647 16.3336 7.63826C16.4168 7.70006 16.472 7.79236 16.4871 7.89487C16.8266 10.1914 18.1887 11.8582 19.7258 11.8582C21.5566 11.8582 23.0461 9.58003 23.0461 6.78003C23.0461 3.98003 21.5566 1.7019 19.7258 1.7019C18.1883 1.7019 16.8266 3.3687 16.4871 5.66519C16.472 5.7677 16.4168 5.86 16.3336 5.92179C16.2504 5.98359 16.1461 6.0098 16.0436 5.99468C15.941 5.97955 15.8487 5.92432 15.7869 5.84114C15.7252 5.75796 15.6989 5.65364 15.7141 5.55112C16.1172 2.82495 17.7668 0.920654 19.7258 0.920654C21.9875 0.920654 23.8273 3.54917 23.8273 6.78003Z" fill="#119498"/>
</g>
<defs>
<clipPath id="clip0_4036_13455">
<rect width="25" height="25" fill="white" transform="translate(0 0.139404)"/>
</clipPath>
</defs>
</svg>
