<svg width="46" height="46" viewBox="0 0 46 46" fill="none" xmlns="http://www.w3.org/2000/svg">
<g clip-path="url(#clip0_5010_154)">
<path d="M27.7676 0.5H23.9378C23.799 0.50011 23.6627 0.536137 23.542 0.604575C23.4213 0.673012 23.3204 0.771529 23.2491 0.890536C22.3396 2.40218 21.2109 3.77056 19.8998 4.95098C21.1863 5.19688 22.4937 5.32063 23.8036 5.32143C26.8845 5.32143 27.6004 2.05652 27.7676 0.5Z" fill="#148A8B"/>
<path d="M17.9817 13.9124C19.0954 14.1824 20.1811 14.5553 21.2257 15.0262C21.8911 15.3002 22.5789 15.5838 23.2539 15.8088C24.2496 16.0579 25.2685 16.1986 26.2938 16.2291C27.5587 16.2982 28.8171 16.4525 30.061 16.6928C29.2833 11.2956 29.5435 5.79956 30.8276 0.5L29.3884 0.5C29.161 3.08991 27.8142 6.92857 23.8036 6.92857C21.9055 6.92857 20.0147 6.68589 18.1786 6.20536C17.7585 6.46282 17.318 6.68535 16.8615 6.87071C16.237 7.11097 15.7058 7.5448 15.3456 8.10871C14.9854 8.67262 14.8152 9.33701 14.8598 10.0046C14.9141 10.8983 15.2431 11.7534 15.8019 12.4529C16.3608 13.1524 17.1221 13.6622 17.9817 13.9124ZM16.4292 33.2054C16.7321 33.4585 17.0479 33.7213 17.375 33.9977C17.7021 33.7213 18.0179 33.4585 18.3208 33.2054C20.7379 31.1884 22.1964 29.9702 22.1964 28.4305C22.2157 28.1518 22.1785 27.8721 22.087 27.6082C21.9955 27.3442 21.8516 27.1015 21.664 26.8945C21.4764 26.6875 21.2489 26.5206 20.9952 26.4037C20.7415 26.2868 20.4667 26.2224 20.1875 26.2143C19.7557 26.2293 19.3353 26.3566 18.9677 26.5838C18.6002 26.811 18.2983 27.1301 18.0918 27.5096C18.024 27.6411 17.9215 27.7514 17.7954 27.8286C17.6693 27.9058 17.5245 27.947 17.3766 27.9476H17.3702C17.2228 27.9469 17.0783 27.9057 16.9528 27.8285C16.8272 27.7512 16.7253 27.6409 16.6582 27.5096C16.4517 27.1302 16.1497 26.8111 15.7822 26.5839C15.4147 26.3568 14.9943 26.2294 14.5625 26.2143C14.2833 26.2224 14.0085 26.2868 13.7548 26.4037C13.5011 26.5206 13.2736 26.6875 13.086 26.8945C12.8984 27.1015 12.7545 27.3442 12.663 27.6082C12.5715 27.8721 12.5343 28.1518 12.5536 28.4305C12.5536 29.9702 14.0121 31.1884 16.4292 33.2054Z" fill="#148A8B"/>
<path d="M14.536 38.8842C17.6047 40.4799 21.0852 41.1072 24.5179 40.6834C24.7298 40.6597 24.9424 40.7212 25.1089 40.8543C25.2754 40.9873 25.3822 41.1811 25.4059 41.3929C25.4295 41.6048 25.3681 41.8174 25.235 41.9839C25.1019 42.1504 24.9082 42.2572 24.6963 42.2809C23.9571 42.3637 23.2137 42.4046 22.4704 42.4046C19.7251 42.4252 17.0095 41.8357 14.5199 40.6786C14.0065 41.933 13.6617 43.2501 13.4946 44.5952C13.4802 44.7085 13.4901 44.8235 13.5237 44.9327C13.5572 45.0419 13.6137 45.1426 13.6893 45.2282C13.7649 45.3139 13.8578 45.3824 13.962 45.4292C14.0661 45.4761 14.1791 45.5002 14.2933 45.5H34.7177C34.8364 45.5 34.9537 45.4737 35.061 45.4229C35.1684 45.3722 35.2632 45.2983 35.3386 45.2066C35.4139 45.1148 35.4681 45.0075 35.497 44.8923C35.526 44.7772 35.529 44.657 35.506 44.5405C34.8696 41.4323 33.3974 35.1444 31.1201 30.5913C30.2219 28.6265 29.7822 26.4832 29.8344 24.3235C25.3617 23.3755 21.041 21.8158 16.9941 19.6885C16.9268 19.6516 16.8651 19.6053 16.8109 19.5511C15.8585 18.699 14.6346 18.2127 13.3571 18.1786H13.3451C10.1662 20.4037 8.53571 23.6372 8.53571 27.8214C8.53571 34.2026 11.799 37.359 14.536 38.8842ZM14.5625 24.6071C15.089 24.6064 15.61 24.7133 16.0937 24.9213C16.5773 25.1293 17.0134 25.4339 17.375 25.8165C17.7366 25.4339 18.1727 25.1293 18.6563 24.9213C19.14 24.7133 19.661 24.6064 20.1875 24.6071C20.6775 24.6159 21.1608 24.7223 21.6092 24.9201C22.0575 25.1179 22.4619 25.4032 22.7987 25.7593C23.1354 26.1153 23.3977 26.535 23.5703 26.9936C23.7428 27.4523 23.8221 27.9408 23.8036 28.4305C23.8036 30.7223 22.0357 32.2009 19.3502 34.4396C18.8937 34.8205 18.4084 35.2263 17.8981 35.6635C17.7526 35.788 17.5673 35.8564 17.3758 35.8564C17.1843 35.8564 16.999 35.788 16.8535 35.6635C16.3721 35.2524 15.8881 34.8444 15.4014 34.4396C12.7143 32.2009 10.9464 30.7223 10.9464 28.4305C10.9279 27.9408 11.0072 27.4523 11.1797 26.9936C11.3523 26.535 11.6146 26.1153 11.9513 25.7593C12.2881 25.4032 12.6925 25.1179 13.1408 24.9201C13.5892 24.7223 14.0725 24.6159 14.5625 24.6071ZM36.0388 23.7369C37.1003 18.8351 36.8841 12.2161 36.7387 7.77071C36.6969 6.48902 36.6607 5.37607 36.6607 4.51786C36.6457 3.3616 36.1938 2.25382 35.3959 1.41688C35.1425 1.13872 34.8358 0.914243 34.494 0.756751C34.1523 0.59926 33.7824 0.511952 33.4062 0.5H32.4773C31.0903 5.95679 30.8527 11.6423 31.7798 17.1958C32.5472 17.4722 33.2704 17.8571 33.9286 18.3393C34.0991 18.4672 34.2118 18.6575 34.2419 18.8685C34.2721 19.0795 34.2172 19.2938 34.0893 19.4643C33.9614 19.6348 33.771 19.7475 33.5601 19.7776C33.3491 19.8078 33.1348 19.7529 32.9643 19.625C31.0598 18.1963 28.4643 18.0026 26.1741 17.8314C25.0162 17.7972 23.866 17.6303 22.7461 17.334C22.018 17.0929 21.2996 16.7964 20.6126 16.512C19.6865 16.0947 18.7268 15.7563 17.7438 15.5003C17.6747 15.4949 17.6064 15.4812 17.5405 15.4593C16.7972 15.2845 16.0168 15.3635 15.3235 15.6835C14.8992 15.8844 14.5561 16.2251 14.3512 16.6478C15.65 16.8703 16.8613 17.4502 17.8491 18.3224C25.1383 22.2768 33.6071 23.4645 36.0388 23.7369Z" fill="#148A8B"/>
</g>
<defs>
<clipPath id="clip0_5010_154">
<rect width="45" height="45" fill="white" transform="translate(0.5 0.5)"/>
</clipPath>
</defs>
</svg>
