<svg width="46" height="45" viewBox="0 0 46 45" fill="none" xmlns="http://www.w3.org/2000/svg">
<path d="M28.196 23.4839C27.288 25.2179 26.21 26.5599 25.285 27.0999C24.982 27.2759 24.613 27.4139 24.222 27.5609C23.808 27.7169 23.379 27.8769 22.968 28.1039C22.101 28.5829 21.41 29.1689 20.851 29.8149C20.091 28.9389 19.663 27.8049 19.663 26.6359C19.663 26.3469 19.688 26.0629 19.738 25.7879H22.16C22.2889 25.7879 22.4125 25.7367 22.5037 25.6456C22.5948 25.5545 22.646 25.4308 22.646 25.3019C22.646 25.1731 22.5948 25.0494 22.5037 24.9583C22.4125 24.8671 22.2889 24.8159 22.16 24.8159H20.018C20.74 23.0429 22.482 21.7889 24.511 21.7889C25.926 21.7869 27.282 22.4169 28.196 23.4839Z" fill="#148A8B"/>
<path d="M27.607 31.0769C27.09 31.3789 26.635 31.5459 26.194 31.7079C24.754 32.2389 23.834 32.7109 23.117 35.6219C22.336 38.7909 20.132 40.6489 17.069 40.7189C15.916 40.7479 15.062 40.4469 14.53 39.8289C13.607 38.7599 13.761 36.9089 13.935 35.9009C14.162 34.5909 13.89 33.3699 13.629 32.1899C13.293 30.6789 13.004 29.3749 13.728 28.0609C13.899 27.7509 14.052 27.4599 14.187 27.1869L14.683 28.1489C14.765 28.3079 14.927 28.4089 15.106 28.4129C15.285 28.4179 15.452 28.3199 15.539 28.1649L16.878 25.7869H18.753C18.713 26.0639 18.691 26.3469 18.691 26.6349C18.691 28.1069 19.255 29.5299 20.251 30.6009C19.399 31.8719 18.951 33.2809 18.645 34.5199C18.46 35.2749 18.201 35.7079 17.809 35.9229C17.6959 35.9849 17.612 36.0891 17.5756 36.2129C17.5392 36.3366 17.5534 36.4696 17.615 36.5829C17.6569 36.6596 17.7186 36.7235 17.7938 36.7681C17.8689 36.8126 17.9547 36.836 18.042 36.8359C18.121 36.8359 18.202 36.8169 18.276 36.7759C19.121 36.3129 19.43 35.3989 19.59 34.7519C19.993 33.1189 20.537 31.8419 21.276 30.8449C21.865 30.0479 22.578 29.4299 23.439 28.9549C23.788 28.7619 24.182 28.6139 24.564 28.4709C24.976 28.3159 25.402 28.1569 25.776 27.9389C27.392 26.9959 28.698 24.6529 29.185 23.6889C29.193 23.6709 29.202 23.6539 29.21 23.6369C30.638 20.7919 31.041 18.5039 30.406 16.8339C29.997 15.7539 29.162 14.9579 27.926 14.4679C24.42 13.0779 22.026 12.9209 20.391 13.9759C18.875 14.9519 18.068 16.9249 17.919 20.0089C17.913 20.1378 17.9584 20.2638 18.0452 20.3592C18.132 20.4546 18.2531 20.5117 18.382 20.5179C18.65 20.5299 18.878 20.3229 18.891 20.0549C19.023 17.3079 19.685 15.5869 20.918 14.7929C22.266 13.9239 24.379 14.1079 27.568 15.3709C28.553 15.7629 29.184 16.3539 29.497 17.1789C29.977 18.4439 29.686 20.2889 28.654 22.5469C27.57 21.4509 26.07 20.8139 24.512 20.8139C21.939 20.8139 19.75 22.4939 18.983 24.8139H16.593C16.418 24.8139 16.255 24.9089 16.17 25.0609L15.134 26.9009L14.693 26.0469C15.419 24.1639 15.098 23.3299 14.741 22.3979C14.49 21.7459 14.231 21.0719 14.29 19.8349C14.502 15.4199 15.825 12.4159 18.222 10.9029C22.049 8.48894 27.687 10.4209 29.934 11.3639C33.248 12.7539 34.106 15.5239 34.242 17.6029C34.584 22.8109 30.956 29.1229 27.607 31.0769ZM43.142 9.00094C44.491 11.3379 44.849 14.0589 44.152 16.6649C44.1242 16.7684 44.0631 16.8598 43.9782 16.9251C43.8932 16.9903 43.7891 17.0258 43.682 17.0259C43.64 17.0259 43.598 17.0199 43.556 17.0089C43.296 16.9389 43.143 16.6719 43.213 16.4129C43.843 14.0589 43.519 11.5989 42.301 9.48794C41.083 7.37694 39.114 5.86694 36.76 5.23594C36.5 5.16694 36.347 4.89894 36.416 4.64094C36.486 4.38094 36.753 4.22794 37.012 4.29694C39.616 4.99394 41.794 6.66494 43.142 9.00094Z" fill="#148A8B"/>
<path d="M40.069 10.7749C40.944 12.2909 41.176 14.0549 40.723 15.7459C40.6952 15.8491 40.6343 15.9403 40.5495 16.0054C40.4647 16.0705 40.3609 16.1058 40.254 16.1059C40.212 16.1059 40.169 16.1009 40.128 16.0889C39.868 16.0199 39.715 15.7519 39.784 15.4939C40.17 14.0549 39.972 12.5519 39.228 11.2609C38.483 9.97094 37.28 9.04894 35.841 8.66294C35.7794 8.64647 35.7216 8.618 35.671 8.57916C35.6204 8.54032 35.5779 8.49188 35.546 8.43661C35.5142 8.38134 35.4935 8.32032 35.4853 8.25706C35.4771 8.1938 35.4814 8.12953 35.498 8.06794C35.567 7.80794 35.835 7.65494 36.093 7.72394C37.781 8.17694 39.194 9.26094 40.069 10.7749ZM36.995 12.5509C37.396 13.2449 37.502 14.0529 37.295 14.8269C37.2675 14.9304 37.2066 15.0218 37.1218 15.0871C37.037 15.1523 36.933 15.1878 36.826 15.1879C36.784 15.1879 36.741 15.1829 36.7 15.1709C36.44 15.1019 36.287 14.8339 36.356 14.5759C36.496 14.0529 36.424 13.5059 36.154 13.0369C35.884 12.5679 35.446 12.2329 34.922 12.0919C34.662 12.0219 34.509 11.7549 34.579 11.4959C34.648 11.2359 34.915 11.0829 35.174 11.1529C35.947 11.3599 36.594 11.8559 36.995 12.5509ZM14.064 24.8259L14.693 26.0469C14.561 26.3899 14.394 26.7679 14.187 27.1869L13.625 26.0979C13.845 25.5959 13.985 25.1809 14.064 24.8259Z" fill="#148A8B"/>
<path d="M12.619 22.026L14.064 24.827C13.985 25.182 13.845 25.596 13.625 26.099L12.238 23.409L9.773 29.433C9.73641 29.5223 9.67409 29.5987 9.59396 29.6525C9.51382 29.7062 9.41951 29.735 9.323 29.735H9.317C9.21965 29.7339 9.12486 29.7036 9.04497 29.6479C8.96507 29.5923 8.90376 29.5139 8.869 29.423L7.06 24.695L5.531 26.86C5.48582 26.9234 5.42612 26.9751 5.35688 27.0108C5.28765 27.0465 5.21088 27.065 5.133 27.065H1.986C1.718 27.065 1.5 26.847 1.5 26.579C1.5 26.311 1.718 26.093 1.986 26.093H4.879L6.789 23.39C6.893 23.243 7.069 23.165 7.247 23.188C7.425 23.211 7.577 23.329 7.641 23.497L9.338 27.928L11.737 22.066C11.7722 21.9799 11.8313 21.9058 11.9074 21.8523C11.9834 21.7988 12.0731 21.7681 12.166 21.764C12.356 21.755 12.532 21.857 12.619 22.026Z" fill="#148A8B"/>
</svg>
