<svg width="46" height="46" viewBox="0 0 46 46" fill="none" xmlns="http://www.w3.org/2000/svg">
<path d="M28.1477 25.8159C28.1136 25.3659 28.0591 24.8 27.9772 24.1591C29.5113 22.8841 30.7591 21.3091 30.7591 19.5569V19.4137C32.1091 18.9432 32.9409 17.0682 32.9409 15.8546C32.9409 14.9955 32.5591 14.525 32.0886 14.2591C32.5727 14.1296 32.9409 13.6864 32.9409 13.1614V12.1182C32.9409 11.6819 32.6886 11.3068 32.3341 11.1159C32.5795 10.0728 32.6818 8.93412 32.6068 7.95912C32.5454 7.27049 32.4363 6.47958 32.0409 5.82503C31.7068 5.27276 31.1954 4.91821 30.6704 4.82276C30.6772 3.65003 29.9068 2.53867 28.9932 2.03412C27.9772 1.48185 26.8863 1.48185 25.6659 1.53639C22.8227 1.6523 19.2841 1.79549 16.1886 3.29549C15.5886 3.58185 14.825 4.00458 14.2727 4.74094C13.6591 5.53185 13.3386 6.67049 13.3659 7.93867C13.3795 8.48412 13.8091 9.52049 14.5454 11.0955C14.1704 11.2796 13.9045 11.6682 13.9045 12.1182V13.1614C13.9045 13.6659 14.2318 14.0887 14.6886 14.2387C14.1977 14.4978 13.7954 14.975 13.7954 15.8546C13.7954 17.0614 14.6272 18.9432 15.9773 19.4137V19.5569C15.9773 21.3159 17.2318 22.8909 18.7795 24.1728C18.7659 24.2 18.7522 24.2273 18.7522 24.2546C18.6772 24.8273 18.6227 25.325 18.5954 25.7409C11.8045 26.6478 8.06134 29.9546 8.06134 35.075C8.06134 41.3273 13.0863 44.4909 23 44.4909C32.9136 44.4909 37.9386 41.3273 37.9386 35.075C37.9386 30.0364 34.55 26.8387 28.1477 25.8159ZM28.2704 12.0023H31.7954C31.8636 12.0023 31.9182 12.05 31.9182 12.1182V13.1614C31.9182 13.2296 31.8636 13.2773 31.7954 13.2773H28.2704C28.2977 13.0659 28.3182 12.8546 28.3182 12.6296C28.3182 12.4182 28.2977 12.2069 28.2704 12.0023ZM23.3682 8.71594C25.5363 8.71594 27.2954 10.4682 27.2954 12.6296C27.2954 14.7909 25.5363 16.55 23.3682 16.55C21.2 16.55 19.4409 14.7909 19.4409 12.6296C19.4409 10.4682 21.2 8.71594 23.3682 8.71594ZM15.0432 13.2773C14.975 13.2773 14.9272 13.2296 14.9272 13.1614V12.1182C14.9272 12.05 14.975 12.0023 15.0432 12.0023H18.4659C18.4386 12.2069 18.4182 12.4182 18.4182 12.6296C18.4182 12.8546 18.4386 13.0659 18.4659 13.2773H15.0432ZM17 19.5569V14.3H18.7182C19.4068 16.2023 21.2273 17.5728 23.3682 17.5728C25.5091 17.5728 27.3295 16.2023 28.0182 14.3H29.7363V19.5569C29.7363 21.8478 26.7432 23.9614 24.9636 25.0114C23.9818 25.5909 22.7545 25.5909 21.7727 25.0114C19.9932 23.9614 17 21.8478 17 19.5569ZM27.1454 26.3614C27.1454 26.6341 27.1182 26.8932 27.0704 27.1455C27.0295 27.2069 26.9886 27.275 26.975 27.35L26.9204 27.6091L26.7909 28.0387C26.5323 28.7372 26.0652 29.3395 25.453 29.7638C24.8409 30.1882 24.1131 30.4143 23.3682 30.4114C22.2091 30.4114 21.1659 29.8796 20.4909 29.0205C20.4841 29.0137 20.4841 29.0068 20.4772 29.0068C20.2591 28.7205 20.075 28.3932 19.9454 28.0387L19.8159 27.6091L19.7613 27.3773C19.7512 27.2928 19.7182 27.2126 19.6659 27.1455C19.6182 26.8932 19.5977 26.6341 19.5977 26.3614C19.5977 26.0205 19.6318 25.5023 19.7 24.8887C20.2182 25.2568 20.75 25.5978 21.2545 25.8909C21.9091 26.2796 22.6386 26.4705 23.3682 26.4705C24.0977 26.4705 24.8272 26.2796 25.4818 25.8909C25.9863 25.5909 26.5182 25.2568 27.0363 24.8887C27.1045 25.5023 27.1454 26.0205 27.1454 26.3614ZM16.0113 33.1864L17.2113 31.5841C17.3682 31.3728 17.3409 31.0796 17.15 30.9023L15.8068 29.6546L15.4045 27.4728C16.4545 27.1387 17.5386 26.9205 18.5886 26.7705C18.6363 27.3909 18.7863 27.9705 19.0182 28.5091L22.2977 39.4114L16.0113 33.1864ZM20.7295 30.65C21.4863 31.1887 22.3932 31.5023 23.3682 31.5023C24.3432 31.5023 25.25 31.1887 26.0068 30.65L23.3682 39.4182L20.7295 30.65ZM27.7113 28.5228C27.9432 28.0046 28.0932 27.4455 28.1409 26.8523C29.1841 27.0296 30.2613 27.2887 31.2977 27.6705L30.9295 29.6546L29.5863 30.9023C29.3954 31.0796 29.3682 31.3728 29.525 31.5841L30.725 33.1864L24.4386 39.4182L27.7113 28.5228ZM34.7 39.2068C34.7 39.4932 34.475 39.7182 34.1886 39.7182H29.5795C29.3 39.7182 29.0682 39.4932 29.0682 39.2068V37.2432C29.0682 36.9568 29.3 36.7318 29.5795 36.7318H34.1886C34.475 36.7318 34.7 36.9568 34.7 37.2432V39.2068Z" fill="#148A8B"/>
<path d="M30.0909 37.7546H33.6772V38.6955H30.0909V37.7546Z" fill="#148A8B"/>
<path d="M23.3682 15.5273C24.9723 15.5273 26.2727 14.2299 26.2727 12.6295C26.2727 11.0292 24.9723 9.73181 23.3682 9.73181C21.764 9.73181 20.4636 11.0292 20.4636 12.6295C20.4636 14.2299 21.764 15.5273 23.3682 15.5273Z" fill="#148A8B"/>
</svg>
