<svg width="46" height="46" viewBox="0 0 46 46" fill="none" xmlns="http://www.w3.org/2000/svg">
<path d="M37.25 10.6265L32.786 11.2295C32.5685 11.2593 32.3692 11.3668 32.2248 11.5321C32.0803 11.6973 32.0005 11.9092 32 12.1287V18.8712C32 19.3242 32.3375 19.7105 32.786 19.7705L37.25 20.3735V10.6265ZM35.75 26.75H38.75V22.0902L35.75 21.6852V26.75ZM24.6522 14.9697L23.0735 15.4055C23.0457 15.4137 23 15.4257 23 15.5C23 15.5742 23.0457 15.5862 23.0757 15.5952L30.5 17.6427V13.3572L24.6703 14.9652C24.6645 14.9666 24.658 14.9681 24.6522 14.9697ZM35 43.25C35 43.4489 35.079 43.6397 35.2197 43.7803C35.3603 43.921 35.5511 44 35.75 44H38.75C38.9489 44 39.1397 43.921 39.2803 43.7803C39.421 43.6397 39.5 43.4489 39.5 43.25V28.25H35V43.25Z" fill="#148A8B"/>
<path d="M16.25 2.00004C10.0468 2.00004 5 7.04679 5 13.25V37.25C5 40.9723 8.02775 44 11.75 44C14.5663 44 18.1228 42.8735 19.0745 37.5088C20.0038 32.2663 22.0745 28.0445 23.9015 24.3193C24.953 22.1743 25.9355 20.1365 26.6098 18.1258L24.4715 17.5363C23.6465 19.934 22.2935 22.142 21.1835 23.9458C20.2618 25.4435 19.4653 26.7365 19.2283 27.6823C19.2049 27.7784 19.1627 27.869 19.1042 27.9488C19.0457 28.0286 18.972 28.096 18.8873 28.1472C18.8026 28.1983 18.7086 28.2322 18.6108 28.2469C18.513 28.2616 18.4132 28.2568 18.3172 28.2327C18.2212 28.2087 18.1309 28.1659 18.0516 28.1068C17.9722 28.0477 17.9053 27.9735 17.8548 27.8885C17.8042 27.8034 17.771 27.7092 17.757 27.6113C17.743 27.5133 17.7485 27.4136 17.7733 27.3178C18.0665 26.147 18.9185 24.7625 19.9063 23.159C21.0178 21.3553 22.2575 19.3318 23.0255 17.1365L22.676 17.0398C21.9725 16.8433 21.5015 16.2245 21.5015 15.4993C21.5015 14.774 21.9725 14.1553 22.6738 13.9595L23.741 13.6655C23.747 13.532 23.7515 13.3955 23.7515 13.2493C23.7515 9.11379 20.387 5.74929 16.2515 5.74929C12.116 5.74929 8.7515 9.11379 8.7515 13.2493C8.7515 13.3888 8.759 13.52 8.7635 13.6543C11.2888 13.2103 13.5763 13.6678 15.275 14.9885C16.8718 16.2313 17.7515 18.0965 17.7515 20.2393C17.7515 23.624 16.4023 26.4298 15.098 29.1433C14.246 30.9148 13.4413 32.5888 13.0783 34.307C13.0049 34.6683 12.8601 35.0112 12.6525 35.3158C12.4449 35.6203 12.1786 35.8804 11.8693 36.0808C11.4528 36.3515 10.9672 36.4963 10.4705 36.4978C10.286 36.4978 10.1008 36.4775 9.917 36.437C8.648 36.152 7.76225 34.9933 7.76225 33.6193C7.76225 33.4475 7.78025 33.2638 7.8095 33.0808C8.0225 31.9168 8.12975 30.875 8.12975 29.9668C8.12975 26.663 7.32725 24.8263 7.31825 24.8075C7.15025 24.4303 7.31825 23.9863 7.69475 23.8168C7.78418 23.7762 7.88073 23.7536 7.97888 23.7504C8.07703 23.7471 8.17487 23.7632 8.2668 23.7977C8.35874 23.8323 8.44296 23.8846 8.51468 23.9517C8.58639 24.0188 8.64418 24.0993 8.68475 24.1888C8.72375 24.2735 9.62975 26.306 9.62975 29.9668C9.62975 30.9658 9.515 32.099 9.28775 33.3343C9.27425 33.419 9.26225 33.5218 9.26225 33.6193C9.26225 34.2763 9.6755 34.8455 10.244 34.973C10.5193 35.0338 10.8088 34.9805 11.0585 34.82C11.3413 34.6385 11.5378 34.3453 11.6113 33.9965C12.0125 32.102 12.8548 30.3493 13.7473 28.493C14.9795 25.931 16.253 23.282 16.253 20.2393C16.253 18.5683 15.5795 17.1253 14.3555 16.1728C12.9755 15.0988 11.0593 14.7493 8.90975 15.1535C9.38075 17.996 10.769 19.454 10.7863 19.4713C10.9156 19.6144 10.9848 19.8018 10.9796 19.9947C10.9745 20.1875 10.8953 20.3709 10.7585 20.5069C10.6217 20.6429 10.4379 20.7211 10.245 20.7251C10.0522 20.7292 9.86515 20.6589 9.72275 20.5288C9.6215 20.4275 7.253 18.0043 7.253 13.2485C7.253 8.28578 11.2903 4.24854 16.253 4.24854C21.2158 4.24854 25.253 8.28504 25.253 13.2478L27.4723 12.6358C27.149 6.72203 22.238 1.99854 16.253 1.99854L16.25 2.00004ZM40.097 10.25C40.055 10.25 40.0138 10.253 39.971 10.259L38.75 10.424V20.5768L39.971 20.7418C40.2395 20.7793 40.49 20.6998 40.6895 20.5265C40.8898 20.3518 41 20.108 41 19.8425V11.159C41 10.8935 40.8898 10.6498 40.6895 10.475C40.526 10.3305 40.3152 10.2508 40.097 10.2508V10.25Z" fill="#148A8B"/>
</svg>
