<svg width="46" height="46" viewBox="0 0 46 46" fill="none" xmlns="http://www.w3.org/2000/svg">
<path d="M9.54968 35.8705V43.625H13.2181V35.8705H9.54968ZM29.9773 35.6989C37.3334 35.6989 43.3175 29.7275 43.3175 22.3873C43.3175 15.0312 37.3334 9.04578 29.9773 9.04578C26.6234 9.04578 23.4322 10.2912 20.9886 12.5534C18.2384 15.0692 16.6644 18.6505 16.6644 22.3869C16.6664 24.2301 17.0514 26.0528 17.7948 27.7395C18.5382 29.4262 19.6238 30.94 20.983 32.1852C23.4322 34.4534 26.6234 35.6989 29.9773 35.6989ZM28.0095 21.605C27.2384 21.605 26.6141 20.9806 26.6141 20.2095C26.6141 19.4384 27.2384 18.8141 28.0095 18.8141C30.1175 18.8141 31.8336 20.5283 31.8336 22.6381C31.8336 24.748 30.118 26.4622 28.0095 26.4622C27.2384 26.4622 26.6141 25.8378 26.6141 25.0667C26.6141 24.2956 27.2384 23.6712 28.0095 23.6712C28.5889 23.6712 29.0427 23.2189 29.0427 22.6381C29.0427 22.0573 28.5884 21.605 28.0095 21.605ZM26.7205 30.4906C27.6172 31.2022 28.7577 31.4502 29.9352 31.1722C31.28 30.8614 32.3975 29.7575 32.7153 28.4248C32.7809 28.1497 32.8189 27.8797 32.8297 27.6125C32.9075 25.7319 33.4812 23.9928 34.4909 22.5894C35.1167 21.7173 35.4519 20.6702 35.4491 19.5969C35.4491 18.0378 34.7525 16.5795 33.537 15.5956C32.308 14.5981 30.7541 14.2358 29.1655 14.5737C27.2047 14.9881 25.6344 16.5931 25.257 18.5694C25.2228 18.7495 25.1535 18.9211 25.0529 19.0744C24.9523 19.2276 24.8224 19.3596 24.6708 19.4626C24.5191 19.5656 24.3486 19.6377 24.1691 19.6747C23.9895 19.7118 23.8044 19.713 23.6244 19.6784C23.4443 19.6441 23.2728 19.5746 23.1197 19.4739C22.9665 19.3733 22.8346 19.2434 22.7317 19.0918C22.6287 18.9402 22.5565 18.7698 22.5194 18.5903C22.4823 18.4108 22.4809 18.2258 22.5153 18.0458C23.1012 14.9797 25.5406 12.4859 28.588 11.8423C30.9767 11.3356 33.4245 11.9131 35.2953 13.4258C36.2166 14.1684 36.9595 15.1084 37.4691 16.1763C37.9788 17.2443 38.2422 18.4131 38.24 19.5964C38.24 21.267 37.7277 22.8645 36.7587 24.2136C36.0678 25.1783 35.6741 26.3914 35.6183 27.7269C35.5989 28.1798 35.536 28.6299 35.4303 29.0708C34.8636 31.4473 32.9544 33.3387 30.5652 33.8923C30.0567 34.0102 29.5365 34.0696 29.0145 34.0695C27.5483 34.0695 26.135 33.59 24.9847 32.6769C23.3998 31.4178 22.4909 29.51 22.4909 27.4466C22.4909 27.0765 22.638 26.7215 22.8997 26.4598C23.1614 26.1981 23.5163 26.0511 23.8864 26.0511C24.2565 26.0511 24.6114 26.1981 24.8731 26.4598C25.1348 26.7215 25.2819 27.0765 25.2819 27.4466C25.2814 28.6536 25.8059 29.7627 26.7205 30.4906Z" fill="#148A8B"/>
<path d="M19.093 34.2406C17.7331 32.997 16.625 31.528 15.7747 29.9263C15.6889 29.9431 15.6097 29.9778 15.5183 29.9778H13.3475C12.9774 29.9778 12.6225 29.8308 12.3608 29.5691C12.099 29.3074 11.952 28.9524 11.952 28.5823C11.952 28.2122 12.099 27.8573 12.3608 27.5956C12.6225 27.3339 12.9774 27.1869 13.3475 27.1869H14.6164C14.3328 26.2764 14.1312 25.3424 14.0141 24.3959H13.3475C12.9774 24.3959 12.6225 24.2489 12.3608 23.9872C12.099 23.7255 11.952 23.3706 11.952 23.0005C11.952 22.6304 12.099 22.2754 12.3608 22.0137C12.6225 21.752 12.9774 21.605 13.3475 21.605H13.9142C14.12 17.3722 15.9706 13.3583 19.0995 10.4984C19.3925 10.227 19.7305 10.025 20.0412 9.77844V3.46344C20.0409 3.1748 19.926 2.8981 19.7219 2.69404C19.5177 2.48999 19.241 2.37525 18.9523 2.375H3.77C3.4816 2.37562 3.20521 2.49052 3.00137 2.69454C2.79753 2.89855 2.68287 3.17504 2.6825 3.46344V42.5366C2.68287 42.825 2.79753 43.1014 3.00137 43.3055C3.20521 43.5095 3.4816 43.6244 3.77 43.625H6.75875V35.5597C6.75961 34.9019 7.02139 34.2714 7.48662 33.8064C7.95186 33.3414 8.58255 33.08 9.24031 33.0795H13.5275C14.1853 33.08 14.8159 33.3414 15.2812 33.8064C15.7464 34.2714 16.0082 34.9019 16.0091 35.5597V43.625H18.9528C19.2231 43.6261 19.4842 43.5268 19.6854 43.3463C19.8866 43.1658 20.0136 42.917 20.0417 42.6481V34.9658C19.7295 34.7178 19.3887 34.5134 19.093 34.2406ZM9.00593 29.9778H6.83515C6.06406 29.9778 5.43968 29.3534 5.43968 28.5823C5.43968 27.8113 6.06406 27.1869 6.83515 27.1869H9.00593C9.37603 27.1869 9.73098 27.3339 9.99268 27.5956C10.2544 27.8573 10.4014 28.2122 10.4014 28.5823C10.4014 28.9524 10.2544 29.3074 9.99268 29.5691C9.73098 29.8308 9.37603 29.9778 9.00593 29.9778ZM9.00593 24.3959H6.83515C6.06406 24.3959 5.43968 23.7716 5.43968 23.0005C5.43968 22.2294 6.06406 21.605 6.83515 21.605H9.00593C9.37603 21.605 9.73098 21.752 9.99268 22.0137C10.2544 22.2754 10.4014 22.6304 10.4014 23.0005C10.4014 23.3706 10.2544 23.7255 9.99268 23.9872C9.73098 24.2489 9.37603 24.3959 9.00593 24.3959ZM9.96125 14.3173V12.4559H8.09984C7.72974 12.4559 7.37479 12.3089 7.11309 12.0472C6.85139 11.7855 6.70437 11.4306 6.70437 11.0605C6.70437 10.6904 6.85139 10.3354 7.11309 10.0737C7.37479 9.81202 7.72974 9.665 8.09984 9.665H9.96125V7.80312C9.96125 7.43302 10.1083 7.07808 10.37 6.81638C10.6317 6.55468 10.9866 6.40766 11.3567 6.40766C11.7268 6.40766 12.0818 6.55468 12.3435 6.81638C12.6052 7.07808 12.7522 7.43302 12.7522 7.80312V9.66453H14.6136C14.9837 9.66453 15.3386 9.81155 15.6003 10.0733C15.862 10.335 16.0091 10.6899 16.0091 11.06C16.0091 11.4301 15.862 11.785 15.6003 12.0467C15.3386 12.3084 14.9837 12.4555 14.6136 12.4555H12.7522V14.3169C12.7522 14.5001 12.7162 14.6816 12.6461 14.851C12.576 15.0203 12.4732 15.1742 12.3436 15.3038C12.214 15.4334 12.0601 15.5361 11.8908 15.6062C11.7215 15.6764 11.54 15.7124 11.3567 15.7123C11.1735 15.7124 10.992 15.6764 10.8227 15.6063C10.6534 15.5362 10.4996 15.4335 10.37 15.3039C10.2404 15.1744 10.1376 15.0206 10.0675 14.8513C9.99734 14.682 9.96125 14.5006 9.96125 14.3173Z" fill="#148A8B"/>
</svg>
